
<svg xmlns="http://www.w3.org/2000/svg" version="1.1" xmlns:xlink="http://www.w3.org/1999/xlink" preserveAspectRatio="none" x="0px" y="0px" width="144px" height="32px" viewBox="0 0 144 32">
<defs>
<g id="Layer0_0_FILL">
<path fill="#CCCCCC" stroke="none" d="
M 101 9.55
L 91.65 9.55 91.65 22.45 101.15 22.45 101.15 20.9 93.35 20.9 93.35 16.55 100.45 16.55 100.45 15.05 93.35 15.05 93.35 11.1 101 11.1 101 9.55
M 88.25 10.9
Q 87.3 9.55 85 9.55
L 79.45 9.55 79.45 22.45 84.9 22.45
Q 87.5 22.45 88.65 20.95 89.45 19.95 89.45 18.7 89.45 17.2 88.6 16.35 88.1 15.9 87.1 15.5 87.75 15.15 88.15 14.75 88.8 13.95 88.8 12.75 88.8 11.7 88.25 10.9
M 84.3 11
Q 85.45 11 86.05 11.25 87.05 11.7 87.05 12.95 87.05 14.2 86.1 14.7 85.45 15 84.35 15
L 81.15 15 81.15 11 84.3 11
M 81.15 16.4
L 84.65 16.4
Q 85.75 16.4 86.45 16.7 87.7 17.2 87.7 18.6 87.7 19.45 87.25 20 86.55 20.95 84.95 20.95
L 81.15 20.95 81.15 16.4
M 78 9.55
L 75.95 9.55 72.25 15.75 68.5 9.55 66.5 9.55 71.35 17.25 71.35 22.45 73.1 22.45 73.1 17.25 78 9.55
M 67.25 22.45
L 62.55 9.55 60.6 9.55 55.75 22.45 57.5 22.45 58.9 18.6 64 18.6 65.35 22.45 67.25 22.45
M 61.5 11.45
L 63.5 17.15 59.45 17.15 61.5 11.45
M 54.2 9.55
L 51.75 9.55 48.05 20.45 44.35 9.55 41.85 9.55 41.85 22.45 43.5 22.45 43.45 11.55 47.15 22.45 48.9 22.45 52.6 11.55 52.55 22.45 54.2 22.45 54.2 9.55 Z"/>
</g>

<path id="Layer0_1_1_STROKES" stroke="#CCCCCC" stroke-width="2" stroke-linejoin="round" stroke-linecap="round" fill="none" d="
M 17.1 0.95
L 126.85 0.95
Q 133.3 0.95 137.9 5.35 142.5 9.8 142.5 16 142.5 22.2 137.9 26.65 133.3 31.05 126.85 31.05
L 17.1 31.05
Q 10.65 31.05 6.05 26.65 1.45 22.2 1.45 16 1.45 9.8 6.05 5.35 10.65 0.95 17.1 0.95 Z"/>
</defs>

<g transform="matrix( 1, 0, 0, 1, 0,0) ">
<use xlink:href="#Layer0_0_FILL"/>
</g>

<g transform="matrix( 1, 0, 0, 1, 0,0) ">
<use xlink:href="#Layer0_1_1_STROKES"/>
</g>
</svg>
