
<svg xmlns="http://www.w3.org/2000/svg" version="1.1" xmlns:xlink="http://www.w3.org/1999/xlink" preserveAspectRatio="none" x="0px" y="0px" width="144px" height="32px" viewBox="0 0 144 32">
<defs>
<g id="Layer0_0_FILL">
<path fill="#CCCCCC" stroke="none" d="
M 69.55 9.55
L 67.85 9.55 67.85 19.95 61.45 9.55 59.35 9.55 59.35 22.45 61.05 22.45 61.05 12.05 67.55 22.45 69.55 22.45 69.55 9.55
M 82.75 20.6
Q 84.25 18.65 84.25 15.75 84.25 13.1 82.95 11.4 81.3 9.2 77.9 9.2 74.6 9.2 72.95 11.6 71.65 13.45 71.65 16.05 71.65 18.95 73.15 20.85 74.9 22.85 77.85 22.85 81.05 22.85 82.75 20.6
M 81.25 12.15
Q 82.45 13.5 82.45 15.8 82.45 17.95 81.4 19.6 80.4 21.25 78.05 21.25 75.65 21.25 74.55 19.8 73.45 18.35 73.45 16.2 73.45 13.5 74.75 12.1 76 10.75 78 10.75 80.05 10.75 81.25 12.15 Z"/>
</g>

<path id="Layer2_0_1_STROKES" stroke="#CCCCCC" stroke-width="2" stroke-linejoin="round" stroke-linecap="round" fill="none" d="
M 17.1 0.95
L 126.85 0.95
Q 133.3 0.95 137.9 5.35 142.5 9.8 142.5 16 142.5 22.2 137.9 26.65 133.3 31.05 126.85 31.05
L 17.1 31.05
Q 10.65 31.05 6.05 26.65 1.45 22.2 1.45 16 1.45 9.8 6.05 5.35 10.65 0.95 17.1 0.95 Z"/>
</defs>

<g transform="matrix( 1, 0, 0, 1, 0,0) ">
<use xlink:href="#Layer2_0_1_STROKES"/>
</g>

<g transform="matrix( 1, 0, 0, 1, 0,0) ">
<use xlink:href="#Layer0_0_FILL"/>
</g>
</svg>
