<?xml version="1.0" standalone="no"?>
<!DOCTYPE svg PUBLIC "-//W3C//DTD SVG 1.1//EN" "http://www.w3.org/Graphics/SVG/1.1/DTD/svg11.dtd" >
<svg>
<metadata>
Created by FontForge 20090622 at Fri Jul  1 08:06:20 2016
 By deploy user
Copyright (c) 2013 by Thinkdust. All rights reserved.
</metadata>
<defs>
<font id="Nanami-ExtraLight" horiz-adv-x="594" vert-adv-y="2048" >
  <font-face 
    font-family="Nanami"
    font-weight="400"
    font-stretch="normal"
    units-per-em="2048"
    panose-1="0 0 0 0 0 0 0 0 0 0"
    ascent="1520"
    descent="-528"
    x-height="1022"
    cap-height="1534"
    bbox="-68 -504 2511 1812"
    underline-thickness="90"
    underline-position="-133"
    unicode-range="U+0020-U+FB02"
  />
<missing-glyph vert-adv-y="2458" 
d="M59 0v1536h476v-1536h-476zM476 59v1418h-358v-1418h358z" />
    <glyph glyph-name="fi" unicode="fi" horiz-adv-x="940" vert-adv-y="2458" 
d="M205 1016v205q0 98 58 157q55 56 145 56h145v-113h-123q-106 0 -106 -110v-195h282v-113h-282v-903h-119v903h-158v113h158zM749 0v1024h121v-1024h-121zM810 1286q26 0 46 -20t20 -46q0 -27 -20 -47q-19 -20 -46 -20q-28 0 -47 20q-20 20 -20 47t19 46q20 20 48 20z" />
    <glyph glyph-name="fl" unicode="fl" horiz-adv-x="948" vert-adv-y="2458" 
d="M205 1016v205q0 98 58 157q55 56 145 56h145v-113h-123q-106 0 -106 -110v-195h282v-113h-282v-903h-119v903h-158v113h158zM745 0v1432h121v-1432h-121z" />
    <glyph glyph-name=".notdef" vert-adv-y="2458" 
d="M59 0v1536h476v-1536h-476zM476 59v1418h-358v-1418h358z" />
    <glyph glyph-name=".null" horiz-adv-x="0" vert-adv-y="0" 
 />
    <glyph glyph-name="nonmarkingreturn" vert-adv-y="2458" 
 />
    <glyph glyph-name="space" unicode=" " vert-adv-y="2458" 
 />
    <glyph glyph-name="exclam" unicode="!" horiz-adv-x="295" vert-adv-y="2458" 
d="M147 130q29 0 49 -21q20 -20 20 -47q0 -29 -20 -49q-21 -21 -49 -21q-29 0 -49 20q-20 21 -20 49t20 48q20 21 49 21zM211 211h-125v1325h125v-1325z" />
    <glyph glyph-name="quotedbl" unicode="&#x22;" horiz-adv-x="539" vert-adv-y="2458" 
d="M446 940h-104v596h104v-596zM198 940h-104v596h104v-596z" />
    <glyph glyph-name="numbersign" unicode="#" horiz-adv-x="1315" vert-adv-y="2458" 
d="M868 465l-62 -465h-73l63 465h-362l-61 -465l-70 -2l59 467h-299v74h314l53 397h-301v74h315l60 446h71l-57 -446h358l59 446h68l-55 -446h303v-74h-316l-55 -397h303v-74h-315zM864 936h-360l-54 -397h358z" />
    <glyph glyph-name="dollar" unicode="$" horiz-adv-x="928" vert-adv-y="2458" 
d="M70 240l120 18q75 -151 256 -151q120 0 208 87q89 89 89 209q0 135 -120 227q-62 47 -185 99q-170 72 -239 128q-136 109 -136 287q0 144 91 255q85 104 231 143v172h125v-166q200 -20 305 -196l-112 -56q-76 131 -233 131q-115 0 -201 -86q-81 -80 -81 -187
q0 -108 70 -182q54 -57 230 -132q184 -80 253 -144q123 -115 123 -293q0 -158 -103 -276q-94 -107 -251 -137v-178h-125v178q-132 17 -222 94q-76 70 -93 156z" />
    <glyph glyph-name="percent" unicode="%" horiz-adv-x="1792" vert-adv-y="2458" 
d="M442 1536q150 0 258 -107q107 -108 107 -262q0 -153 -107 -260q-108 -108 -261 -108q-154 0 -261 108q-108 107 -108 260t108 262q106 107 264 107zM436 1430q-109 0 -186 -77q-76 -76 -76 -185q0 -111 77 -188t188 -77q109 0 185 76q77 77 77 188t-76 187
q-75 76 -189 76zM1357 735q151 0 258 -107q108 -108 108 -262q0 -153 -108 -260q-107 -108 -261 -108t-261 108q-108 107 -108 260t108 262q106 107 264 107zM1352 631q-109 0 -186 -77t-77 -187q0 -111 77 -188t188 -77q110 0 186 76q77 77 77 188q0 112 -77 189
q-75 76 -188 76zM510 -14l-78 43l828 1519l78 -47z" />
    <glyph glyph-name="ampersand" unicode="&#x26;" horiz-adv-x="1430" vert-adv-y="2458" 
d="M502 946q225 79 225 281q0 86 -55 142q-58 58 -145 58q-93 0 -155 -62q-60 -59 -60 -144q0 -88 73 -171q26 -30 65 -63q50 -42 52 -41zM490 784q-289 -161 -289 -361q0 -132 92 -224q93 -93 227 -93q191 0 297 205l54 103l-46 46zM1362 90l-76 -92q-64 59 -323 324
q-84 -175 -172 -248q-106 -90 -265 -90q-193 0 -323 130q-127 126 -127 305q0 164 124 299q68 74 195 156q-90 81 -126 125q-80 99 -80 219q0 139 95 235q98 97 243 97q137 0 231 -93q92 -92 92 -228q0 -148 -94 -253q-52 -58 -158 -122l332 -330l209 389q37 -18 111 -59
l-218 -401l-12 -21z" />
    <glyph glyph-name="quotesingle" unicode="'" horiz-adv-x="285" vert-adv-y="2458" 
d="M198 942h-104v594h104v-594z" />
    <glyph glyph-name="parenleft" unicode="(" horiz-adv-x="479" vert-adv-y="2458" 
d="M404 -111l-86 -79q-238 187 -238 507v805q1 321 238 508l86 -80q-99 -93 -144 -178q-53 -104 -55 -274v-756q2 -178 64 -290q43 -76 135 -163z" />
    <glyph glyph-name="parenright" unicode=")" horiz-adv-x="473" vert-adv-y="2458" 
d="M164 -190l-86 79q98 94 143 179q54 106 56 274v756q-2 178 -64 288q-44 78 -135 164l86 80q237 -188 238 -508v-805q-1 -319 -238 -507z" />
    <glyph glyph-name="asterisk" unicode="*" horiz-adv-x="885" vert-adv-y="2458" 
d="M131 1319l84 82l97 -116l97 -117l-24 307h114l-26 -309l196 235l82 -84l-233 -196l309 24v-112l-309 24l235 -194l-84 -82l-196 233l26 -309h-114l24 307l-196 -233l-82 84l116 97l117 97l-307 -24v112l309 -24l-117 99z" />
    <glyph glyph-name="plus" unicode="+" horiz-adv-x="1032" vert-adv-y="2458" 
d="M563 475v-428h-96v428h-428v96h428v424h96v-424h430v-96h-430z" />
    <glyph glyph-name="comma" unicode="," horiz-adv-x="244" vert-adv-y="2458" 
d="M133 -158l-92 387l121 13l12 -398z" />
    <glyph glyph-name="hyphen" unicode="-" horiz-adv-x="807" vert-adv-y="2458" 
d="M715 649v-100h-623v100h623z" />
    <glyph glyph-name="period" unicode="." horiz-adv-x="274" vert-adv-y="2458" 
d="M139 120q24 0 44 -20q19 -19 19 -44q0 -26 -19 -45q-18 -19 -44 -19q-27 0 -47 19q-18 19 -18 45q0 25 19 44q19 20 46 20z" />
    <glyph glyph-name="slash" unicode="/" horiz-adv-x="600" vert-adv-y="2458" 
d="M121 -6l-86 27l446 1525l86 -22z" />
    <glyph glyph-name="zero" unicode="0" horiz-adv-x="1229" vert-adv-y="2458" 
d="M139 457v620q0 190 140 330q141 141 333 141q195 0 337 -143q138 -137 138 -328v-620q0 -189 -139 -329q-142 -142 -334 -142q-193 0 -335 141q-140 139 -140 330zM262 1075v-618q0 -137 105 -242q105 -106 248 -106q141 0 243 102q102 103 102 246v618q0 141 -102 244
q-103 102 -244 102q-145 0 -249 -105q-103 -103 -103 -241z" />
    <glyph glyph-name="one" unicode="1" horiz-adv-x="1229" vert-adv-y="2458" 
d="M672 1421h-246v115h373v-1536h-127v1421z" />
    <glyph glyph-name="two" unicode="2" horiz-adv-x="1229" vert-adv-y="2458" 
d="M1098 125v-125h-924q-2 32 -6 74q-3 22 -4 32l528 529q127 126 186 208q97 133 97 258q0 130 -94 225q-95 95 -233 95q-246 0 -355 -264l-76 88q49 115 128 185q129 114 306 114q195 0 323 -128q124 -124 124 -309q0 -235 -244 -478l-504 -504h748z" />
    <glyph glyph-name="three" unicode="3" horiz-adv-x="1229" vert-adv-y="2458" 
d="M293 1280l-53 109q171 163 369 163q187 0 304 -116q105 -105 105 -254q0 -137 -99 -240q-35 -37 -82 -61q-19 -10 -23 -14q0 -3 27 -15q31 -13 80 -45q74 -48 127 -131q60 -95 60 -218q0 -200 -134 -334q-137 -136 -350 -136q-230 0 -417 172l59 108q163 -157 351 -157
q160 0 261 101q103 102 103 252q0 126 -91 219q-112 115 -292 118l-141 2v106l133 2q145 3 232 93q71 73 71 176q0 102 -69 171q-82 82 -221 82q-169 0 -310 -153z" />
    <glyph glyph-name="four" unicode="4" horiz-adv-x="1229" vert-adv-y="2458" 
d="M1114 432v-125h-171q-17 0 -17 -17v-290h-125v290q0 17 -17 17h-669v113l711 1116h100v-1087q0 -17 17 -17h171zM261 435q1 -3 3 -3h520q17 0 17 17v778q0 37 -2 53z" />
    <glyph glyph-name="five" unicode="5" horiz-adv-x="1229" vert-adv-y="2458" 
d="M338 954q131 64 254 64q218 0 369 -152q152 -151 152 -366q0 -214 -151 -364q-151 -152 -367 -152q-319 0 -480 331l115 37q41 -99 111 -156q107 -89 253 -89q165 0 278 113q116 114 116 280t-116 280q-113 113 -278 113h-6q-195 0 -303 -90l-84 80l123 653h674v-123
h-549q-23 0 -33 -27q-32 -189 -78 -432z" />
    <glyph glyph-name="six" unicode="6" horiz-adv-x="1229" vert-adv-y="2458" 
d="M459 1004q79 30 158 30q219 0 371 -151q151 -151 151 -374t-151 -374t-373 -151q-225 0 -376 150q-151 149 -151 374q0 163 90 299l492 741l108 -65zM610 909q-167 0 -282 -115q-115 -116 -115 -286q0 -171 115 -285q114 -114 286 -114q170 0 285 115q115 114 115 283
q0 166 -117 285q-115 117 -287 117z" />
    <glyph glyph-name="seven" unicode="7" horiz-adv-x="1229" vert-adv-y="2458" 
d="M885 1411q-1 2 -6 2h-682v123h831l23 -68l-662 -1479l-118 50z" />
    <glyph glyph-name="eight" unicode="8" horiz-adv-x="1229" vert-adv-y="2458" 
d="M811 850q263 -141 263 -407q0 -190 -136 -325q-136 -134 -325 -134q-191 0 -326 136q-135 135 -135 323q0 252 258 407q-182 128 -182 316q0 159 114 273q113 113 270 113t273 -115q111 -111 111 -261q0 -185 -185 -326zM610 784q-136 0 -234 -99q-101 -100 -101 -240
t99 -239t239 -99q139 0 238 100q100 100 100 239q0 140 -99 240q-98 98 -242 98zM611 1427q-106 0 -183 -78q-77 -77 -77 -185q0 -111 78 -189q76 -76 184 -76q107 0 182 76q78 79 78 189q0 108 -76 186q-76 77 -186 77z" />
    <glyph glyph-name="nine" unicode="9" horiz-adv-x="1229" vert-adv-y="2458" 
d="M768 524q-78 -28 -156 -28q-221 0 -373 151q-151 150 -151 374q0 223 152 375q151 150 371 150q226 0 377 -151t151 -373q0 -158 -93 -299l-487 -741l-106 65zM609 1421q-166 0 -281 -114q-115 -115 -115 -284q0 -168 117 -285q116 -117 284 -117q169 0 284 115
q116 115 116 286q0 169 -116 285q-114 114 -289 114z" />
    <glyph glyph-name="colon" unicode=":" horiz-adv-x="229" vert-adv-y="2458" 
d="M114 120q24 0 44 -20q19 -19 19 -44q0 -26 -19 -45q-18 -19 -44 -19q-27 0 -47 19q-18 19 -18 45q0 25 19 44q19 20 46 20zM114 898q25 0 44 -20q19 -19 19 -44q0 -26 -19 -45q-18 -19 -44 -19q-28 0 -47 19q-18 19 -18 45q0 25 19 44q19 20 46 20z" />
    <glyph glyph-name="semicolon" unicode=";" horiz-adv-x="227" vert-adv-y="2458" 
d="M116 897q25 0 45 -19q19 -20 19 -45q0 -26 -19 -44q-18 -19 -45 -19q-26 0 -44 19q-19 18 -19 45q0 25 19 44q18 19 44 19zM135 -158l-92 387l121 13l10 -398z" />
    <glyph glyph-name="less" unicode="&#x3c;" horiz-adv-x="1243" vert-adv-y="2458" 
d="M192 514l967 -404l-33 -79l-1079 436v100l1079 437l33 -80z" />
    <glyph glyph-name="equal" unicode="=" horiz-adv-x="1096" vert-adv-y="2458" 
d="M1003 682v-100h-911v100h911zM1003 436v-100h-911v100h911z" />
    <glyph glyph-name="greater" unicode="&#x3e;" horiz-adv-x="1276" vert-adv-y="2458" 
d="M1030 514l-965 410l33 80l1077 -437v-100l-1077 -436l-33 79z" />
    <glyph glyph-name="question" unicode="?" horiz-adv-x="860" vert-adv-y="2458" 
d="M389 125q27 0 47 -20t20 -47t-19 -46q-20 -20 -49 -20q-27 0 -46 19t-19 46q0 29 20 49q19 19 46 19zM155 1223l-98 71q36 91 104 151q112 99 262 99q166 0 277 -111q105 -107 105 -263q0 -113 -60 -208q-51 -81 -192 -196q-88 -72 -142 -136q-63 -74 -63 -168
q0 -110 100 -173l-90 -66q-135 71 -135 225q0 111 65 214q49 78 184 192q90 75 143 140q63 77 63 181q0 103 -70 172q-72 72 -185 72q-179 0 -268 -196z" />
    <glyph glyph-name="at" unicode="@" horiz-adv-x="1761" vert-adv-y="2458" 
d="M1024 672l39 149q8 30 8 64q0 82 -52 134t-126 52q-128 0 -221 -130q-88 -122 -88 -286q0 -229 181 -229q90 0 165 77q69 70 94 169zM1465 182q-271 -198 -582 -198q-377 0 -604 226q-205 203 -205 504q0 327 252 577q265 263 636 263q345 0 553 -207q173 -173 173 -413
q0 -220 -139 -394q-144 -180 -347 -180q-171 0 -178 177q-135 -177 -287 -177q-107 0 -175 68q-78 78 -78 223q0 195 117 341q115 143 278 143q76 0 124 -28q50 -30 93 -116l63 127l72 -12l-127 -504q-6 -24 -6 -55q0 -109 118 -109q161 0 276 161q108 151 108 333
q0 254 -208 404q-179 130 -438 130q-327 0 -560 -232q-120 -121 -182 -276q-50 -127 -50 -249v-4q0 -250 178 -428q207 -207 536 -207q299 0 552 161z" />
    <glyph glyph-name="A" unicode="A" horiz-adv-x="1237" vert-adv-y="2458" 
d="M298 373l-130 -373h-133l535 1536h94l534 -1536h-131l-130 373h-639zM894 498l-276 807l-277 -807h553z" />
    <glyph glyph-name="B" unicode="B" horiz-adv-x="1010" vert-adv-y="2458" 
d="M663 794q110 -42 174 -117q97 -112 97 -269q0 -174 -115 -289q-119 -119 -305 -119h-420v1536h303q186 0 308 -121q118 -117 118 -296q0 -195 -160 -325zM219 700v-577h297q128 0 210 82q83 84 83 204q0 126 -87 211q-81 80 -206 80h-297zM219 825h180q130 0 213 83
q86 86 86 212q0 124 -84 208q-83 83 -215 83h-180v-586z" />
    <glyph glyph-name="C" unicode="C" horiz-adv-x="1466" vert-adv-y="2458" 
d="M1383 178q-215 -194 -518 -194q-327 0 -558 230t-231 552q0 324 230 555q231 231 559 231q303 0 520 -196l-80 -101q-196 172 -444 172q-274 0 -466 -192q-194 -194 -194 -466q0 -265 196 -461q199 -199 468 -199q243 0 440 170z" />
    <glyph glyph-name="D" unicode="D" horiz-adv-x="1341" vert-adv-y="2458" 
d="M94 1536h404q317 0 540 -223q225 -225 225 -545q0 -321 -225 -545q-223 -223 -540 -223h-404v1536zM219 125h279q263 0 452 190q188 190 188 453q0 264 -189 454q-189 189 -453 189h-277v-1286z" />
    <glyph glyph-name="E" unicode="E" horiz-adv-x="911" vert-adv-y="2458" 
d="M825 735h-604v-610h604v-125h-729v1536h729v-125h-604v-551h604v-125z" />
    <glyph glyph-name="F" unicode="F" horiz-adv-x="913" vert-adv-y="2458" 
d="M219 735v-735h-125v1536h735v-125h-610v-551h610v-125h-610z" />
    <glyph glyph-name="G" unicode="G" horiz-adv-x="1638" vert-adv-y="2458" 
d="M1505 766v-442q-216 -340 -632 -340q-330 0 -560 229q-229 230 -229 555t229 555q230 229 557 229q300 0 533 -213l-88 -90q-195 178 -446 178q-273 0 -466 -193q-194 -193 -194 -466q0 -272 194 -465q194 -194 469 -194q209 0 369 110q77 53 135 139v283h-573v125h702z
" />
    <glyph glyph-name="H" unicode="H" horiz-adv-x="1139" vert-adv-y="2458" 
d="M919 829v707h125v-1536h-125v704h-702v-704h-125v1536h125v-707h702z" />
    <glyph glyph-name="I" unicode="I" horiz-adv-x="303" vert-adv-y="2458" 
d="M217 0h-125v1534h125v-1534z" />
    <glyph glyph-name="J" unicode="J" horiz-adv-x="819" vert-adv-y="2458" 
d="M158 289q23 -82 81 -129q64 -51 144 -51q97 0 167 70q69 68 69 161v1198h125v-1196q0 -148 -105 -253q-106 -105 -256 -105q-124 0 -219 76q-87 69 -125 194z" />
    <glyph glyph-name="K" unicode="K" horiz-adv-x="870" vert-adv-y="2458" 
d="M209 682v-682h-125v1536h125v-694l453 694h146l-505 -774l500 -762h-149z" />
    <glyph glyph-name="L" unicode="L" horiz-adv-x="881" vert-adv-y="2458" 
d="M217 125h608v-125h-733v1536h125v-1411z" />
    <glyph glyph-name="M" unicode="M" horiz-adv-x="1493" vert-adv-y="2458" 
d="M217 1303v-1303h-125v1534h162l442 -1192l49 -121l52 121l442 1192h162v-1534h-125v1300l-483 -1300h-92z" />
    <glyph glyph-name="N" unicode="N" horiz-adv-x="1278" vert-adv-y="2458" 
d="M217 1330v-111v-1219h-125v1534h141l828 -1331v1333h125v-1536h-144z" />
    <glyph glyph-name="O" unicode="O" horiz-adv-x="1718" vert-adv-y="2458" 
d="M865 1552q319 0 549 -229q229 -230 229 -555t-229 -555q-230 -229 -555 -229q-326 0 -556 229q-229 230 -229 554t229 556q228 229 562 229zM854 1427q-268 0 -461 -193q-194 -193 -194 -465q0 -273 194 -466q194 -194 466 -194q274 0 467 194q192 192 192 465
q0 272 -192 466q-191 193 -472 193z" />
    <glyph glyph-name="P" unicode="P" horiz-adv-x="874" vert-adv-y="2458" 
d="M217 663v-663h-125v1536h299q179 0 301 -123q125 -126 125 -312q0 -187 -127 -315q-122 -123 -299 -123h-174zM217 1411v-625h176q149 0 235 120q64 89 64 196q0 115 -72 204q-86 105 -227 105h-176z" />
    <glyph glyph-name="Q" unicode="Q" horiz-adv-x="1720" vert-adv-y="2458" 
d="M1389 193l115 -119l-93 -88l-118 127q-206 -129 -433 -129q-327 0 -557 229q-229 230 -229 555t229 555q230 229 556 229q325 0 555 -229q229 -229 229 -555q0 -328 -254 -575zM1303 283q215 204 215 484q0 274 -192 467q-193 193 -467 193q-273 0 -466 -193
q-194 -193 -194 -465q0 -273 194 -466q193 -194 466 -194q178 0 343 96l-235 248l90 88z" />
    <glyph glyph-name="R" unicode="R" horiz-adv-x="1001" vert-adv-y="2458" 
d="M588 668l391 -668h-147l-344 581q-28 44 -46 64h-235v-645h-127v1536h346q196 0 322 -126q125 -126 125 -317q0 -284 -285 -425zM207 1411v-641h217q142 0 231 89q93 92 93 234q0 139 -91 230q-89 88 -231 88h-219z" />
    <glyph glyph-name="S" unicode="S" horiz-adv-x="946" vert-adv-y="2458" 
d="M80 240l121 18q75 -151 256 -151q120 0 208 87q89 89 89 209q0 134 -118 225q-63 49 -187 101q-170 72 -239 128q-136 109 -136 287q0 168 119 288q120 120 285 120q220 0 348 -200l-113 -56q-76 131 -232 131q-115 0 -201 -86q-81 -80 -81 -189q0 -136 109 -216
q42 -30 189 -96q191 -84 255 -144q123 -115 123 -293q0 -175 -124 -297q-123 -122 -296 -122q-161 0 -272 93q-79 66 -103 163z" />
    <glyph glyph-name="T" unicode="T" horiz-adv-x="1067" vert-adv-y="2458" 
d="M594 1411v-1411h-125v1411h-424v125h977v-125h-428z" />
    <glyph glyph-name="U" unicode="U" horiz-adv-x="1030" vert-adv-y="2458" 
d="M942 1536v-1128q0 -174 -124 -298q-126 -126 -305 -126q-177 0 -302 125q-125 124 -125 301v1126h125v-1118q0 -131 91 -222q88 -89 212 -89q126 0 214 89q89 89 89 218v1122h125z" />
    <glyph glyph-name="V" unicode="V" horiz-adv-x="1221" vert-adv-y="2458" 
d="M610 221l446 1313l134 2l-533 -1536h-94l-533 1536h135z" />
    <glyph glyph-name="W" unicode="W" horiz-adv-x="1786" vert-adv-y="2458" 
d="M1272 244l327 1290h133l-409 -1534h-103l-330 1259l-327 -1259h-100l-412 1536h131l330 -1292l327 1292h101z" />
    <glyph glyph-name="X" unicode="X" horiz-adv-x="1198" vert-adv-y="2458" 
d="M598 643l-402 -643h-149l473 766l-471 770h145l406 -645l405 645h146l-477 -770l475 -766h-148z" />
    <glyph glyph-name="Y" unicode="Y" horiz-adv-x="1012" vert-adv-y="2458" 
d="M570 557v-557h-125v557l-416 979h135l342 -809l342 809h135z" />
    <glyph glyph-name="Z" unicode="Z" horiz-adv-x="1098" vert-adv-y="2458" 
d="M61 0l-2 100l811 1311h-817v125h983v-96l-818 -1315h824v-125h-981z" />
    <glyph glyph-name="bracketleft" unicode="[" horiz-adv-x="485" vert-adv-y="2458" 
d="M209 -203h207v-98h-328v1960h328v-98h-207v-1764z" />
    <glyph glyph-name="backslash" unicode="\" horiz-adv-x="600" vert-adv-y="2458" 
d="M567 21l-86 -27l-446 1530l86 22z" />
    <glyph glyph-name="bracketright" unicode="]" horiz-adv-x="455" vert-adv-y="2458" 
d="M281 1561h-207v98h328v-1960h-328v98h207v1764z" />
    <glyph glyph-name="asciicircum" unicode="^" horiz-adv-x="999" vert-adv-y="2458" 
d="M497 1370l-321 -610l-115 39l387 733h98l389 -731l-114 -41z" />
    <glyph glyph-name="underscore" unicode="_" horiz-adv-x="1317" vert-adv-y="2458" 
d="M0 -133h1317v-90h-1317v90z" />
    <glyph glyph-name="grave" unicode="`" horiz-adv-x="537" vert-adv-y="2458" 
d="M487 1218l-37 -83l-403 166l37 81z" />
    <glyph glyph-name="a" unicode="a" horiz-adv-x="1210" vert-adv-y="2458" 
d="M1008 836v188h121v-1024h-121v186q-162 -202 -406 -202q-221 0 -375 155q-155 154 -155 375q0 217 153 371q155 155 377 155q245 0 406 -204zM598 919q-169 0 -288 -120q-117 -118 -117 -285q0 -172 119 -290q118 -119 290 -119q168 0 286 117q120 119 120 291
q0 169 -118 288q-117 118 -292 118z" />
    <glyph glyph-name="b" unicode="b" horiz-adv-x="1208" vert-adv-y="2458" 
d="M209 186v-186h-121v1434h121v-598q158 204 406 204q221 0 377 -155q153 -154 153 -371q0 -221 -155 -375q-154 -155 -375 -155q-247 0 -406 202zM612 919q-167 0 -285 -118t-118 -287q0 -173 120 -292q118 -117 286 -117q172 0 290 119q119 118 119 289q0 168 -117 286
q-118 120 -295 120z" />
    <glyph glyph-name="c" unicode="c" horiz-adv-x="1141" vert-adv-y="2458" 
d="M946 729q-123 190 -343 190q-174 0 -293 -120q-117 -117 -117 -285q0 -172 119 -290q118 -119 291 -119q233 0 352 202l110 -45q-152 -278 -462 -278q-222 0 -376 155q-155 154 -155 375q0 217 153 371q155 155 376 155q264 0 442 -241z" />
    <glyph glyph-name="d" unicode="d" horiz-adv-x="1180" vert-adv-y="2458" 
d="M983 836v598h121v-1434h-121v186q-160 -202 -406 -202q-221 0 -375 155q-155 154 -155 375q0 217 153 371q156 155 377 155q248 0 406 -204zM573 919q-169 0 -288 -120q-117 -118 -117 -285q0 -172 119 -290q118 -119 290 -119q168 0 286 117q120 119 120 291
q0 169 -118 288q-117 118 -292 118z" />
    <glyph glyph-name="e" unicode="e" horiz-adv-x="1122" vert-adv-y="2458" 
d="M936 567q-15 163 -114 258q-98 94 -239 94q-148 0 -257 -97q-102 -92 -129 -255h739zM195 459q28 -161 132 -252q116 -102 277 -102q188 0 340 118l52 -98q-177 -141 -391 -141q-223 0 -378 155q-155 154 -155 376q0 225 153 378q147 147 360 147q196 0 327 -132
q149 -148 149 -375q0 -14 -1 -39q-1 -19 -1 -35h-864z" />
    <glyph glyph-name="f" unicode="f" horiz-adv-x="657" vert-adv-y="2458" 
d="M205 1016v205q0 98 58 157q55 56 145 56h145v-113h-123q-106 0 -106 -110v-195h282v-113h-282v-903h-119v903h-158v113h158z" />
    <glyph glyph-name="g" unicode="g" horiz-adv-x="1204" vert-adv-y="2458" 
d="M605 920q-167 0 -285 -118q-119 -120 -119 -291q0 -169 118 -288t289 -119q172 0 290 119t118 287q0 171 -119 292q-117 118 -292 118zM183 -293l94 72q124 -158 321 -158q170 0 289 119t119 287v161q-157 -202 -406 -202q-223 0 -378 155q-152 153 -152 369
q0 221 155 376q154 154 375 154q246 0 406 -202v186h121v-1008q0 -205 -152 -356q-157 -158 -376 -158q-249 0 -416 205z" />
    <glyph glyph-name="h" unicode="h" horiz-adv-x="995" vert-adv-y="2458" 
d="M209 907q127 133 299 133q177 0 303 -125q119 -118 119 -280v-635h-119v625q0 120 -89 207q-89 89 -216 89q-135 0 -219 -84q-78 -78 -78 -206v-631h-121v1434h121v-527z" />
    <glyph glyph-name="i" unicode="i" horiz-adv-x="272" vert-adv-y="2458" 
d="M76 0v1024h121v-1024h-121zM137 1286q26 0 46 -20t20 -46q0 -27 -20 -47q-19 -20 -46 -20q-28 0 -47 20q-20 19 -20 47q0 27 19 46q20 20 48 20z" />
    <glyph glyph-name="j" unicode="j" horiz-adv-x="391" vert-adv-y="2458" 
d="M261 1286q26 0 46 -20q19 -19 19 -46q0 -28 -19 -48q-19 -19 -46 -19q-28 0 -48 20t-20 47t20 46q19 20 48 20zM320 1024v-1346q0 -73 -65 -120q-64 -45 -146 -45q-31 0 -57 8l25 110q10 -1 16 -1q27 0 54 13q55 25 55 83v1298h118z" />
    <glyph glyph-name="k" unicode="k" horiz-adv-x="688" vert-adv-y="2458" 
d="M209 587l311 437h148l-350 -492l360 -532h-145l-324 481v-481h-119v1434h119v-847z" />
    <glyph glyph-name="l" unicode="l" horiz-adv-x="291" vert-adv-y="2458" 
d="M88 0v1432h121v-1432h-121z" />
    <glyph glyph-name="m" unicode="m" horiz-adv-x="1741" vert-adv-y="2458" 
d="M870 836q131 204 361 204q175 0 301 -124q121 -120 121 -285v-631h-119v618q0 122 -89 211q-90 90 -214 90q-123 0 -213 -87q-90 -86 -90 -197v-635h-117v625q0 120 -89 207q-89 89 -216 89q-136 0 -220 -84q-77 -77 -77 -204v-633h-121v1024h121v-117q127 133 299 133
q229 0 362 -204z" />
    <glyph glyph-name="n" unicode="n" horiz-adv-x="1016" vert-adv-y="2458" 
d="M209 907q127 133 299 133q177 0 303 -125q119 -118 119 -280v-635h-119v625q0 120 -89 207q-89 89 -216 89q-135 0 -219 -84q-78 -78 -78 -206v-631h-121v1024l121 -2v-115z" />
    <glyph glyph-name="o" unicode="o" horiz-adv-x="1200" vert-adv-y="2458" 
d="M607 1040q214 0 368 -154t154 -372q0 -222 -155 -377q-154 -153 -372 -153q-221 0 -375 155q-155 154 -155 374q0 217 153 372q154 155 382 155zM598 919q-169 0 -288 -120q-117 -118 -117 -285q0 -172 119 -290q118 -119 290 -119q168 0 286 117q120 119 120 291
q0 169 -118 288q-117 118 -292 118z" />
    <glyph glyph-name="p" unicode="p" horiz-adv-x="1208" vert-adv-y="2458" 
d="M209 188v-608h-121v1444h121v-186q159 202 406 202q221 0 375 -154q155 -155 155 -376q0 -217 -153 -371q-155 -155 -377 -155q-248 0 -406 204zM611 919q-164 0 -282 -117q-120 -119 -120 -292q0 -169 118 -287q119 -118 288 -118q173 0 292 120q117 117 117 285
q0 171 -119 290q-117 119 -294 119z" />
    <glyph glyph-name="q" unicode="q" horiz-adv-x="1180" vert-adv-y="2458" 
d="M1010 838v186h121v-1442h-121v606q-157 -202 -406 -202q-223 0 -378 155q-152 153 -152 369q0 221 155 376q154 154 375 154q246 0 406 -202zM601 919q-169 0 -287 -119q-119 -118 -119 -289q0 -169 117 -286q119 -120 292 -120q169 0 288 118q118 118 118 287
q0 172 -120 292q-117 117 -289 117z" />
    <glyph glyph-name="r" unicode="r" horiz-adv-x="655" vert-adv-y="2458" 
d="M88 0v1024q12 -1 38 -2q40 -2 83 -2v-113q109 127 317 131h17q40 0 57 -2q0 -50 -4 -121q-13 1 -31 2q-11 0 -24 1h-12q-104 0 -192 -51q-128 -73 -128 -236v-631h-121z" />
    <glyph glyph-name="s" unicode="s" horiz-adv-x="684" vert-adv-y="2458" 
d="M492 842q-69 77 -142 77q-71 0 -113 -58q-32 -45 -32 -100q0 -54 51 -98q34 -29 113 -77q130 -81 178 -139q64 -80 64 -189q0 -117 -78 -194q-81 -80 -203 -80q-107 0 -191 67q-40 32 -63 76l102 61q63 -85 151 -85q69 0 115 46q46 47 46 111q0 79 -71 145
q-45 42 -146 101q-95 55 -133 96q-60 64 -60 158q0 116 82 199q81 81 192 81q152 0 236 -125z" />
    <glyph glyph-name="t" unicode="t" horiz-adv-x="782" vert-adv-y="2458" 
d="M332 1016v301h119v-301h290v-113h-290v-903h-119v903h-293v113h293z" />
    <glyph glyph-name="u" unicode="u" horiz-adv-x="1010" vert-adv-y="2458" 
d="M807 119q-126 -135 -303 -135t-302 125q-120 120 -120 282v631h121v-621q0 -120 87 -207q89 -89 217 -89q136 0 220 85q78 78 78 203v629h119v-1022h-117v119z" />
    <glyph glyph-name="v" unicode="v" horiz-adv-x="883" vert-adv-y="2458" 
d="M440 197l277 827h129l-356 -1024h-99l-354 1024h129z" />
    <glyph glyph-name="w" unicode="w" horiz-adv-x="1516" vert-adv-y="2458" 
d="M758 799l-267 -799h-98l-344 1024h129l266 -822l269 822h92l267 -826l265 826h129l-344 -1024h-102z" />
    <glyph glyph-name="x" unicode="x" horiz-adv-x="866" vert-adv-y="2458" 
d="M432 397l-251 -397h-142l322 510l-326 514h146l251 -403l252 401h142l-322 -512l324 -510h-145z" />
    <glyph glyph-name="y" unicode="y" horiz-adv-x="895" vert-adv-y="2458" 
d="M451 182l297 844h129l-516 -1448h-125l151 426l-360 1020h131z" />
    <glyph glyph-name="z" unicode="z" horiz-adv-x="850" vert-adv-y="2458" 
d="M228 113h551v-113h-709v84l553 825h-549v115h701v-95z" />
    <glyph glyph-name="braceleft" unicode="{" horiz-adv-x="717" vert-adv-y="2458" 
d="M98 623v145q194 15 195 301v260q-1 248 117 320q57 34 218 32v-114q-129 -11 -177 -66q-41 -50 -43 -170v-248q0 -240 -87 -322q-41 -40 -95 -61q-11 -3 -23 -4q60 -12 110 -57q55 -49 76 -129q19 -63 19 -203v-246q2 -148 76 -198q46 -29 144 -37q0 -40 -2 -79v-36
q-85 0 -137 8q-97 16 -139 81q-55 85 -57 263v261q0 284 -195 299z" />
    <glyph glyph-name="bar" unicode="|" horiz-adv-x="283" vert-adv-y="2458" 
d="M88 -20v1597h113v-1597h-113z" />
    <glyph glyph-name="braceright" unicode="}" horiz-adv-x="735" vert-adv-y="2458" 
d="M628 768v-145q-89 -10 -136 -65q-56 -68 -58 -234v-261q1 -248 -117 -319q-59 -34 -217 -33q0 40 -2 79v36q129 11 178 67q41 50 43 168v246q0 210 60 294q29 39 92 74q35 18 53 21q-20 -1 -72 31q-70 41 -100 114q-32 76 -33 242v248q-2 128 -54 181q-50 45 -167 55v114
q87 0 141 -8q191 -19 195 -344v-260q0 -287 194 -301z" />
    <glyph glyph-name="asciitilde" unicode="~" horiz-adv-x="1221" vert-adv-y="2458" 
d="M1141 582q-4 -48 -56 -105q-79 -86 -210 -88h-17q-85 2 -266 84q-142 64 -213 74h-29q-136 -2 -213 -139l-59 43q3 46 58 105q84 88 214 89h27q80 -4 252 -83q144 -66 217 -75h8q91 0 161 57q41 33 67 83z" />
    <glyph glyph-name="nonbreakingspace" unicode="&#xa0;" vert-adv-y="2458" 
 />
    <glyph glyph-name="exclamdown" unicode="&#xa1;" horiz-adv-x="295" vert-adv-y="2458" 
d="M147 1537q28 0 49 -21q20 -21 20 -49q0 -27 -20 -47q-20 -21 -49 -21t-49 21q-20 19 -20 47q0 29 20 50q20 20 49 20zM86 1317h125v-1325h-125v1325z" />
    <glyph glyph-name="cent" unicode="&#xa2;" horiz-adv-x="1112" vert-adv-y="2458" 
d="M512 911q-153 -35 -240 -138q-92 -111 -92 -260q0 -152 94 -263q85 -102 238 -137v798zM512 -178v170q-208 39 -326 174q-129 147 -129 347q0 197 129 344q119 137 326 176v184h121v-180q243 -22 395 -238l-96 -70q-96 166 -299 187v-809q215 24 307 200l113 -45
q-63 -118 -171 -191q-111 -71 -249 -83v-166h-121z" />
    <glyph glyph-name="sterling" unicode="&#xa3;" horiz-adv-x="1190" vert-adv-y="2458" 
d="M998 402l85 -2q4 0 38 -1q-2 -397 -481 -399h-508v125h49q47 0 111 34q128 68 128 212q0 149 -167 381h-144v100h95q-52 118 -52 223q0 203 138 341q136 136 336 136q224 0 384 -182l-100 -74q-105 129 -280 129q-148 0 -251 -103q-100 -99 -100 -242q0 -137 58 -228h450
v-100h-403q161 -242 161 -377q0 -142 -124 -248h294q129 0 206 76q72 76 77 199z" />
    <glyph glyph-name="currency" unicode="&#xa4;" horiz-adv-x="1260" vert-adv-y="2458" 
d="M334 334l-192 -184l-62 61l189 188l-23 33q-82 119 -82 260q0 150 84 264l23 31l-193 193l66 63l190 -192l33 22q125 86 265 86q67 0 131 -22q86 -29 130 -64l31 -24l184 182l73 -55l-192 -191q107 -146 107 -293q0 -146 -107 -291l191 -190l-64 -66l-190 193
q-126 -111 -298 -111q-65 0 -131 21q-84 28 -132 63zM627 1057q-141 0 -250 -108q-107 -107 -107 -256q0 -157 120 -266q104 -94 241 -94q157 0 265 120q94 104 94 241q0 158 -120 268q-104 95 -243 95z" />
    <glyph glyph-name="yen" unicode="&#xa5;" horiz-adv-x="1249" vert-adv-y="2458" 
d="M741 678h451v-100h-496l-6 -21v-557h-125v557l-10 21h-500v100h459l-97 226h-362v100h317l-223 532h133l345 -809l45 105l297 704h137l-227 -532h313v-100h-357z" />
    <glyph glyph-name="brokenbar" unicode="&#xa6;" horiz-adv-x="283" vert-adv-y="2458" 
d="M88 928v649h113v-649h-113zM88 -23v648h113v-648h-113z" />
    <glyph glyph-name="section" unicode="&#xa7;" horiz-adv-x="1135" vert-adv-y="2458" 
d="M693 145q241 102 241 263q0 110 -103 176q-33 22 -427 196l-29 -22q-176 -139 -176 -256t119 -197q75 -51 271 -121q70 -25 104 -39zM779 74q72 -54 101 -95q48 -66 48 -159q0 -157 -124 -247q-107 -77 -271 -77q-171 0 -313 89q-63 40 -105 96l88 94l35 -31
q58 -52 81 -67q75 -46 189 -46q98 0 168 30q117 51 117 161q0 99 -101 171q-62 45 -257 122l-78 30q-289 114 -289 353q0 104 70 192q49 61 174 162q-82 59 -115 112q-35 55 -35 129q0 160 128 251q111 79 275 79q147 0 288 -58q69 -28 122 -73q-14 -21 -44 -59l-44 -59
l-55 43q-95 73 -245 73q-110 0 -186 -43q-96 -54 -96 -156q0 -66 48 -117q51 -52 223 -134q35 -17 206 -94q290 -132 290 -334q0 -100 -69 -180q-63 -72 -224 -158z" />
    <glyph glyph-name="dieresis" unicode="&#xa8;" horiz-adv-x="580" vert-adv-y="2458" 
d="M147 1310q23 0 43 -16q24 -20 24 -49q0 -27 -20 -47q-19 -20 -47 -20q-27 0 -46 19t-19 48q0 27 19 45q19 20 46 20zM431 1309q26 0 46 -20q19 -19 19 -44q0 -28 -20 -48q-19 -19 -46 -19t-45 19q-20 19 -20 48q0 26 19 44q20 20 47 20z" />
    <glyph glyph-name="copyright" unicode="&#xa9;" horiz-adv-x="1628" vert-adv-y="2458" 
d="M824 1481q300 0 515 -215q218 -217 218 -528q0 -308 -216 -525q-217 -217 -524 -217q-305 0 -525 219t-220 522q0 305 220 526q218 218 532 218zM810 1393q-268 0 -459 -191t-191 -464q0 -272 191 -463t464 -191q278 0 474 196q190 191 190 458t-192 460
q-193 195 -477 195zM1149 385q-114 -115 -298 -115q-199 0 -338 139q-136 136 -136 326q0 192 136 328q139 139 339 139q176 0 289 -106l-45 -66q-113 90 -249 90q-162 0 -271 -110q-111 -111 -111 -272q0 -154 114 -269q115 -115 270 -115q138 0 247 88z" />
    <glyph glyph-name="ordfeminine" unicode="&#xaa;" horiz-adv-x="866" vert-adv-y="2458" 
d="M703 1350v127h82v-701l-82 56v82q-107 -139 -273 -139q-148 0 -253 105q-105 104 -105 253q0 146 103 249q105 105 254 105q166 0 274 -137zM427 1407q-113 0 -194 -81q-79 -80 -79 -193q0 -116 80 -196t196 -80q113 0 192 79q81 80 81 196q0 115 -81 196q-78 79 -195 79
z" />
    <glyph glyph-name="guillemotleft" unicode="&#xab;" horiz-adv-x="719" vert-adv-y="2458" 
d="M162 555l223 -346l-82 -57l-260 403l260 403l82 -57zM416 555l223 -347l-84 -56l-258 403l258 403l83 -56z" />
    <glyph glyph-name="logicalnot" unicode="&#xac;" horiz-adv-x="1358" vert-adv-y="2458" 
d="M996 693h-957v100h1057v-635h-100v535z" />
    <glyph glyph-name="sfthyphen" unicode="&#xad;" horiz-adv-x="807" vert-adv-y="2458" 
d="M715 649v-100h-623v100h623z" />
    <glyph glyph-name="registered" unicode="&#xae;" horiz-adv-x="1669" vert-adv-y="2458" 
d="M842 1516q310 0 533 -223t223 -540q0 -316 -223 -540q-223 -223 -539 -223q-313 0 -538 225q-226 225 -226 537t226 539q223 225 544 225zM829 1428q-275 0 -472 -197q-197 -198 -197 -478t197 -478q197 -197 477 -197q286 0 489 203q197 197 197 471t-197 473
q-200 203 -494 203zM1088 313h-92l-156 343q-5 8 -14 8h-105q-8 0 -8 -8v-347h-88v903h188q118 0 191 -73q74 -75 74 -197q0 -100 -53 -173q-33 -45 -72 -67q-21 -12 -31 -20zM711 1114v-356q0 -6 10 -6h107q89 0 133 76q31 54 31 116q0 58 -28 108q-42 74 -136 74h-107
q-10 0 -10 -12z" />
    <glyph glyph-name="macron" unicode="&#xaf;" horiz-adv-x="821" vert-adv-y="2458" 
d="M733 1440v-100h-645v100h645z" />
    <glyph glyph-name="degree" unicode="&#xb0;" horiz-adv-x="803" vert-adv-y="2458" 
d="M404 1483q134 0 231 -97q96 -96 96 -233t-96 -233q-97 -97 -234 -97q-136 0 -232 97q-97 96 -97 232q0 137 97 234q95 97 235 97zM399 1403q-103 0 -177 -74q-72 -73 -72 -176q0 -104 74 -178q73 -74 177 -74t176 73q74 73 74 179q0 104 -72 177t-180 73z" />
    <glyph glyph-name="plusminus" unicode="&#xb1;" horiz-adv-x="1073" vert-adv-y="2458" 
d="M583 606v-350h-96v350h-440v96h440v355h96v-355h443v-96h-443zM1028 194v-100h-981v100h981z" />
    <glyph glyph-name="twosuperior" unicode="&#xb2;" horiz-adv-x="801" vert-adv-y="2458" 
d="M692 690v-76h-565v86q37 37 118 112q196 183 289 288q80 92 80 167q0 82 -61 144q-62 61 -148 61q-74 0 -131 -46q-53 -43 -73 -119l-72 22q28 100 99 156q78 63 177 63q117 0 201 -84t84 -196q0 -80 -61 -169q-45 -66 -312 -323l-47 -45q-2 -2 -13 -12q-18 -15 -28 -29
h463z" />
    <glyph glyph-name="threesuperior" unicode="&#xb3;" horiz-adv-x="776" vert-adv-y="2458" 
d="M98 860l76 8q14 -84 69 -134q61 -54 143 -54q87 0 148 62q63 63 63 154q0 101 -72 169q-50 47 -118 54q-10 1 -14 1v8v13q-1 31 -2 47q108 44 108 152q0 53 -32 92q-36 46 -98 46q-90 0 -134 -98l-65 35q49 137 202 137q83 0 142 -58q59 -59 59 -146q0 -101 -74 -174
l-6 -7l13 -6q167 -83 167 -265q0 -120 -84 -205q-85 -85 -203 -85q-111 0 -195 75q-74 66 -93 179z" />
    <glyph glyph-name="acute" unicode="&#xb4;" horiz-adv-x="539" vert-adv-y="2458" 
d="M84 1135l-37 83l403 164l37 -81z" />
    <glyph glyph-name="mu" unicode="&#xb5;" horiz-adv-x="997" vert-adv-y="2458" 
d="M209 113v-557h-121v1542h121v-701q0 -120 87 -207q89 -89 214 -89q124 0 214 89q87 85 87 199v709h119v-1098l-119 61v54q-128 -135 -301 -135t-301 133z" />
    <glyph glyph-name="paragraph" unicode="&#xb6;" horiz-adv-x="1034" vert-adv-y="2458" 
d="M651 1335v-1773h-125v1181q-480 25 -480 366q0 196 148 282q115 67 346 67h419v-1896h-125v1773h-183z" />
    <glyph glyph-name="periodcentered" unicode="&#xb7;" horiz-adv-x="268" vert-adv-y="2458" 
d="M135 844q27 0 46 -20q20 -19 20 -46q0 -28 -20 -48q-19 -19 -46 -19t-47 20t-20 47t19 46q20 20 48 20z" />
    <glyph glyph-name="cedilla" unicode="&#xb8;" horiz-adv-x="530" vert-adv-y="2458" 
d="M251 0h74l-80 -104q6 0 16 2q24 4 49 4q72 0 114 -42q43 -42 43 -112q0 -95 -75 -148q-64 -46 -145 -46q-110 0 -186 81l49 48l47 -23q38 -18 91 -18q51 0 88 30q37 28 37 75q0 39 -24 63t-61 24h-24l-33 -6l-7 -1q-15 -3 -28 -3q-22 12 -51 26z" />
    <glyph glyph-name="onesuperior" unicode="&#xb9;" horiz-adv-x="344" vert-adv-y="2458" 
d="M208 1466h-147v70h223v-922h-76v852z" />
    <glyph glyph-name="ordmasculine" unicode="&#xba;" horiz-adv-x="852" vert-adv-y="2458" 
d="M431 1481q144 0 247 -103q103 -104 103 -250q0 -149 -104 -253q-103 -103 -249 -103q-149 0 -252 104q-104 103 -104 252q0 145 103 249t256 104zM428 1401q-113 0 -194 -81q-80 -79 -80 -192q0 -115 81 -195q80 -81 195 -81q113 0 192 79q81 81 81 197q0 112 -79 193
q-79 80 -196 80z" />
    <glyph glyph-name="guillemotright" unicode="&#xbb;" horiz-adv-x="739" vert-adv-y="2458" 
d="M520 555l-223 346l81 57l261 -403l-261 -403l-81 57zM266 555l-223 347l84 56l258 -403l-258 -403l-84 56z" />
    <glyph glyph-name="onequarter" unicode="&#xbc;" horiz-adv-x="1450" vert-adv-y="2458" 
d="M205 1456h-160v82h248v-999h-88v917zM1368 281v-86l-101 -2q-17 0 -16 -17v-176h-88v176q0 17 -17 17l-429 2v77l462 727h72v-700q-1 -17 16 -17zM821 282h325q17 1 17 17v524v2l-344 -541zM455 -6l-11 3q-42 12 -75 23l446 1526l18 -4q33 -9 50 -14q8 -2 18 -4z" />
    <glyph glyph-name="onehalf" unicode="&#xbd;" horiz-adv-x="1538" vert-adv-y="2458" 
d="M205 1456h-160v82h248v-999h-88v917zM455 -6l-11 3q-42 12 -75 23l446 1526l18 -4q33 -9 50 -14q8 -2 18 -4zM1460 86v-86h-606v96q42 43 125 118q164 147 257 250q134 147 134 240q0 90 -63 152q-62 62 -156 62q-168 0 -213 -173l-84 23q30 107 107 169q84 67 190 67
q127 0 217 -90q90 -89 90 -210q0 -80 -53 -168q-61 -101 -269 -288l-75 -70l-49 -47q-28 -25 -43 -43q18 -1 65 -2h426z" />
    <glyph glyph-name="threequarters" unicode="&#xbe;" horiz-adv-x="1663" vert-adv-y="2458" 
d="M1593 281v-86l-101 -2q-17 0 -16 -17v-176h-88v176q0 17 -17 17l-429 2v77l463 727h71v-700q-1 -17 16 -17zM1046 282h325q18 0 17 17v524v2l-344 -541zM53 791l88 8q16 -94 72 -143q60 -54 149 -54q95 0 159 64q65 65 65 160q0 105 -75 180q-58 57 -147 63q0 20 -1 37
q-1 21 -1 37q117 52 117 163q0 67 -40 106q-35 36 -94 36q-91 0 -138 -98l-78 36q61 150 218 150q89 0 154 -64q64 -64 64 -157q0 -108 -86 -195q195 -91 195 -291q0 -131 -91 -222t-220 -91q-120 0 -211 82q-81 73 -99 193zM682 -6l-11 3q-42 12 -75 23l444 1526
q9 -2 19 -4l49 -14q8 -2 18 -4z" />
    <glyph glyph-name="questiondown" unicode="&#xbf;" horiz-adv-x="860" vert-adv-y="2458" 
d="M471 1544q27 0 47 -20t20 -47t-19 -46q-20 -20 -49 -20q-27 0 -46 19t-19 46q0 29 20 49q19 19 46 19zM704 311l101 -69q-38 -92 -106 -152q-112 -98 -262 -98q-165 0 -275 111q-105 105 -105 263q0 113 60 208q50 80 190 196q88 72 142 136q63 73 63 166q0 79 -99 173
l88 66q138 -69 138 -226q0 -109 -63 -210q-50 -80 -187 -195q-90 -75 -143 -140q-64 -77 -64 -181q0 -101 68 -169q73 -73 187 -73q179 0 267 194z" />
    <glyph glyph-name="Agrave" unicode="&#xc0;" horiz-adv-x="1237" vert-adv-y="2458" 
d="M838 1628l-37 -84l-404 166l38 82zM894 498l-276 804l-277 -804h553zM298 373l-130 -373h-133l535 1536h94l534 -1536h-131l-130 373h-639z" />
    <glyph glyph-name="Aacute" unicode="&#xc1;" horiz-adv-x="1237" vert-adv-y="2458" 
d="M434 1544l-37 84l404 164l37 -82zM894 498l-276 804l-277 -804h553zM298 373l-130 -373h-133l535 1536h94l534 -1536h-131l-130 373h-639z" />
    <glyph glyph-name="Acircumflex" unicode="&#xc2;" horiz-adv-x="1237" vert-adv-y="2458" 
d="M298 373l-130 -373h-133l535 1536h94l534 -1536h-131l-130 373h-639zM894 498l-276 804l-277 -804h553zM617 1743l206 -86l3 -90q-28 1 -209 84q-183 -84 -209 -86l2 90z" />
    <glyph glyph-name="Atilde" unicode="&#xc3;" horiz-adv-x="1237" vert-adv-y="2458" 
d="M894 498l-276 804l-277 -804h553zM298 373l-130 -373h-133l535 1536h94l534 -1536h-131l-130 373h-639zM957 1763q-74 -112 -179 -112q-54 0 -161 37q-102 36 -152 36q-65 0 -147 -73l-43 51q78 108 188 108q52 0 154 -35q97 -34 149 -34q72 0 148 71z" />
    <glyph glyph-name="Adieresis" unicode="&#xc4;" horiz-adv-x="1237" vert-adv-y="2458" 
d="M475 1719q23 0 43 -16q24 -20 24 -49q0 -27 -20 -47q-19 -20 -47 -20q-27 0 -46 19t-19 48q0 26 19 45q19 20 46 20zM758 1719q26 0 46 -20q19 -19 19 -44q0 -28 -20 -48q-19 -19 -46 -19t-45 19q-20 19 -20 48q0 26 19 44q19 20 47 20zM894 498l-276 804l-277 -804h553z
M298 373l-130 -373h-133l535 1536h94l534 -1536h-131l-130 373h-639z" />
    <glyph glyph-name="Aring" unicode="&#xc5;" horiz-adv-x="1237" vert-adv-y="2458" 
d="M617 1733q37 0 62 -26q26 -25 26 -63t-25 -63t-63 -25t-63 25t-25 64q0 38 25 63t63 25zM616 1696q-50 0 -50 -53q0 -50 50 -50q52 0 52 51q0 52 -52 52zM894 498l-276 804l-277 -804h553zM298 373l-130 -373h-133l535 1536h94l534 -1536h-131l-130 373h-639z" />
    <glyph glyph-name="AE" unicode="&#xc6;" horiz-adv-x="1546" vert-adv-y="2458" 
d="M758 373h-425l-165 -373h-133l639 1536h813v-125h-604v-551h604v-125h-604v-610h604v-125h-729v373zM750 1380l-376 -882h382v888z" />
    <glyph glyph-name="Ccedilla" unicode="&#xc7;" horiz-adv-x="1466" vert-adv-y="2458" 
d="M1383 178q-215 -194 -521 -194q-23 0 -59 4l-70 -92q6 0 16 2q24 4 49 4q71 0 114 -42t43 -112q0 -95 -75 -148q-64 -46 -145 -46q-110 0 -186 81l49 48l47 -23q38 -18 92 -18q50 0 87 30q37 29 37 75q0 39 -24 63q-25 24 -61 24h-24l-33 -6l-7 -1q-15 -3 -28 -3
q-22 12 -51 26l102 144q-206 45 -338 143q-153 113 -237 279q-84 165 -84 350q0 324 230 555q231 231 559 231q303 0 520 -196l-80 -101q-196 172 -444 172q-274 0 -466 -192q-194 -194 -194 -466q0 -265 196 -461q199 -199 468 -199q243 0 440 170z" />
    <glyph glyph-name="Egrave" unicode="&#xc8;" horiz-adv-x="911" vert-adv-y="2458" 
d="M674 1638l-37 -84l-404 166l37 82zM825 735h-604v-610h604v-125h-729v1536h729v-125h-604v-551h604v-125z" />
    <glyph glyph-name="Eacute" unicode="&#xc9;" horiz-adv-x="911" vert-adv-y="2458" 
d="M270 1554l-37 84l403 164l38 -82zM825 735h-604v-610h604v-125h-729v1536h729v-125h-604v-551h604v-125z" />
    <glyph glyph-name="Ecircumflex" unicode="&#xca;" horiz-adv-x="911" vert-adv-y="2458" 
d="M825 735h-604v-610h604v-125h-729v1536h729v-125h-604v-551h604v-125zM454 1753l207 -86l2 -90q-27 1 -209 84q-182 -84 -208 -86l2 90z" />
    <glyph glyph-name="Edieresis" unicode="&#xcb;" horiz-adv-x="911" vert-adv-y="2458" 
d="M313 1729q23 0 43 -16q24 -21 24 -49q0 -27 -20 -47t-47 -20t-46 19q-19 20 -19 48q0 26 19 45q19 20 46 20zM596 1728q26 0 46 -20q19 -19 19 -44q0 -28 -20 -48q-19 -19 -46 -19t-45 19q-20 19 -20 48q0 26 19 44q19 20 47 20zM825 735h-604v-610h604v-125h-729v1536
h729v-125h-604v-551h604v-125z" />
    <glyph glyph-name="Igrave" unicode="&#xcc;" horiz-adv-x="303" vert-adv-y="2458" 
d="M217 0h-125v1534h125v-1534zM374 1628l-37 -84l-403 166l37 82z" />
    <glyph glyph-name="Iacute" unicode="&#xcd;" horiz-adv-x="303" vert-adv-y="2458" 
d="M217 0h-125v1534h125v-1534zM-29 1544l-37 84l403 164l37 -82z" />
    <glyph glyph-name="Icircumflex" unicode="&#xce;" horiz-adv-x="303" vert-adv-y="2458" 
d="M154 1743l207 -86l2 -90q-28 1 -209 84q-183 -84 -209 -86l2 90zM217 0h-125v1534h125v-1534z" />
    <glyph glyph-name="Idieresis" unicode="&#xcf;" horiz-adv-x="303" vert-adv-y="2458" 
d="M217 0h-125v1534h125v-1534zM12 1719q23 0 43 -16q24 -21 24 -49q0 -27 -20 -47q-19 -20 -47 -20q-27 0 -46 19t-19 48q0 26 19 45q19 20 46 20zM296 1718q26 0 46 -20q19 -19 19 -44q0 -28 -20 -48q-19 -19 -46 -19t-45 19q-20 19 -20 48q0 26 19 44q19 20 47 20z" />
    <glyph glyph-name="Eth" unicode="&#xd0;" horiz-adv-x="1559" vert-adv-y="2458" 
d="M446 793h258v-125h-258v-543h278q264 0 453 190t189 453q0 265 -190 454q-189 189 -454 189h-276v-618zM321 670h-260v123h260v743h403q317 0 541 -223q225 -224 225 -545t-225 -545q-223 -223 -541 -223h-403v670z" />
    <glyph glyph-name="Ntilde" unicode="&#xd1;" horiz-adv-x="1278" vert-adv-y="2458" 
d="M217 1330v-111v-1219h-125v1534h141l828 -1331v1333h125v-1536h-144zM977 1763q-74 -112 -179 -112q-54 0 -161 37q-102 36 -152 36q-65 0 -147 -73l-43 51q78 108 188 108q52 0 154 -35q97 -34 149 -34q72 0 148 71z" />
    <glyph glyph-name="Ograve" unicode="&#xd2;" horiz-adv-x="1718" vert-adv-y="2458" 
d="M865 1552q319 0 549 -229q229 -230 229 -555t-229 -555q-230 -229 -555 -229q-326 0 -556 229q-229 230 -229 554t229 556q228 229 562 229zM854 1427q-268 0 -461 -193q-194 -193 -194 -465q0 -273 194 -466q194 -194 466 -194q274 0 467 194q192 192 192 465
q0 272 -192 466q-191 193 -472 193zM1078 1634l-37 -84l-404 166l37 82z" />
    <glyph glyph-name="Oacute" unicode="&#xd3;" horiz-adv-x="1718" vert-adv-y="2458" 
d="M865 1552q319 0 549 -229q229 -230 229 -555t-229 -555q-230 -229 -555 -229q-326 0 -556 229q-229 230 -229 554t229 556q228 229 562 229zM854 1427q-268 0 -461 -193q-194 -193 -194 -465q0 -273 194 -466q194 -194 466 -194q274 0 467 194q192 192 192 465
q0 272 -192 466q-191 193 -472 193zM674 1550l-37 84l403 164l38 -82z" />
    <glyph glyph-name="Ocircumflex" unicode="&#xd4;" horiz-adv-x="1718" vert-adv-y="2458" 
d="M865 1552q319 0 549 -229q229 -230 229 -555t-229 -555q-230 -229 -555 -229q-326 0 -556 229q-229 230 -229 554t229 556q228 229 562 229zM854 1427q-268 0 -461 -193q-194 -193 -194 -465q0 -273 194 -466q194 -194 466 -194q274 0 467 194q192 192 192 465
q0 272 -192 466q-191 193 -472 193zM858 1749l207 -86l2 -90q-27 1 -209 84q-182 -84 -209 -86l3 90z" />
    <glyph glyph-name="Otilde" unicode="&#xd5;" horiz-adv-x="1718" vert-adv-y="2458" 
d="M865 1552q319 0 549 -229q229 -230 229 -555t-229 -555q-230 -229 -555 -229q-326 0 -556 229q-229 230 -229 554t229 556q228 229 562 229zM854 1427q-268 0 -461 -193q-194 -193 -194 -465q0 -273 194 -466q194 -194 466 -194q274 0 467 194q192 192 192 465
q0 272 -192 466q-191 193 -472 193zM1198 1763q-73 -112 -179 -112q-53 0 -160 37q-102 36 -153 36q-64 0 -147 -73l-43 51q79 108 189 108q52 0 154 -35q97 -34 148 -34q72 0 148 71z" />
    <glyph glyph-name="Odieresis" unicode="&#xd6;" horiz-adv-x="1718" vert-adv-y="2458" 
d="M865 1552q319 0 549 -229q229 -230 229 -555t-229 -555q-230 -229 -555 -229q-326 0 -556 229q-229 230 -229 554t229 556q228 229 562 229zM854 1427q-268 0 -461 -193q-194 -193 -194 -465q0 -273 194 -466q194 -194 466 -194q274 0 467 194q192 192 192 465
q0 272 -192 466q-191 193 -472 193zM717 1725q23 0 42 -16q25 -21 25 -49q0 -27 -20 -47t-47 -20t-46 19t-19 48q0 26 19 45q19 20 46 20zM1000 1724q26 0 46 -20q19 -19 19 -44q0 -28 -20 -48q-19 -19 -46 -19t-45 19q-20 19 -20 48q0 26 19 44q19 20 47 20z" />
    <glyph glyph-name="multiply" unicode="&#xd7;" horiz-adv-x="1038" vert-adv-y="2458" 
d="M563 522l303 -303l-67 -67l-303 303l-303 -303l-68 67l303 303l-299 299l68 68l299 -299l303 303l67 -68z" />
    <glyph glyph-name="Oslash" unicode="&#xd8;" horiz-adv-x="1704" vert-adv-y="2458" 
d="M664 6l-27 -98l-96 -2l37 127q-203 86 -324 227q-186 218 -186 508q0 325 229 555q230 229 557 229q76 0 162 -18l29 96h92l-35 -121q211 -80 338 -223q197 -221 197 -519q0 -325 -229 -554q-230 -229 -554 -229q-78 0 -190 22zM699 127q79 -18 153 -18q273 0 467 194
q193 193 193 465q0 266 -185 455q-99 102 -262 166zM981 1413q-77 14 -131 14q-270 0 -463 -193q-194 -193 -194 -466q0 -256 173 -445q94 -102 247 -169z" />
    <glyph glyph-name="Ugrave" unicode="&#xd9;" horiz-adv-x="1030" vert-adv-y="2458" 
d="M942 1536v-1128q0 -174 -124 -298q-126 -126 -305 -126q-177 0 -302 125q-125 124 -125 301v1126h125v-1118q0 -131 91 -222q88 -89 212 -89q126 0 214 89q89 89 89 218v1122h125zM733 1628l-37 -84l-403 166l37 82z" />
    <glyph glyph-name="Uacute" unicode="&#xda;" horiz-adv-x="1030" vert-adv-y="2458" 
d="M942 1536v-1128q0 -174 -124 -298q-126 -126 -305 -126q-177 0 -302 125q-125 124 -125 301v1126h125v-1118q0 -131 91 -222q88 -89 212 -89q126 0 214 89q89 89 89 218v1122h125zM330 1544l-37 84l403 164l37 -82z" />
    <glyph glyph-name="Ucircumflex" unicode="&#xdb;" horiz-adv-x="1030" vert-adv-y="2458" 
d="M942 1536v-1128q0 -174 -124 -298q-126 -126 -305 -126q-177 0 -302 125q-125 124 -125 301v1126h125v-1118q0 -131 91 -222q88 -89 212 -89q126 0 214 89q89 89 89 218v1122h125zM514 1743l207 -86l2 -90q-28 1 -209 84q-183 -84 -209 -86l2 90z" />
    <glyph glyph-name="Udieresis" unicode="&#xdc;" horiz-adv-x="1030" vert-adv-y="2458" 
d="M942 1536v-1128q0 -174 -124 -298q-126 -126 -305 -126q-177 0 -302 125q-125 124 -125 301v1126h125v-1118q0 -131 91 -222q88 -89 212 -89q126 0 214 89q89 89 89 218v1122h125zM370 1719q23 0 43 -16q24 -21 24 -49q0 -27 -20 -47q-19 -20 -47 -20q-27 0 -46 19
t-19 48q0 26 19 45q19 20 46 20zM654 1718q26 0 46 -20q19 -19 19 -44q0 -28 -20 -48q-19 -19 -46 -19t-45 19q-20 19 -20 48q0 26 19 44q19 20 47 20z" />
    <glyph glyph-name="Yacute" unicode="&#xdd;" horiz-adv-x="1012" vert-adv-y="2458" 
d="M322 1544l-37 84l403 164l37 -82zM570 557v-557h-125v557l-416 979h135l342 -809l342 809h135z" />
    <glyph glyph-name="Thorn" unicode="&#xde;" horiz-adv-x="883" vert-adv-y="2458" 
d="M266 354h-53v-354h-125v1536h125v-309h174q179 0 301 -123q125 -126 125 -312q0 -187 -127 -315q-122 -123 -299 -123h-121zM213 477h176q149 0 235 120q64 89 64 196q0 135 -93 228q-83 81 -206 81h-176v-625z" />
    <glyph glyph-name="germandbls" unicode="&#xdf;" horiz-adv-x="1001" vert-adv-y="2458" 
d="M662 794q266 -122 266 -378q0 -185 -115 -300q-115 -116 -313 -116h-174v123h178q142 0 223 91q76 84 76 208q0 131 -117 214q-89 64 -192 64h-164v131h119q82 0 158 72q91 86 91 232q0 136 -76 211q-67 67 -173 67h-8q-98 -1 -161 -88q-66 -92 -67 -246v-1079h-125v1081
q0 205 103 333q96 121 241 122h21q157 0 256 -100q108 -110 108 -297q0 -213 -155 -345z" />
    <glyph glyph-name="agrave" unicode="&#xe0;" horiz-adv-x="1210" vert-adv-y="2458" 
d="M1008 836v188h121v-1024h-121v186q-162 -202 -406 -202q-221 0 -375 155q-155 154 -155 375q0 217 153 371q155 155 377 155q245 0 406 -204zM598 919q-169 0 -288 -120q-117 -118 -117 -285q0 -172 119 -290q118 -119 290 -119q168 0 286 117q120 119 120 291
q0 169 -118 288q-117 118 -292 118zM824 1218l-37 -83l-404 166l37 81z" />
    <glyph glyph-name="aacute" unicode="&#xe1;" horiz-adv-x="1210" vert-adv-y="2458" 
d="M1008 836v188h121v-1024h-121v186q-162 -202 -406 -202q-221 0 -375 155q-155 154 -155 375q0 217 153 371q155 155 377 155q245 0 406 -204zM598 919q-169 0 -288 -120q-117 -118 -117 -285q0 -172 119 -290q118 -119 290 -119q168 0 286 117q120 119 120 291
q0 169 -118 288q-117 118 -292 118zM420 1135l-37 83l403 164l38 -81z" />
    <glyph glyph-name="acircumflex" unicode="&#xe2;" horiz-adv-x="1210" vert-adv-y="2458" 
d="M1008 836v188h121v-1024h-121v186q-162 -202 -406 -202q-221 0 -375 155q-155 154 -155 375q0 217 153 371q155 155 377 155q245 0 406 -204zM598 919q-169 0 -288 -120q-117 -118 -117 -285q0 -172 119 -290q118 -119 290 -119q168 0 286 117q120 119 120 291
q0 169 -118 288q-117 118 -292 118zM604 1333l207 -86l2 -90q-27 1 -209 84q-182 -84 -208 -86l2 90z" />
    <glyph glyph-name="atilde" unicode="&#xe3;" horiz-adv-x="1210" vert-adv-y="2458" 
d="M1008 836v188h121v-1024h-121v186q-162 -202 -406 -202q-221 0 -375 155q-155 154 -155 375q0 217 153 371q155 155 377 155q245 0 406 -204zM598 919q-169 0 -288 -120q-117 -118 -117 -285q0 -172 119 -290q118 -119 290 -119q168 0 286 117q120 119 120 291
q0 169 -118 288q-117 118 -292 118zM944 1354q-74 -113 -178 -113q-53 0 -161 38q-103 36 -152 36q-66 0 -148 -74l-43 51q79 109 189 109q52 0 154 -36q97 -34 149 -34q71 0 147 72z" />
    <glyph glyph-name="adieresis" unicode="&#xe4;" horiz-adv-x="1210" vert-adv-y="2458" 
d="M1008 836v188h121v-1024h-121v186q-162 -202 -406 -202q-221 0 -375 155q-155 154 -155 375q0 217 153 371q155 155 377 155q245 0 406 -204zM598 919q-169 0 -288 -120q-117 -118 -117 -285q0 -172 119 -290q118 -119 290 -119q168 0 286 117q120 119 120 291
q0 169 -118 288q-117 118 -292 118zM463 1310q23 0 43 -16q24 -20 24 -49q0 -27 -20 -47q-19 -20 -47 -20q-27 0 -46 19t-19 48q0 27 19 45q19 20 46 20zM746 1309q26 0 46 -20q19 -19 19 -44q0 -28 -20 -48q-19 -19 -46 -19t-45 19q-20 19 -20 48q0 26 19 44q20 20 47 20z
" />
    <glyph glyph-name="aring" unicode="&#xe5;" horiz-adv-x="1210" vert-adv-y="2458" 
d="M1008 836v188h121v-1024h-121v186q-162 -202 -406 -202q-221 0 -375 155q-155 154 -155 375q0 217 153 371q155 155 377 155q245 0 406 -204zM598 919q-169 0 -288 -120q-117 -118 -117 -285q0 -172 119 -290q118 -119 290 -119q168 0 286 117q120 119 120 291
q0 169 -118 288q-117 118 -292 118zM605 1315q37 0 62 -26q26 -25 26 -63q0 -37 -25 -62t-63 -25q-39 0 -64 25t-25 63t25 63t64 25zM604 1278q-51 0 -51 -52q0 -50 50 -50q53 0 53 50q0 52 -52 52z" />
    <glyph glyph-name="ae" unicode="&#xe6;" horiz-adv-x="2064" vert-adv-y="2458" 
d="M1137 458q28 -160 132 -252q116 -101 278 -101q188 0 340 118l51 -98q-175 -141 -391 -141q-252 0 -418 198v-182h-121v186q-162 -202 -406 -202q-221 0 -375 154q-155 155 -155 375q0 218 153 372q155 155 377 155q245 0 406 -205v189h121v-174q160 190 398 190
q196 0 327 -132q149 -148 149 -376q0 -19 -1 -59q-1 -6 -1 -15h-864zM1879 567q-16 163 -115 258q-98 94 -239 94q-148 0 -256 -97q-103 -92 -130 -255h740zM598 919q-169 0 -288 -120q-117 -117 -117 -285q0 -172 119 -291q119 -118 290 -118q168 0 286 117
q120 118 120 291q0 169 -118 288q-117 118 -292 118z" />
    <glyph glyph-name="ccedilla" unicode="&#xe7;" horiz-adv-x="1141" vert-adv-y="2458" 
d="M946 729q-123 190 -343 190q-174 0 -293 -120q-117 -118 -117 -286q0 -171 119 -290t291 -119q233 0 352 203l110 -45q-64 -124 -181 -199q-120 -72 -265 -79l-68 -88l16 2q32 4 48 4q72 0 114 -42q43 -42 43 -112q0 -94 -75 -148q-63 -46 -145 -46q-109 0 -185 81l49 48
l47 -23q38 -18 91 -18q50 0 88 30q36 29 36 75q0 39 -24 63t-60 24h-24l-33 -6l-7 -1q-15 -3 -28 -3l-51 26l96 138q-212 31 -337 167q-138 151 -138 358q0 218 153 372q155 155 376 155q264 0 442 -241z" />
    <glyph glyph-name="egrave" unicode="&#xe8;" horiz-adv-x="1122" vert-adv-y="2458" 
d="M781 1218l-37 -83l-404 166l37 81zM195 458q28 -160 132 -252q116 -101 278 -101q187 0 339 118l52 -98q-176 -141 -391 -141q-224 0 -378 154q-155 155 -155 377q0 225 153 378q147 147 360 147q196 0 327 -132q149 -148 149 -376q0 -14 -1 -39q-1 -19 -1 -35h-864z
M936 567q-15 163 -114 258q-98 94 -239 94q-148 0 -257 -97q-102 -92 -129 -255h739z" />
    <glyph glyph-name="eacute" unicode="&#xe9;" horiz-adv-x="1122" vert-adv-y="2458" 
d="M377 1134l-37 84l403 164l38 -82zM936 567q-15 163 -114 258q-98 94 -239 94q-148 0 -257 -97q-102 -92 -129 -255h739zM195 459q28 -161 132 -252q116 -102 277 -102q188 0 340 118l52 -98q-177 -141 -391 -141q-223 0 -378 155q-155 154 -155 376q0 225 153 378
q147 147 360 147q196 0 327 -132q149 -148 149 -375q0 -14 -1 -39q-1 -19 -1 -35h-864z" />
    <glyph glyph-name="ecircumflex" unicode="&#xea;" horiz-adv-x="1122" vert-adv-y="2458" 
d="M559 1333l207 -86l2 -90q-27 1 -209 84q-182 -84 -208 -86l2 90zM195 458q28 -160 132 -252q116 -101 278 -101q187 0 339 118l52 -98q-176 -141 -391 -141q-224 0 -378 154q-155 155 -155 377q0 225 153 378q147 147 360 147q196 0 327 -132q149 -148 149 -376
q0 -14 -1 -39q-1 -19 -1 -35h-864zM936 567q-15 163 -114 258q-98 94 -239 94q-148 0 -257 -97q-102 -92 -129 -255h739z" />
    <glyph glyph-name="edieresis" unicode="&#xeb;" horiz-adv-x="1122" vert-adv-y="2458" 
d="M418 1310q23 0 43 -16q24 -20 24 -49q0 -27 -20 -47q-19 -20 -47 -20q-27 0 -46 19q-19 20 -19 48q0 26 19 45q19 20 46 20zM701 1309q26 0 46 -20q19 -19 19 -44q0 -28 -20 -48q-19 -19 -46 -19t-46 19t-19 48q0 26 19 44q19 20 47 20zM195 458q28 -160 132 -252
q116 -101 278 -101q187 0 339 118l52 -98q-176 -141 -391 -141q-224 0 -378 154q-155 155 -155 377q0 225 153 378q147 147 360 147q196 0 327 -132q149 -148 149 -376q0 -14 -1 -39q-1 -19 -1 -35h-864zM936 567q-15 163 -114 258q-98 94 -239 94q-148 0 -257 -97
q-102 -92 -129 -255h739z" />
    <glyph glyph-name="igrave" unicode="&#xec;" horiz-adv-x="301" vert-adv-y="2458" 
d="M372 1218l-37 -83l-403 166l37 81zM94 0v1026h119v-1026h-119z" />
    <glyph glyph-name="iacute" unicode="&#xed;" horiz-adv-x="301" vert-adv-y="2458" 
d="M-31 1135l-37 83l403 164l37 -81zM94 0v1026h119v-1026h-119z" />
    <glyph glyph-name="icircumflex" unicode="&#xee;" horiz-adv-x="301" vert-adv-y="2458" 
d="M154 1333l207 -86l2 -90q-28 1 -209 84q-183 -84 -209 -86l2 90zM95 0v1026h119v-1026h-119z" />
    <glyph glyph-name="idieresis" unicode="&#xef;" horiz-adv-x="301" vert-adv-y="2458" 
d="M10 1310q23 0 43 -16q24 -20 24 -49q0 -27 -20 -47q-19 -20 -47 -20q-27 0 -46 19t-19 48q0 27 19 45q19 20 46 20zM294 1309q26 0 46 -20q19 -19 19 -44q0 -28 -20 -48q-19 -19 -46 -19t-45 19q-20 19 -20 48q0 26 19 44q20 20 47 20zM95 0v1026h119v-1026h-119z" />
    <glyph glyph-name="eth" unicode="&#xf0;" horiz-adv-x="1174" vert-adv-y="2458" 
d="M618 1411l146 105l69 -99l-149 -106l303 -453q123 -184 123 -350q0 -224 -150 -374q-151 -150 -375 -150q-223 0 -375 151q-151 151 -151 374q0 224 151 374q152 151 371 151q79 0 158 -30l-156 233l-143 -101l-70 97l148 104l-101 146l109 67zM581 909q-164 0 -280 -117
q-117 -117 -117 -285q0 -169 115 -283q115 -115 285 -115q172 0 286 114q115 114 115 285q0 169 -115 286q-113 115 -289 115z" />
    <glyph glyph-name="ntilde" unicode="&#xf1;" horiz-adv-x="1016" vert-adv-y="2458" 
d="M209 907q127 133 299 133q177 0 303 -125q119 -118 119 -280v-635h-119v625q0 120 -89 207q-89 89 -216 89q-135 0 -219 -84q-78 -78 -78 -206v-631h-121v1024l121 -2v-115zM846 1354q-74 -113 -179 -113q-53 0 -161 38q-103 36 -152 36q-65 0 -147 -74l-43 51
q78 109 188 109q53 0 154 -36q97 -34 149 -34q71 0 148 72z" />
    <glyph glyph-name="ograve" unicode="&#xf2;" horiz-adv-x="1200" vert-adv-y="2458" 
d="M607 1040q214 0 368 -154t154 -372q0 -222 -155 -377q-154 -153 -372 -153q-221 0 -375 155q-155 154 -155 374q0 217 153 372q154 155 382 155zM598 919q-169 0 -288 -120q-117 -118 -117 -285q0 -172 119 -290q118 -119 290 -119q168 0 286 117q120 119 120 291
q0 169 -118 288q-117 118 -292 118zM820 1218l-37 -83l-404 166l37 81z" />
    <glyph glyph-name="oacute" unicode="&#xf3;" horiz-adv-x="1200" vert-adv-y="2458" 
d="M607 1040q214 0 368 -154t154 -372q0 -222 -155 -377q-154 -153 -372 -153q-221 0 -375 155q-155 154 -155 374q0 217 153 372q154 155 382 155zM598 919q-169 0 -288 -120q-117 -118 -117 -285q0 -172 119 -290q118 -119 290 -119q168 0 286 117q120 119 120 291
q0 169 -118 288q-117 118 -292 118zM416 1135l-37 83l403 164l38 -81z" />
    <glyph glyph-name="ocircumflex" unicode="&#xf4;" horiz-adv-x="1200" vert-adv-y="2458" 
d="M607 1040q214 0 368 -154t154 -372q0 -222 -155 -377q-154 -153 -372 -153q-221 0 -375 155q-155 154 -155 374q0 217 153 372q154 155 382 155zM598 919q-169 0 -288 -120q-117 -118 -117 -285q0 -172 119 -290q118 -119 290 -119q168 0 286 117q120 119 120 291
q0 169 -118 288q-117 118 -292 118zM600 1333l207 -86l2 -90q-27 1 -209 84q-182 -84 -209 -86l3 90z" />
    <glyph glyph-name="otilde" unicode="&#xf5;" horiz-adv-x="1200" vert-adv-y="2458" 
d="M607 1040q214 0 368 -154t154 -372q0 -222 -155 -377q-154 -153 -372 -153q-221 0 -375 155q-155 154 -155 374q0 217 153 372q154 155 382 155zM598 919q-169 0 -288 -120q-117 -118 -117 -285q0 -172 119 -290q118 -119 290 -119q168 0 286 117q120 119 120 291
q0 169 -118 288q-117 118 -292 118zM938 1354q-74 -113 -179 -113q-52 0 -160 38q-103 36 -153 36q-65 0 -147 -74l-43 51q78 109 189 109q52 0 154 -36q97 -34 148 -34q72 0 148 72z" />
    <glyph glyph-name="odieresis" unicode="&#xf6;" horiz-adv-x="1200" vert-adv-y="2458" 
d="M607 1040q214 0 368 -154t154 -372q0 -222 -155 -377q-154 -153 -372 -153q-221 0 -375 155q-155 154 -155 374q0 217 153 372q154 155 382 155zM598 919q-169 0 -288 -120q-117 -118 -117 -285q0 -172 119 -290q118 -119 290 -119q168 0 286 117q120 119 120 291
q0 169 -118 288q-117 118 -292 118zM456 1310q23 0 42 -16q25 -20 25 -49q0 -27 -20 -47t-47 -20t-46 19q-19 20 -19 48q0 26 19 45q19 20 46 20zM740 1309q26 0 46 -20q19 -19 19 -44q0 -28 -20 -48q-19 -19 -46 -19t-46 19t-19 48q0 26 19 44q20 20 47 20z" />
    <glyph glyph-name="divide" unicode="&#xf7;" horiz-adv-x="1032" vert-adv-y="2458" 
d="M514 321q25 0 45 -20q18 -18 18 -42q0 -27 -19 -47q-19 -19 -44 -19q-27 0 -46 19t-19 47q0 24 18 42q19 20 47 20zM985 571v-96h-942v96h942zM514 865q25 0 45 -20q18 -18 18 -42q0 -27 -19 -47q-19 -19 -44 -19q-27 0 -46 19t-19 47q0 24 18 42q19 20 47 20z" />
    <glyph glyph-name="oslash" unicode="&#xf8;" horiz-adv-x="1186" vert-adv-y="2458" 
d="M481 -2l-33 -106h-94l39 128q-132 62 -209 155q-121 147 -121 338q0 218 153 372q155 155 377 155q42 0 95 -10l28 96h95l-37 -118q137 -57 219 -152q127 -147 127 -342q0 -222 -155 -377q-154 -153 -369 -153q-44 0 -115 14zM514 113q37 -8 81 -8q168 0 287 118
q119 119 119 290q0 161 -108 276q-58 62 -152 104zM655 915q-6 1 -19 2q-20 2 -45 2q-168 0 -287 -119q-118 -118 -118 -286q0 -259 242 -375z" />
    <glyph glyph-name="ugrave" unicode="&#xf9;" horiz-adv-x="1010" vert-adv-y="2458" 
d="M807 119q-126 -135 -303 -135t-302 125q-120 120 -120 282v631h121v-621q0 -120 87 -207q89 -89 217 -89q136 0 220 85q78 78 78 203v629h119v-1022h-117v119zM725 1218l-37 -83l-403 166l37 81z" />
    <glyph glyph-name="uacute" unicode="&#xfa;" horiz-adv-x="1010" vert-adv-y="2458" 
d="M807 119q-126 -135 -303 -135t-302 125q-120 120 -120 282v631h121v-621q0 -120 87 -207q89 -89 217 -89q136 0 220 85q78 78 78 203v629h119v-1022h-117v119zM322 1135l-37 83l403 164l37 -81z" />
    <glyph glyph-name="ucircumflex" unicode="&#xfb;" horiz-adv-x="1010" vert-adv-y="2458" 
d="M807 119q-126 -135 -303 -135t-302 125q-120 120 -120 282v631h121v-621q0 -120 87 -207q89 -89 217 -89q136 0 220 85q78 78 78 203v629h119v-1022h-117v119zM504 1333l207 -86l2 -90q-28 1 -209 84q-183 -84 -209 -86l2 90z" />
    <glyph glyph-name="udieresis" unicode="&#xfc;" horiz-adv-x="1010" vert-adv-y="2458" 
d="M807 119q-126 -135 -303 -135t-302 125q-120 120 -120 282v631h121v-621q0 -120 87 -207q89 -89 217 -89q136 0 220 85q78 78 78 203v629h119v-1022h-117v119zM362 1310q23 0 43 -16q24 -20 24 -49q0 -27 -20 -47q-19 -20 -47 -20q-27 0 -46 19t-19 48q0 27 19 45
q19 20 46 20zM646 1309q26 0 46 -20q19 -19 19 -44q0 -28 -20 -48q-19 -19 -46 -19t-46 19t-19 48q0 26 19 44q19 20 47 20z" />
    <glyph glyph-name="yacute" unicode="&#xfd;" horiz-adv-x="895" vert-adv-y="2458" 
d="M451 182l297 844h129l-516 -1448h-125l151 426l-360 1020h131zM263 1135l-37 83l403 164l37 -81z" />
    <glyph glyph-name="thorn" unicode="&#xfe;" horiz-adv-x="1214" vert-adv-y="2458" 
d="M209 188v-600h-121v1848h121v-598q159 202 406 202q221 0 375 -154q155 -155 155 -376q0 -216 -152 -369q-155 -155 -378 -155q-249 0 -406 202zM611 919q-164 0 -282 -117q-120 -119 -120 -292q0 -169 118 -287q119 -118 288 -118q173 0 292 120q117 117 117 285
q0 171 -119 290q-117 119 -294 119z" />
    <glyph glyph-name="ydieresis" unicode="&#xff;" horiz-adv-x="895" vert-adv-y="2458" 
d="M305 1310q23 0 43 -16q24 -20 24 -49q0 -27 -20 -47q-19 -20 -47 -20q-27 0 -46 19t-19 48q0 26 19 45q19 20 46 20zM588 1309q26 0 46 -20q19 -19 19 -44q0 -28 -20 -48q-19 -19 -46 -19t-46 19t-19 48q0 26 19 44q19 20 47 20zM451 182l297 844h129l-516 -1448h-125
l151 426l-360 1020h131z" />
    <glyph glyph-name="Dcroat" unicode="&#x110;" horiz-adv-x="1559" vert-adv-y="2458" 
d="M446 793h258v-125h-258v-543h278q264 0 453 190t189 453q0 265 -190 454q-189 189 -454 189h-276v-618zM321 670h-260v123h260v743h403q317 0 541 -223q225 -224 225 -545t-225 -545q-223 -223 -541 -223h-403v670z" />
    <glyph glyph-name="dotlessi" unicode="&#x131;" horiz-adv-x="301" vert-adv-y="2458" 
d="M94 0v1026h119v-1026h-119z" />
    <glyph glyph-name="Lslash" unicode="&#x141;" horiz-adv-x="1147" vert-adv-y="2458" 
d="M365 662l-211 -207l-88 88l299 293v700h125v-578l213 211l88 -88l-301 -297v-659h608v-125h-733v662z" />
    <glyph glyph-name="lslash" unicode="&#x142;" horiz-adv-x="813" vert-adv-y="2458" 
d="M475 955l192 194l84 -86l-276 -276v-787h-121v666l-209 -211l-84 86l293 293v602h121v-481z" />
    <glyph glyph-name="OE" unicode="&#x152;" horiz-adv-x="2329" vert-adv-y="2458" 
d="M1518 1192v344h729v-125h-604v-551h604v-125h-604v-610h604v-125h-729v342q-251 -358 -660 -358q-325 0 -555 229q-229 229 -229 555q0 325 229 555q230 229 555 229q411 0 660 -360zM854 1427q-268 0 -461 -193q-194 -194 -194 -466t194 -465q194 -194 466 -194
q274 0 467 194q192 192 192 465q0 272 -192 466q-191 193 -472 193z" />
    <glyph glyph-name="oe" unicode="&#x153;" horiz-adv-x="2056" vert-adv-y="2458" 
d="M1878 567q-15 163 -114 258q-98 94 -239 94q-148 0 -257 -97q-102 -92 -129 -255h739zM1137 459q28 -161 132 -252q116 -102 278 -102q187 0 340 118l51 -98q-177 -141 -390 -141q-317 0 -477 286q-162 -286 -469 -286q-221 0 -375 155q-155 154 -155 375q0 217 153 371
q155 155 376 155q305 0 468 -284q151 284 458 284q196 0 327 -132q149 -148 149 -375q0 -15 -2 -59v-15h-864zM598 919q-169 0 -288 -120q-117 -117 -117 -285q0 -172 119 -290q119 -119 290 -119q168 0 286 117q120 119 120 292q0 168 -118 287q-117 118 -292 118z" />
    <glyph glyph-name="Scaron" unicode="&#x160;" horiz-adv-x="946" vert-adv-y="2458" 
d="M80 240l121 18q75 -151 256 -151q120 0 208 87q89 89 89 209q0 134 -118 225q-63 49 -187 101q-170 72 -239 128q-136 109 -136 287q0 168 119 288q120 120 285 120q220 0 348 -200l-113 -56q-76 131 -232 131q-115 0 -201 -86q-81 -80 -81 -189q0 -136 109 -216
q42 -30 189 -96q191 -84 255 -144q123 -115 123 -293q0 -175 -124 -297q-123 -122 -296 -122q-161 0 -272 93q-79 66 -103 163zM680 1661l-209 -86l-207 88v90q18 1 184 -75l23 -11q181 83 209 84v-90z" />
    <glyph glyph-name="scaron" unicode="&#x161;" horiz-adv-x="684" vert-adv-y="2458" 
d="M492 842q-69 77 -142 77q-71 0 -113 -58q-32 -45 -32 -100q0 -54 51 -98q34 -29 113 -77q130 -81 178 -139q64 -80 64 -189q0 -117 -78 -194q-81 -80 -203 -80q-107 0 -191 67q-40 32 -63 76l102 61q63 -85 151 -85q69 0 115 46q46 47 46 111q0 79 -71 145
q-45 42 -146 101q-95 55 -133 96q-60 64 -60 158q0 116 82 199q81 81 192 81q152 0 236 -125zM549 1241l-209 -86l-207 88v90q17 1 184 -75l23 -11q181 83 209 84v-90z" />
    <glyph glyph-name="Ydieresis" unicode="&#x178;" horiz-adv-x="1012" vert-adv-y="2458" 
d="M362 1719q23 0 42 -16q25 -21 25 -49q0 -27 -20 -47t-47 -20t-46 19t-19 48q0 26 18 45q20 20 47 20zM646 1718q26 0 46 -20q19 -19 19 -44q0 -28 -20 -48q-19 -19 -46 -19t-46 19t-19 48q0 26 19 44q19 20 47 20zM570 557v-557h-125v557l-416 979h135l342 -809l342 809
h135z" />
    <glyph glyph-name="Zcaron" unicode="&#x17d;" horiz-adv-x="1098" vert-adv-y="2458" 
d="M61 0l-2 100l811 1311h-817v125h983v-96l-818 -1315h824v-125h-981zM755 1661l-209 -86l-206 88v90q15 3 206 -86q181 83 209 84v-90z" />
    <glyph glyph-name="zcaron" unicode="&#x17e;" horiz-adv-x="850" vert-adv-y="2458" 
d="M631 1241l-209 -86l-207 88v90q17 1 184 -75l23 -11q181 83 209 84v-90zM228 113h551v-113h-709v84l553 825h-549v115h701v-95z" />
    <glyph glyph-name="florin" unicode="&#x192;" horiz-adv-x="852" vert-adv-y="2458" 
d="M455 1024h354v-106h-354v-920q2 -262 -162 -270h-248v106h225q66 0 66 82v1002h-242v106h242v156q2 159 60 211q46 42 143 43h206v-106h-225q-65 0 -65 -82v-222z" />
    <glyph glyph-name="circumflex" unicode="&#x2c6;" horiz-adv-x="582" vert-adv-y="2458" 
d="M289 1333l207 -86l2 -90q-28 1 -209 84q-183 -84 -209 -86l2 90z" />
    <glyph glyph-name="caron" unicode="&#x2c7;" horiz-adv-x="578" vert-adv-y="2458" 
d="M496 1241l-209 -86l-207 88v90q17 1 184 -75l23 -11q181 83 209 84v-90z" />
    <glyph glyph-name="firsttonechinese" unicode="&#x2c9;" horiz-adv-x="821" vert-adv-y="2458" 
d="M733 1440v-100h-645v100h645z" />
    <glyph glyph-name="breve" unicode="&#x2d8;" horiz-adv-x="684" vert-adv-y="2458" 
d="M144 1534q88 -76 199 -76q107 0 196 76l67 -27q-22 -47 -78 -79q-86 -50 -186 -50q-111 0 -198 55q-46 29 -66 74z" />
    <glyph glyph-name="dotaccent" unicode="&#x2d9;" horiz-adv-x="276" vert-adv-y="2458" 
d="M139 1404q26 0 46 -20q19 -20 19 -45q0 -28 -20 -48q-18 -19 -46 -19q-27 0 -46 20q-20 19 -20 47q0 26 19 45q20 20 48 20z" />
    <glyph glyph-name="ring" unicode="&#x2da;" horiz-adv-x="332" vert-adv-y="2458" 
d="M166 1315q37 0 62 -26q26 -25 26 -63q0 -37 -25 -62t-63 -25t-63 25t-25 63t25 63t63 25zM165 1278q-50 0 -50 -52q0 -50 50 -50q52 0 52 50q0 52 -52 52z" />
    <glyph glyph-name="ogonek" unicode="&#x2db;" horiz-adv-x="463" vert-adv-y="2458" 
d="M265 0h55q-170 -118 -170 -260q0 -106 95 -106q89 0 126 65l33 -39q-61 -106 -172 -106q-71 0 -115 44q-47 47 -47 125q0 106 94 202q43 43 101 75z" />
    <glyph glyph-name="tilde" unicode="&#x2dc;" horiz-adv-x="842" vert-adv-y="2458" 
d="M760 1354q-74 -113 -179 -113q-53 0 -160 38q-103 36 -153 36q-65 0 -147 -74l-43 51q78 109 188 109q53 0 154 -36q97 -34 149 -34q71 0 148 72z" />
    <glyph glyph-name="hungarumlaut" unicode="&#x2dd;" horiz-adv-x="870" vert-adv-y="2458" 
d="M449 1456l315 135l43 -84l-315 -131zM72 1456l315 137l43 -84l-315 -133z" />
    <glyph glyph-name="anoteleia" unicode="&#x387;" horiz-adv-x="268" vert-adv-y="2458" 
d="M135 844q27 0 46 -20q20 -19 20 -46q0 -28 -20 -48q-19 -19 -46 -19t-47 20t-20 47t19 46q20 20 48 20z" />
    <glyph glyph-name="uni2011" unicode="&#x2011;" horiz-adv-x="807" vert-adv-y="2458" 
d="M715 649v-100h-623v100h623z" />
    <glyph glyph-name="figuredash" unicode="&#x2012;" horiz-adv-x="1167" vert-adv-y="2458" 
d="M1079 633v-100h-991v100h991z" />
    <glyph glyph-name="endash" unicode="&#x2013;" horiz-adv-x="1167" vert-adv-y="2458" 
d="M1079 633v-100h-991v100h991z" />
    <glyph glyph-name="emdash" unicode="&#x2014;" horiz-adv-x="1530" vert-adv-y="2458" 
d="M1440 633v-100h-1352v100h1352z" />
    <glyph glyph-name="afii00208" unicode="&#x2015;" horiz-adv-x="1530" vert-adv-y="2458" 
d="M1440 633v-100h-1352v100h1352z" />
    <glyph glyph-name="quoteleft" unicode="&#x2018;" horiz-adv-x="240" vert-adv-y="2458" 
d="M129 1143l-92 383l121 12l10 -397z" />
    <glyph glyph-name="quoteright" unicode="&#x2019;" horiz-adv-x="270" vert-adv-y="2458" 
d="M207 1526l-92 -383l-39 -2l10 397z" />
    <glyph glyph-name="quotesinglbase" unicode="&#x201a;" horiz-adv-x="270" vert-adv-y="2458" 
d="M76 -160l10 396l121 -13l-92 -381z" />
    <glyph glyph-name="quotedblleft" unicode="&#x201c;" horiz-adv-x="492" vert-adv-y="2458" 
d="M371 1143l-92 383l121 12l12 -397zM158 1143l-92 383l121 12l10 -397z" />
    <glyph glyph-name="quotedblright" unicode="&#x201d;" horiz-adv-x="504" vert-adv-y="2458" 
d="M86 1141l10 397l121 -12l-92 -383zM299 1141l12 397l121 -12l-92 -383z" />
    <glyph glyph-name="quotedblbase" unicode="&#x201e;" horiz-adv-x="504" vert-adv-y="2458" 
d="M86 -160l10 396l121 -13l-92 -381zM299 -160l12 396l121 -13l-92 -381z" />
    <glyph glyph-name="dagger" unicode="&#x2020;" horiz-adv-x="1190" vert-adv-y="2458" 
d="M537 913h-498v121h498v502h121v-502h491v-121h-491v-1292h-121v1292z" />
    <glyph glyph-name="daggerdbl" unicode="&#x2021;" horiz-adv-x="1192" vert-adv-y="2458" 
d="M539 913h-500v121h500v502h119v-502h495v-121h-495v-286h495v-119h-495v-889h-119v889h-500v119h500v286z" />
    <glyph glyph-name="bullet" unicode="&#x2022;" horiz-adv-x="449" vert-adv-y="2458" 
d="M224 766q61 0 106 -45t45 -107q0 -63 -44 -107q-45 -44 -108 -44t-107 44t-44 107q0 62 44 107q45 45 108 45z" />
    <glyph glyph-name="ellipsis" unicode="&#x2026;" horiz-adv-x="1174" vert-adv-y="2458" 
d="M169 124q22 0 40 -16q25 -21 25 -49q0 -27 -20 -47q-19 -20 -46 -20q-28 0 -47 19q-19 20 -19 48q0 26 19 45q20 20 48 20zM585 124q26 0 46 -20q19 -20 19 -45q0 -28 -20 -48q-18 -19 -45 -19q-28 0 -47 20q-20 19 -20 47q0 26 19 45q20 20 48 20zM1003 124q23 0 43 -16
q24 -21 24 -49q0 -27 -20 -47t-47 -20t-46 19t-19 48q0 26 19 45q19 20 46 20z" />
    <glyph glyph-name="perthousand" unicode="&#x2030;" horiz-adv-x="2572" vert-adv-y="2458" 
d="M444 1536q150 0 258 -107q107 -108 107 -262q0 -153 -107 -260q-108 -108 -261 -108q-154 0 -261 108q-108 107 -108 260t108 262q106 107 264 107zM438 1430q-109 0 -186 -77q-76 -76 -76 -185q0 -111 77 -188t188 -77q110 0 187 77t77 188q0 109 -76 185
q-76 77 -191 77zM1359 735q151 0 258 -107q108 -108 108 -262q0 -153 -108 -260q-107 -108 -261 -108t-261 108q-108 107 -108 260t108 262q106 107 264 107zM1354 631q-109 0 -186 -77t-77 -187q0 -111 77 -188t188 -77t188 77t77 187q0 111 -77 188q-76 77 -190 77z
M2146 735q150 0 258 -107q107 -108 107 -262q0 -153 -107 -260q-108 -108 -261 -108q-154 0 -261 108q-108 107 -108 260t108 262q106 107 264 107zM2140 631q-108 0 -185 -77t-77 -187q0 -111 77 -188t188 -77q109 0 185 76q77 77 77 188q0 112 -77 189q-75 76 -188 76z
M508 -14l-78 43l830 1519l76 -47z" />
    <glyph glyph-name="guilsinglleft" unicode="&#x2039;" horiz-adv-x="449" vert-adv-y="2458" 
d="M150 555l223 -346l-82 -57l-260 403l260 403l82 -57z" />
    <glyph glyph-name="guilsinglright" unicode="&#x203a;" horiz-adv-x="477" vert-adv-y="2458" 
d="M277 555l-223 347l84 56l258 -403l-258 -403l-84 56z" />
    <glyph glyph-name="fraction" unicode="&#x2044;" horiz-adv-x="969" vert-adv-y="2458" 
d="M109 -16l-80 39l838 1533l76 -47z" />
    <glyph glyph-name="Euro" unicode="&#x20ac;" horiz-adv-x="1176" vert-adv-y="2458" 
d="M915 936v-100h-614v-146h614v-100h-614v-133q0 -137 104 -242q105 -106 250 -106q127 0 222 80q81 68 108 186l112 -45q-41 -154 -151 -242q-127 -102 -292 -102q-196 0 -337 141q-141 139 -141 330v133h-113v100h113v146h-113v100h113v141q0 188 139 328
q142 143 338 143q160 0 288 -101q115 -91 160 -253l-116 -41q-51 114 -103 171q-89 97 -226 97q-148 0 -252 -105q-103 -103 -103 -241v-139h614z" />
    <glyph glyph-name="trademark" unicode="&#x2122;" horiz-adv-x="1298" vert-adv-y="2458" 
d="M645 768h-61v768h79l246 -655q106 260 249 655h79v-768h-61v651l-125 -337l-117 -314h-47l-29 78l-45 124l-46 124l-46 123l-47 124l-29 78v-651zM514 1536v-63h-213q-2 -11 -2 -37v-667h-61v634q-1 31 -4 70h-209v63h489z" />
    <glyph glyph-name="minus" unicode="&#x2212;" horiz-adv-x="1083" vert-adv-y="2458" 
d="M995 575v-100h-907v100h907z" />
    <glyph glyph-name="dotmath" unicode="&#x22c5;" horiz-adv-x="268" vert-adv-y="2458" 
d="M135 844q27 0 46 -20q20 -19 20 -46q0 -28 -20 -48q-19 -19 -46 -19t-47 20t-20 47t19 46q20 20 48 20z" />
    <glyph glyph-name="glyph241" vert-adv-y="2458" 
 />
    <glyph glyph-name="glyph242" vert-adv-y="2458" 
 />
    <glyph glyph-name="glyph243" vert-adv-y="2458" 
 />
    <glyph glyph-name="glyph244" vert-adv-y="2458" 
 />
    <glyph glyph-name="glyph245" vert-adv-y="2458" 
 />
    <glyph glyph-name="glyph246" vert-adv-y="2458" 
 />
    <glyph glyph-name="glyph247" vert-adv-y="2458" 
 />
    <glyph glyph-name="glyph248" vert-adv-y="2458" 
 />
    <glyph glyph-name="glyph249" vert-adv-y="2458" 
 />
    <glyph glyph-name="glyph250" vert-adv-y="2458" 
 />
    <glyph glyph-name="glyph251" vert-adv-y="2458" 
 />
    <glyph glyph-name="glyph252" vert-adv-y="2458" 
 />
    <glyph glyph-name="glyph253" vert-adv-y="2458" 
 />
    <glyph glyph-name="glyph254" vert-adv-y="2458" 
 />
    <glyph glyph-name="glyph255" vert-adv-y="2458" 
 />
    <glyph glyph-name="glyph256" vert-adv-y="2458" 
 />
    <glyph glyph-name="glyph257" vert-adv-y="2458" 
 />
    <glyph glyph-name="glyph258" vert-adv-y="2458" 
 />
    <glyph glyph-name="glyph259" vert-adv-y="2458" 
 />
    <glyph glyph-name="glyph260" vert-adv-y="2458" 
 />
    <glyph glyph-name="glyph261" vert-adv-y="2458" 
 />
    <glyph glyph-name="glyph262" vert-adv-y="2458" 
 />
    <glyph glyph-name="glyph263" vert-adv-y="2458" 
 />
    <glyph glyph-name="glyph264" vert-adv-y="2458" 
 />
    <glyph glyph-name="glyph265" vert-adv-y="2458" 
 />
    <glyph glyph-name="glyph266" vert-adv-y="2458" 
 />
    <glyph glyph-name="glyph267" vert-adv-y="2458" 
 />
    <glyph glyph-name="glyph268" vert-adv-y="2458" 
 />
    <glyph glyph-name="glyph269" vert-adv-y="2458" 
 />
    <glyph glyph-name="glyph270" vert-adv-y="2458" 
 />
    <glyph glyph-name="glyph271" vert-adv-y="2458" 
 />
    <glyph glyph-name="glyph272" vert-adv-y="2458" 
 />
    <glyph glyph-name="glyph273" vert-adv-y="2458" 
 />
    <glyph glyph-name="glyph274" vert-adv-y="2458" 
 />
    <glyph glyph-name="glyph275" vert-adv-y="2458" 
 />
    <glyph glyph-name="glyph276" vert-adv-y="2458" 
 />
    <glyph glyph-name="glyph277" vert-adv-y="2458" 
 />
    <glyph glyph-name="glyph278" vert-adv-y="2458" 
 />
    <glyph glyph-name="glyph279" vert-adv-y="2458" 
 />
    <glyph glyph-name="glyph280" vert-adv-y="2458" 
 />
    <glyph glyph-name="glyph281" vert-adv-y="2458" 
 />
    <glyph glyph-name="glyph282" vert-adv-y="2458" 
 />
    <glyph glyph-name="glyph283" vert-adv-y="2458" 
 />
    <glyph glyph-name="glyph284" vert-adv-y="2458" 
 />
    <glyph glyph-name="glyph285" vert-adv-y="2458" 
 />
    <glyph glyph-name="glyph286" vert-adv-y="2458" 
 />
    <glyph glyph-name="glyph287" vert-adv-y="2458" 
 />
    <glyph glyph-name="glyph288" vert-adv-y="2458" 
 />
    <glyph glyph-name="glyph289" vert-adv-y="2458" 
 />
    <glyph glyph-name="glyph290" vert-adv-y="2458" 
 />
    <glyph glyph-name="glyph291" vert-adv-y="2458" 
 />
    <glyph glyph-name="glyph292" vert-adv-y="2458" 
 />
    <glyph glyph-name="glyph293" vert-adv-y="2458" 
 />
    <glyph glyph-name="glyph294" vert-adv-y="2458" 
 />
    <glyph glyph-name="glyph295" vert-adv-y="2458" 
 />
    <glyph glyph-name="glyph296" vert-adv-y="2458" 
 />
    <glyph glyph-name="glyph297" vert-adv-y="2458" 
 />
    <glyph glyph-name="glyph298" vert-adv-y="2458" 
 />
    <glyph glyph-name="glyph299" vert-adv-y="2458" 
 />
    <glyph glyph-name="glyph300" vert-adv-y="2458" 
 />
    <glyph glyph-name="glyph301" vert-adv-y="2458" 
 />
    <glyph glyph-name="glyph302" vert-adv-y="2458" 
 />
    <glyph glyph-name="glyph303" vert-adv-y="2458" 
 />
    <glyph glyph-name="glyph304" vert-adv-y="2458" 
 />
    <glyph glyph-name="glyph305" vert-adv-y="2458" 
 />
    <glyph glyph-name="glyph306" vert-adv-y="2458" 
 />
    <glyph glyph-name="glyph307" vert-adv-y="2458" 
 />
    <glyph glyph-name="glyph308" vert-adv-y="2458" 
 />
    <glyph glyph-name="glyph309" vert-adv-y="2458" 
 />
    <glyph glyph-name="glyph310" vert-adv-y="2458" 
 />
    <glyph glyph-name="glyph311" vert-adv-y="2458" 
 />
    <glyph glyph-name="glyph312" vert-adv-y="2458" 
 />
    <glyph glyph-name="glyph313" vert-adv-y="2458" 
 />
    <glyph glyph-name="glyph314" vert-adv-y="2458" 
 />
    <glyph glyph-name="glyph315" vert-adv-y="2458" 
 />
    </font>
</defs>
</svg>
