<?xml version="1.0" standalone="no"?>
<!DOCTYPE svg PUBLIC "-//W3C//DTD SVG 1.1//EN" "http://www.w3.org/Graphics/SVG/1.1/DTD/svg11.dtd" >
<svg>
<metadata>
Created by FontForge 20090622 at Fri Jul  1 08:11:44 2016
 By deploy user
Copyright (c) 2013 by Thinkdust. All rights reserved.
</metadata>
<defs>
<font id="Nanami-Bold" horiz-adv-x="594" vert-adv-y="2048" >
  <font-face 
    font-family="Nanami"
    font-weight="400"
    font-stretch="normal"
    units-per-em="2048"
    panose-1="0 0 0 0 0 0 0 0 0 0"
    ascent="1587"
    descent="-461"
    x-height="1024"
    cap-height="1532"
    bbox="-139 -440 2491 2003"
    underline-thickness="186"
    underline-position="-78"
    unicode-range="U+0020-U+FB02"
  />
<missing-glyph vert-adv-y="2458" 
d="M59 0v1532h476v-1532h-476zM476 59v1414h-358v-1414h358z" />
    <glyph glyph-name="fi" unicode="fi" horiz-adv-x="1382" vert-adv-y="2458" 
d="M262 1024v90q2 158 88 238q72 66 200 67h218v-279h-109q-83 0 -84 -67v-49h263v-285h-263v-739h-313v739h-133v285h133zM1149 1372q61 0 110 -49q47 -47 47 -108q0 -64 -47 -111q-48 -47 -111 -47q-65 0 -111 46q-46 47 -46 113q0 63 46 109q46 47 112 47zM992 0v1024
h313v-1024h-313z" />
    <glyph glyph-name="fl" unicode="fl" horiz-adv-x="1436" vert-adv-y="2458" 
d="M262 1024v90q2 158 88 238q72 66 200 67h218v-279h-109q-83 0 -84 -67v-49h263v-285h-263v-739h-313v739h-133v285h133zM1043 0v1415h313v-1415h-313z" />
    <glyph glyph-name=".notdef" vert-adv-y="2458" 
d="M59 0v1532h476v-1532h-476zM476 59v1414h-358v-1414h358z" />
    <glyph glyph-name=".null" horiz-adv-x="0" vert-adv-y="0" 
 />
    <glyph glyph-name="nonmarkingreturn" vert-adv-y="2458" 
 />
    <glyph glyph-name="space" unicode=" " vert-adv-y="2458" 
 />
    <glyph glyph-name="exclam" unicode="!" horiz-adv-x="463" vert-adv-y="2458" 
d="M385 1513v-1183h-313v1183h313zM228 307q66 0 112 -46q45 -46 45 -111q0 -63 -47 -111q-47 -47 -112 -47q-62 0 -108 47q-48 48 -48 111q0 64 47 111q46 46 111 46z" />
    <glyph glyph-name="quotedbl" unicode="&#x22;" horiz-adv-x="844" vert-adv-y="2458" 
d="M457 901v612h270v-612h-270zM98 901v612h268v-612h-268z" />
    <glyph glyph-name="numbersign" unicode="#" horiz-adv-x="1442" vert-adv-y="2458" 
d="M384 630l27 176h-258v236h291l57 406h236l-58 -406h140l57 406h236l-56 -406h261v-236h-296l-24 -176h260v-233h-293l-57 -397h-232l52 397h-138l-57 -397h-234l54 397h-258v233h290zM649 806l-25 -176h137l25 176h-137z" />
    <glyph glyph-name="dollar" unicode="$" horiz-adv-x="1096" vert-adv-y="2458" 
d="M92 336l295 49l16 -28q28 -48 122 -48q55 0 89 34q37 36 37 96q0 88 -69 132q-27 18 -118 49q-370 130 -370 454q0 344 324 434v188h268v-195q189 -66 250 -256l-291 -139l-21 47q-18 43 -93 43q-52 0 -85 -45q-24 -34 -24 -73q0 -90 165 -154l27 -10q363 -140 363 -467
q0 -192 -123 -325q-65 -70 -168 -114v-188h-268v178q-120 25 -201 85q-121 99 -125 253z" />
    <glyph glyph-name="percent" unicode="%" horiz-adv-x="1874" vert-adv-y="2458" 
d="M612 -31l-154 94l750 1465l160 -80l-737 -1445q-11 -21 -19 -34zM1354 750q152 0 262 -110t110 -265t-110 -265t-265 -110t-265 110q-110 109 -110 265q0 154 110 265q109 110 268 110zM1350 510q-54 0 -94 -40t-40 -95t40 -95t95 -40q56 0 96 39q39 40 39 96t-39 95
q-39 40 -97 40zM482 1514q152 0 262 -111t110 -266t-110 -265t-265 -110t-265 110q-110 109 -110 265q0 154 110 266q109 111 268 111zM478 1272q-56 0 -95 -39t-39 -96q0 -55 39 -94t96 -39q56 0 96 40q39 39 39 93q0 56 -40 96q-38 39 -96 39z" />
    <glyph glyph-name="ampersand" unicode="&#x26;" horiz-adv-x="1481" vert-adv-y="2458" 
d="M1011 1032l273 -135l-203 -387l319 -293l-200 -227l-262 239q-141 -245 -403 -245q-200 0 -339 138q-135 134 -135 328q0 241 233 412q-131 122 -131 290q0 152 111 262q115 114 274 114q153 0 261 -109t108 -262q0 -182 -180 -323l115 -109zM485 649q-123 -80 -123 -193
q0 -72 50 -121q49 -50 117 -50q90 0 175 159zM538 1026q5 5 15 14q65 54 65 106q0 32 -23 54q-22 23 -53 23q-32 0 -56 -23q-22 -22 -22 -53q0 -42 33 -79q28 -31 33 -36q7 -7 8 -6z" />
    <glyph glyph-name="quotesingle" unicode="'" horiz-adv-x="463" vert-adv-y="2458" 
d="M92 901v612h268v-612h-268z" />
    <glyph glyph-name="parenleft" unicode="(" horiz-adv-x="702" vert-adv-y="2458" 
d="M356 -178q-264 204 -264 532v717q0 326 264 531l207 -226q-81 -83 -112 -150q-32 -71 -33 -222v-582q0 -131 24 -200q30 -79 121 -173z" />
    <glyph glyph-name="parenright" unicode=")" horiz-adv-x="702" vert-adv-y="2458" 
d="M332 1602q262 -208 262 -531v-717q0 -324 -262 -532l-209 227q81 84 112 151q32 69 33 222v582q0 131 -23 199q-30 78 -122 173z" />
    <glyph glyph-name="asterisk" unicode="*" horiz-adv-x="903" vert-adv-y="2458" 
d="M66 926v274l262 -92l-248 123l191 191l125 -248l-90 264h274l-92 -262l123 248l191 -193l-250 -123l266 90v-274l-264 92l248 -123l-189 -189l-127 248l92 -266h-274l92 264l-123 -248l-191 189l248 127z" />
    <glyph glyph-name="plus" unicode="+" horiz-adv-x="1229" vert-adv-y="2458" 
d="M465 657v369h270v-369h375v-270h-375v-371h-270v371h-377v270h377z" />
    <glyph glyph-name="comma" unicode="," horiz-adv-x="461" vert-adv-y="2458" 
d="M66 231l268 54l37 -414l-196 -23z" />
    <glyph glyph-name="hyphen" unicode="-" horiz-adv-x="879" vert-adv-y="2458" 
d="M96 719h666v-270h-666v270z" />
    <glyph glyph-name="period" unicode="." horiz-adv-x="465" vert-adv-y="2458" 
d="M231 267q64 0 105 -56q29 -40 29 -87q0 -56 -39 -94q-38 -38 -96 -38q-61 0 -102 40q-38 37 -38 92q0 59 43 103q41 40 98 40z" />
    <glyph glyph-name="slash" unicode="/" horiz-adv-x="735" vert-adv-y="2458" 
d="M225 -16l-168 20l436 1526l164 -37z" />
    <glyph glyph-name="zero" unicode="0" horiz-adv-x="1229" vert-adv-y="2458" 
d="M1122 1006v-500q0 -211 -155 -367q-155 -155 -367 -155t-367 155q-155 156 -155 367v500q0 212 155 368q154 154 367 154q212 0 367 -154q155 -156 155 -368zM404 1004v-494q0 -79 59 -138q58 -58 137 -58q80 0 138 58q58 59 58 138v494q0 78 -58 137q-59 59 -138 59
q-78 0 -137 -59t-59 -137z" />
    <glyph glyph-name="one" unicode="1" horiz-adv-x="1229" vert-adv-y="2458" 
d="M285 1205v311h559v-1516h-326v1205h-233z" />
    <glyph glyph-name="two" unicode="2" horiz-adv-x="1229" vert-adv-y="2458" 
d="M139 0l2 270l475 508q95 101 123 143q45 68 45 133q0 148 -153 148q-132 0 -240 -133l-213 223q203 236 469 236q200 0 335 -135q134 -134 134 -327q0 -225 -238 -464l-280 -283h520v-319h-979z" />
    <glyph glyph-name="three" unicode="3" horiz-adv-x="1229" vert-adv-y="2458" 
d="M348 1116l-146 262q182 164 382 164q178 0 293 -115q112 -112 112 -275q0 -157 -123 -278q229 -154 229 -407q0 -202 -134 -336q-144 -145 -365 -145q-252 0 -453 219l164 274q151 -161 271 -161q90 0 145 54q49 49 49 117q0 78 -81 140q-70 53 -157 57l-123 6v252l55 6
q85 10 141 47q65 44 65 112q0 48 -32 79q-34 34 -91 34q-89 0 -201 -106z" />
    <glyph glyph-name="four" unicode="4" horiz-adv-x="1229" vert-adv-y="2458" 
d="M80 236v305l608 970h322v-954h135v-330h-135v-227h-328v236h-602zM445 543h237l2 415z" />
    <glyph glyph-name="five" unicode="5" horiz-adv-x="1229" vert-adv-y="2458" 
d="M270 1513h735v-324h-514l-29 -143q57 13 122 13q222 0 379 -157q157 -156 157 -379t-157 -381t-379 -158q-196 0 -347 128q-83 71 -145 191l292 135q69 -128 200 -128q89 0 149 60q61 61 61 152q0 92 -60 152t-152 60q-110 0 -257 -97l-192 188z" />
    <glyph glyph-name="six" unicode="6" horiz-adv-x="1229" vert-adv-y="2458" 
d="M663 1044q230 -38 355 -181q124 -141 124 -335q0 -227 -159 -386q-158 -158 -384 -158q-225 0 -383 158q-159 159 -159 386q0 155 74 273l467 745l276 -174zM597 746q-91 0 -153 -62q-61 -62 -61 -155q0 -94 61 -155q62 -62 155 -62t155 62t62 155q0 92 -62 155
q-62 62 -157 62z" />
    <glyph glyph-name="seven" unicode="7" horiz-adv-x="1229" vert-adv-y="2458" 
d="M154 1191v322h901v-222l-555 -1322l-299 131l459 1091h-506z" />
    <glyph glyph-name="eight" unicode="8" horiz-adv-x="1229" vert-adv-y="2458" 
d="M268 844q-104 134 -104 248q0 178 129 307q128 127 307 127t307 -127q129 -129 129 -304q0 -116 -106 -251q176 -165 176 -359q0 -206 -148 -354q-149 -149 -358 -149t-357 149q-149 148 -149 351q0 181 174 362zM598 668q-74 0 -128 -54q-52 -52 -52 -124q0 -75 54 -129
q53 -53 128 -53q74 0 127 53t53 129q0 73 -52 125q-52 53 -130 53zM600 1202q-46 0 -79 -33t-33 -79q0 -45 34 -79t78 -34q46 0 79 33t33 80t-32 80q-32 32 -80 32z" />
    <glyph glyph-name="nine" unicode="9" horiz-adv-x="1229" vert-adv-y="2458" 
d="M536 459q-234 44 -357 186q-122 139 -122 334q0 227 158 385q157 158 384 158q228 0 385 -158q158 -157 158 -385q0 -159 -73 -274l-467 -736l-277 176zM598 1196q-91 0 -153 -62t-62 -155q0 -92 62 -154q63 -63 155 -63t154 63q62 62 62 154q0 93 -62 155
q-61 62 -156 62z" />
    <glyph glyph-name="colon" unicode=":" horiz-adv-x="469" vert-adv-y="2458" 
d="M233 267q64 0 105 -56q29 -40 29 -87q0 -56 -39 -94q-38 -38 -96 -38q-61 0 -102 40q-38 37 -38 92q0 59 43 103q41 40 98 40zM234 953q55 0 92 -37q41 -41 41 -104q0 -58 -39 -96q-38 -38 -96 -38q-62 0 -102 40q-38 37 -38 94q0 62 40 102q39 39 102 39z" />
    <glyph glyph-name="semicolon" unicode=";" horiz-adv-x="463" vert-adv-y="2458" 
d="M223 955q58 0 99 -40q40 -41 40 -99q0 -54 -38 -93q-42 -41 -102 -41q-55 0 -93 39q-40 39 -40 94q0 61 42 102q37 38 92 38zM66 231l268 54l37 -414l-196 -23z" />
    <glyph glyph-name="less" unicode="&#x3c;" horiz-adv-x="1372" vert-adv-y="2458" 
d="M104 418v198l1079 447v-225l-774 -330l772 -313v-224z" />
    <glyph glyph-name="equal" unicode="=" horiz-adv-x="1169" vert-adv-y="2458" 
d="M100 495h940v-268h-940v268zM100 825h940v-270h-940v270z" />
    <glyph glyph-name="greater" unicode="&#x3e;" horiz-adv-x="1370" vert-adv-y="2458" 
d="M1183 616v-198l-1079 -447v224l772 311l-774 332v225z" />
    <glyph glyph-name="question" unicode="?" horiz-adv-x="922" vert-adv-y="2458" 
d="M404 307q64 0 109 -46q46 -46 46 -110q0 -68 -50 -116q-44 -43 -106 -43q-63 0 -111 48t-48 110q0 63 48 111q46 46 112 46zM563 338l-321 -2q-41 124 -41 260q0 113 53 205q40 71 142 168q112 107 112 173q0 64 -58 64q-72 0 -212 -151l-207 209q212 264 440 264
q183 0 283 -112q88 -96 88 -266q0 -150 -64 -247q-38 -58 -128 -133q-62 -52 -92 -91q-40 -51 -40 -126q0 -66 23 -143q1 -5 5 -21q8 -29 17 -51z" />
    <glyph glyph-name="at" unicode="@" horiz-adv-x="1864" vert-adv-y="2458" 
d="M1523 203q-292 -219 -603 -219q-332 0 -563 185q-253 202 -253 544q0 322 231 553q262 262 652 262q304 0 512 -166q217 -172 217 -451q0 -260 -177 -438q-138 -139 -320 -139q-153 0 -195 110q-103 -110 -241 -110q-143 0 -219 85q-71 80 -71 227q0 198 113 339
q123 154 314 154q141 0 202 -95l33 68h180l-131 -522q-11 -43 -11 -46q0 -40 52 -40q105 0 190 118q91 127 91 289q0 237 -204 353q-142 80 -333 80q-305 0 -510 -205q-185 -185 -185 -435q0 -260 213 -413q172 -123 420 -123q292 0 514 149zM1013 676l35 139q6 24 6 51
q0 60 -37 93q-33 30 -83 30q-92 0 -160 -94q-74 -103 -74 -248q0 -159 118 -159q68 0 122 55q53 53 73 133z" />
    <glyph glyph-name="A" unicode="A" horiz-adv-x="1536" vert-adv-y="2458" 
d="M1490 0h-352l-121 276h-528l-115 -276h-354l610 1532h248zM755 948l-145 -361h284z" />
    <glyph glyph-name="B" unicode="B" horiz-adv-x="1169" vert-adv-y="2458" 
d="M893 850q164 -160 164 -364q0 -198 -138 -340q-142 -146 -337 -146h-484v1532h459q108 0 227 -78q187 -124 187 -352q0 -135 -78 -252zM430 330h141q61 0 106 44q50 50 50 123q0 71 -49 120q-45 44 -107 44h-141v-331zM430 952h109q43 0 79 39q34 37 34 89t-35 87
q-36 35 -89 35h-98v-250z" />
    <glyph glyph-name="C" unicode="C" horiz-adv-x="1460" vert-adv-y="2458" 
d="M1382 1364l-201 -260q-151 114 -302 114q-123 0 -241 -72q-99 -61 -155 -161q-57 -100 -57 -219q0 -184 128 -314q133 -136 324 -136q156 0 303 114l201 -262q-49 -46 -119 -85q-177 -99 -384 -99q-326 0 -555 228q-228 229 -228 554q0 326 228 554q229 228 555 228
q303 0 503 -184z" />
    <glyph glyph-name="D" unicode="D" horiz-adv-x="1503" vert-adv-y="2458" 
d="M102 0v1532h510q319 0 545 -226q225 -225 225 -540t-225 -540q-226 -226 -545 -226h-510zM432 330h180q194 0 318 123q122 122 122 314q0 196 -121 317q-119 118 -306 118h-193v-872z" />
    <glyph glyph-name="E" unicode="E" horiz-adv-x="1079" vert-adv-y="2458" 
d="M960 604h-532v-274h532v-330h-862v1532h862v-330h-532v-268h532v-330z" />
    <glyph glyph-name="F" unicode="F" horiz-adv-x="1065" vert-adv-y="2458" 
d="M98 0v1532h864v-330h-534v-268h534v-330h-534v-604h-330z" />
    <glyph glyph-name="G" unicode="G" horiz-adv-x="1638" vert-adv-y="2458" 
d="M1513 838l2 -520q-212 -334 -627 -334q-333 0 -562 229q-228 228 -228 553t228 554q229 228 556 228q292 0 504 -184l-203 -260q-146 114 -304 114q-184 0 -316 -132q-133 -133 -133 -319q0 -185 133 -318q134 -133 323 -133q199 0 287 111v100h-338v311h678z" />
    <glyph glyph-name="H" unicode="H" horiz-adv-x="1343" vert-adv-y="2458" 
d="M430 1532v-598h460v598h330v-1532h-330v604h-460v-604h-330v1532h330z" />
    <glyph glyph-name="I" unicode="I" horiz-adv-x="526" vert-adv-y="2458" 
d="M94 1532h330v-1532h-330v1532z" />
    <glyph glyph-name="J" unicode="J" horiz-adv-x="965" vert-adv-y="2458" 
d="M47 219l295 174q23 -79 90 -79q40 0 69 29q31 31 31 75v1114h330v-1114q0 -181 -127 -309q-125 -125 -303 -125q-247 0 -385 235z" />
    <glyph glyph-name="K" unicode="K" horiz-adv-x="1194" vert-adv-y="2458" 
d="M100 0v1532h330v-593l371 593h377l-469 -768l477 -764h-387l-369 657v-657h-330z" />
    <glyph glyph-name="L" unicode="L" horiz-adv-x="1024" vert-adv-y="2458" 
d="M428 330h497v-330h-827v1534h330v-1204z" />
    <glyph glyph-name="M" unicode="M" horiz-adv-x="1790" vert-adv-y="2458" 
d="M878 541l362 991h418v-1532h-328v983l-329 -983h-248l-311 874v-874h-338v1532h412z" />
    <glyph glyph-name="N" unicode="N" horiz-adv-x="1456" vert-adv-y="2458" 
d="M100 1532h303l615 -885v883h313v-1530h-301l-617 887v-887h-313v1532z" />
    <glyph glyph-name="O" unicode="O" horiz-adv-x="1794" vert-adv-y="2458" 
d="M889 1548q318 0 547 -228q229 -229 229 -554t-229 -554q-229 -228 -554 -228t-554 228q-228 229 -228 554q0 324 228 554q227 228 561 228zM879 1218q-183 0 -316 -132q-133 -133 -133 -319q0 -185 133 -318q134 -133 320 -133t318 132t132 318q0 188 -133 321
q-129 131 -321 131z" />
    <glyph glyph-name="P" unicode="P" horiz-adv-x="1139" vert-adv-y="2458" 
d="M100 0v1532h480q194 0 322 -129q132 -133 132 -340q0 -215 -141 -354q-127 -126 -313 -126h-150v-583h-330zM430 915h150q68 0 101 59q23 40 23 88q0 69 -44 110q-32 30 -80 30h-150v-287z" />
    <glyph glyph-name="Q" unicode="Q" horiz-adv-x="1794" vert-adv-y="2458" 
d="M1265 86q-190 -102 -384 -102q-324 0 -553 228q-228 229 -228 554q0 326 228 554q229 228 554 228t554 -228q229 -229 229 -553q0 -246 -154 -464l119 -110l-236 -213zM1271 543q62 101 62 220q0 192 -133 324q-131 131 -317 131q-187 0 -320 -132q-133 -133 -133 -319
q0 -185 133 -318q134 -133 319 -133q71 0 142 22l-119 121l231 223z" />
    <glyph glyph-name="R" unicode="R" horiz-adv-x="1208" vert-adv-y="2458" 
d="M815 0l-344 598h-41v-598h-332v1532h502q200 0 335 -136q138 -138 138 -349q0 -274 -246 -412l365 -635h-377zM430 901h170q72 0 111 53q30 41 30 98q0 69 -43 112q-38 38 -98 38h-170v-301z" />
    <glyph glyph-name="S" unicode="S" horiz-adv-x="1104" vert-adv-y="2458" 
d="M88 334l266 115q76 -136 182 -136q52 0 87 35q38 37 38 98q0 88 -70 132q-29 18 -120 50q-375 133 -375 460q0 204 126 331q124 125 321 125q170 0 294 -110q71 -64 113 -172l-295 -142q-52 92 -119 92q-51 0 -86 -47q-24 -34 -24 -73q0 -91 170 -156l27 -10
q368 -142 368 -475q0 -206 -134 -340q-128 -127 -308 -127h-17q-237 0 -371 197q-47 69 -73 153z" />
    <glyph glyph-name="T" unicode="T" horiz-adv-x="1194" vert-adv-y="2458" 
d="M420 0v1202h-330v330h993v-328h-333v-1204h-330z" />
    <glyph glyph-name="U" unicode="U" horiz-adv-x="1243" vert-adv-y="2458" 
d="M1124 1530v-1084q0 -217 -188 -353q-143 -103 -320 -103q-234 0 -392 159q-126 127 -126 297v1084h330v-1045q0 -75 68 -124q56 -39 121 -39q69 0 120 42q57 45 57 113v1053h330z" />
    <glyph glyph-name="V" unicode="V" horiz-adv-x="1413" vert-adv-y="2458" 
d="M1008 1532h356l-547 -1532h-247l-539 1532h354l308 -944z" />
    <glyph glyph-name="W" unicode="W" horiz-adv-x="1913" vert-adv-y="2458" 
d="M1403 0h-266l-176 858l-219 -858h-262l-412 1532h346l197 -780l202 780h263l196 -778l197 778h348z" />
    <glyph glyph-name="X" unicode="X" horiz-adv-x="1348" vert-adv-y="2458" 
d="M1333 1532l-477 -768l477 -764h-389l-280 455l-287 -455h-383l474 766l-472 768h385l283 -457l280 455h389z" />
    <glyph glyph-name="Y" unicode="Y" horiz-adv-x="1217" vert-adv-y="2458" 
d="M6 1532h365l227 -569l230 567h360l-424 -977v-553h-330v553z" />
    <glyph glyph-name="Z" unicode="Z" horiz-adv-x="1200" vert-adv-y="2458" 
d="M96 248l590 954h-590v330h983v-244l-586 -958h586v-330h-983v248z" />
    <glyph glyph-name="bracketleft" unicode="[" horiz-adv-x="727" vert-adv-y="2458" 
d="M96 -287v1929h524v-283h-198v-1365h198v-281h-524z" />
    <glyph glyph-name="backslash" unicode="\" horiz-adv-x="737" vert-adv-y="2458" 
d="M659 23l-162 -46l-438 1514l162 49z" />
    <glyph glyph-name="bracketright" unicode="]" horiz-adv-x="727" vert-adv-y="2458" 
d="M617 1642v-1929h-521v281h197v1365h-197v283h521z" />
    <glyph glyph-name="asciicircum" unicode="^" horiz-adv-x="1147" vert-adv-y="2458" 
d="M561 1155l-254 -465h-293l453 823h186l453 -823h-289z" />
    <glyph glyph-name="underscore" unicode="_" horiz-adv-x="1372" vert-adv-y="2458" 
d="M-8 -78h1356v-186h-1356v186z" />
    <glyph glyph-name="grave" unicode="`" horiz-adv-x="694" vert-adv-y="2458" 
d="M195 1553l407 -175l-145 -231l-377 154z" />
    <glyph glyph-name="a" unicode="a" horiz-adv-x="1202" vert-adv-y="2458" 
d="M832 55q-126 -71 -264 -71q-218 0 -372 156q-154 155 -154 372t154 372q154 156 373 156q126 0 241 -59v43h288v-1034h-266v65zM567 731q-89 0 -151 -63q-63 -63 -63 -156t63 -156q62 -63 152 -63q92 0 154 62q63 63 63 157q0 93 -63 157q-62 62 -155 62z" />
    <glyph glyph-name="b" unicode="b" horiz-adv-x="1233" vert-adv-y="2458" 
d="M78 -6v1423h313v-426q110 49 220 49q216 0 372 -156t156 -372t-156 -372t-371 -156q-133 0 -268 69v-59h-266zM608 731q-89 0 -152 -63t-63 -156t63 -156t154 -63q90 0 154 63t64 156q0 92 -64 156q-63 63 -156 63z" />
    <glyph glyph-name="c" unicode="c" horiz-adv-x="1126" vert-adv-y="2458" 
d="M1069 295q-180 -311 -484 -311q-219 0 -373 155q-155 154 -155 375q0 217 153 371q155 155 373 155q269 0 451 -252l-229 -170l-43 37q-84 72 -170 72q-91 0 -154 -63q-62 -62 -62 -151t62 -152q63 -62 152 -62q106 0 204 133z" />
    <glyph glyph-name="d" unicode="d" horiz-adv-x="1241" vert-adv-y="2458" 
d="M1139 1415v-1421h-268v59q-131 -69 -265 -69q-216 0 -372 156t-156 372t156 372t372 156q110 0 220 -49v424h313zM605 731q-89 0 -152 -63q-64 -63 -64 -156t64 -156q63 -63 154 -63t154 63t63 156t-63 156t-156 63z" />
    <glyph glyph-name="e" unicode="e" horiz-adv-x="1092" vert-adv-y="2458" 
d="M389 406q44 -128 211 -128q118 0 266 69l103 -247q-184 -117 -382 -117q-234 0 -389 155t-155 376q0 218 154 371t371 153q229 0 356 -174q102 -141 102 -339q0 -59 -10 -119h-627zM711 642q-20 98 -155 98q-117 0 -165 -98h320z" />
    <glyph glyph-name="f" unicode="f" horiz-adv-x="834" vert-adv-y="2458" 
d="M178 1024v90q2 158 88 238q72 66 200 67h218v-279h-109q-83 0 -84 -67v-49h263v-285h-263v-739h-313v739h-133v285h133z" />
    <glyph glyph-name="g" unicode="g" horiz-adv-x="1245" vert-adv-y="2458" 
d="M191 -281l195 211q108 -83 199 -83q102 0 174 76q38 40 61 106q-114 -45 -214 -45q-215 0 -371 156t-156 372t156 372q155 156 372 156q133 0 264 -69v59h268v-903q0 -234 -165 -401q-166 -166 -396 -166q-208 0 -387 159zM605 731q-88 0 -151 -63q-64 -63 -64 -156
t64 -156q63 -63 153 -63q91 0 154 63t63 156t-63 156q-62 63 -156 63z" />
    <glyph glyph-name="h" unicode="h" horiz-adv-x="1096" vert-adv-y="2458" 
d="M389 1417v-401q73 24 149 24q228 0 349 -135q106 -118 106 -321v-584h-313v580q0 61 -43 104t-103 43t-103 -43q-44 -43 -44 -104v-580h-309v1417h311z" />
    <glyph glyph-name="i" unicode="i" horiz-adv-x="463" vert-adv-y="2458" 
d="M228 1372q61 0 110 -49q47 -47 47 -108q0 -64 -47 -111t-111 -47q-65 0 -110 46q-47 47 -47 113q0 62 46 109t112 47zM70 0v1024h313v-1024h-313z" />
    <glyph glyph-name="j" unicode="j" horiz-adv-x="463" vert-adv-y="2458" 
d="M-31 -381v311h100v1094h313v-1155q0 -117 -67 -184q-65 -66 -168 -66h-178zM227 1371q60 0 108 -48q48 -47 48 -108q0 -64 -47 -112q-47 -46 -110 -46q-64 0 -110 46q-47 47 -47 112q0 63 46 109q47 47 112 47z" />
    <glyph glyph-name="k" unicode="k" horiz-adv-x="958" vert-adv-y="2458" 
d="M389 1516v-844l221 352h344l-319 -510l325 -514h-352l-138 221l-81 129v-350h-313v1516h313z" />
    <glyph glyph-name="l" unicode="l" horiz-adv-x="463" vert-adv-y="2458" 
d="M70 0v1415h313v-1415h-313z" />
    <glyph glyph-name="m" unicode="m" horiz-adv-x="1729" vert-adv-y="2458" 
d="M82 0v1028h254v-39q85 51 207 51q170 0 300 -90q136 90 307 90q229 0 350 -135q106 -117 106 -321v-584h-311v580q0 61 -44 104t-104 43q-57 0 -99 -38q-47 -43 -47 -99v-590h-313v580q0 61 -43 104t-104 43q-57 0 -99 -38q-47 -44 -47 -99v-590h-313z" />
    <glyph glyph-name="n" unicode="n" horiz-adv-x="1092" vert-adv-y="2458" 
d="M76 0v1028h254v-39q82 51 209 51q228 0 349 -135q106 -118 106 -321v-584h-313v580q0 61 -43 104t-103 43q-58 0 -101 -39q-47 -43 -47 -98v-590h-311z" />
    <glyph glyph-name="o" unicode="o" horiz-adv-x="1192" vert-adv-y="2458" 
d="M591 1040q215 0 369 -154t154 -372q0 -222 -155 -377q-154 -153 -372 -153q-219 0 -373 153q-155 155 -155 376q0 218 154 373q152 154 378 154zM585 727q-88 0 -151 -63q-62 -62 -62 -150q0 -90 62 -153q63 -62 153 -62q89 0 151 62q63 63 63 152q0 88 -63 151
q-62 63 -153 63z" />
    <glyph glyph-name="p" unicode="p" horiz-adv-x="1231" vert-adv-y="2458" 
d="M78 -401v1431h266v-59q135 69 268 69q215 0 371 -156t156 -372t-156 -372t-372 -156q-110 0 -220 49v-434h-313zM608 731q-89 0 -152 -63t-63 -156t63 -156t154 -63q90 0 154 63t64 156q0 92 -64 156q-63 63 -156 63z" />
    <glyph glyph-name="q" unicode="q" horiz-adv-x="1241" vert-adv-y="2458" 
d="M1139 1030v-1431h-313v434q-110 -49 -220 -49q-216 0 -372 156t-156 372t156 372t372 156q134 0 265 -69v59h268zM605 731q-89 0 -152 -63q-64 -63 -64 -156t64 -156q63 -63 154 -63t154 63t63 156t-63 156t-156 63z" />
    <glyph glyph-name="r" unicode="r" horiz-adv-x="758" vert-adv-y="2458" 
d="M72 0v1028h254v-39q77 50 205 51h162v-315h-162q-65 0 -108 -43q-38 -37 -38 -90v-592h-313z" />
    <glyph glyph-name="s" unicode="s" horiz-adv-x="735" vert-adv-y="2458" 
d="M37 229l213 129q43 -73 95 -73q32 0 32 35q0 54 -111 107q-93 45 -141 96q-72 76 -72 200q0 147 87 233q85 85 220 85q200 0 304 -255l-224 -118q-23 74 -64 74q-30 0 -30 -30q0 -38 92 -85q232 -117 232 -327q0 -136 -92 -227q-88 -89 -215 -89q-155 0 -266 139
q-34 43 -60 106z" />
    <glyph glyph-name="t" unicode="t" horiz-adv-x="885" vert-adv-y="2458" 
d="M282 1024v281h311v-281h226v-285h-226v-739h-311v739h-231v285h231z" />
    <glyph glyph-name="u" unicode="u" horiz-adv-x="1096" vert-adv-y="2458" 
d="M994 1024v-1030h-254v41q-84 -51 -209 -51q-228 0 -349 135q-106 118 -106 321v584h311v-580q0 -61 44 -104t104 -43q57 0 99 38q47 43 47 99v590h313z" />
    <glyph glyph-name="v" unicode="v" horiz-adv-x="979" vert-adv-y="2458" 
d="M618 1024h336l-356 -1024h-238l-356 1024h334l141 -479z" />
    <glyph glyph-name="w" unicode="w" horiz-adv-x="1477" vert-adv-y="2458" 
d="M1153 0h-260l-176 496l-170 -496h-263l-276 1024h330l121 -508l139 506h244l145 -494l113 496h327z" />
    <glyph glyph-name="x" unicode="x" horiz-adv-x="1055" vert-adv-y="2458" 
d="M1016 1024l-318 -512l328 -512h-379l-133 254l-131 -254h-377l326 512l-320 512h371l131 -252l131 252h371z" />
    <glyph glyph-name="y" unicode="y" horiz-adv-x="977" vert-adv-y="2458" 
d="M948 1024l-485 -1430h-332l182 520v19l-309 891h336l139 -479l139 479h330z" />
    <glyph glyph-name="z" unicode="z" horiz-adv-x="874" vert-adv-y="2458" 
d="M397 715h-334v309h729v-223l-340 -490h340v-311h-729v239z" />
    <glyph glyph-name="braceleft" unicode="{" horiz-adv-x="793" vert-adv-y="2458" 
d="M94 573v232q98 9 146 63q46 54 47 176v248q0 171 30 231q40 86 148 119q69 19 219 23l2 -213q-83 -8 -115 -45q-31 -38 -32 -147v-252q0 -136 -32 -205q-39 -77 -132 -115q82 -36 120 -96q42 -67 44 -225v-250q1 -94 21 -132q30 -52 126 -61l-2 -213q-252 3 -332 88
q-30 33 -44 78q-21 76 -21 207v248q-2 130 -56 186q-46 44 -137 55z" />
    <glyph glyph-name="bar" unicode="|" horiz-adv-x="467" vert-adv-y="2458" 
d="M362 1513v-1513h-268v1513h268z" />
    <glyph glyph-name="braceright" unicode="}" horiz-adv-x="803" vert-adv-y="2458" 
d="M686 805v-232q-100 -12 -147 -66q-44 -55 -46 -175v-248q0 -171 -30 -231q-40 -86 -148 -119q-69 -19 -219 -23l-2 213q84 8 116 45q29 35 31 148v250q0 135 31 203q37 77 131 118q-81 34 -119 93q-41 67 -43 227v252q-1 93 -21 132q-29 51 -124 60v213q252 -3 332 -87
q30 -34 44 -79q21 -76 21 -207v-248q2 -133 57 -187q46 -43 136 -52z" />
    <glyph glyph-name="asciitilde" unicode="~" horiz-adv-x="1290" vert-adv-y="2458" 
d="M96 319l2 295q184 74 314 74q86 0 291 -51q94 -23 119 -23q125 0 339 91v-261q-37 -26 -97 -50q-127 -50 -247 -50q-66 0 -180 35q-135 41 -214 41q-136 0 -327 -101z" />
    <glyph glyph-name="nonbreakingspace" unicode="&#xa0;" vert-adv-y="2458" 
 />
    <glyph glyph-name="exclamdown" unicode="&#xa1;" horiz-adv-x="463" vert-adv-y="2458" 
d="M385 1198v-1184h-313v1184h313zM227 1536q64 0 111 -48q47 -47 47 -110q0 -65 -45 -111q-47 -46 -113 -46q-64 0 -110 46q-47 47 -47 111q0 63 48 111q46 47 109 47z" />
    <glyph glyph-name="cent" unicode="&#xa2;" horiz-adv-x="1153" vert-adv-y="2458" 
d="M696 1208v-182q214 -47 338 -238l-225 -160l-31 31l-4 4l-4 4q-42 43 -74 62v-430q76 38 117 123l256 -127q-129 -244 -373 -299v-162h-268v172q-141 56 -230 155q-141 158 -141 357q0 218 153 371q83 83 218 127v192h268zM428 696q-80 -74 -80 -181q0 -111 80 -183v364z
" />
    <glyph glyph-name="sterling" unicode="&#xa3;" horiz-adv-x="1327" vert-adv-y="2458" 
d="M184 0v328h141q69 0 68 82v8q1 37 -54 132q-29 50 -65 97h-174v281h88q-12 64 -12 112q0 209 140 349q139 139 351 139q220 0 392 -164l-242 -217q-57 53 -145 53q-78 0 -127 -49q-41 -42 -41 -102q0 -49 32 -121h410v-281h-293q68 -120 68 -229q0 -55 -15 -88h41
q149 1 150 125v37h303q-6 -209 -139 -349q-144 -143 -365 -143h-512z" />
    <glyph glyph-name="currency" unicode="&#xa4;" horiz-adv-x="1444" vert-adv-y="2458" 
d="M96 236l191 192q-78 126 -78 259q0 122 82 263l-199 195l154 153l196 -198q155 82 269 82q116 0 255 -80l195 194l152 -149l-193 -191q82 -140 82 -268q0 -122 -78 -260l193 -192l-150 -150l-190 190q-140 -83 -272 -83q-123 0 -269 83l-190 -190zM705 944
q-100 0 -174 -74q-76 -76 -76 -180q0 -102 74 -177q75 -74 178 -74q102 0 175 73q74 74 74 178q0 105 -75 181q-72 73 -176 73z" />
    <glyph glyph-name="yen" unicode="&#xa5;" horiz-adv-x="1360" vert-adv-y="2458" 
d="M1065 1092h168v-205h-256l-61 -137h317v-205h-403v-545h-328v545h-408v205h318l-60 137h-258v205h168l-180 421h359l223 -562l225 560h356z" />
    <glyph glyph-name="brokenbar" unicode="&#xa6;" horiz-adv-x="465" vert-adv-y="2458" 
d="M94 -20v657h268v-657h-268zM94 889v663h268v-663h-268z" />
    <glyph glyph-name="section" unicode="&#xa7;" horiz-adv-x="1317" vert-adv-y="2458" 
d="M264 934q-84 99 -84 202q0 193 150 302q124 90 299 90q209 0 376 -143v-373q-191 211 -339 211q-46 0 -81 -28q-41 -32 -41 -79q0 -29 25 -53q41 -40 194 -96q185 -67 283 -139q143 -103 143 -258q0 -192 -198 -347q75 -112 75 -203q0 -186 -150 -294q-119 -87 -292 -87
q-298 0 -452 230q-52 79 -78 178h364q59 -103 139 -103q50 0 86 29q31 24 31 61q0 33 -28 62q-30 31 -143 73q-41 16 -90 37q-174 74 -230 121q-125 104 -125 280q0 121 59 212q33 52 107 115zM505 743q-67 -55 -67 -114q0 -73 86 -109l237 -100q76 50 76 113q0 76 -129 129
z" />
    <glyph glyph-name="dieresis" unicode="&#xa8;" horiz-adv-x="928" vert-adv-y="2458" 
d="M654 1513q64 0 109 -45t45 -111q0 -64 -44 -108q-44 -45 -112 -45q-66 0 -109 44q-44 44 -44 109q0 67 45 112q43 44 110 44zM252 1514q65 0 109 -45q45 -45 45 -111q0 -65 -44 -109q-44 -45 -111 -45t-111 45q-44 44 -44 109q0 66 45 111q44 45 111 45z" />
    <glyph glyph-name="copyright" unicode="&#xa9;" horiz-adv-x="1710" vert-adv-y="2458" 
d="M989 868q-58 49 -140 49t-139 -57q-55 -56 -55 -130q0 -78 57 -135q56 -56 137 -56q79 0 140 51l125 -154q-117 -96 -266 -96q-167 0 -281 115q-113 113 -113 273q0 163 114 277q113 113 277 113q146 0 269 -96zM843 1460q297 0 509 -212q214 -215 214 -521t-214 -519
q-213 -212 -516 -212q-301 0 -516 215q-216 215 -216 516q0 300 216 518q213 215 523 215zM830 1304q-234 0 -403 -169t-169 -408t169 -408t408 -169q245 0 419 174q169 169 169 403q0 233 -169 403q-172 174 -424 174z" />
    <glyph glyph-name="ordfeminine" unicode="&#xaa;" horiz-adv-x="860" vert-adv-y="2458" 
d="M594 788q-89 -47 -179 -47q-149 0 -256 106q-106 107 -106 255t106 255q107 107 255 107q77 0 155 -35v35h211v-719zM413 1241q-57 0 -97 -40t-40 -100q0 -59 40 -99t98 -40q60 0 99 40q40 39 40 99t-40 100q-39 40 -100 40z" />
    <glyph glyph-name="guillemotleft" unicode="&#xab;" horiz-adv-x="1067" vert-adv-y="2458" 
d="M756 106l-293 453l281 445l227 -162l-193 -283l185 -278zM369 106l-293 453l281 445l227 -162l-193 -283l185 -278z" />
    <glyph glyph-name="logicalnot" unicode="&#xac;" horiz-adv-x="1290" vert-adv-y="2458" 
d="M86 866h1071v-714h-268v444h-803v270z" />
    <glyph glyph-name="sfthyphen" unicode="&#xad;" horiz-adv-x="879" vert-adv-y="2458" 
d="M96 719h666v-270h-666v270z" />
    <glyph glyph-name="registered" unicode="&#xae;" horiz-adv-x="1792" vert-adv-y="2458" 
d="M1220 295h-227l-176 301v-301h-197v919h285q125 0 201 -76q80 -79 80 -211q0 -218 -187 -268zM817 821h82q40 0 64 33q22 31 22 75q0 103 -86 103h-82v-211zM883 1528q312 0 536 -225q227 -227 227 -547t-227 -547q-225 -225 -543 -225q-316 0 -544 229
q-228 228 -228 542t228 545q225 228 551 228zM869 1368q-247 0 -426 -179q-179 -180 -179 -433q0 -252 179 -431t431 -179q257 0 442 184q180 180 180 426t-180 427q-183 185 -447 185z" />
    <glyph glyph-name="macron" unicode="&#xaf;" horiz-adv-x="877" vert-adv-y="2458" 
d="M96 1473h662v-268h-662v268z" />
    <glyph glyph-name="degree" unicode="&#xb0;" horiz-adv-x="885" vert-adv-y="2458" 
d="M435 1462q138 0 237 -99q98 -99 98 -239q0 -141 -98 -240q-99 -98 -240 -98t-240 98q-98 99 -98 240q0 139 98 239q98 99 243 99zM431 1282q-65 0 -111 -46t-46 -112q0 -67 47 -114q45 -46 111 -46q65 0 111 46q47 47 47 114q0 66 -46 112t-113 46z" />
    <glyph glyph-name="plusminus" unicode="&#xb1;" horiz-adv-x="1307" vert-adv-y="2458" 
d="M504 811v240h270v-240h405v-270h-405v-240h-270v240h-408v270h408zM96 280h1083v-268h-1083v268z" />
    <glyph glyph-name="twosuperior" unicode="&#xb2;" horiz-adv-x="735" vert-adv-y="2458" 
d="M94 586l-2 238l350 321q35 32 35 75q0 38 -28 66q-27 27 -63 27q-64 0 -100 -88l-200 72q36 91 93 146q90 85 207 85q128 0 218 -90t90 -220q0 -129 -108 -229q-72 -68 -238 -188h348v-215h-602z" />
    <glyph glyph-name="threesuperior" unicode="&#xb3;" horiz-adv-x="733" vert-adv-y="2458" 
d="M207 1225l-86 172q84 133 219 133q102 0 174 -72q72 -71 72 -174q0 -74 -50 -141q132 -101 132 -256q0 -129 -92 -220q-91 -91 -221 -91q-128 0 -217 89q-76 76 -83 203l199 25q26 -102 102 -102q46 0 75 40q22 30 22 69q0 41 -29 74q-28 32 -64 42l-98 27v163l92 23
q27 7 27 45q0 45 -41 45q-39 0 -86 -47z" />
    <glyph glyph-name="acute" unicode="&#xb4;" horiz-adv-x="694" vert-adv-y="2458" 
d="M78 1378l410 175l112 -252l-377 -154z" />
    <glyph glyph-name="mu" unicode="&#xb5;" horiz-adv-x="1192" vert-adv-y="2458" 
d="M102 -426v1524h326v-621q0 -70 43 -113q45 -44 114 -44q72 0 117 45q43 43 43 112v621h326v-1112l-295 129q-66 -123 -191 -123q-82 0 -157 49v-467h-326z" />
    <glyph glyph-name="paragraph" unicode="&#xb6;" horiz-adv-x="1339" vert-adv-y="2458" 
d="M528 -414v1123q-434 35 -434 370q0 205 152 292q118 67 352 67h608v-1852h-270v1582h-138v-1582h-270z" />
    <glyph glyph-name="periodcentered" unicode="&#xb7;" horiz-adv-x="465" vert-adv-y="2458" 
d="M231 900q64 0 105 -56q29 -39 29 -87q0 -56 -39 -94q-38 -38 -96 -38q-62 0 -102 40q-38 37 -38 92q0 59 43 103q41 40 98 40z" />
    <glyph glyph-name="cedilla" unicode="&#xb8;" horiz-adv-x="631" vert-adv-y="2458" 
d="M262 47h176l-72 -94q160 -18 160 -170q0 -101 -81 -159q-68 -50 -155 -50q-107 0 -196 43v170l57 -18q56 -18 91 -18h18q33 0 33 31q0 30 -43 30h-158z" />
    <glyph glyph-name="onesuperior" unicode="&#xb9;" horiz-adv-x="494" vert-adv-y="2458" 
d="M-66 1306v207h356v-927h-215v720h-141z" />
    <glyph glyph-name="ordmasculine" unicode="&#xba;" horiz-adv-x="848" vert-adv-y="2458" 
d="M420 1460q150 0 254 -104q104 -105 104 -257q0 -153 -105 -258q-104 -104 -256 -104q-153 0 -258 104q-104 105 -104 258q0 151 104 256t261 105zM416 1235q-55 0 -96 -40q-40 -40 -40 -96t40 -97q41 -40 97 -40t96 40q40 41 40 97t-40 96q-39 40 -97 40z" />
    <glyph glyph-name="guillemotright" unicode="&#xbb;" horiz-adv-x="1067" vert-adv-y="2458" 
d="M285 1006l293 -451l-281 -446l-225 163l190 283l-184 276zM672 1006l293 -451l-281 -446l-227 163l193 283l-185 276z" />
    <glyph glyph-name="onequarter" unicode="&#xbc;" horiz-adv-x="1683" vert-adv-y="2458" 
d="M850 154v209l400 636h219v-621h90v-231h-90v-147h-227v154h-392zM1109 369h133l-2 222zM629 -16l-168 20l436 1526l164 -37zM80 1294v219h379v-1003h-229v784h-150z" />
    <glyph glyph-name="onehalf" unicode="&#xbd;" horiz-adv-x="1712" vert-adv-y="2458" 
d="M80 1294v219h379v-1003h-227v784h-152zM629 -16l-168 16l436 1530l164 -16zM957 0v250l371 342q39 36 39 81q0 41 -30 71t-71 30q-75 0 -106 -94l-211 74q38 96 99 155q94 90 219 90q135 0 231 -96t96 -233t-116 -243q-139 -128 -257 -200h375v-227h-639z" />
    <glyph glyph-name="threequarters" unicode="&#xbe;" horiz-adv-x="1884" vert-adv-y="2458" 
d="M1014 154v209l400 636h219v-621h90v-231h-90v-147h-227v154h-392zM1273 369h133l-2 222zM230 1192l-89 182q89 142 231 142q106 0 182 -76q77 -77 77 -185q0 -73 -51 -153q141 -113 141 -272q0 -139 -98 -237q-98 -99 -236 -99q-137 0 -232 95q-80 81 -87 216l211 29
q28 -111 110 -111q47 0 79 44q24 33 24 75q0 95 -99 125l-102 31v169l96 25q31 8 31 51q0 50 -46 50q-53 0 -142 -101zM793 -16l-168 20l436 1526l164 -37z" />
    <glyph glyph-name="questiondown" unicode="&#xbf;" horiz-adv-x="922" vert-adv-y="2458" 
d="M499 1552q62 0 110 -48t48 -110q0 -64 -47 -110q-48 -47 -111 -47q-65 0 -111 46t-46 110q0 67 50 116q44 43 107 43zM338 1206l321 2q41 -124 41 -260q0 -113 -52 -205q-41 -70 -143 -168q-112 -107 -112 -173q0 -64 58 -64q72 0 203 142l9 9l207 -208
q-213 -265 -440 -265q-183 0 -283 111q-88 97 -88 267q0 150 64 247q38 59 128 133q62 52 92 91q40 52 40 126q0 67 -23 144l-5 20q-8 29 -17 51z" />
    <glyph glyph-name="Agrave" unicode="&#xc0;" horiz-adv-x="1536" vert-adv-y="2458" 
d="M1490 0h-352l-121 276h-528l-115 -276h-354l610 1532h248zM755 948l-145 -361h284zM614 1962l407 -174l-145 -231l-377 153z" />
    <glyph glyph-name="Aacute" unicode="&#xc1;" horiz-adv-x="1536" vert-adv-y="2458" 
d="M1490 0h-352l-121 276h-528l-115 -276h-354l610 1532h248zM755 948l-145 -361h284zM497 1788l410 174l112 -252l-376 -153z" />
    <glyph glyph-name="Acircumflex" unicode="&#xc2;" horiz-adv-x="1536" vert-adv-y="2458" 
d="M1490 0h-352l-121 276h-528l-115 -276h-354l610 1532h248zM755 948l-145 -361h284zM426 1825l329 127l334 -140l-154 -229l-182 80l-178 -68z" />
    <glyph glyph-name="Atilde" unicode="&#xc3;" horiz-adv-x="1536" vert-adv-y="2458" 
d="M1490 0h-352l-121 276h-528l-115 -276h-354l610 1532h248zM755 948l-145 -361h284zM407 1528l2 336q14 12 48 26q93 39 158 39q49 0 144 -27q73 -20 103 -20q79 0 243 99v-269l-43 -30q-92 -70 -172 -70q-49 0 -152 28q-81 23 -117 23q-122 0 -214 -135z" />
    <glyph glyph-name="Adieresis" unicode="&#xc4;" horiz-adv-x="1536" vert-adv-y="2458" 
d="M1490 0h-352l-121 276h-528l-115 -276h-354l610 1532h248zM755 948l-145 -361h284zM957 1923q65 0 109 -45q45 -45 45 -111q0 -64 -44 -108q-44 -45 -112 -45q-65 0 -109 44q-44 43 -44 109q0 67 45 112q43 44 110 44zM555 1924q65 0 109 -45q45 -45 45 -111
q0 -65 -44 -109q-44 -45 -111 -45t-111 45q-44 44 -44 109q0 66 45 111q44 45 111 45z" />
    <glyph glyph-name="Aring" unicode="&#xc5;" horiz-adv-x="1536" vert-adv-y="2458" 
d="M1490 0h-352l-121 276h-528l-115 -276h-354l610 1532h248zM755 948l-145 -361h284zM761 1974q90 0 153 -62q62 -63 62 -155t-63 -155q-63 -62 -154 -62t-153 62t-62 155q0 92 63 155q61 62 154 62zM758 1859q-39 0 -69 -29q-30 -31 -30 -73q0 -41 29 -71q30 -29 71 -29
q42 0 72 30t30 70q0 41 -30 72q-30 30 -73 30z" />
    <glyph glyph-name="AE" unicode="&#xc6;" horiz-adv-x="1909" vert-adv-y="2458" 
d="M1787 604h-532v-274h532v-330h-864v276h-401l-148 -276h-356l749 1532h1020v-330h-532v-268h532v-330zM659 587h264v537z" />
    <glyph glyph-name="Ccedilla" unicode="&#xc7;" horiz-adv-x="1460" vert-adv-y="2458" 
d="M1383 1364l-201 -260q-151 114 -303 114q-123 0 -241 -72q-99 -61 -155 -161q-57 -100 -57 -219q0 -184 128 -314q133 -136 324 -136q157 0 304 114l201 -262q-50 -46 -120 -85q-176 -99 -386 -99q-4 0 -72 4l-27 -35q160 -18 160 -170q0 -101 -81 -159q-68 -50 -155 -50
q-107 0 -196 43v170l57 -18q56 -18 90 -18h19q33 0 33 31q0 30 -43 30h-158l147 204q-218 77 -350 220q-205 223 -205 530q0 325 229 554q228 228 555 228q302 0 503 -184z" />
    <glyph glyph-name="Egrave" unicode="&#xc8;" horiz-adv-x="1079" vert-adv-y="2458" 
d="M960 604h-532v-274h532v-330h-862v1532h862v-330h-532v-268h532v-330zM385 1962l407 -174l-145 -231l-377 153z" />
    <glyph glyph-name="Eacute" unicode="&#xc9;" horiz-adv-x="1079" vert-adv-y="2458" 
d="M960 604h-532v-274h532v-330h-862v1532h862v-330h-532v-268h532v-330zM268 1788l410 174l112 -252l-377 -153z" />
    <glyph glyph-name="Ecircumflex" unicode="&#xca;" horiz-adv-x="1079" vert-adv-y="2458" 
d="M960 604h-532v-274h532v-330h-862v1532h862v-330h-532v-268h532v-330zM198 1825l330 127l334 -140l-154 -229l-182 80l-178 -68z" />
    <glyph glyph-name="Edieresis" unicode="&#xcb;" horiz-adv-x="1079" vert-adv-y="2458" 
d="M960 604h-532v-274h532v-330h-862v1532h862v-330h-532v-268h532v-330zM730 1923q65 0 109 -45q45 -45 45 -111q0 -64 -44 -108q-44 -45 -112 -45q-66 0 -109 44q-44 44 -44 109q0 67 45 112q43 44 110 44zM328 1924q65 0 109 -45q45 -45 45 -111q0 -65 -44 -109
q-44 -45 -111 -45t-111 45q-44 44 -44 109q0 66 45 111q44 45 111 45z" />
    <glyph glyph-name="Igrave" unicode="&#xcc;" horiz-adv-x="526" vert-adv-y="2458" 
d="M94 1532h330v-1532h-330v1532zM113 1962l407 -174l-145 -231l-377 153z" />
    <glyph glyph-name="Iacute" unicode="&#xcd;" horiz-adv-x="526" vert-adv-y="2458" 
d="M94 1532h330v-1532h-330v1532zM-4 1788l410 174l112 -252l-377 -153z" />
    <glyph glyph-name="Icircumflex" unicode="&#xce;" horiz-adv-x="526" vert-adv-y="2458" 
d="M94 1532h330v-1532h-330v1532zM-76 1825l330 127l334 -140l-154 -229l-182 80l-178 -68z" />
    <glyph glyph-name="Idieresis" unicode="&#xcf;" horiz-adv-x="526" vert-adv-y="2458" 
d="M95 1532h330v-1532h-330v1532zM456 1923q65 0 109 -45q45 -45 45 -111q0 -64 -44 -108q-44 -45 -112 -45q-66 0 -109 44q-44 44 -44 109q0 67 45 112q43 44 110 44zM54 1924q65 0 109 -45q45 -45 45 -111q0 -65 -44 -109q-44 -45 -111 -45t-111 45q-44 44 -44 109
q0 66 45 111q44 45 111 45z" />
    <glyph glyph-name="Eth" unicode="&#xd0;" horiz-adv-x="1708" vert-adv-y="2458" 
d="M297 0l2 592h-201v274h201v666h512q319 0 545 -226q225 -225 225 -540t-225 -540q-226 -226 -545 -226h-514zM631 866h202v-274h-202v-262h180q193 0 316 123q122 122 122 314q0 196 -122 317q-118 118 -306 118h-190v-336z" />
    <glyph glyph-name="Ntilde" unicode="&#xd1;" horiz-adv-x="1456" vert-adv-y="2458" 
d="M100 1532h303l615 -885v883h313v-1530h-301l-617 887v-887h-313v1532zM379 1550l2 336q14 13 63 33q81 33 143 33q48 0 144 -27q73 -21 103 -21q83 0 243 99v-268l-43 -31q-92 -70 -172 -70q-49 0 -152 29q-82 23 -117 23q-122 0 -214 -136z" />
    <glyph glyph-name="Ograve" unicode="&#xd2;" horiz-adv-x="1794" vert-adv-y="2458" 
d="M889 1548q318 0 547 -228q229 -229 229 -554t-229 -554q-229 -228 -554 -228t-554 228q-228 229 -228 554q0 324 228 554q227 228 561 228zM879 1218q-183 0 -316 -132q-133 -133 -133 -319q0 -185 133 -318q134 -133 320 -133t318 132t132 318q0 188 -133 321
q-129 131 -321 131zM743 1962l408 -174l-146 -231l-377 153z" />
    <glyph glyph-name="Oacute" unicode="&#xd3;" horiz-adv-x="1794" vert-adv-y="2458" 
d="M889 1548q318 0 547 -228q229 -229 229 -554t-229 -554q-229 -228 -554 -228t-554 228q-228 229 -228 554q0 324 228 554q227 228 561 228zM879 1218q-183 0 -316 -132q-133 -133 -133 -319q0 -185 133 -318q134 -133 320 -133t318 132t132 318q0 188 -133 321
q-129 131 -321 131zM626 1788l410 174l113 -252l-377 -153z" />
    <glyph glyph-name="Ocircumflex" unicode="&#xd4;" horiz-adv-x="1794" vert-adv-y="2458" 
d="M889 1548q318 0 547 -228q229 -229 229 -554t-229 -554q-229 -228 -554 -228t-554 228q-228 229 -228 554q0 324 228 554q227 228 561 228zM879 1218q-183 0 -316 -132q-133 -133 -133 -319q0 -185 133 -318q134 -133 320 -133t318 132t132 318q0 188 -133 321
q-129 131 -321 131zM555 1825l329 127l334 -140l-153 -229l-183 80l-178 -68z" />
    <glyph glyph-name="Otilde" unicode="&#xd5;" horiz-adv-x="1794" vert-adv-y="2458" 
d="M889 1548q318 0 547 -228q229 -229 229 -554t-229 -554q-229 -228 -554 -228t-554 228q-228 229 -228 554q0 324 228 554q227 228 561 228zM879 1218q-183 0 -316 -132q-133 -133 -133 -319q0 -185 133 -318q134 -133 320 -133t318 132t132 318q0 188 -133 321
q-129 131 -321 131zM537 1528l2 336q15 13 63 32q82 33 143 33q49 0 144 -27q73 -20 103 -20q79 0 243 99v-269l-43 -30q-92 -70 -172 -70q-50 0 -152 28q-81 23 -117 23q-122 0 -214 -135z" />
    <glyph glyph-name="Odieresis" unicode="&#xd6;" horiz-adv-x="1794" vert-adv-y="2458" 
d="M889 1548q318 0 547 -228q229 -229 229 -554t-229 -554q-229 -228 -554 -228t-554 228q-228 229 -228 554q0 324 228 554q227 228 561 228zM879 1218q-183 0 -316 -132q-133 -133 -133 -319q0 -185 133 -318q134 -133 320 -133t318 132t132 318q0 188 -133 321
q-129 131 -321 131zM1086 1923q65 0 109 -45q45 -45 45 -111q0 -64 -44 -108q-44 -45 -112 -45q-65 0 -109 44t-44 109q0 67 45 112q43 44 110 44zM684 1924q65 0 109 -45q45 -45 45 -111q0 -65 -44 -109q-44 -45 -111 -45t-111 45q-44 44 -44 109q0 66 45 111q44 45 111 45
z" />
    <glyph glyph-name="multiply" unicode="&#xd7;" horiz-adv-x="1176" vert-adv-y="2458" 
d="M411 522l-264 264l191 185l260 -260l266 266l188 -189l-264 -266l262 -262l-186 -192l-266 266l-267 -268l-188 190z" />
    <glyph glyph-name="Oslash" unicode="&#xd8;" horiz-adv-x="1794" vert-adv-y="2458" 
d="M712 -92h-190l45 141q-191 87 -301 227q-166 211 -166 489q0 327 228 555q229 228 558 228q59 0 113 -8l27 92h186l-37 -141q200 -87 314 -224q176 -211 176 -499q0 -327 -229 -556q-229 -228 -553 -228q-73 0 -144 12zM837 317q13 -2 39 -2h6q187 0 319 133
q132 132 132 317q0 265 -252 405zM905 1219h-23q-186 0 -319 -133t-133 -320q0 -254 229 -391z" />
    <glyph glyph-name="Ugrave" unicode="&#xd9;" horiz-adv-x="1243" vert-adv-y="2458" 
d="M1124 1530v-1084q0 -217 -188 -353q-143 -103 -320 -103q-234 0 -392 159q-126 127 -126 297v1084h330v-1045q0 -75 68 -124q56 -39 121 -39q69 0 120 42q57 45 57 113v1053h330zM467 1962l407 -174l-145 -231l-377 153z" />
    <glyph glyph-name="Uacute" unicode="&#xda;" horiz-adv-x="1243" vert-adv-y="2458" 
d="M1124 1530v-1084q0 -217 -188 -353q-143 -103 -320 -103q-234 0 -392 159q-126 127 -126 297v1084h330v-1045q0 -75 68 -124q56 -39 121 -39q69 0 120 42q57 45 57 113v1053h330zM350 1788l410 174l112 -252l-377 -153z" />
    <glyph glyph-name="Ucircumflex" unicode="&#xdb;" horiz-adv-x="1243" vert-adv-y="2458" 
d="M1124 1530v-1084q0 -217 -188 -353q-143 -103 -320 -103q-234 0 -392 159q-126 127 -126 297v1084h330v-1045q0 -75 68 -124q56 -39 121 -39q69 0 120 42q57 45 57 113v1053h330zM280 1825l330 127l334 -140l-154 -229l-182 80l-178 -68z" />
    <glyph glyph-name="Udieresis" unicode="&#xdc;" horiz-adv-x="1243" vert-adv-y="2458" 
d="M1124 1530v-1084q0 -217 -188 -353q-143 -103 -320 -103q-234 0 -392 159q-126 127 -126 297v1084h330v-1045q0 -75 68 -124q56 -39 121 -39q69 0 120 42q57 45 57 113v1053h330zM812 1923q65 0 109 -45q45 -44 45 -111q0 -64 -44 -108q-44 -45 -112 -45q-65 0 -109 44
t-44 109q0 67 45 112q43 44 110 44zM410 1924q65 0 109 -45q45 -45 45 -111q0 -65 -44 -109q-44 -45 -111 -45t-111 45q-44 44 -44 109q0 66 45 111q44 45 111 45z" />
    <glyph glyph-name="Yacute" unicode="&#xdd;" horiz-adv-x="1217" vert-adv-y="2458" 
d="M6 1532h365l227 -569l230 567h360l-424 -977v-553h-330v553zM338 1788l409 174l113 -252l-377 -153z" />
    <glyph glyph-name="Thorn" unicode="&#xde;" horiz-adv-x="1788" vert-adv-y="2458" 
d="M98 0v1532h332v-272h148q195 0 323 -130q133 -134 133 -339q0 -215 -140 -354q-127 -126 -314 -126h-150v-311h-332zM430 641h150q67 0 100 58q24 42 24 91q0 67 -43 108q-32 30 -81 30h-150v-287z" />
    <glyph glyph-name="germandbls" unicode="&#xdf;" horiz-adv-x="1147" vert-adv-y="2458" 
d="M102 0v1102q0 164 123 288t296 124q200 0 332 -146q107 -118 107 -280q0 -139 -76 -250q162 -153 162 -360q0 -210 -141 -351q-127 -127 -310 -127h-104v326h92q67 0 105 54q33 46 33 105q0 79 -72 130q-48 35 -113 39v284q111 14 111 127q0 52 -34 86q-35 35 -87 35
q-62 0 -86 -43q-12 -21 -12 -41v-1102h-326z" />
    <glyph glyph-name="agrave" unicode="&#xe0;" horiz-adv-x="1202" vert-adv-y="2458" 
d="M832 55q-126 -71 -264 -71q-218 0 -372 156q-154 155 -154 372t154 372q154 156 373 156q126 0 241 -59v43h288v-1034h-266v65zM567 731q-89 0 -151 -63q-63 -63 -63 -156t63 -156q62 -63 152 -63q92 0 154 62q63 63 63 157q0 93 -63 157q-62 62 -155 62zM447 1553
l407 -175l-145 -231l-377 154z" />
    <glyph glyph-name="aacute" unicode="&#xe1;" horiz-adv-x="1202" vert-adv-y="2458" 
d="M832 55q-126 -71 -264 -71q-218 0 -372 156q-154 155 -154 372t154 372q154 156 373 156q126 0 241 -59v43h288v-1034h-266v65zM567 731q-89 0 -151 -63q-63 -63 -63 -156t63 -156q62 -63 152 -63q92 0 154 62q63 63 63 157q0 93 -63 157q-62 62 -155 62zM330 1378
l409 175l113 -252l-377 -154z" />
    <glyph glyph-name="acircumflex" unicode="&#xe2;" horiz-adv-x="1202" vert-adv-y="2458" 
d="M832 55q-126 -71 -264 -71q-218 0 -372 156q-154 155 -154 372t154 372q154 156 373 156q126 0 241 -59v43h288v-1034h-266v65zM567 731q-89 0 -151 -63q-63 -63 -63 -156t63 -156q62 -63 152 -63q92 0 154 62q63 63 63 157q0 93 -63 157q-62 62 -155 62zM260 1415
l330 127l334 -139l-154 -229l-182 80l-178 -68z" />
    <glyph glyph-name="atilde" unicode="&#xe3;" horiz-adv-x="1202" vert-adv-y="2458" 
d="M832 55q-126 -71 -264 -71q-218 0 -372 156q-154 155 -154 372t154 372q154 156 373 156q126 0 241 -59v43h288v-1034h-266v65zM567 731q-89 0 -151 -63q-63 -63 -63 -156t63 -156q62 -63 152 -63q92 0 154 62q63 63 63 157q0 93 -63 157q-62 62 -155 62zM242 1118l2 336
q16 14 63 33q83 33 143 33q48 0 144 -27q73 -21 103 -21q83 0 243 99v-268l-43 -31q-92 -70 -172 -70q-49 0 -152 29q-82 23 -117 23q-122 0 -214 -136z" />
    <glyph glyph-name="adieresis" unicode="&#xe4;" horiz-adv-x="1202" vert-adv-y="2458" 
d="M832 55q-126 -71 -264 -71q-218 0 -372 156q-154 155 -154 372t154 372q154 156 373 156q126 0 241 -59v43h288v-1034h-266v65zM567 731q-89 0 -151 -63q-63 -63 -63 -156t63 -156q62 -63 152 -63q92 0 154 62q63 63 63 157q0 93 -63 157q-62 62 -155 62zM792 1513
q65 0 109 -45q45 -45 45 -111q0 -64 -44 -108q-44 -45 -112 -45q-65 0 -109 44t-44 109q0 67 45 112q43 44 110 44zM390 1514q65 0 109 -45q45 -45 45 -111q0 -65 -44 -109q-44 -45 -111 -45t-111 45q-44 44 -44 109q0 66 45 111q44 45 111 45z" />
    <glyph glyph-name="aring" unicode="&#xe5;" horiz-adv-x="1202" vert-adv-y="2458" 
d="M832 55q-126 -71 -264 -71q-218 0 -372 156q-154 155 -154 372t154 372q154 156 373 156q126 0 241 -59v43h288v-1034h-266v65zM567 731q-89 0 -151 -63q-63 -63 -63 -156t63 -156q62 -63 152 -63q92 0 154 62q63 63 63 157q0 93 -63 157q-62 62 -155 62zM594 1565
q90 0 153 -62q62 -63 62 -155t-63 -155q-63 -62 -154 -62q-92 0 -153 62q-62 62 -62 154q0 93 63 156q61 62 154 62zM591 1450q-39 0 -69 -30t-30 -72q0 -41 29 -71q30 -29 71 -29q42 0 72 30t30 70q0 41 -30 72q-31 30 -73 30z" />
    <glyph glyph-name="ae" unicode="&#xe6;" horiz-adv-x="1896" vert-adv-y="2458" 
d="M1147 406q44 -127 210 -127q120 0 267 68l103 -247q-183 -116 -387 -116q-133 0 -242 53v-47h-266v65q-128 -71 -265 -71q-217 0 -372 156q-154 155 -154 373q0 217 154 371q155 156 374 156q126 0 240 -59v43h289v-39q111 53 229 53q228 0 355 -174q102 -141 102 -339
q0 -57 -10 -119h-627zM566 731q-89 0 -151 -62q-63 -64 -63 -157t63 -156q62 -63 152 -63q92 0 154 62q63 63 63 157t-63 157q-61 62 -155 62zM1468 642q-19 98 -154 98q-117 0 -165 -98h319z" />
    <glyph glyph-name="ccedilla" unicode="&#xe7;" horiz-adv-x="1126" vert-adv-y="2458" 
d="M469 -2q-188 50 -294 181q-118 145 -118 335q0 217 153 371q155 155 373 155q270 0 451 -251l-229 -170l-43 36q-84 72 -170 72q-91 0 -154 -63q-62 -62 -62 -151t62 -152q63 -62 153 -62q106 0 204 133l274 -137q-70 -129 -182 -211q-115 -82 -252 -98l-25 -33
q160 -18 160 -170q0 -101 -81 -159q-68 -50 -155 -50q-107 0 -196 43v170l57 -18q56 -18 90 -18h19q33 0 33 31q0 30 -43 30h-158z" />
    <glyph glyph-name="egrave" unicode="&#xe8;" horiz-adv-x="1092" vert-adv-y="2458" 
d="M389 406q44 -128 211 -128q118 0 266 69l103 -247q-184 -117 -382 -117q-234 0 -389 155t-155 376q0 218 154 371t371 153q229 0 356 -174q102 -141 102 -339q0 -59 -10 -119h-627zM711 642q-20 98 -155 98q-117 0 -165 -98h320zM391 1553l408 -175l-146 -231l-377 154z
" />
    <glyph glyph-name="eacute" unicode="&#xe9;" horiz-adv-x="1092" vert-adv-y="2458" 
d="M389 406q44 -128 211 -128q118 0 266 69l103 -247q-184 -117 -382 -117q-234 0 -389 155t-155 376q0 218 154 371t371 153q229 0 356 -174q102 -141 102 -339q0 -59 -10 -119h-627zM711 642q-20 98 -155 98q-117 0 -165 -98h320zM274 1378l410 175l113 -252l-377 -154z
" />
    <glyph glyph-name="ecircumflex" unicode="&#xea;" horiz-adv-x="1092" vert-adv-y="2458" 
d="M389 406q44 -128 211 -128q118 0 266 69l103 -247q-184 -117 -382 -117q-234 0 -389 155t-155 376q0 218 154 371t371 153q229 0 356 -174q102 -141 102 -339q0 -59 -10 -119h-627zM711 642q-20 98 -155 98q-117 0 -165 -98h320zM205 1415l330 127l333 -139l-153 -229
l-183 80l-178 -68z" />
    <glyph glyph-name="edieresis" unicode="&#xeb;" horiz-adv-x="1092" vert-adv-y="2458" 
d="M389 406q44 -128 211 -128q118 0 266 69l103 -247q-184 -117 -382 -117q-234 0 -389 155t-155 376q0 218 154 371t371 153q229 0 356 -174q102 -141 102 -339q0 -59 -10 -119h-627zM711 642q-20 98 -155 98q-117 0 -165 -98h320zM737 1513q64 0 109 -45t45 -111
q0 -64 -44 -108q-44 -45 -112 -45q-66 0 -109 44q-44 44 -44 109q0 67 45 112q43 44 110 44zM334 1514q65 0 109 -45q45 -45 45 -111q0 -65 -44 -109q-44 -45 -111 -45t-111 45q-44 44 -44 109q0 66 45 111q44 45 111 45z" />
    <glyph glyph-name="igrave" unicode="&#xec;" horiz-adv-x="430" vert-adv-y="2458" 
d="M72 1553l407 -175l-145 -231l-377 154zM55 0v1024h313v-1024h-313z" />
    <glyph glyph-name="iacute" unicode="&#xed;" horiz-adv-x="430" vert-adv-y="2458" 
d="M-43 1378l410 175l112 -252l-377 -154zM55 0v1024h313v-1024h-313z" />
    <glyph glyph-name="icircumflex" unicode="&#xee;" horiz-adv-x="430" vert-adv-y="2458" 
d="M-115 1415l330 127l334 -139l-154 -229l-182 80l-178 -68zM55 0v1024h313v-1024h-313z" />
    <glyph glyph-name="idieresis" unicode="&#xef;" horiz-adv-x="430" vert-adv-y="2458" 
d="M419 1513q64 0 109 -45t45 -111q0 -64 -44 -108q-44 -45 -112 -45q-66 0 -109 44q-44 44 -44 109q0 67 45 112q43 44 110 44zM17 1514q65 0 109 -45q45 -45 45 -111q0 -65 -44 -109q-44 -45 -111 -45t-111 45q-44 44 -44 109q0 66 45 111q44 45 111 45zM56 0v1024h313
v-1024h-313z" />
    <glyph glyph-name="eth" unicode="&#xf0;" horiz-adv-x="1311" vert-adv-y="2458" 
d="M928 1370l-112 -78l311 -489q74 -117 74 -272q0 -228 -160 -388q-159 -159 -385 -159t-386 159q-159 160 -159 386q0 199 129 340q82 90 206 142q37 16 177 40q4 0 4 4v1v1q0 2 -2 4l-43 63l-102 -73l-136 192l105 76l-55 80l229 170l66 -80l106 74zM654 762
q-98 0 -165 -67q-67 -66 -67 -167t66 -167t169 -66q102 0 168 65q65 66 65 168q0 101 -66 168q-66 66 -170 66z" />
    <glyph glyph-name="ntilde" unicode="&#xf1;" horiz-adv-x="1092" vert-adv-y="2458" 
d="M76 0v1028h254v-39q82 51 209 51q228 0 349 -135q106 -118 106 -321v-584h-313v580q0 61 -43 104t-103 43q-58 0 -101 -39q-47 -43 -47 -98v-590h-311zM187 1118l2 336q16 14 63 33q83 33 143 33q48 0 144 -27q73 -21 103 -21q83 0 243 99v-268l-43 -31q-92 -70 -172 -70
q-49 0 -152 29q-82 23 -117 23q-122 0 -214 -136z" />
    <glyph glyph-name="ograve" unicode="&#xf2;" horiz-adv-x="1192" vert-adv-y="2458" 
d="M591 1040q215 0 369 -154t154 -372q0 -222 -155 -377q-154 -153 -372 -153q-219 0 -373 153q-155 155 -155 376q0 218 154 373q152 154 378 154zM585 727q-88 0 -151 -63q-62 -62 -62 -150q0 -90 62 -153q63 -62 153 -62q89 0 151 62q63 63 63 152q0 88 -63 151
q-62 63 -153 63zM442 1553l408 -175l-146 -231l-377 154z" />
    <glyph glyph-name="oacute" unicode="&#xf3;" horiz-adv-x="1192" vert-adv-y="2458" 
d="M591 1040q215 0 369 -154t154 -372q0 -222 -155 -377q-154 -153 -372 -153q-219 0 -373 153q-155 155 -155 376q0 218 154 373q152 154 378 154zM585 727q-88 0 -151 -63q-62 -62 -62 -150q0 -90 62 -153q63 -62 153 -62q89 0 151 62q63 63 63 152q0 88 -63 151
q-62 63 -153 63zM325 1378l410 175l112 -252l-376 -154z" />
    <glyph glyph-name="ocircumflex" unicode="&#xf4;" horiz-adv-x="1192" vert-adv-y="2458" 
d="M591 1040q215 0 369 -154t154 -372q0 -222 -155 -377q-154 -153 -372 -153q-219 0 -373 153q-155 155 -155 376q0 218 154 373q152 154 378 154zM585 727q-88 0 -151 -63q-62 -62 -62 -150q0 -90 62 -153q63 -62 153 -62q89 0 151 62q63 63 63 152q0 88 -63 151
q-62 63 -153 63zM254 1415l329 127l334 -139l-153 -229l-183 80l-178 -68z" />
    <glyph glyph-name="otilde" unicode="&#xf5;" horiz-adv-x="1192" vert-adv-y="2458" 
d="M591 1040q215 0 369 -154t154 -372q0 -222 -155 -377q-154 -153 -372 -153q-219 0 -373 153q-155 155 -155 376q0 218 154 373q152 154 378 154zM585 727q-88 0 -151 -63q-62 -62 -62 -150q0 -90 62 -153q63 -62 153 -62q89 0 151 62q63 63 63 152q0 88 -63 151
q-62 63 -153 63zM235 1118l2 336q17 16 63 33q87 33 143 33q48 0 144 -27q73 -21 103 -21q83 0 243 99v-268l-43 -31q-92 -70 -172 -70q-49 0 -152 29q-82 23 -117 23q-122 0 -214 -136z" />
    <glyph glyph-name="odieresis" unicode="&#xf6;" horiz-adv-x="1192" vert-adv-y="2458" 
d="M591 1040q215 0 369 -154t154 -372q0 -222 -155 -377q-154 -153 -372 -153q-219 0 -373 153q-155 155 -155 376q0 218 154 373q152 154 378 154zM585 727q-88 0 -151 -63q-62 -62 -62 -150q0 -90 62 -153q63 -62 153 -62q89 0 151 62q63 63 63 152q0 88 -63 151
q-62 63 -153 63zM785 1513q65 0 109 -45q45 -45 45 -111q0 -64 -44 -108q-44 -45 -112 -45q-65 0 -109 44t-44 109q0 67 45 112q43 44 110 44zM383 1514q64 0 109 -45t45 -111q0 -65 -44 -109q-44 -45 -111 -45t-111 45q-44 44 -44 109q0 66 45 111q44 45 111 45z" />
    <glyph glyph-name="divide" unicode="&#xf7;" horiz-adv-x="1229" vert-adv-y="2458" 
d="M88 659h1024v-270h-1024v270zM599 1024q73 0 124 -51t51 -125t-51 -125t-125 -51q-73 0 -125 51q-51 51 -51 125q0 73 51 125q51 51 126 51zM599 375q73 0 124 -51t51 -125q0 -73 -51 -124q-52 -52 -125 -52t-125 52q-51 51 -51 124t51 125q51 51 126 51z" />
    <glyph glyph-name="oslash" unicode="&#xf8;" horiz-adv-x="1192" vert-adv-y="2458" 
d="M487 -121h-170l41 156q-299 155 -299 478q0 220 154 373q154 155 374 155h13q31 -1 47 -3l30 105h177l-43 -154q121 -62 192 -153q111 -143 111 -323q0 -221 -155 -376q-154 -153 -372 -153h-9l-17 -1q-16 0 -43 5zM600 274q102 11 163 75q66 69 66 166q0 119 -100 192z
M565 752q-96 -14 -154 -76q-63 -68 -63 -163q0 -117 92 -191z" />
    <glyph glyph-name="ugrave" unicode="&#xf9;" horiz-adv-x="1096" vert-adv-y="2458" 
d="M994 1024v-1030h-254v41q-84 -51 -209 -51q-228 0 -349 135q-106 118 -106 321v584h311v-580q0 -61 44 -104t104 -43q57 0 99 38q47 43 47 99v590h313zM393 1553l408 -175l-145 -231l-377 154z" />
    <glyph glyph-name="uacute" unicode="&#xfa;" horiz-adv-x="1096" vert-adv-y="2458" 
d="M994 1024v-1030h-254v41q-84 -51 -209 -51q-228 0 -349 135q-106 118 -106 321v584h311v-580q0 -61 44 -104t104 -43q57 0 99 38q47 43 47 99v590h313zM277 1378l409 175l113 -252l-377 -154z" />
    <glyph glyph-name="ucircumflex" unicode="&#xfb;" horiz-adv-x="1096" vert-adv-y="2458" 
d="M994 1024v-1030h-254v41q-84 -51 -209 -51q-228 0 -349 135q-106 118 -106 321v584h311v-580q0 -61 44 -104t104 -43q57 0 99 38q47 43 47 99v590h313zM207 1415l330 127l334 -139l-154 -229l-182 80l-178 -68z" />
    <glyph glyph-name="udieresis" unicode="&#xfc;" horiz-adv-x="1096" vert-adv-y="2458" 
d="M994 1024v-1030h-254v41q-84 -51 -209 -51q-228 0 -349 135q-106 118 -106 321v584h311v-580q0 -61 44 -104t104 -43q57 0 99 38q47 43 47 99v590h313zM739 1513q64 0 109 -45t45 -111q0 -64 -44 -108q-44 -45 -112 -45q-66 0 -109 44q-44 44 -44 109q0 67 45 112
q43 44 110 44zM336 1514q65 0 109 -45q45 -45 45 -111q0 -65 -44 -109q-44 -45 -111 -45t-111 45q-44 44 -44 109q0 66 45 111q44 45 111 45z" />
    <glyph glyph-name="yacute" unicode="&#xfd;" horiz-adv-x="977" vert-adv-y="2458" 
d="M948 1024l-485 -1430h-332l182 520v19l-309 891h336l139 -479l139 479h330zM217 1378l410 175l112 -252l-377 -154z" />
    <glyph glyph-name="thorn" unicode="&#xfe;" horiz-adv-x="1231" vert-adv-y="2458" 
d="M78 -406v1821h313v-420q113 45 217 45q219 0 375 -156t156 -372t-156 -372t-372 -156q-110 0 -220 49v-439h-313zM608 731q-89 0 -152 -63t-63 -156t63 -156t154 -63q90 0 154 63t64 156q0 92 -64 156q-63 63 -156 63z" />
    <glyph glyph-name="ydieresis" unicode="&#xff;" horiz-adv-x="977" vert-adv-y="2458" 
d="M948 1024l-485 -1430h-332l182 520v19l-309 891h336l139 -479l139 479h330zM679 1513q65 0 109 -45q45 -45 45 -111q0 -64 -44 -108q-44 -45 -112 -45q-65 0 -109 44q-44 43 -44 109q0 67 45 112q43 44 110 44zM277 1514q65 0 109 -45q45 -45 45 -111q0 -65 -44 -109
q-44 -45 -111 -45t-111 45q-44 44 -44 109q0 66 45 111q44 45 111 45z" />
    <glyph glyph-name="Dcroat" unicode="&#x110;" horiz-adv-x="1708" vert-adv-y="2458" 
d="M297 0l2 592h-201v274h201v666h512q319 0 545 -226q225 -225 225 -540t-225 -540q-226 -226 -545 -226h-514zM631 866h202v-274h-202v-262h180q193 0 316 123q122 122 122 314q0 196 -122 317q-118 118 -306 118h-190v-336z" />
    <glyph glyph-name="dotlessi" unicode="&#x131;" horiz-adv-x="430" vert-adv-y="2458" 
d="M55 0v1024h313v-1024h-313z" />
    <glyph glyph-name="Lslash" unicode="&#x141;" horiz-adv-x="1225" vert-adv-y="2458" 
d="M617 330h497v-330h-827v453l-102 -103l-193 193l295 295v694h330v-365l145 146l192 -193l-337 -335v-455z" />
    <glyph glyph-name="lslash" unicode="&#x142;" horiz-adv-x="913" vert-adv-y="2458" 
d="M289 817v598h311v-285l92 90l190 -188l-282 -283v-749h-311v438l-93 -92l-190 189z" />
    <glyph glyph-name="OE" unicode="&#x152;" horiz-adv-x="2314" vert-adv-y="2458" 
d="M2201 604h-532v-274h532v-330h-862v129q-212 -145 -456 -145q-326 0 -555 228q-228 229 -228 554t228 554q229 228 554 228q242 0 457 -147v131h862v-330h-532v-268h532v-330zM879 1218q-183 0 -316 -132q-133 -133 -133 -320q0 -185 133 -317q134 -133 320 -133t318 132
t132 318q0 188 -133 321q-129 131 -321 131z" />
    <glyph glyph-name="oe" unicode="&#x153;" horiz-adv-x="1849" vert-adv-y="2458" 
d="M1155 406q44 -128 210 -128q119 0 267 69l102 -247q-183 -117 -383 -117q-227 0 -391 156q-161 -155 -373 -155q-220 0 -373 153q-155 155 -155 377q0 219 154 372q154 154 374 154q210 0 375 -155q163 153 373 153q228 0 355 -174q102 -140 102 -338q0 -60 -11 -120
h-626zM585 727q-88 0 -151 -62q-62 -62 -62 -151q0 -90 62 -152t152 -62q89 0 151 62q63 63 63 152q0 88 -63 151q-62 62 -152 62zM1476 642q-19 98 -154 98q-117 0 -165 -98h319z" />
    <glyph glyph-name="Scaron" unicode="&#x160;" horiz-adv-x="1104" vert-adv-y="2458" 
d="M88 334l266 115q76 -136 182 -136q52 0 87 35q38 37 38 98q0 88 -70 132q-29 18 -120 50q-375 133 -375 460q0 204 126 331q124 125 321 125q170 0 294 -110q71 -64 113 -172l-295 -142q-52 92 -119 92q-51 0 -86 -47q-24 -34 -24 -73q0 -91 170 -156l27 -10
q368 -142 368 -475q0 -206 -134 -340q-128 -127 -308 -127h-17q-237 0 -371 197q-47 69 -73 153zM541 1585l-330 127l149 230l179 -66l184 80l151 -232z" />
    <glyph glyph-name="scaron" unicode="&#x161;" horiz-adv-x="735" vert-adv-y="2458" 
d="M37 229l213 129q43 -73 95 -73q32 0 32 35q0 54 -111 107q-93 45 -141 96q-72 76 -72 200q0 147 87 233q85 85 220 85q200 0 304 -255l-224 -118q-23 74 -64 74q-30 0 -30 -30q0 -38 92 -85q232 -117 232 -327q0 -136 -92 -227q-88 -89 -215 -89q-155 0 -266 139
q-34 43 -60 106zM369 1176l-330 127l150 229l178 -65l184 79l152 -231z" />
    <glyph glyph-name="Ydieresis" unicode="&#x178;" horiz-adv-x="1217" vert-adv-y="2458" 
d="M6 1532h365l227 -569l230 567h360l-424 -977v-553h-330v553zM798 1923q65 0 109 -45q45 -45 45 -111q0 -64 -44 -108q-44 -45 -112 -45q-65 0 -109 44q-44 43 -44 109q0 67 45 112q43 44 110 44zM395 1924q65 0 109 -45q45 -45 45 -111q0 -65 -44 -109q-44 -45 -111 -45
t-111 45q-44 44 -44 109q0 66 45 111q44 45 111 45z" />
    <glyph glyph-name="Zcaron" unicode="&#x17d;" horiz-adv-x="1200" vert-adv-y="2458" 
d="M96 248l590 954h-590v330h983v-244l-588 -960q2 2 8 2h580v-330h-983v248zM588 1585l-330 127l149 230l178 -66l185 80l151 -232z" />
    <glyph glyph-name="zcaron" unicode="&#x17e;" horiz-adv-x="874" vert-adv-y="2458" 
d="M397 715h-334v309h729v-223l-340 -490h340v-311h-729v239zM425 1176l-329 127l149 229l178 -65l185 79l151 -231z" />
    <glyph glyph-name="florin" unicode="&#x192;" horiz-adv-x="973" vert-adv-y="2458" 
d="M575 739v-695q-2 -160 -88 -239q-72 -66 -198 -67h-287v279h176q83 -1 84 68v654h-211v285h211v90q2 159 88 238q72 66 198 67h292v-279h-181q-83 0 -84 -67v-49h318v-285h-318z" />
    <glyph glyph-name="circumflex" unicode="&#x2c6;" horiz-adv-x="815" vert-adv-y="2458" 
d="M68 1415l330 127l334 -139l-154 -229l-182 80l-178 -68z" />
    <glyph glyph-name="caron" unicode="&#x2c7;" horiz-adv-x="813" vert-adv-y="2458" 
d="M398 1176l-330 127l150 229l178 -65l184 79l152 -231z" />
    <glyph glyph-name="firsttonechinese" unicode="&#x2c9;" horiz-adv-x="877" vert-adv-y="2458" 
d="M96 1473h662v-268h-662v268z" />
    <glyph glyph-name="breve" unicode="&#x2d8;" horiz-adv-x="860" vert-adv-y="2458" 
d="M35 1370l207 164l31 -29q81 -76 146 -76q54 0 109 57q18 19 54 52l207 -174q-43 -75 -113 -123q-116 -80 -258 -80q-157 0 -281 91q-62 46 -102 118z" />
    <glyph glyph-name="dotaccent" unicode="&#x2d9;" horiz-adv-x="506" vert-adv-y="2458" 
d="M243 1503q65 0 109 -45q45 -44 45 -111q0 -64 -43 -107q-45 -44 -113 -44q-65 0 -108 43q-43 42 -43 109t44 112q43 43 109 43z" />
    <glyph glyph-name="ring" unicode="&#x2da;" horiz-adv-x="631" vert-adv-y="2458" 
d="M309 1565q90 0 153 -62q62 -63 62 -155t-63 -155q-63 -62 -154 -62t-153 62t-62 154q0 93 63 156q61 62 154 62zM306 1450q-39 0 -69 -30t-30 -72q0 -41 29 -71q30 -29 71 -29q42 0 73 30q29 30 29 70q0 41 -30 72q-30 30 -73 30z" />
    <glyph glyph-name="ogonek" unicode="&#x2db;" horiz-adv-x="612" vert-adv-y="2458" 
d="M324 47h149l10 -39q-58 -33 -104 -87q-55 -66 -55 -121q0 -48 46 -48q26 0 100 26q22 7 40 17v-147q-107 -74 -221 -74q-94 0 -151 57q-50 51 -50 128q0 111 114 210q52 46 122 78z" />
    <glyph glyph-name="tilde" unicode="&#x2dc;" horiz-adv-x="909" vert-adv-y="2458" 
d="M94 1118l2 336q18 16 83 41q67 25 123 25q48 0 144 -27q73 -21 103 -21q83 0 243 99v-268l-43 -31q-92 -70 -172 -70q-49 0 -152 29q-82 23 -117 23q-83 0 -157 -68q-34 -30 -57 -68z" />
    <glyph glyph-name="hungarumlaut" unicode="&#x2dd;" horiz-adv-x="1227" vert-adv-y="2458" 
d="M84 1409l410 174l112 -250l-377 -155zM594 1409l410 174l112 -250l-377 -155z" />
    <glyph glyph-name="anoteleia" unicode="&#x387;" horiz-adv-x="465" vert-adv-y="2458" 
d="M231 900q64 0 105 -56q29 -39 29 -87q0 -56 -39 -94q-38 -38 -96 -38q-62 0 -102 40q-38 37 -38 92q0 59 43 103q41 40 98 40z" />
    <glyph glyph-name="uni2011" unicode="&#x2011;" horiz-adv-x="879" vert-adv-y="2458" 
d="M96 719h666v-270h-666v270z" />
    <glyph glyph-name="figuredash" unicode="&#x2012;" horiz-adv-x="1257" vert-adv-y="2458" 
d="M100 719h1026v-270h-1026v270z" />
    <glyph glyph-name="endash" unicode="&#x2013;" horiz-adv-x="1257" vert-adv-y="2458" 
d="M100 719h1026v-270h-1026v270z" />
    <glyph glyph-name="emdash" unicode="&#x2014;" horiz-adv-x="1618" vert-adv-y="2458" 
d="M106 719h1368v-270h-1368v270z" />
    <glyph glyph-name="afii00208" unicode="&#x2015;" horiz-adv-x="1618" vert-adv-y="2458" 
d="M106 719h1368v-270h-1368v270z" />
    <glyph glyph-name="quoteleft" unicode="&#x2018;" horiz-adv-x="461" vert-adv-y="2458" 
d="M51 1513h281l38 -403l-198 -23z" />
    <glyph glyph-name="quoteright" unicode="&#x2019;" horiz-adv-x="461" vert-adv-y="2458" 
d="M96 1513h280l-120 -426l-199 23z" />
    <glyph glyph-name="quotesinglbase" unicode="&#x201a;" horiz-adv-x="461" vert-adv-y="2458" 
d="M96 276h280l-120 -426l-199 22z" />
    <glyph glyph-name="quotedblleft" unicode="&#x201c;" horiz-adv-x="791" vert-adv-y="2458" 
d="M55 1513h281l38 -403l-198 -23zM362 1513h279l39 -403l-197 -23z" />
    <glyph glyph-name="quotedblright" unicode="&#x201d;" horiz-adv-x="791" vert-adv-y="2458" 
d="M407 1513h279l-121 -426l-197 23zM100 1513h280l-122 -426l-197 23z" />
    <glyph glyph-name="quotedblbase" unicode="&#x201e;" horiz-adv-x="791" vert-adv-y="2458" 
d="M407 276h279l-121 -426l-197 22zM100 276h280l-122 -426l-197 22z" />
    <glyph glyph-name="dagger" unicode="&#x2020;" horiz-adv-x="1376" vert-adv-y="2458" 
d="M520 -365v1161h-434v283h434v432h305v-432h432v-283h-432v-1161h-305z" />
    <glyph glyph-name="daggerdbl" unicode="&#x2021;" horiz-adv-x="1380" vert-adv-y="2458" 
d="M522 -360v780h-434v283h434v93h-434v283h434v434h305v-434h432v-283h-432v-93h432v-283h-432v-780h-305z" />
    <glyph glyph-name="bullet" unicode="&#x2022;" horiz-adv-x="717" vert-adv-y="2458" 
d="M352 868q104 0 180 -76t76 -182t-76 -182t-182 -76t-182 76t-76 182q0 105 76 182q75 76 184 76z" />
    <glyph glyph-name="ellipsis" unicode="&#x2026;" horiz-adv-x="1501" vert-adv-y="2458" 
d="M246 268q64 0 105 -57q29 -40 29 -86q0 -55 -39 -94t-95 -39q-63 0 -104 41q-38 38 -38 91q0 59 43 103q41 41 99 41zM738 267q63 0 104 -56q29 -40 29 -87q0 -55 -39 -94q-38 -38 -96 -38q-61 0 -102 40q-38 37 -38 92q0 59 43 103q41 40 99 40zM1227 268q64 0 105 -57
q29 -40 29 -86q0 -55 -39 -94t-95 -39q-63 0 -104 41q-38 38 -38 91q0 59 43 103q42 41 99 41z" />
    <glyph glyph-name="perthousand" unicode="&#x2030;" horiz-adv-x="2660" vert-adv-y="2458" 
d="M1367 750q153 0 262 -110q110 -110 110 -265t-110 -265t-265 -110q-156 0 -266 110q-111 110 -111 265q0 154 111 265q109 110 269 110zM1363 510q-55 0 -95 -40q-39 -39 -39 -95t39 -96q40 -39 96 -39q55 0 95 40t40 95t-40 95q-39 40 -96 40zM493 1514q152 0 262 -111
t110 -266t-110 -265t-265 -110t-265 110q-110 109 -110 265q0 154 110 266q109 111 268 111zM489 1272q-55 0 -95 -39q-39 -40 -39 -96q0 -54 39 -93q39 -40 96 -40q56 0 96 40q39 39 39 93q0 56 -40 96q-38 39 -96 39zM2119 750q153 0 262 -110q110 -110 110 -265
t-110 -265q-109 -110 -265 -110q-155 0 -265 110t-110 265q0 154 110 265q109 110 268 110zM2115 510q-54 0 -94 -40t-40 -95t40 -95t95 -40t95 40t40 95t-40 95q-39 40 -96 40zM613 -31l-154 94l750 1465l159 -80l-736 -1445q-11 -21 -19 -34z" />
    <glyph glyph-name="guilsinglleft" unicode="&#x2039;" horiz-adv-x="655" vert-adv-y="2458" 
d="M72 555l289 451l211 -175l-185 -276l191 -283l-225 -163z" />
    <glyph glyph-name="guilsinglright" unicode="&#x203a;" horiz-adv-x="655" vert-adv-y="2458" 
d="M281 1006l291 -451l-279 -446l-227 163l193 283l-185 276z" />
    <glyph glyph-name="fraction" unicode="&#x2044;" horiz-adv-x="1110" vert-adv-y="2458" 
d="M192 -63l-147 80l834 1536l147 -82z" />
    <glyph glyph-name="Euro" unicode="&#x20ac;" horiz-adv-x="1233" vert-adv-y="2458" 
d="M511 444q27 -83 109 -118q31 -13 75 -13q65 0 143 68l21 18l242 -229q-59 -73 -144 -117q-130 -69 -261 -69q-60 0 -124 16q-160 41 -258 153l-14 17q-102 121 -123 281h-111v261l109 4v63h-109v264l111 4q29 193 141 317q148 164 371 164q151 0 289 -81q75 -43 127 -111
l-246 -224l-23 21q-77 68 -141 68q-152 0 -189 -146l-2 -8h361v-268h-365v-61h367v-274h-356z" />
    <glyph glyph-name="trademark" unicode="&#x2122;" horiz-adv-x="1774" vert-adv-y="2458" 
d="M299 584v717h-197v215h610v-215h-198v-717h-215zM751 1516h264l205 -582l207 582h266v-930h-213v522l-180 -522l-154 8l-174 488v-494h-221v928z" />
    <glyph glyph-name="minus" unicode="&#x2212;" horiz-adv-x="1167" vert-adv-y="2458" 
d="M100 659h940v-270h-940v270z" />
    <glyph glyph-name="dotmath" unicode="&#x22c5;" horiz-adv-x="465" vert-adv-y="2458" 
d="M231 900q64 0 105 -56q29 -39 29 -87q0 -56 -39 -94q-38 -38 -96 -38q-62 0 -102 40q-38 37 -38 92q0 59 43 103q41 40 98 40z" />
    <glyph glyph-name="glyph241" vert-adv-y="2458" 
 />
    <glyph glyph-name="glyph242" vert-adv-y="2458" 
 />
    <glyph glyph-name="glyph243" vert-adv-y="2458" 
 />
    <glyph glyph-name="glyph244" vert-adv-y="2458" 
 />
    <glyph glyph-name="glyph245" vert-adv-y="2458" 
 />
    <glyph glyph-name="glyph246" vert-adv-y="2458" 
 />
    <glyph glyph-name="glyph247" vert-adv-y="2458" 
 />
    <glyph glyph-name="glyph248" vert-adv-y="2458" 
 />
    <glyph glyph-name="glyph249" vert-adv-y="2458" 
 />
    <glyph glyph-name="glyph250" vert-adv-y="2458" 
 />
    <glyph glyph-name="glyph251" vert-adv-y="2458" 
 />
    <glyph glyph-name="glyph252" vert-adv-y="2458" 
 />
    <glyph glyph-name="glyph253" vert-adv-y="2458" 
 />
    <glyph glyph-name="glyph254" vert-adv-y="2458" 
 />
    <glyph glyph-name="glyph255" vert-adv-y="2458" 
 />
    <glyph glyph-name="glyph256" vert-adv-y="2458" 
 />
    <glyph glyph-name="glyph257" vert-adv-y="2458" 
 />
    <glyph glyph-name="glyph258" vert-adv-y="2458" 
 />
    <glyph glyph-name="glyph259" vert-adv-y="2458" 
 />
    <glyph glyph-name="glyph260" vert-adv-y="2458" 
 />
    <glyph glyph-name="glyph261" vert-adv-y="2458" 
 />
    <glyph glyph-name="glyph262" vert-adv-y="2458" 
 />
    <glyph glyph-name="glyph263" vert-adv-y="2458" 
 />
    <glyph glyph-name="glyph264" vert-adv-y="2458" 
 />
    <glyph glyph-name="glyph265" vert-adv-y="2458" 
 />
    <glyph glyph-name="glyph266" vert-adv-y="2458" 
 />
    <glyph glyph-name="glyph267" vert-adv-y="2458" 
 />
    <glyph glyph-name="glyph268" vert-adv-y="2458" 
 />
    <glyph glyph-name="glyph269" vert-adv-y="2458" 
 />
    <glyph glyph-name="glyph270" vert-adv-y="2458" 
 />
    <glyph glyph-name="glyph271" vert-adv-y="2458" 
 />
    <glyph glyph-name="glyph272" vert-adv-y="2458" 
 />
    <glyph glyph-name="glyph273" vert-adv-y="2458" 
 />
    <glyph glyph-name="glyph274" vert-adv-y="2458" 
 />
    <glyph glyph-name="glyph275" vert-adv-y="2458" 
 />
    <glyph glyph-name="glyph276" vert-adv-y="2458" 
 />
    <glyph glyph-name="glyph277" vert-adv-y="2458" 
 />
    <glyph glyph-name="glyph278" vert-adv-y="2458" 
 />
    <glyph glyph-name="glyph279" vert-adv-y="2458" 
 />
    <glyph glyph-name="glyph280" vert-adv-y="2458" 
 />
    <glyph glyph-name="glyph281" vert-adv-y="2458" 
 />
    <glyph glyph-name="glyph282" vert-adv-y="2458" 
 />
    <glyph glyph-name="glyph283" vert-adv-y="2458" 
 />
    <glyph glyph-name="glyph284" vert-adv-y="2458" 
 />
    <glyph glyph-name="glyph285" vert-adv-y="2458" 
 />
    <glyph glyph-name="glyph286" vert-adv-y="2458" 
 />
    <glyph glyph-name="glyph287" vert-adv-y="2458" 
 />
    <glyph glyph-name="glyph288" vert-adv-y="2458" 
 />
    <glyph glyph-name="glyph289" vert-adv-y="2458" 
 />
    <glyph glyph-name="glyph290" vert-adv-y="2458" 
 />
    <glyph glyph-name="glyph291" vert-adv-y="2458" 
 />
    <glyph glyph-name="glyph292" vert-adv-y="2458" 
 />
    <glyph glyph-name="glyph293" vert-adv-y="2458" 
 />
    <glyph glyph-name="glyph294" vert-adv-y="2458" 
 />
    <glyph glyph-name="glyph295" vert-adv-y="2458" 
 />
    <glyph glyph-name="glyph296" vert-adv-y="2458" 
 />
    <glyph glyph-name="glyph297" vert-adv-y="2458" 
 />
    <glyph glyph-name="glyph298" vert-adv-y="2458" 
 />
    <glyph glyph-name="glyph299" vert-adv-y="2458" 
 />
    <glyph glyph-name="glyph300" vert-adv-y="2458" 
 />
    <glyph glyph-name="glyph301" vert-adv-y="2458" 
 />
    <glyph glyph-name="glyph302" vert-adv-y="2458" 
 />
    <glyph glyph-name="glyph303" vert-adv-y="2458" 
 />
    <glyph glyph-name="glyph304" vert-adv-y="2458" 
 />
    <glyph glyph-name="glyph305" vert-adv-y="2458" 
 />
    <glyph glyph-name="glyph306" vert-adv-y="2458" 
 />
    <glyph glyph-name="glyph307" vert-adv-y="2458" 
 />
    <glyph glyph-name="glyph308" vert-adv-y="2458" 
 />
    <glyph glyph-name="glyph309" vert-adv-y="2458" 
 />
    <glyph glyph-name="glyph310" vert-adv-y="2458" 
 />
    <glyph glyph-name="glyph311" vert-adv-y="2458" 
 />
    <glyph glyph-name="glyph312" vert-adv-y="2458" 
 />
    <glyph glyph-name="glyph313" vert-adv-y="2458" 
 />
    <glyph glyph-name="glyph314" vert-adv-y="2458" 
 />
    <glyph glyph-name="glyph315" vert-adv-y="2458" 
 />
    </font>
</defs>
</svg>
