<?xml version="1.0" standalone="no"?>
<!DOCTYPE svg PUBLIC "-//W3C//DTD SVG 1.1//EN" "http://www.w3.org/Graphics/SVG/1.1/DTD/svg11.dtd" >
<svg>
<metadata>
Created by FontForge 20090622 at Fri Jul  1 08:09:49 2016
 By deploy user
Copyright (c) 2013 by Thinkdust. All rights reserved.
</metadata>
<defs>
<font id="Nanami-OutlineOblique" horiz-adv-x="594" vert-adv-y="2048" >
  <font-face 
    font-family="Nanami"
    font-weight="400"
    font-style="oblique"
    font-stretch="normal"
    units-per-em="2048"
    panose-1="0 0 0 0 0 0 0 0 0 0"
    ascent="1595"
    descent="-453"
    x-height="1024"
    cap-height="1530"
    bbox="-127 -426 2558 1974"
    underline-thickness="211"
    underline-position="-46"
    slope="-12"
    unicode-range="U+0020-U+FB02"
  />
<missing-glyph vert-adv-y="2458" 
d="M59 0v1530h476v-1530h-476zM476 59v1412h-358v-1412h358z" />
    <glyph glyph-name="fi" unicode="fi" horiz-adv-x="1407" vert-adv-y="2458" 
d="M465 1024l12 61q30 147 138 235q108 87 258 87h215l-62 -299h-133q-71 -1 -90 -78v-1l-1 -1q-1 -2 -1 -4h276l-65 -307h-274l-80 -376l-72 -341h-338l152 717h-154l66 307h153zM1041 1370h-168q-135 0 -230 -77q-98 -80 -127 -216l-20 -92h-154l-49 -229h154l-152 -717
h258l152 717h274l49 229h-274l12 51q22 109 127 109h101zM998 0l217 1026h170q-138 12 -138 139q0 76 62 136q62 61 139 61q61 0 102 -40q41 -41 41 -100q0 -76 -60 -135q-55 -55 -132 -61h152l-215 -1026h-338zM1245 987l-200 -948h258l200 948h-258zM1446 1323
q-66 0 -116 -54q-43 -47 -43 -105q0 -48 33 -76q29 -25 72 -25q65 0 116 54q45 47 45 102q0 38 -23 67q-30 37 -84 37z" />
    <glyph glyph-name="fl" unicode="fl" horiz-adv-x="1436" vert-adv-y="2458" 
d="M465 1024l12 61q30 147 138 235q108 87 258 87h215l-62 -299h-133q-71 -1 -90 -78v-1l-1 -1q-1 -2 -1 -4h276l-65 -307h-274l-80 -376l-72 -341h-338l152 717h-154l66 307h153zM1041 1370h-168q-135 0 -230 -77q-98 -80 -127 -216l-20 -92h-154l-49 -229h154l-152 -717
h258l152 717h274l49 229h-274l12 51q22 109 127 109h101zM1024 0l297 1403h338l-297 -1403h-338zM1354 1366l-281 -1327h258l281 1327h-258z" />
    <glyph glyph-name=".notdef" vert-adv-y="2458" 
d="M59 0v1530h476v-1530h-476zM476 59v1412h-358v-1412h358z" />
    <glyph glyph-name=".null" horiz-adv-x="0" vert-adv-y="0" 
 />
    <glyph glyph-name="nonmarkingreturn" vert-adv-y="2458" 
 />
    <glyph glyph-name="space" unicode=" " vert-adv-y="2458" 
 />
    <glyph glyph-name="exclam" unicode="!" horiz-adv-x="463" vert-adv-y="2458" 
d="M336 319q90 -35 90 -132q0 -61 -45 -116q-65 -79 -155 -79q-62 0 -104 42q-40 40 -40 97q0 73 56 131q36 38 91 57h-110l252 1178h336l-250 -1178h-121zM424 358l235 1102h-258l-235 -1102h258zM281 290q-64 0 -115 -54q-45 -47 -45 -101q0 -38 23 -66q31 -38 83 -38
q66 0 117 54q42 46 42 102q0 39 -22 67q-29 36 -83 36z" />
    <glyph glyph-name="quotedbl" unicode="&#x22;" horiz-adv-x="844" vert-adv-y="2458" 
d="M618 874l133 623h295l-131 -623h-297zM784 1460l-119 -549h217l117 549h-215zM270 874l133 623h295l-133 -623h-295zM434 1460l-117 -549h217l117 549h-217z" />
    <glyph glyph-name="numbersign" unicode="#" horiz-adv-x="1442" vert-adv-y="2458" 
d="M715 604l76 217h180l-76 -217h-180zM819 782l-51 -139h98l52 139h-99zM502 643l51 139h-248l56 258h284l139 396h263l-138 -396h101l139 396h262l-139 -396h252l-58 -258h-284l-51 -139h247l-51 -258h-287l-137 -385h-265l140 385h-102l-137 -385h-264l139 385h-248
l53 258h283zM606 821l-75 -217h-281l-37 -182h254l-137 -383h182l137 383h183l-138 -383h183l137 383h282l37 182h-256l76 217h283l39 182h-256l139 394h-182l-138 -394h-182l137 394h-182l-137 -394h-281l-41 -182h254z" />
    <glyph glyph-name="dollar" unicode="$" horiz-adv-x="1096" vert-adv-y="2458" 
d="M148 354l320 52q26 -76 102 -76q81 0 125 69q25 39 25 92q0 45 -53 76q-22 13 -82 35q-291 111 -291 361q0 92 40 196q101 260 373 334l39 184h297l-43 -199q172 -72 189 -264l-334 -147q-18 94 -82 94q-52 0 -92 -51q-30 -37 -30 -72q0 -26 22 -51q19 -23 104 -66l16 -8
q13 -6 26 -11q257 -111 257 -341q0 -105 -40 -212q-90 -239 -345 -337l-41 -186h-295l37 174q-245 52 -245 298q0 25 1 56zM443 365l-260 -43q-1 -99 26 -157q65 -120 228 -132l-35 -170h215l39 176q186 64 289 219q92 136 92 302q0 140 -102 225q-71 60 -184 107
q-139 57 -139 140q0 51 36 97q53 69 125 69q81 0 106 -80l271 119q-18 158 -195 217l41 184h-217l-37 -178q-162 -38 -260 -138q-84 -86 -124 -207q-26 -80 -26 -150q0 -168 151 -270q48 -32 151 -70q123 -44 123 -131q0 -92 -56 -148q-53 -53 -127 -53q-98 0 -131 72z" />
    <glyph glyph-name="percent" unicode="%" horiz-adv-x="1874" vert-adv-y="2458" 
d="M611 -33l-158 111l1040 1440l170 -97zM506 86l94 -72q382 612 1008 1397l-102 58zM1437 532q62 0 98 -43q27 -33 27 -81q0 -56 -43 -109q-61 -74 -147 -74q-56 0 -91 35q-34 34 -34 81q0 77 57 134q58 57 133 57zM1434 495q-60 0 -106 -50q-42 -44 -42 -98q0 -83 87 -83
q61 0 108 50q41 44 41 96q0 85 -88 85zM1480 758q137 0 225 -88q87 -86 87 -218q0 -89 -38 -170q-62 -135 -194 -215q-110 -67 -229 -67q-139 0 -227 87q-86 86 -86 218q0 81 22 138q56 148 190 237q117 78 250 78zM1474 721q-174 0 -306 -143q-112 -121 -112 -270
q0 -100 59 -172q78 -97 217 -97q176 0 309 142q112 121 112 272q0 98 -58 171q-78 97 -221 97zM747 1272q62 0 98 -43q27 -33 27 -81q0 -69 -62 -128q-58 -55 -130 -55q-55 0 -90 34q-33 33 -33 83q0 76 57 133q58 57 133 57zM744 1235q-60 0 -107 -50q-41 -44 -41 -96
q0 -85 85 -85q62 0 110 51q41 44 41 95q0 85 -88 85zM791 1497q136 0 223 -87q86 -85 86 -224q0 -61 -25 -130q-52 -146 -189 -238q-117 -79 -247 -79q-139 0 -226 88q-85 86 -85 219q0 171 134 308q141 143 329 143zM783 1460q-174 0 -305 -143q-113 -122 -113 -272
q0 -126 88 -202q75 -65 187 -65q173 0 306 139q117 123 117 273q0 100 -58 172q-78 98 -222 98z" />
    <glyph glyph-name="ampersand" unicode="&#x26;" horiz-adv-x="1481" vert-adv-y="2458" 
d="M813 449l-8 -11q-123 -170 -230 -170q-63 0 -105 40q-44 42 -44 111q0 145 196 253zM612 623q-147 -97 -147 -205q0 -42 24 -71q32 -40 87 -40q94 0 188 142zM745 981q-5 4 -17 17q-56 58 -56 111q0 45 35 79q37 37 85 37q35 0 57 -22q22 -21 22 -53q0 -45 -48 -102
q-23 -28 -47 -47q-28 -22 -31 -20zM833 1139v6q0 43 -42 43q-65 0 -81 -62l-2 -8q-1 -5 -1 -11q0 -37 42 -79q70 57 84 111zM1458 887l-277 -381l250 -287l-260 -233l-203 229q-186 -229 -440 -229q-175 0 -286 111q-105 104 -105 264q0 291 311 497q-67 83 -67 198
q0 89 38 173q60 131 197 215q115 70 236 70q135 0 222 -88q87 -87 87 -221q0 -40 -10 -76l2 2q-44 -191 -234 -312l66 -75l209 292zM1403 877l-197 108l-221 -305l-123 150q261 152 261 374q0 103 -59 176q-78 95 -213 95q-180 0 -320 -147q-113 -120 -113 -272
q0 -118 90 -206q-334 -196 -334 -490q0 -156 112 -252q98 -85 242 -85q116 0 225 59q121 64 187 158l24 34l211 -235l203 184l-235 273q-5 11 0 21q2 5 6 9z" />
    <glyph glyph-name="quotesingle" unicode="'" horiz-adv-x="463" vert-adv-y="2458" 
d="M260 874l133 623h297l-133 -623h-297zM426 1460l-117 -549h215l119 549h-217z" />
    <glyph glyph-name="parenleft" unicode="(" horiz-adv-x="702" vert-adv-y="2458" 
d="M317 -178q-180 178 -180 398q0 79 14 147l148 696q68 316 381 528l176 -248q-98 -80 -144 -147q-48 -71 -79 -215l-119 -563q-22 -104 -22 -153q0 -88 89 -206zM672 1540q-269 -182 -334 -485l-148 -697q-16 -76 -16 -144q0 -195 143 -341l213 190q-77 103 -77 199
q0 59 22 162l121 563q28 133 63 200q44 78 148 163z" />
    <glyph glyph-name="parenright" unicode=")" horiz-adv-x="702" vert-adv-y="2458" 
d="M656 1591q178 -174 178 -393q0 -75 -17 -151l-149 -697q-66 -315 -379 -528l-174 248q95 78 142 147q47 73 79 215l121 563q20 93 20 152q0 86 -90 207zM299 -127q270 185 332 485l148 697q16 77 16 145q0 194 -141 340l-215 -190q77 -104 77 -199q0 -59 -22 -164
l-119 -563q-28 -131 -65 -198q-45 -79 -146 -163z" />
    <glyph glyph-name="asterisk" unicode="*" horiz-adv-x="903" vert-adv-y="2458" 
d="M244 893l63 311l52 -21l-43 33l243 201l29 -43v51h303l-12 -27l16 23l168 -217l-20 -12l28 6l-63 -305l-55 16l41 -30l-258 -213h-312l8 25l-12 -17l-170 213l19 12zM336 1149l-43 -207l217 47l-205 -112l115 -145l152 179l-90 -206h204l-2 204l76 -177l174 145l-155 112
l198 -47l43 207l-217 -47l203 114l-113 143l-153 -180l94 209h-207l2 -209l-74 180l-176 -143l154 -114z" />
    <glyph glyph-name="plus" unicode="+" horiz-adv-x="1229" vert-adv-y="2458" 
d="M580 668l76 358h297l-76 -358h364l-61 -293h-364l-78 -361h-295l78 361h-367l61 293h365zM689 987l-76 -358h-367l-45 -215h367l-78 -361h217l78 361h362l47 215h-364l76 358h-217z" />
    <glyph glyph-name="comma" unicode="," horiz-adv-x="461" vert-adv-y="2458" 
d="M94 254l303 59l-51 -436l-225 -27zM354 266l-219 -45l22 -330l154 19z" />
    <glyph glyph-name="hyphen" unicode="-" horiz-adv-x="879" vert-adv-y="2458" 
d="M233 729h680l-61 -293h-682zM866 690h-600l-49 -217h602z" />
    <glyph glyph-name="period" unicode="." horiz-adv-x="465" vert-adv-y="2458" 
d="M273 291q70 0 105 -60q19 -33 19 -75q0 -64 -55 -116q-52 -48 -117 -48q-62 0 -99 37q-34 33 -34 83q0 54 40 105q58 74 141 74zM271 252q-58 0 -103 -50q-36 -41 -36 -90q0 -35 26 -58t68 -23q55 0 96 44q36 38 36 87q0 28 -15 51q-23 39 -72 39z" />
    <glyph glyph-name="slash" unicode="/" horiz-adv-x="735" vert-adv-y="2458" 
d="M232 -16l-193 24l750 1510l186 -43zM96 39l113 -14l709 1421l-107 27z" />
    <glyph glyph-name="zero" unicode="0" horiz-adv-x="1229" vert-adv-y="2458" 
d="M481 510l103 477q15 73 78 134q84 81 185 81q69 0 118 -48q51 -50 51 -126q0 -21 -4 -41l-103 -477q-18 -88 -96 -152q-78 -63 -162 -63q-72 0 -121 47q-53 51 -53 127q0 21 4 41zM623 981l-103 -479q-3 -16 -3 -29q0 -52 33 -92q40 -47 102 -47q71 0 137 54
q65 55 82 130l102 477q3 15 3 32q0 54 -31 91q-38 47 -98 47q-84 0 -157 -72q-55 -56 -67 -112zM174 514l103 486q44 211 236 366q183 148 390 148q185 0 307 -121q121 -122 121 -302q0 -50 -12 -108l-100 -483q-44 -213 -236 -367q-182 -147 -389 -147q-187 0 -308 122
q-120 120 -120 304q0 63 8 102zM316 991l-103 -485q-10 -48 -10 -96q0 -143 84 -247q112 -140 307 -140q194 0 365 139q179 144 221 344l102 485q10 47 10 97q0 143 -84 248q-112 139 -306 139q-193 0 -365 -139q-179 -145 -221 -345z" />
    <glyph glyph-name="one" unicode="1" horiz-adv-x="1229" vert-adv-y="2458" 
d="M519 1167l69 332h576l-316 -1499h-352l248 1167h-225zM621 1462l-55 -256h213q10 0 10 -10v-2l-244 -1155h270l302 1423h-496z" />
    <glyph glyph-name="two" unicode="2" horiz-adv-x="1229" vert-adv-y="2458" 
d="M159 0l-53 244l623 498q163 130 211 209q40 66 40 128q0 46 -33 75q-28 26 -72 26q-135 0 -292 -219l-205 227q263 326 560 326q201 0 310 -120q89 -99 89 -260q0 -56 -8 -100q-45 -247 -424 -538l-203 -156h477l-72 -340h-948zM149 227l41 -188h887l53 262h-526
q-6 0 -6 4l6 6l278 213q180 138 282 262q136 165 136 354q0 183 -133 273q-93 62 -231 62q-274 0 -508 -285l151 -170q141 197 295 197q65 0 105 -39q40 -40 40 -103q0 -75 -54 -156q-53 -81 -212 -208z" />
    <glyph glyph-name="three" unicode="3" horiz-adv-x="1229" vert-adv-y="2458" 
d="M561 1038l-80 299q223 177 428 177q169 0 266 -97q85 -85 85 -218q0 -197 -193 -359q133 -103 133 -282q0 -111 -52 -220q-78 -168 -236 -264q-142 -86 -310 -86q-151 0 -260 70q-62 40 -133 124l231 299q121 -151 218 -151q86 0 145 64q48 52 48 118q0 83 -89 120
q-42 18 -112 19q-77 2 -97 2l66 308l96 4h-2q72 8 121 44q69 51 69 109q0 62 -71 62q-93 0 -271 -142zM522 1323l60 -217q144 111 249 111q60 0 90 -37q20 -25 20 -58q0 -71 -67 -130q-68 -58 -159 -64l-64 -4l-51 -234l98 -4q72 -3 133 -50q58 -44 58 -121q0 -90 -66 -154
q-69 -68 -167 -68q-117 0 -216 127l-178 -234q141 -159 345 -159q238 0 405 178q151 160 151 355q0 93 -41 163q-32 54 -112 107q-5 3 -5 8q0 4 5 8q211 149 211 352q0 111 -67 184q-86 93 -247 93q-189 0 -385 -152z" />
    <glyph glyph-name="four" unicode="4" horiz-adv-x="1229" vert-adv-y="2458" 
d="M588 557h180l72 322zM115 229l68 322l788 946h348l-196 -926h133l-76 -352h-133l-45 -219h-350l47 229h-584zM219 534l-57 -266h574q8 0 8 -8v-4l-45 -217h272l45 219h133l58 274h-131l196 926h-276zM904 1012l-101 -482q-3 -10 -14 -10h-267q-7 0 -7 6q0 2 2 5l380 479
q2 2 7 2z" />
    <glyph glyph-name="five" unicode="5" horiz-adv-x="1229" vert-adv-y="2458" 
d="M571 1497h746l-72 -342h-483l-66 -145q58 12 120 12q211 0 322 -123q93 -102 93 -266q0 -134 -55 -251q-91 -192 -270 -301q-155 -95 -332 -95q-144 0 -253 62q-62 36 -147 116l193 330q146 -162 270 -162q106 0 180 80q61 66 61 142q0 51 -31 89q-40 49 -115 49
q-67 0 -132 -26q-22 -9 -150 -80l-153 202zM1270 1460h-672l-260 -661l121 -164q142 94 275 94q94 0 145 -64q37 -46 37 -109q0 -101 -82 -181q-83 -80 -199 -80q-137 0 -262 133l-152 -258q76 -70 135 -101q91 -46 217 -46q259 0 449 200q170 181 170 410q0 193 -139 289
q-91 63 -236 63q-79 0 -166 -24h-8q-1 1 -1 2v1q0 1 1 3l90 215q4 10 14 10h465z" />
    <glyph glyph-name="six" unicode="6" horiz-adv-x="1229" vert-adv-y="2458" 
d="M748 760q97 0 150 -67q39 -48 39 -116q0 -113 -89 -199q-85 -83 -200 -83q-71 0 -119 33q-71 48 -71 143q0 119 91 207q85 82 199 82zM744 723q-101 0 -176 -80q-71 -75 -71 -173q0 -59 39 -97q41 -41 112 -41q106 0 181 81q68 72 68 163q0 56 -31 95q-42 52 -122 52z
M899 1038q352 -82 352 -409q0 -125 -55 -241q-92 -194 -279 -307q-157 -95 -326 -95q-199 0 -324 127q-122 123 -122 314q0 210 143 380l615 729l258 -192zM909 1485l-592 -705q-134 -159 -134 -359q0 -147 86 -254q117 -144 323 -144q255 0 450 206q172 183 172 403
q0 157 -106 262q-56 55 -153 90q-74 28 -121 28h-2h-1q-2 0 -2 2v1q1 4 4 5l273 320z" />
    <glyph glyph-name="seven" unicode="7" horiz-adv-x="1229" vert-adv-y="2458" 
d="M385 1157l72 340h870l25 -227l-854 -1305l-293 144l682 1048h-502zM490 1460l-58 -266h516q7 0 7 -6l-695 -1065l226 -109l827 1266l-21 180h-802z" />
    <glyph glyph-name="eight" unicode="8" horiz-adv-x="1229" vert-adv-y="2458" 
d="M845 1204q53 0 83 -37q23 -27 23 -68q0 -49 -38 -96q-52 -63 -125 -63q-46 0 -77 30q-30 29 -30 74q0 63 49 111q49 49 115 49zM721 1065h-2q-2 -13 -2 -21q0 -65 72 -65q92 0 122 102h-2q3 14 3 22q0 62 -69 62q-95 0 -122 -100zM735 686q72 0 116 -43q43 -42 43 -107
q0 -100 -74 -173q-74 -72 -170 -72q-72 0 -117 43q-46 44 -46 115q0 94 76 166q74 71 172 71zM732 649q-84 0 -147 -67q-58 -60 -58 -131q0 -48 27 -81q34 -42 96 -42q86 0 149 69q56 61 56 140q0 51 -37 83q-33 29 -86 29zM422 838q-51 85 -51 173q0 58 26 134
q59 168 217 275q137 92 285 92q159 0 261 -102q101 -101 101 -256q0 -82 -17 -128q-36 -95 -140 -196q100 -128 100 -264q0 -46 -9 -85q-43 -189 -196 -332q-177 -165 -405 -165q-187 0 -305 119q-115 115 -115 292q0 242 248 443zM1051 832q174 153 174 319q0 121 -69 207
q-94 115 -256 115q-201 0 -357 -164q-134 -142 -134 -298q0 -80 64 -179q-261 -190 -261 -438q0 -139 80 -238q109 -135 300 -135q236 0 418 192q157 167 157 353q0 142 -116 266z" />
    <glyph glyph-name="nine" unicode="9" horiz-adv-x="1229" vert-adv-y="2458" 
d="M848 1198q69 0 117 -33q70 -48 70 -139q0 -124 -89 -211q-85 -84 -199 -84q-98 0 -151 66q-40 49 -40 119q0 112 90 199q86 83 202 83zM844 1161q-99 0 -176 -79q-72 -75 -72 -161q0 -59 33 -99q42 -52 118 -52q119 0 196 101q36 47 47 111q7 31 7 44q0 56 -38 94
q-42 41 -115 41zM594 453q-352 86 -352 411q0 125 56 240q94 195 279 307q158 96 327 96q197 0 323 -126q121 -122 121 -312q0 -216 -141 -383l-613 -723l-262 193zM588 14l590 697q133 157 133 364q0 184 -131 298q-112 97 -276 97q-255 0 -452 -207q-172 -182 -172 -401
q0 -161 108 -265q67 -64 151 -91q25 -8 123 -25q4 0 4 -4q0 -3 -4 -4l-273 -311z" />
    <glyph glyph-name="colon" unicode=":" horiz-adv-x="469" vert-adv-y="2458" 
d="M278 291q68 0 103 -59q19 -34 19 -75q0 -64 -52 -115q-53 -50 -121 -50q-61 0 -99 37q-32 32 -32 80q0 71 56 127q56 55 126 55zM276 252q-57 0 -102 -48q-39 -41 -39 -89q0 -84 94 -84q55 0 96 44q36 38 36 85q0 30 -15 54q-23 38 -70 38zM418 956q61 0 96 -44
q27 -33 27 -81q0 -71 -55 -123q-53 -51 -118 -51q-57 0 -94 35q-37 34 -37 91q0 68 55 122q52 51 126 51zM416 917q-60 0 -102 -45q-38 -41 -38 -92q0 -84 94 -84q55 0 96 43q37 39 37 91q0 87 -87 87z" />
    <glyph glyph-name="semicolon" unicode=";" horiz-adv-x="463" vert-adv-y="2458" 
d="M411 958q66 0 102 -44q27 -33 27 -82q0 -69 -56 -121q-53 -49 -123 -49q-55 0 -90 34t-35 85q0 72 55 126q51 51 120 51zM407 919q-54 0 -94 -44q-37 -40 -37 -94q0 -37 27 -59q24 -21 58 -21q62 0 104 45q35 37 35 87q0 86 -93 86zM98 254l303 59l-53 -436l-223 -27z
M358 266l-221 -45l22 -330l154 19z" />
    <glyph glyph-name="less" unicode="&#x3c;" horiz-adv-x="1372" vert-adv-y="2458" 
d="M178 416l45 211l1176 446l-54 -258l-805 -315l676 -289l-51 -244zM258 598l-37 -162l915 -416l35 170l-719 312l861 342l34 168z" />
    <glyph glyph-name="equal" unicode="=" horiz-adv-x="1169" vert-adv-y="2458" 
d="M192 512h947l-62 -293h-946zM1092 473h-867l-45 -215h866zM260 831h946l-59 -293h-946zM1159 792h-866l-45 -217h866z" />
    <glyph glyph-name="greater" unicode="&#x3e;" horiz-adv-x="1370" vert-adv-y="2458" 
d="M1296 618l-40 -210l-1174 -447l53 256l785 297l-658 309l51 242zM1221 436l32 162l-911 414l-37 -168l707 -332l-844 -322l-35 -170z" />
    <glyph glyph-name="question" unicode="?" horiz-adv-x="922" vert-adv-y="2458" 
d="M437 326h-143q-1 49 -1 68q0 206 59 321q60 117 252 273q120 96 120 154q0 28 -28 28q-72 0 -238 -152l-174 227q71 79 164 146h-3q180 123 330 123q169 0 250 -91q64 -70 64 -192q0 -104 -34 -193q-42 -110 -123 -190q-40 -38 -124 -98h2q-75 -53 -105 -85
q-48 -52 -63 -118v2q-11 -54 -11 -90q0 -34 7 -131l-160 -2q123 -20 123 -138q0 -77 -62 -136q-61 -60 -136 -60q-61 0 -103 41q-42 42 -42 101q0 79 68 140q46 40 111 52zM333 365l264 2q-3 68 -3 89q0 57 9 97q15 70 60 124q31 37 124 103q163 117 216 235q48 109 48 222
q0 128 -91 190q-72 48 -186 48q-153 0 -331 -133q-60 -45 -110 -99l131 -170q151 136 234 136q66 0 66 -63q0 -38 -23 -75q-30 -49 -136 -133q-165 -132 -210 -220q-65 -116 -62 -353zM457 291q-66 0 -117 -55q-42 -46 -42 -100q0 -39 23 -67q31 -38 83 -38q64 0 114 52
q45 48 45 104q0 40 -23 68q-29 36 -83 36z" />
    <glyph glyph-name="at" unicode="@" horiz-adv-x="1864" vert-adv-y="2458" 
d="M1222 801l-63 -135q-42 -89 -114 -146q-70 -55 -143 -55q-105 0 -105 104q0 151 112 295q103 133 224 133q110 0 110 -102q0 -50 -21 -94zM1126 680l59 135q7 15 13 36q5 16 5 29q0 80 -74 80q-101 0 -191 -116q-78 -101 -100 -227q-3 -20 -3 -41q0 -74 69 -74
q74 0 146 71q51 50 76 107zM1552 203q-339 -217 -644 -217q-294 0 -484 151q-193 155 -193 420q0 172 85 346q140 287 433 459q258 152 536 152q268 0 441 -138q170 -135 170 -359q0 -240 -180 -454q-123 -147 -280 -206q-87 -33 -167 -33q-141 0 -180 90q-109 -90 -241 -90
q-246 0 -246 231q0 200 142 376q166 206 391 206q119 0 183 -80q9 9 26 36l6 9q3 5 5 8h207l-262 -573q1 -17 23 -17q73 0 168 82q131 114 176 303q12 53 12 90q0 163 -142 244q-113 64 -280 64q-321 0 -571 -237q-186 -177 -232 -406q-8 -40 -8 -77q0 -185 154 -296
q133 -95 342 -95q282 0 540 154zM1124 500q-3 -21 -3 -37q0 -100 148 -100q186 0 344 146q244 225 244 507q0 227 -188 354q-158 105 -388 105q-281 0 -537 -154q-250 -151 -379 -395q-97 -184 -97 -372q0 -268 217 -414q175 -117 426 -117q292 0 594 194l-39 74
q-230 -136 -520 -136q-305 0 -449 177q-88 108 -88 254q0 156 96 321q121 208 343 329q195 106 409 106q198 0 322 -84q137 -92 137 -261q0 -142 -78 -279q-59 -104 -176 -188q-68 -49 -138 -49q-64 0 -64 51q0 6 1 15l21 47l221 477h-129l-66 -92q-30 119 -173 119
q-209 0 -363 -197q-132 -167 -132 -350q0 -188 207 -188q148 0 277 137z" />
    <glyph glyph-name="A" unicode="A" horiz-adv-x="1536" vert-adv-y="2458" 
d="M930 895l-176 -289h229zM1483 0h-375l-65 270h-494l-168 -270h-387l934 1530h264zM1139 39h297l-277 1452h-211l-886 -1452h299l157 254q9 16 28 16h511q19 1 23 -18zM691 578l254 415q1 3 4 3q4 0 5 -5l75 -411v-4q0 -9 -11 -9h-321q-8 0 -8 6q0 3 2 5z" />
    <glyph glyph-name="B" unicode="B" horiz-adv-x="1169" vert-adv-y="2458" 
d="M627 315h-152q-11 0 -11 7q0 1 1 5l74 347q2 12 14 12h152q68 0 107 -48q32 -39 32 -98q0 -90 -76 -163q-65 -62 -141 -62zM574 647l-66 -293h119q72 0 134 81q43 56 43 102q0 47 -24 76q-28 34 -75 34h-131zM725 924h-121q-7 0 -8 8v4l55 266q3 12 17 12h108
q50 0 82 -30q32 -31 32 -81q0 -61 -43 -112q-56 -67 -122 -67zM637 963h86q61 0 105 67q23 35 23 67q0 78 -75 78h-90zM1073 842q90 -114 90 -254q0 -272 -239 -457q-170 -131 -346 -131h-498l324 1530h448q150 0 254 -104q102 -102 102 -246q0 -172 -135 -338zM129 39h449
q137 0 275 87q141 89 214 233q57 111 57 228q0 147 -102 255q145 165 145 331q0 149 -109 243q-87 75 -206 75h-416z" />
    <glyph glyph-name="C" unicode="C" horiz-adv-x="1460" vert-adv-y="2458" 
d="M1667 1348l-271 -275q-126 119 -267 119q-184 0 -339 -127q-161 -131 -195 -331q-6 -34 -6 -60q0 -130 82 -219q46 -49 112 -79q82 -36 155 -36q142 0 319 119l158 -287q-250 -188 -547 -188q-284 0 -465 182q-176 177 -176 446q0 190 100 387q137 267 388 415
q222 132 467 132q296 0 485 -198zM1241 403q-156 -102 -306 -102q-171 0 -288 122q-97 101 -97 247q0 214 167 382q93 92 215 139q104 40 197 40q152 0 267 -102l217 219q-155 159 -426 159q-242 0 -461 -133q-237 -144 -362 -386q-97 -187 -97 -378q0 -277 194 -445
q165 -142 410 -142q284 0 493 159z" />
    <glyph glyph-name="D" unicode="D" horiz-adv-x="1503" vert-adv-y="2458" 
d="M672 1214h198q136 0 225 -61q133 -91 133 -276q0 -237 -173 -405q-162 -157 -387 -157h-189q-7 0 -8 8v4l184 875q3 12 17 12zM514 354h154q208 0 359 145q162 157 162 381q0 129 -80 209q-86 86 -239 86h-180zM84 0l324 1530h510q278 0 456 -178q174 -174 174 -439
q0 -288 -197 -534q-152 -187 -371 -290q-191 -89 -370 -89h-526zM440 1491l-307 -1452h477q229 0 445 132q235 144 359 380q95 181 95 366q0 268 -190 433q-162 141 -401 141h-478z" />
    <glyph glyph-name="E" unicode="E" horiz-adv-x="1079" vert-adv-y="2458" 
d="M1086 592h-523l-51 -238h522l-73 -354h-879l322 1530h880l-74 -355h-522l-51 -229h522zM985 315h-510q-9 0 -9 7q0 1 1 5l61 292q3 10 15 10h508l61 278h-510q-11 0 -10 10l61 285q3 12 15 12h510l57 277h-797l-309 -1452h799z" />
    <glyph glyph-name="F" unicode="F" horiz-adv-x="1065" vert-adv-y="2458" 
d="M82 0l324 1530h880l-74 -355h-524l-51 -229h524l-75 -354h-523l-123 -592h-358zM438 1491l-309 -1452h277l122 580q3 10 15 10h510l61 278h-512q-11 0 -10 10l61 285q3 12 15 12h512l57 277h-799z" />
    <glyph glyph-name="G" unicode="G" horiz-adv-x="1677" vert-adv-y="2458" 
d="M1693 868l-129 -604q-302 -280 -684 -280q-351 0 -533 252q-116 161 -116 390q0 141 56 279q128 315 397 490q233 151 497 151q224 0 418 -126q66 -43 115 -93l-270 -275q-153 140 -324 140q-198 0 -362 -160q-166 -162 -166 -360q0 -142 93 -234q100 -100 271 -100
q164 0 279 74l22 110h-350l72 346h714zM1528 280l116 549h-633l-57 -268h346q6 0 6 -6l-37 -166q-133 -90 -314 -90q-183 0 -294 107q-108 104 -108 266q0 216 179 388q177 171 390 171q181 0 322 -125l217 221q-187 180 -475 180q-239 0 -457 -133q-234 -142 -360 -382
q-100 -190 -100 -382q0 -277 194 -445q166 -142 419 -142q363 0 646 257z" />
    <glyph glyph-name="H" unicode="H" horiz-adv-x="1343" vert-adv-y="2458" 
d="M766 1530l-125 -584h416l125 584h358l-323 -1530h-359l123 592h-414l-125 -592h-358l324 1530h358zM1214 1491l-122 -574q-3 -11 -13 -10h-473q-11 0 -10 10l123 574h-279l-307 -1452h277l123 580q2 10 12 10h473q11 0 11 -6l-1 -4l-123 -580h279l307 1452h-277z" />
    <glyph glyph-name="I" unicode="I" horiz-adv-x="526" vert-adv-y="2458" 
d="M398 1530h358l-324 -1530h-358zM707 1491h-277l-307 -1452h277z" />
    <glyph glyph-name="J" unicode="J" horiz-adv-x="965" vert-adv-y="2458" 
d="M80 242l342 180q14 -84 65 -84q42 0 76 36q26 27 33 58l234 1098h358l-236 -1114q-38 -183 -195 -310q-151 -122 -331 -122q-262 0 -346 258zM397 367l-270 -144q73 -200 301 -200q165 0 304 113q146 118 182 288l225 1067h-277l-227 -1067q-12 -54 -56 -90
q-42 -35 -93 -35q-76 0 -89 68z" />
    <glyph glyph-name="K" unicode="K" horiz-adv-x="1194" vert-adv-y="2458" 
d="M84 0l324 1530h358l-112 -531l444 531h413l-634 -770l311 -760h-410l-219 549l-117 -549h-358zM583 855l134 636h-277l-307 -1452h277l136 648l259 -648h326l-295 715q-3 5 -3 8q0 6 7 14l592 715h-318z" />
    <glyph glyph-name="L" unicode="L" horiz-adv-x="1024" vert-adv-y="2458" 
d="M760 1532l-252 -1178h488l-74 -354h-844l324 1532h358zM946 315h-462q-18 0 -19 20v5l246 1153h-277l-309 -1454h764z" />
    <glyph glyph-name="M" unicode="M" horiz-adv-x="1790" vert-adv-y="2458" 
d="M987 592l543 938h440l-324 -1530h-354l178 819l-471 -819h-268l-113 780l-161 -780h-367l324 1530h432zM1550 1491l-583 -1014l-156 1014h-365l-307 -1452h285l203 962l139 -962h211l575 1000l-213 -1000h275l307 1452h-371z" />
    <glyph glyph-name="N" unicode="N" horiz-adv-x="1456" vert-adv-y="2458" 
d="M410 1528l315 2l387 -838l25 113l151 723h359l-324 -1528h-313l-389 836l-23 -109l-154 -727h-358zM702 1491l-260 -2l-307 -1450h277l147 696l47 224l428 -920h256l309 1450h-276l-147 -692l-50 -225z" />
    <glyph glyph-name="O" unicode="O" horiz-adv-x="1794" vert-adv-y="2458" 
d="M1132 1231q161 0 266 -104q107 -104 107 -264q0 -217 -175 -389q-177 -173 -398 -173q-164 0 -270 103q-107 105 -107 267q0 216 174 387q177 173 403 173zM1125 1192q-198 0 -363 -159q-168 -162 -168 -362q0 -143 92 -236q95 -95 246 -95q205 0 371 161
q163 160 163 359q0 143 -92 236q-95 96 -249 96zM1195 1546q278 0 458 -181q175 -176 175 -441q0 -197 -98 -391q-138 -271 -392 -420q-221 -129 -464 -129q-286 0 -467 182q-176 177 -176 446q0 130 51 274q107 302 392 495q244 165 521 165zM1183 1507q-230 0 -449 -134
q-258 -156 -382 -417q-81 -172 -81 -346q0 -277 194 -445q165 -142 409 -142q240 0 458 133q231 142 355 378q101 193 101 389q0 275 -192 442q-164 142 -413 142z" />
    <glyph glyph-name="P" unicode="P" horiz-adv-x="1139" vert-adv-y="2458" 
d="M588 899l63 303q3 12 17 12h160q113 0 113 -112q0 -80 -50 -146q-53 -69 -133 -69h-160q-11 0 -11 7q0 1 1 5zM631 926h127q77 0 119 77q25 47 25 89q0 83 -74 83h-142zM80 0l326 1530h479q173 0 277 -104q102 -102 102 -269q0 -103 -35 -191q-61 -152 -180 -256
q-160 -139 -353 -139h-137l-121 -571h-358zM438 1491l-309 -1452h277l118 559q3 12 15 12h157q244 0 408 210q122 157 122 337q0 163 -107 256q-91 78 -234 78h-447z" />
    <glyph glyph-name="Q" unicode="Q" horiz-adv-x="1794" vert-adv-y="2458" 
d="M1120 338q-97 -37 -188 -37q-164 0 -270 103q-107 105 -107 267q0 216 174 387q178 173 399 173q164 0 271 -104q106 -104 106 -263q0 -191 -144 -356l-106 141l-233 -184zM1364 569q102 135 102 291q0 144 -92 236q-95 96 -246 96q-201 0 -366 -159q-168 -162 -168 -362
q0 -143 92 -236q95 -95 253 -95q63 0 117 16l-88 117l295 229zM1263 78q-205 -94 -391 -94q-284 0 -465 182q-176 177 -176 446q0 130 51 274q107 303 392 494q246 166 515 166q284 0 464 -181q175 -176 175 -445q0 -326 -258 -613l95 -110l-308 -230zM1517 309
q271 281 271 613q0 276 -192 443q-164 142 -407 142q-235 0 -455 -134q-258 -156 -382 -417q-81 -172 -81 -346q0 -277 194 -445q165 -142 409 -142q199 0 399 102l91 -107l245 185z" />
    <glyph glyph-name="R" unicode="R" horiz-adv-x="1219" vert-adv-y="2458" 
d="M582 868l71 334q3 12 15 12h166q129 0 129 -135q0 -78 -51 -144q-62 -79 -154 -79h-168q-8 0 -8 12zM627 895h131q69 0 122 67q43 55 43 116q0 97 -89 97h-146zM782 0l-188 569h-35l-119 -569h-358l322 1530h489q181 0 287 -106q104 -106 104 -279q0 -329 -315 -517
l213 -628h-400zM406 39l118 557q3 12 15 12h73q11 0 15 -12l182 -557h317l-204 604q-2 4 -2 5q0 3 4 5q321 161 321 495q0 190 -138 284q-87 59 -214 59h-455l-309 -1452h277z" />
    <glyph glyph-name="S" unicode="S" horiz-adv-x="1104" vert-adv-y="2458" 
d="M143 354l305 121q54 -137 141 -137q59 0 103 49q36 41 36 101q0 47 -38 80q-25 21 -101 53q-292 121 -292 363q0 226 167 392t393 166q155 0 255 -91q82 -74 102 -212l-342 -145q-22 92 -85 92q-53 0 -95 -53q-30 -37 -30 -71q0 -64 116 -116q99 -44 154 -81
q163 -107 163 -293q0 -135 -53 -248q-79 -167 -234 -262q-128 -78 -264 -78h-18q-171 0 -272 104q-91 98 -111 266zM428 424l-242 -94q16 -137 105 -222q94 -86 235 -85h18q204 0 361 169q152 162 152 381q0 170 -162 269q-62 38 -154 78q-119 51 -119 142q0 46 38 94
q55 69 129 69q81 0 108 -82l274 121q-16 99 -81 157q-91 82 -235 82q-221 0 -371 -159q-148 -157 -148 -371q0 -140 117 -232q56 -45 187 -100q129 -55 129 -143q0 -89 -56 -145q-55 -54 -127 -54q-108 0 -158 125z" />
    <glyph glyph-name="T" unicode="T" horiz-adv-x="1194" vert-adv-y="2458" 
d="M400 0l247 1175h-319l74 355h1005l-73 -355h-328l-248 -1175h-358zM377 1214h311q9 0 8 -5l-1 -4l-246 -1166h276l247 1168q1 7 9 7h320l59 277h-926z" />
    <glyph glyph-name="U" unicode="U" horiz-adv-x="1243" vert-adv-y="2458" 
d="M1446 1528l-230 -1084q-40 -189 -219 -324q-172 -130 -383 -130q-205 0 -332 122q-110 106 -110 263q0 45 6 74l227 1079h359l-223 -1045q-3 -12 -3 -25q0 -51 43 -84q39 -30 92 -30q61 0 117 44q65 50 76 101l221 1039h359zM438 1489l-219 -1038q-8 -39 -8 -80
q0 -158 128 -256q111 -86 273 -86q210 0 382 138q149 120 184 284l221 1038h-279l-211 -989q-17 -82 -85 -138q-69 -57 -151 -57q-78 0 -129 49q-44 41 -44 99q0 19 4 36l213 1000h-279z" />
    <glyph glyph-name="V" unicode="V" horiz-adv-x="1413" vert-adv-y="2458" 
d="M1300 1530h392l-869 -1530h-268l-211 1530h377l100 -885zM1626 1491h-299l-530 -975l-113 975h-295l201 -1452h211z" />
    <glyph glyph-name="W" unicode="W" horiz-adv-x="1913" vert-adv-y="2458" 
d="M1397 0h-283l-31 711l-335 -711h-277l-88 1530h367l28 -715l340 715h279l28 -715l336 715h373zM1110 860l41 -821h221l700 1452h-288l-391 -835l-33 835h-217l-397 -835l-33 835h-289l84 -1452h217z" />
    <glyph glyph-name="X" unicode="X" horiz-adv-x="1348" vert-adv-y="2458" 
d="M1667 1530l-647 -770l313 -760h-414l-174 430l-358 -430h-422l639 770l-307 762h411l172 -432l357 430h430zM356 1493l292 -717q2 -6 2 -7q0 -5 -5 -11l-600 -719h323l381 455q3 4 7 4t7 -6l183 -453h330l-298 714q-2 6 -2 8q0 4 5 11l602 719h-328l-378 -454
q-3 -4 -6 -4q-5 0 -7 6l-182 454h-326z" />
    <glyph glyph-name="Y" unicode="Y" horiz-adv-x="1217" vert-adv-y="2458" 
d="M315 1530h389l98 -528l326 526h395l-637 -981l-112 -547h-359l117 559zM850 561l602 928h-303l-361 -581q-3 -4 -5 -4q-4 0 -5 6l-109 581h-305l209 -930l-111 -522h279z" />
    <glyph glyph-name="Z" unicode="Z" horiz-adv-x="1200" vert-adv-y="2458" 
d="M137 268l752 907h-559l74 355h997l-64 -271l-753 -905h567l-74 -354h-997zM129 39h914l59 276h-566q-12 0 -12 10q0 3 779 948q1 3 3 10l46 208h-916l-57 -277h570q12 0 12 -10q0 -3 -4 -7l-778 -939q-5 -6 -6 -14z" />
    <glyph glyph-name="bracketleft" unicode="[" horiz-adv-x="727" vert-adv-y="2458" 
d="M23 -279l399 1903h543l-63 -305h-193l-198 -930l-78 -364h194l-65 -304h-539zM455 1585l-385 -1827h459l49 230h-180q-9 0 -9 6q0 2 1 4l286 1348q3 12 11 12h182l49 227h-463z" />
    <glyph glyph-name="backslash" unicode="\" horiz-adv-x="737" vert-adv-y="2458" 
d="M663 25l-190 -52l-119 1500l195 57zM508 20l116 33l-110 1428l-119 -35z" />
    <glyph glyph-name="bracketright" unicode="]" horiz-adv-x="727" vert-adv-y="2458" 
d="M964 1624l-407 -1903h-539l66 304h190l274 1294h-190l63 305h543zM524 -242l393 1827h-463l-49 -227h182q9 0 9 -8v-4l-287 -1348q-3 -10 -12 -10h-183l-49 -230h459zM555 1346l2 8q-2 -4 -2 -8z" />
    <glyph glyph-name="asciicircum" unicode="^" horiz-adv-x="1147" vert-adv-y="2458" 
d="M786 1106l-327 -436h-324l629 827h196l281 -827h-305zM440 707l361 481l161 -481h228l-256 753h-152l-571 -753h229z" />
    <glyph glyph-name="underscore" unicode="_" horiz-adv-x="1372" vert-adv-y="2458" 
d="M-33 -45h1348l-43 -211h-1348zM1267 -84h-1267l-29 -133h1268z" />
    <glyph glyph-name="grave" unicode="`" horiz-adv-x="694" vert-adv-y="2458" 
d="M508 1538l397 -184l-206 -242l-365 162zM846 1342l-324 149l-133 -201l299 -133z" />
    <glyph glyph-name="a" unicode="a" horiz-adv-x="1202" vert-adv-y="2458" 
d="M718 748q95 0 148 -66q39 -49 39 -118q0 -115 -91 -203q-87 -85 -199 -85q-83 0 -135 51t-52 132q0 116 89 203q87 86 201 86zM714 709q-101 0 -178 -81q-70 -74 -70 -167q0 -55 32 -94q41 -52 118 -52q105 0 182 83q69 74 69 163q0 56 -32 95q-42 53 -121 53zM991 1024
h316l-217 -1024h-316l6 27q-106 -41 -214 -41q-194 0 -317 123q-120 121 -120 302q0 62 10 110q43 195 208 348q183 169 422 169q117 0 214 -49zM1257 985h-233l-14 -55q-104 71 -242 71q-248 0 -439 -205q-162 -175 -162 -385q0 -143 84 -247q114 -141 314 -141
q133 0 269 69l-13 -53h236z" />
    <glyph glyph-name="b" unicode="b" horiz-adv-x="1233" vert-adv-y="2458" 
d="M755 748q82 0 135 -52q53 -51 53 -132q0 -115 -91 -203q-87 -85 -199 -85q-96 0 -149 65q-39 49 -39 118q0 117 91 205q86 84 199 84zM750 709q-101 0 -177 -81q-70 -74 -70 -165q0 -56 32 -95q42 -53 119 -53q103 0 180 83q69 74 69 164q0 56 -31 95q-42 52 -122 52z
M389 0h-326l297 1405h338l-86 -399q104 32 192 32q233 0 358 -172q81 -111 81 -285q0 -124 -96 -278q-87 -140 -224 -224q-151 -93 -320 -93q-106 0 -210 43q-1 -6 -2 -14q-2 -9 -2 -15zM110 39h244l10 47q109 -63 236 -63q248 0 440 205q164 174 164 380q0 147 -86 252
q-114 141 -313 141q-121 0 -246 -61l92 428h-258z" />
    <glyph glyph-name="c" unicode="c" horiz-adv-x="1126" vert-adv-y="2458" 
d="M1126 303q-111 -145 -213 -214q-150 -103 -330 -103q-199 0 -321 122q-119 119 -119 304q0 126 53 237q90 188 271 297q154 92 315 92q172 0 297 -111q67 -59 111 -155l-279 -180l-37 49l4 -4q-59 67 -139 67q-107 0 -184 -83q-66 -70 -66 -156q0 -54 32 -93
q42 -52 118 -52q111 0 221 133zM1142 786q-46 97 -135 152q-100 63 -224 63q-247 0 -436 -200q-166 -176 -166 -391q0 -183 128 -293q110 -94 269 -94q279 0 493 270l-201 113q-117 -123 -230 -123q-85 0 -137 52q-52 51 -52 129q0 108 86 193q88 86 203 86q92 0 166 -82
q7 -8 15 -16z" />
    <glyph glyph-name="d" unicode="d" horiz-adv-x="1241" vert-adv-y="2458" 
d="M758 748q94 0 147 -65q39 -49 39 -118q0 -115 -88 -202q-87 -87 -201 -87q-83 0 -136 51q-52 51 -52 132q0 117 92 205q86 84 199 84zM753 709q-102 0 -178 -81q-70 -74 -70 -165q0 -56 32 -95q42 -53 119 -53q104 0 181 83q69 74 69 164q0 56 -31 95q-42 52 -122 52z
M809 0l2 27q-108 -41 -209 -41q-191 0 -314 123q-120 121 -120 303q0 66 12 114q55 217 239 368q176 144 391 144q99 0 194 -39l86 404h335l-294 -1403h-322zM862 90l-8 -51h244l280 1327h-258l-88 -426q-102 61 -222 61q-251 0 -442 -205q-162 -175 -162 -385
q0 -143 84 -247q114 -141 312 -141q119 0 260 67z" />
    <glyph glyph-name="e" unicode="e" horiz-adv-x="1092" vert-adv-y="2458" 
d="M477 620q13 44 74 94q73 60 155 60q84 0 123 -51q25 -32 25 -79q0 -10 -2 -26q-4 -4 -10 -4h-359q-7 0 -7 3q0 1 1 3zM815 653q0 82 -110 82q-96 0 -162 -82h272zM1096 387h-162l88 -254q-241 -147 -450 -147q-211 0 -332 120q-113 113 -113 292q0 136 56 254
q89 187 263 293q150 91 316 91q195 0 298 -113q87 -96 87 -258q0 -118 -51 -278zM483 387q41 -92 157 -92q100 0 294 92h-451zM911 334q-164 -76 -271 -76q-95 0 -151 51q-51 47 -51 108q0 7 8 7h619q43 137 43 250q0 181 -127 267q-87 58 -219 58q-246 0 -428 -194
q-169 -179 -169 -405q0 -144 79 -241q110 -136 330 -136q190 0 403 127z" />
    <glyph glyph-name="f" unicode="f" horiz-adv-x="870" vert-adv-y="2458" 
d="M403 1024l12 61q30 147 138 235q108 87 258 87h215l-62 -299h-133q-71 -1 -90 -78v-1l-1 -1q-1 -2 -1 -4h276l-65 -307h-274l-80 -376l-72 -341h-338l152 717h-154l66 307h153zM979 1370h-168q-135 0 -230 -77q-98 -80 -127 -216l-20 -92h-154l-49 -229h154l-152 -717
h258l152 717h274l49 229h-274l12 51q22 109 127 109h101z" />
    <glyph glyph-name="g" unicode="g" horiz-adv-x="1245" vert-adv-y="2458" 
d="M754 748q95 0 149 -66q39 -49 39 -118q0 -115 -91 -203q-87 -85 -200 -85q-82 0 -134 50q-53 51 -53 136q0 113 90 201q87 85 200 85zM750 709q-100 0 -176 -81q-70 -75 -70 -167q0 -55 32 -94q41 -52 117 -52q105 0 182 83q69 74 69 163q0 56 -32 95q-42 53 -122 53z
M115 -252l252 219q93 -86 174 -86q134 0 231 131q-75 -26 -168 -26q-197 0 -320 123q-120 121 -120 302q0 63 10 111q43 197 219 352q185 164 418 164q114 0 205 -43l8 29h320l-189 -893q-49 -233 -253 -399q-195 -158 -418 -158q-209 0 -369 174zM367 -84l-199 -172
q122 -133 313 -133q214 0 399 151q189 155 236 377l181 846h-244l-12 -49q-103 65 -234 65q-246 0 -437 -201q-167 -176 -167 -386q0 -146 86 -251q113 -140 311 -140q106 0 246 59q2 -1 2 -4q-35 -90 -97 -147q-97 -89 -212 -89q-91 0 -172 74z" />
    <glyph glyph-name="h" unicode="h" horiz-adv-x="1096" vert-adv-y="2458" 
d="M696 1405l-80 -381q56 14 115 14q210 0 309 -109q78 -85 78 -228q0 -74 -27 -191l-47 -223q-39 -183 -59 -287h-338l123 586q2 11 2 20q0 40 -24 67q-26 31 -71 31q-56 0 -103 -39t-58 -94l-121 -571h-334l297 1405h338zM563 967l86 401h-258l-283 -1329h256l113 539
q14 69 76 118q59 47 124 47q60 0 97 -36t37 -89q0 -19 -5 -40l-112 -539h258l115 543q12 58 12 118q0 165 -113 242q-88 59 -230 59q-76 0 -173 -34z" />
    <glyph glyph-name="i" unicode="i" horiz-adv-x="463" vert-adv-y="2458" 
d="M51 0l217 1026h170q-137 13 -137 139q0 76 62 136q62 61 139 61q61 0 102 -40q41 -41 41 -100q0 -76 -60 -135q-56 -55 -133 -61h152l-215 -1026h-338zM299 987l-201 -948h258l201 948h-258zM500 1323q-66 0 -116 -54q-43 -47 -43 -105q0 -48 33 -76q29 -25 72 -25
q65 0 116 54q45 47 45 102q0 38 -23 67q-30 37 -84 37z" />
    <glyph glyph-name="j" unicode="j" horiz-adv-x="463" vert-adv-y="2458" 
d="M-127 -426l70 332h82l6 20l233 1102h150q-117 24 -117 138q0 76 66 138q61 58 136 58q60 0 102 -41q40 -40 40 -97q0 -83 -66 -143q-44 -40 -108 -53h135l-252 -1194q-26 -122 -112 -192q-84 -68 -195 -68h-170zM-27 -133l-53 -256h123q94 0 167 58q77 62 101 173
l244 1147h-258l-227 -1071q-9 -41 -35 -51h-62zM497 1323q-66 0 -117 -55q-43 -45 -43 -101q0 -40 22 -68q30 -36 82 -36q65 0 116 54q45 47 45 102q0 38 -23 67q-30 37 -82 37z" />
    <glyph glyph-name="k" unicode="k" horiz-adv-x="958" vert-adv-y="2458" 
d="M484 592l183 870h-256l-303 -1423h258l83 394l165 -394h289l-199 475l395 471h-282zM716 1499l-163 -768l245 293h381l-434 -516l215 -508h-371l-127 303l-63 -303h-338l317 1499h338z" />
    <glyph glyph-name="l" unicode="l" horiz-adv-x="463" vert-adv-y="2458" 
d="M51 0l297 1403h338l-297 -1403h-338zM381 1366l-281 -1327h258l281 1327h-258z" />
    <glyph glyph-name="m" unicode="m" horiz-adv-x="1729" vert-adv-y="2458" 
d="M70 0l217 1024h315l-2 -8q61 22 143 22q172 0 279 -82q137 82 310 82q208 0 308 -109q79 -85 79 -228q0 -66 -13 -126l-123 -575h-337l124 586q2 7 2 16q0 44 -25 73q-26 29 -70 29q-54 0 -101 -36q-49 -38 -59 -86l-121 -582h-338l125 586q1 5 1 15q0 103 -95 103
q-55 0 -101 -36q-49 -38 -59 -86l-121 -582h-338zM320 985l-201 -946h256l117 551q13 61 75 109q57 44 124 44q66 0 103 -45q29 -35 29 -87q0 -17 -3 -33l-113 -539h256l117 551q16 76 91 122q52 31 107 31q67 0 104 -45q29 -35 29 -86q0 -17 -4 -34l-112 -539h258l114 543
q13 59 13 118q0 165 -113 242q-89 59 -235 59q-173 0 -314 -94q-100 94 -272 94q-110 0 -197 -49l6 33h-235z" />
    <glyph glyph-name="n" unicode="n" horiz-adv-x="1092" vert-adv-y="2458" 
d="M59 0l215 1024h313l-2 -10q67 24 150 24q206 0 305 -109q78 -85 78 -228q0 -67 -12 -126l-123 -575h-336l123 586q2 11 2 19q0 41 -25 70q-26 29 -71 29q-55 0 -101 -36q-49 -37 -59 -88l-121 -580h-336zM307 985l-201 -946h258l115 551q13 61 75 109q57 44 123 44
q59 0 97 -36q37 -36 37 -90q0 -18 -4 -39l-113 -539h258l115 543q12 58 12 117q0 166 -113 243q-89 59 -229 59q-106 0 -203 -51l8 35h-235z" />
    <glyph glyph-name="o" unicode="o" horiz-adv-x="1192" vert-adv-y="2458" 
d="M734 743q93 0 145 -65q39 -49 39 -116q0 -110 -90 -196q-86 -83 -194 -83q-83 0 -135 52q-52 50 -52 129q0 108 86 193q88 86 201 86zM730 704q-100 0 -178 -83q-65 -70 -65 -156q0 -55 31 -93q42 -52 113 -52q109 0 188 95q60 72 60 140q0 57 -33 98q-42 51 -116 51z
M790 1038q189 0 311 -123q119 -120 119 -302q0 -103 -39 -195q-72 -166 -207 -280q-182 -152 -397 -152q-193 0 -315 122q-119 119 -119 302q0 92 34 188q70 199 257 327q166 113 356 113zM782 1001q-245 0 -435 -200q-166 -175 -166 -389q0 -146 84 -250q113 -139 314 -139
q248 0 436 201q167 178 167 391q0 142 -83 246q-112 140 -317 140z" />
    <glyph glyph-name="p" unicode="p" horiz-adv-x="1231" vert-adv-y="2458" 
d="M753 748q82 0 135 -52q53 -51 53 -132q0 -115 -91 -203q-87 -85 -199 -85q-96 0 -149 65q-39 49 -39 118q0 117 91 205q87 84 199 84zM749 709q-101 0 -176 -81q-70 -75 -70 -170q0 -67 47 -108q40 -35 102 -35q104 0 180 83q69 74 69 164q0 56 -31 95q-42 52 -121 52z
M-23 -389l301 1413h324l-7 -25q105 39 207 39q193 0 317 -123q122 -122 122 -300q0 -56 -14 -121q-42 -190 -208 -340q-186 -168 -424 -168q-107 0 -190 39l-90 -414h-338zM309 985l-285 -1335h258l94 434q96 -61 220 -61q252 0 443 205q164 175 164 384q0 142 -85 247
q-114 142 -314 142q-126 0 -262 -67l13 51h-246z" />
    <glyph glyph-name="q" unicode="q" horiz-adv-x="1241" vert-adv-y="2458" 
d="M756 748q95 0 149 -66q39 -49 39 -118q0 -115 -91 -203q-87 -85 -200 -85q-83 0 -136 51q-52 51 -52 132q0 117 92 205q86 84 199 84zM751 709q-102 0 -178 -81q-70 -74 -70 -165q0 -56 32 -95q42 -53 119 -53q104 0 181 83q69 74 69 164q0 56 -31 95q-42 52 -122 52z
M1024 1024h322l-301 -1413h-336l86 407q-101 -32 -193 -32q-193 0 -316 123q-120 121 -120 305q0 67 10 112q31 136 145 273q198 239 490 239q115 0 207 -43zM1299 985h-246l-10 -49q-104 65 -235 65q-247 0 -437 -201q-167 -177 -167 -389q0 -143 84 -247
q114 -141 313 -141q118 0 247 61l-92 -434h258z" />
    <glyph glyph-name="r" unicode="r" horiz-adv-x="758" vert-adv-y="2458" 
d="M55 0l215 1024h317l-2 -13q64 27 144 27h180l-70 -334h-168q-68 0 -117 -51q-29 -31 -42 -74l2 2l-123 -581h-336zM303 985l-201 -946h258l115 550q12 62 74 109q56 43 122 43h136l55 260h-133q-117 -1 -195 -57l10 41h-241z" />
    <glyph glyph-name="s" unicode="s" horiz-adv-x="735" vert-adv-y="2458" 
d="M68 246l272 145q1 -21 10 -46q16 -38 43 -38q30 0 30 29q0 21 -54 53q-2 1 -6 2q-21 8 -74 51q-108 85 -108 208q0 58 26 134q41 121 143 190q94 64 215 64q208 0 265 -268l-270 -117q-5 66 -33 66q-27 0 -27 -27q0 -18 64 -57l63 -39q40 -24 76 -87q35 -58 35 -131
q0 -76 -25 -135q-42 -99 -122 -167q-107 -90 -236 -90q-211 0 -287 260zM314 336l-201 -109q61 -204 244 -204q140 0 246 114q96 104 96 243q0 77 -43 135q-32 41 -110 89q-84 51 -84 89q0 24 22 44q20 19 45 19q51 0 59 -58l197 93q-45 210 -219 210q-148 0 -246 -104
q-101 -107 -101 -248q0 -105 77 -169q39 -32 94 -61q71 -38 71 -81q0 -29 -29 -53q-21 -17 -42 -17q-43 0 -76 68z" />
    <glyph glyph-name="t" unicode="t" horiz-adv-x="885" vert-adv-y="2458" 
d="M479 1024l55 272h338l-55 -272h217l-64 -307h-219l-151 -717h-338l151 717h-223l63 307h226zM567 1259l-58 -274h-223l-49 -229h223l-151 -717h258l151 717h220l49 229h-219l57 274h-258z" />
    <glyph glyph-name="u" unicode="u" horiz-adv-x="1096" vert-adv-y="2458" 
d="M1204 1024l-217 -1024h-318v8q-71 -22 -146 -22q-203 0 -302 108q-78 85 -78 228q0 58 14 127l121 575h338l-127 -586q-1 -5 -1 -13q0 -46 26 -75q26 -30 70 -30q54 0 100 36q49 37 59 86l123 582h338zM954 39l201 946h-256l-119 -551q-13 -62 -67 -105q-59 -48 -129 -48
q-68 0 -106 47q-29 35 -29 86q0 17 3 32l115 539h-256l-117 -543q-13 -61 -13 -122q0 -162 112 -238q88 -59 229 -59q116 0 199 51l-7 -35h240z" />
    <glyph glyph-name="v" unicode="v" horiz-adv-x="979" vert-adv-y="2458" 
d="M811 1024h365l-574 -1024h-256l-137 1024h354l35 -424zM526 985h-274l129 -946h199l532 946h-278l-261 -514q0 -2 -2 -2t-2 3z" />
    <glyph glyph-name="w" unicode="w" horiz-adv-x="1477" vert-adv-y="2458" 
d="M1143 0h-277l-63 446l-244 -446h-281l-59 1024h346l12 -446l217 444h261l32 -436l195 438h354zM825 565l76 -526h217l457 946h-268l-246 -551l-41 551h-201l-275 -563l-16 563h-268l55 -946h219z" />
    <glyph glyph-name="x" unicode="x" horiz-adv-x="1055" vert-adv-y="2458" 
d="M1241 1024l-435 -518l216 -506h-398l-69 227l-166 -227h-414l440 516l-209 508h394l65 -225l168 225h408zM571 985h-307l194 -466q2 -3 2 -5q0 -3 -3 -7l-400 -468h313l193 264q2 3 4 3q3 0 4 -4l82 -263h313l-200 468l-2 5q0 3 4 7l391 466h-307l-194 -262q-2 -3 -3 -3
q-3 0 -5 4z" />
    <glyph glyph-name="y" unicode="y" horiz-adv-x="977" vert-adv-y="2458" 
d="M1170 1024l-785 -1417h-362l299 528v6l2 -6l-119 889h357l32 -422l215 422h361zM248 985l114 -841l1 -8q0 -3 -5 -11l-269 -479h274l741 1339h-272l-261 -517q-1 -2 -2 -2q-2 0 -3 3l-39 516h-279z" />
    <glyph glyph-name="z" unicode="z" horiz-adv-x="874" vert-adv-y="2458" 
d="M100 260l398 434h-306l70 330h741l-51 -240l-405 -452h309l-68 -332h-741zM240 731h321q11 0 11 -9q0 -3 -4 -8l-433 -472l-41 -203h662l53 256h-317q-11 0 -11 9q0 4 2 6l433 486l40 189h-661z" />
    <glyph glyph-name="braceleft" unicode="{" horiz-adv-x="793" vert-adv-y="2458" 
d="M203 557l51 254q85 9 137 47q67 50 97 178l51 240q34 161 79 230q70 106 214 128q77 13 200 13l-45 -238q-77 -8 -114 -38q-41 -34 -66 -142l-51 -244q-27 -125 -70 -190q-50 -75 -141 -117q96 -58 96 -178q0 -49 -18 -135l-51 -244q-15 -70 -15 -101q0 -55 121 -65
l-51 -236q-171 2 -246 30q-115 43 -115 181q0 66 23 174l51 242q15 69 15 96q0 99 -152 115zM285 776l-37 -184q143 -21 143 -147q0 -51 -12 -107l-51 -242q-25 -118 -25 -167q0 -110 94 -147q63 -25 197 -26l37 164q-111 13 -111 90q0 49 15 119l51 242q16 75 16 131
q0 61 -26 100q-31 46 -125 76q-6 0 -6 3q0 5 8 5q110 31 167 86q61 62 97 221l51 244q24 111 59 154q40 46 128 55l32 162q-156 0 -230 -33q-74 -35 -115 -107q-36 -61 -66 -200l-51 -240q-27 -127 -83 -186q-59 -58 -157 -66z" />
    <glyph glyph-name="bar" unicode="|" horiz-adv-x="467" vert-adv-y="2458" 
d="M688 1497l-317 -1497h-295l315 1497h297zM338 39l303 1421h-217l-301 -1421h215z" />
    <glyph glyph-name="braceright" unicode="}" horiz-adv-x="803" vert-adv-y="2458" 
d="M854 809l-54 -252q-86 -10 -139 -48q-67 -51 -96 -179l-51 -240q-34 -161 -80 -230q-73 -104 -216 -128q-78 -12 -200 -13l45 238q79 7 117 36q40 33 65 144l52 242q25 118 69 186q50 77 139 119q-92 60 -92 179q0 60 17 138l51 242q14 65 14 98q0 38 -35 53
q-26 12 -88 17l52 236q192 -2 269 -41q93 -47 93 -169q0 -60 -27 -175h2l-51 -242q-10 -48 -10 -89q0 -107 154 -122zM768 592l36 184q-143 14 -143 142q0 52 12 110l52 240q23 110 23 166q0 115 -94 150q-62 23 -198 24l-37 -162q114 -13 114 -95q0 -51 -13 -114l-51 -244
q-19 -88 -19 -130q0 -62 25 -100q31 -47 125 -77q8 0 8 -4q0 -3 -10 -4q-110 -31 -167 -85q-59 -60 -96 -222l-51 -242q-23 -110 -59 -154q-42 -46 -129 -55l-33 -164q151 0 233 35q77 34 117 106q29 51 62 199l51 242q27 125 84 184q58 57 158 70z" />
    <glyph glyph-name="asciitilde" unicode="~" horiz-adv-x="1290" vert-adv-y="2458" 
d="M145 305l70 320q190 73 329 73h9q59 -2 232 -43l24 -6q90 -23 112 -22h6q115 3 377 98l-63 -287q-31 -23 -99 -49q-142 -55 -254 -55h-20q-67 0 -152 33h2q-116 38 -200 41h-13q-90 0 -360 -103zM249 596l-51 -229q215 79 307 79h13q86 -1 211 -44q92 -31 139 -31h20
q113 -1 247 51q48 19 71 35l45 207q-189 -72 -322 -76h-8q-21 0 -123 25q-165 42 -245 46h-9q-126 0 -295 -63z" />
    <glyph glyph-name="nonbreakingspace" unicode="&#xa0;" vert-adv-y="2458" 
 />
    <glyph glyph-name="exclamdown" unicode="&#xa1;" horiz-adv-x="463" vert-adv-y="2458" 
d="M55 31l250 1177h121q-90 35 -90 131q0 63 45 118q65 79 155 79q62 0 104 -42q40 -40 40 -97q0 -74 -56 -132q-36 -38 -92 -57h111l-252 -1177h-336zM338 1169l-236 -1101h258l236 1101h-258zM534 1497q-65 0 -116 -54q-42 -46 -42 -102q0 -40 23 -68q29 -36 81 -36
q66 0 117 54q44 47 44 101q0 38 -23 67q-31 38 -84 38z" />
    <glyph glyph-name="cent" unicode="&#xa2;" horiz-adv-x="1153" vert-adv-y="2458" 
d="M503 295q-82 59 -82 162q0 177 177 276zM538 643q-78 -85 -78 -182q0 -55 21 -88zM952 1202l-39 -180q187 -54 279 -250l-271 -170l-39 51l-9 13l-4 5q-13 18 -24 29l-75 -358q33 20 67 57q8 7 31 49l258 -145q-193 -255 -430 -307l-35 -158h-297l43 176
q-264 111 -264 396q0 112 39 206q119 286 434 395l41 191h295zM868 991l37 174h-215l-41 -182q-176 -54 -293 -173q-175 -178 -175 -402q0 -275 269 -369l-37 -162h217l35 154q243 45 406 262l-187 102q-13 -26 -64.5 -64.5t-103.5 -60.5l103 485q51 -18 94 -80l16 -22
l213 133q-79 168 -274 205z" />
    <glyph glyph-name="sterling" unicode="&#xa3;" horiz-adv-x="1327" vert-adv-y="2458" 
d="M170 0l72 348h145q28 0 48 23q27 30 27 73q0 70 -59 183h-182l62 305h88q0 90 30 177q66 188 236 303q152 102 330 102q220 0 372 -181l-303 -227q-51 59 -125 59q-72 0 -130 -53q-56 -53 -56 -135q0 -21 6 -45h406l-64 -305h-276q22 -62 22 -128q0 -40 -8 -73l2 2
q-10 -43 -25 -78h9q134 0 172 156h325q-49 -230 -209 -369q-166 -137 -395 -137h-520zM274 311l-57 -272h473q207 0 368 128q145 121 189 302h-250q-41 -155 -200 -156h-80q64 86 64 187q0 59 -40 166h301l48 227h-388q-14 62 -14 96q0 71 41 123q70 90 186 90q88 0 129 -43
l242 183q-114 133 -315 133q-198 0 -354 -127q-159 -129 -201 -326q-8 -38 -8 -77v-37v-15h-93l-47 -227h158q75 -127 75 -227q0 -56 -44 -98q-30 -30 -70 -30h-113z" />
    <glyph glyph-name="currency" unicode="&#xa4;" horiz-adv-x="1444" vert-adv-y="2458" 
d="M896 954q105 0 166 -77q47 -59 47 -138q0 -123 -100 -221q-102 -100 -229 -100q-107 0 -168 77q-47 57 -47 136q0 122 104 223q102 100 227 100zM892 915q-117 0 -210 -100q-79 -85 -79 -181q0 -67 39 -116q51 -63 134 -63q150 0 246 142q48 72 48 146q0 71 -50 122
q-49 50 -128 50zM133 250l225 188q-28 83 -28 159q0 167 139 343l-152 193l199 163l152 -192q150 74 267 74q112 0 236 -74l232 190l141 -172l-231 -188q30 -88 30 -168q0 -159 -135 -338l152 -188l-197 -164l-151 186q-132 -74 -270 -74q-122 0 -244 76l-232 -190zM403 428
l-219 -184l88 -115l223 182q133 -86 247 -86q137 0 280 88l145 -184l140 115l-146 184q145 190 145 341q0 81 -38 175l223 184l-94 113l-226 -184q-125 82 -235 82q-118 0 -279 -82l-147 186l-139 -115l147 -186q-78 -99 -110 -167q-39 -83 -39 -177q0 -86 34 -170z" />
    <glyph glyph-name="yen" unicode="&#xa5;" horiz-adv-x="1360" vert-adv-y="2458" 
d="M1303 1090h149l-45 -230h-252l-67 -102h295l-45 -230h-396l-110 -528h-350l110 528h-393l45 230h307l-26 102h-256l47 230h159l-88 407h377l97 -514l317 514h387zM1407 1053h-174l262 405h-297l-348 -567q-3 -6 -6 -6q-5 0 -6 6l-107 569h-296l88 -407h-177l-30 -154h241
l41 -178h-321l-33 -154h387l4 -21l-106 -507h272l105 507l14 21h385l33 154h-320l117 178h240z" />
    <glyph glyph-name="brokenbar" unicode="&#xa6;" horiz-adv-x="465" vert-adv-y="2458" 
d="M70 -18l141 667h297l-143 -667h-295zM244 610l-127 -591h217l127 591h-217zM258 862l142 674h297l-144 -674h-295zM432 1497l-126 -596h215l127 596h-216z" />
    <glyph glyph-name="section" unicode="&#xa7;" horiz-adv-x="1317" vert-adv-y="2458" 
d="M827 397l-219 103q-73 34 -73 99q0 84 116 161l191 -82q112 -48 112 -120q0 -89 -127 -161zM655 719q-80 -64 -80 -118q0 -31 30 -55q52 -41 220 -106q89 51 89 119q0 46 -87 84zM432 928q-37 60 -37 129q0 75 32 154q56 136 195 219q139 84 306 84q218 0 356 -156
l-82 -389q-61 82 -111 135q-79 84 -176 84q-48 0 -87 -31q-48 -38 -48 -76q0 -39 91 -77q118 -51 163 -74q124 -64 165 -98q101 -84 101 -202q0 -231 -266 -409q33 -71 33 -128q0 -94 -44 -174q-68 -125 -200 -197q-129 -70 -283 -70q-209 0 -330 116q-110 106 -118 308h379
q24 -98 96 -98q51 0 93 32q33 26 33 54q0 57 -165 125l-69 28q-256 106 -256 304q0 225 229 407zM1243 1348q-114 127 -314 127t-344 -118q-83 -69 -123 -167q-29 -72 -29 -135q0 -60 52 -135q-244 -171 -244 -403q0 -119 101 -192q68 -49 200 -102q102 -42 139 -68
q52 -37 52 -86q0 -44 -37 -79q-54 -51 -128 -51q-95 0 -126 100h-309q4 -93 40 -161q101 -189 367 -189q196 0 338 115q152 124 152 288q0 58 -45 146q124 78 177 140q101 117 101 254q0 116 -100 182q-132 86 -283 145q-88 34 -115 59q-26 24 -26 56q0 54 47 100
q53 51 128 51q138 0 268 -164z" />
    <glyph glyph-name="dieresis" unicode="&#xa8;" horiz-adv-x="928" vert-adv-y="2458" 
d="M957 1497q78 0 117 -54q24 -33 24 -80q0 -78 -60 -136q-61 -59 -139 -59q-63 0 -101 38q-40 39 -40 98q0 78 58 135q60 58 141 58zM954 1460q-67 0 -114 -52q-42 -45 -42 -105q0 -44 32 -72q28 -24 70 -24q65 0 115 51q45 47 45 102q0 100 -106 100zM567 1497
q64 0 103 -38q38 -37 38 -95q0 -77 -61 -137q-60 -59 -138 -59q-64 0 -103 38t-39 98q0 80 61 138q59 55 139 55zM564 1460q-67 0 -116 -52q-41 -45 -41 -105q0 -44 32 -71q28 -25 71 -25q64 0 114 52q45 47 45 100q0 39 -22 66q-28 35 -83 35z" />
    <glyph glyph-name="copyright" unicode="&#xa9;" horiz-adv-x="1710" vert-adv-y="2458" 
d="M1157 836q-59 55 -129 55q-91 0 -160 -72q-59 -63 -59 -136q0 -49 28 -84q38 -46 104 -46q71 0 156 55l107 -178q-146 -100 -297 -100q-146 0 -238 92q-88 90 -88 227q0 89 43 176q68 141 204 222q112 67 232 67q152 0 267 -110zM1085 555q-59 -39 -142 -39
q-90 0 -138 60q-36 45 -36 106q0 95 79 171q80 77 183 77q81 0 126 -41l116 115q-77 73 -211 73q-186 0 -323 -145q-121 -129 -121 -285q0 -104 60 -178q81 -100 233 -100q135 0 244 73zM1102 1305q237 0 375 -169q102 -126 102 -298q0 -268 -222 -482q-225 -217 -507 -217
q-208 0 -340 128q-134 130 -134 334q0 274 225 491q221 213 501 213zM1092 1268q-257 0 -465 -203q-211 -205 -211 -464q0 -185 118 -304q122 -121 316 -121q269 0 481 207q156 152 202 369q9 43 9 90q0 179 -120 300q-125 126 -330 126zM1127 1446q259 0 425 -167
q162 -163 162 -416q0 -133 -52 -259q-92 -225 -283 -388q-258 -220 -554 -220q-257 0 -426 169q-166 166 -166 419q0 129 45 250q104 281 367 458q227 154 482 154zM1116 1409q-210 0 -414 -125q-240 -146 -356 -387q-75 -158 -75 -315q0 -200 118 -347q160 -200 440 -200
q216 0 420 124q221 135 338 358q90 173 90 351q0 199 -116 345q-156 196 -445 196z" />
    <glyph glyph-name="ordfeminine" unicode="&#xaa;" horiz-adv-x="860" vert-adv-y="2458" 
d="M673 1241q67 0 103 -45q26 -32 26 -77q0 -77 -62 -135q-58 -56 -134 -56q-56 0 -90 33q-35 34 -35 89q0 78 60 136q56 55 132 55zM670 1204q-61 0 -106 -48q-45 -47 -45 -103q0 -88 87 -88q66 0 114 51q42 46 42 103q0 39 -28 63q-25 22 -64 22zM276 1091h-2
q42 159 159 255q128 104 278 104q72 0 137 -29l6 29h235l-155 -729l-181 43q-88 -45 -182 -45q-136 0 -222 86q-83 83 -83 210q0 37 10 76zM870 1364q-75 49 -160 49q-170 0 -296 -137q-109 -117 -109 -263q0 -120 85 -194q72 -63 180 -63q92 0 179 49l154 -39l139 647h-160
z" />
    <glyph glyph-name="guillemotleft" unicode="&#xab;" horiz-adv-x="1067" vert-adv-y="2458" 
d="M758 96l-201 469l375 447l211 -181l-248 -280l123 -272zM600 557l172 -403l199 139l-119 264l237 270l-153 131zM381 96l-201 469l377 447l209 -181l-246 -280l121 -272zM225 557l172 -403l197 139l-117 264l238 270l-154 131z" />
    <glyph glyph-name="logicalnot" unicode="&#xac;" horiz-adv-x="1290" vert-adv-y="2458" 
d="M258 870h1074l-154 -723h-295l90 430h-776zM1284 831h-993l-47 -215h778l-92 -430h217z" />
    <glyph glyph-name="sfthyphen" unicode="&#xad;" horiz-adv-x="879" vert-adv-y="2458" 
d="M233 729h680l-61 -293h-682zM866 690h-600l-49 -217h602z" />
    <glyph glyph-name="registered" unicode="&#xae;" horiz-adv-x="1792" vert-adv-y="2458" 
d="M1002 1034l1 1q2 3 7 3h96q82 0 82 -83q0 -65 -37 -114q-40 -53 -98 -53h-96q-5 0 -5 4q0 1 1 4zM998 827h55q38 0 66 36q30 39 30 86q0 52 -43 52h-73zM1154 1366q254 0 401 -183q104 -131 104 -307q0 -286 -234 -512q-239 -231 -537 -231q-218 0 -357 136
q-141 137 -141 352q0 290 236 519q233 226 528 226zM1266 287h-238l-94 246l-51 -246h-225l192 921h287q123 0 189 -73q53 -59 53 -153q0 -22 -8 -69l-1 -4q-47 -219 -231 -266l137 -350q345 241 345 578q0 195 -128 322q-134 134 -344 134q-275 0 -497 -214
q-224 -217 -224 -494q0 -193 126 -319q129 -130 334 -130q189 0 378 117zM1055 324h170l-135 344q0 5 4 6q96 18 151 73q95 95 95 233q0 81 -46 131q-54 58 -157 58h-254l-178 -845h145l70 327q0 3 6 2zM258 756h-2q49 176 116 283q145 230 383 361q207 114 421 114
q275 0 451 -175q172 -172 172 -439q0 -186 -99 -376q-137 -268 -384 -413q-213 -125 -448 -125q-276 0 -453 176q-175 175 -175 442q0 81 18 152zM1170 1475q-222 0 -438 -132q-252 -155 -375 -409q-80 -165 -80 -331q0 -214 126 -370q169 -210 464 -210q229 0 444 131
q233 143 356 380q95 181 95 368q0 212 -124 366q-165 207 -468 207z" />
    <glyph glyph-name="macron" unicode="&#xaf;" horiz-adv-x="877" vert-adv-y="2458" 
d="M395 1460h676l-61 -293h-678zM1024 1421h-596l-49 -215h598z" />
    <glyph glyph-name="degree" unicode="&#xb0;" horiz-adv-x="885" vert-adv-y="2458" 
d="M699 1282q71 0 112 -51q30 -38 30 -89q0 -81 -67 -146q-68 -66 -152 -66q-62 0 -102 39q-41 41 -41 102q0 80 70 147q67 64 150 64zM696 1243q-72 0 -129 -61q-48 -51 -48 -110q0 -40 23 -69q30 -36 81 -36q73 0 129 61q50 53 50 115q0 46 -34 75q-28 25 -72 25z
M727 1448q124 0 205 -80q79 -79 79 -199q0 -76 -35 -152q-56 -122 -175 -195q-99 -60 -205 -60q-126 0 -208 81q-79 79 -79 197q0 68 28 139q52 131 181 209q99 60 209 60zM722 1411q-153 0 -272 -127q-101 -109 -101 -244q0 -88 51 -152q71 -87 196 -87q155 0 272 124
q104 110 104 243q0 90 -53 155q-70 88 -197 88z" />
    <glyph glyph-name="plusminus" unicode="&#xb1;" horiz-adv-x="1307" vert-adv-y="2458" 
d="M836 303h393l-60 -291h-1085l61 291h394l49 221h-395l61 293h395l49 234h297l-51 -234h395l-61 -293h-395zM731 1012l-49 -232h-395l-47 -217h395l-49 -234h215l49 234h395l47 217h-395l49 232h-215zM1182 266h-1004l-47 -217h1006z" />
    <glyph glyph-name="twosuperior" unicode="&#xb2;" horiz-adv-x="735" vert-adv-y="2458" 
d="M201 569l51 252l389 302q71 51 71 97q0 54 -55 54q-56 0 -112 -88l-211 80q147 248 361 248q114 0 187 -73q73 -74 73 -184q0 -114 -82 -216q-64 -80 -287 -234h285l-52 -238h-618zM287 805l-39 -199h539l37 164h-351q-3 1 -4 4l138 97q121 85 169 124q142 116 142 261
q0 81 -47 140q-64 79 -179 79q-192 0 -303 -189l142 -53q50 80 125 80q94 0 94 -93q0 -63 -88 -127z" />
    <glyph glyph-name="threesuperior" unicode="&#xb3;" horiz-adv-x="733" vert-adv-y="2458" 
d="M456 1174l-60 206q111 136 252 136q102 0 163 -74q49 -59 49 -143q0 -87 -77 -179q74 -80 74 -189q0 -71 -32 -140q-53 -113 -161 -178q-92 -56 -192 -56q-144 0 -219 116q-36 55 -36 127q0 28 7 71l223 28q6 -100 62 -100q45 0 80 43q28 36 28 72q0 59 -51 73l-110 31
l38 178l103 25q27 6 27 48q0 11 -12 11q-57 0 -156 -106zM439 1370l35 -125q12 12 34 28q6 4 10 7l3 2q60 37 93 37q50 0 50 -48q0 -69 -61 -85l-76 -21l-26 -120l73 -21q81 -22 81 -106q0 -52 -35 -98q-47 -60 -113 -60q-87 0 -94 98l-156 -22q-4 -22 -4 -38q0 -65 38 -115
q67 -87 182 -87q143 0 251 115q95 102 95 227q0 106 -87 178q-2 0 -2 4t6 7q85 83 85 177q0 65 -37 111q-50 62 -138 62q-120 0 -207 -107z" />
    <glyph glyph-name="acute" unicode="&#xb4;" horiz-adv-x="694" vert-adv-y="2458" 
d="M350 1362l461 180l65 -276l-420 -158zM784 1491l-383 -149l78 -185l354 133z" />
    <glyph glyph-name="mu" unicode="&#xb5;" horiz-adv-x="1192" vert-adv-y="2458" 
d="M-4 -414l322 1510h350l-133 -625q-4 -17 -4 -33q0 -53 40 -80q26 -18 65 -18q81 0 137 68q27 32 38 77q12 46 24 111q31 167 105 500h352l-237 -1114l-264 127q-88 -117 -213 -117q-72 0 -136 39l-96 -445h-350zM348 1059l-305 -1434h272l105 486q45 -80 156 -80
q119 0 202 127l248 -121l217 1022h-270l-123 -582q-16 -77 -77 -126q-62 -50 -138 -50q-52 0 -88 25q-54 37 -54 107q0 22 5 44l123 582h-273z" />
    <glyph glyph-name="paragraph" unicode="&#xb6;" horiz-adv-x="1339" vert-adv-y="2458" 
d="M422 -401l233 1089q-354 28 -354 289q0 44 8 81q48 219 228 305q130 62 350 62h614l-389 -1826h-297l328 1533h-101l-325 -1533h-295zM702 727l-233 -1091h215l328 1533h178l-326 -1533h215l373 1752h-565q-285 0 -416 -114q-131 -115 -131 -305q0 -232 362 -242z" />
    <glyph glyph-name="periodcentered" unicode="&#xb7;" horiz-adv-x="465" vert-adv-y="2458" 
d="M406 905q72 0 107 -64q17 -32 17 -69q0 -64 -53 -115q-52 -51 -118 -51q-59 0 -96 36q-36 34 -36 87t40 103q57 73 139 73zM403 866q-60 0 -105 -56q-33 -39 -33 -77q0 -88 95 -88q56 0 97 44q36 37 36 85q0 28 -15 52q-24 40 -75 40z" />
    <glyph glyph-name="cedilla" unicode="&#xb8;" horiz-adv-x="631" vert-adv-y="2458" 
d="M250 76h219l-92 -96q105 -30 105 -137q0 -112 -95 -187q-87 -69 -191 -69q-113 0 -202 55l37 176h-19zM57 -182q34 -14 54 -18l9 -3q30 -10 54 -10h17q28 0 28 26q0 5 -14 5h-148zM381 39h-115l-170 -182h109q55 0 55 -35q0 -72 -69 -72h-17q-51 -1 -114 27l-25 -121
q56 -30 157 -30q98 0 174 61q78 62 78 153q0 44 -26 73q-31 34 -86 34q-10 0 -25 -3q-12 -3 -20 -3z" />
    <glyph glyph-name="onesuperior" unicode="&#xb9;" horiz-adv-x="494" vert-adv-y="2458" 
d="M194 1268l47 229h379l-196 -928h-244l147 699h-133zM272 1460l-31 -153h129q5 0 5 -6l-148 -695h164l182 854h-301z" />
    <glyph glyph-name="ordmasculine" unicode="&#xba;" horiz-adv-x="848" vert-adv-y="2458" 
d="M675 1237q61 0 97 -43q27 -34 27 -80q0 -73 -57 -129q-59 -57 -135 -57q-56 0 -90 33t-34 87q0 75 57 131q58 58 135 58zM672 1198q-62 0 -110 -51q-41 -43 -41 -95q0 -87 87 -87q60 0 107 49q44 45 44 95q0 36 -21 61q-24 28 -66 28zM713 1446q132 0 217 -86
q83 -83 83 -209q0 -74 -28 -146q-57 -143 -199 -228q-103 -62 -214 -62q-137 0 -222 85q-82 83 -82 215q0 75 28 144q56 139 191 222q107 65 226 65zM706 1409q-167 0 -293 -136q-108 -117 -108 -262q0 -120 84 -193q74 -64 183 -64q167 0 292 134q111 120 111 264
q0 94 -55 163q-75 94 -214 94z" />
    <glyph glyph-name="guillemotright" unicode="&#xbb;" horiz-adv-x="1067" vert-adv-y="2458" 
d="M871 1014l201 -467l-375 -447l-211 181l246 278l-121 272zM1029 553l-173 405l-198 -139l119 -266l-238 -268l154 -131zM496 1014l201 -467l-377 -447l-209 181l246 278l-48 107l-73 165zM652 553l-172 405l-197 -139l117 -266l-236 -268l154 -131z" />
    <glyph glyph-name="onequarter" unicode="&#xbc;" horiz-adv-x="1683" vert-adv-y="2458" 
d="M1127 356l248 314l-62 -312q0 -8 -8 -8h-174q-4 0 -4 6zM1278 389l31 131l-108 -131h77zM850 150l49 224l525 625h241l-127 -602h89l-58 -256h-86l-29 -141h-256l31 150h-379zM936 360l-39 -171h373q5 0 5 -4q0 -2 -1 -5l-28 -141h178l26 141h88l41 180h-88l127 600h-180
zM631 -16l-192 24l751 1510l185 -43zM498 39l111 -14l710 1421l-108 27zM338 1255l52 242h401l-211 -1002h-256l158 760h-144zM422 1460l-37 -168h140h2h1q2 -1 2 -2v-1l-1 -3l-158 -754h176l197 928h-322z" />
    <glyph glyph-name="onehalf" unicode="&#xbd;" horiz-adv-x="1712" vert-adv-y="2458" 
d="M926 0l53 268l207 160l228 174q52 39 52 89q0 22 -14 40q-17 21 -45 21q-60 0 -118 -97l-224 84q61 102 137 164q118 96 244 96q119 0 198 -78q77 -76 77 -193q0 -128 -84 -229q-58 -70 -264 -212l2 2l-52 -39h306l-52 -250h-651zM1014 248l-41 -209h572l36 174h-372
q-2 2 -2 4l145 103q171 116 219 164q111 109 111 246q0 84 -50 146q-68 84 -189 84q-120 0 -223 -83q-57 -45 -99 -117l151 -55q52 84 135 84q49 0 77 -35q20 -25 20 -61q0 -53 -47 -100q-14 -15 -250 -196l-153 -118zM633 -16l-192 24l749 1510l187 -43zM498 39l113 -14
l708 1421l-108 27zM338 1255l52 242h403l-213 -1002h-256l160 760h-146zM422 1460l-35 -168h138q6 0 7 -2v-1l-1 -3l-160 -754h176l199 928h-324z" />
    <glyph glyph-name="threequarters" unicode="&#xbe;" horiz-adv-x="1884" vert-adv-y="2458" 
d="M1285 356l248 314l-64 -312q0 -8 -6 -8h-176q-2 0 -2 6zM1437 389l26 131l-104 -131h78zM1007 150l49 224l524 625h242l-127 -602h88l-58 -256h-84l-28 -141h-256l31 150h-381zM1093 360l-39 -171h372q6 0 7 -4v-1v-4l-29 -141h176l29 141h86l41 180h-88l127 600h-181z
M474 1151l-59 209q119 139 263 139q103 0 167 -74q57 -66 57 -162q0 -95 -78 -182q80 -84 80 -199q0 -4 -6 -71q-40 -147 -150 -236q-118 -96 -255 -96q-150 0 -231 121q-41 61 -41 138q0 30 9 71l238 33q2 -111 66 -111q49 0 86 48q31 39 31 82q0 61 -58 79l-113 35l41 186
l103 25q36 9 36 50q0 17 -17 17q-31 0 -75 -32zM458 1348l37 -133l49 36q54 41 99 41q54 0 54 -52q0 -75 -63 -91l-80 -20l-29 -129l78 -23q87 -25 87 -120q0 -51 -37 -98q-51 -65 -121 -65q-96 0 -101 105l-170 -23q-4 -21 -4 -38q0 -47 24 -93q67 -127 212 -127
q155 0 273 126q100 108 100 239q0 117 -93 192q-2 1 -2 2v2q2 3 4 9q90 76 90 197q0 82 -59 133q-52 44 -127 44q-125 0 -221 -114zM790 -16l-195 24l752 1510l186 -43zM654 39l113 -14l709 1421l-109 27z" />
    <glyph glyph-name="questiondown" unicode="&#xbf;" horiz-adv-x="922" vert-adv-y="2458" 
d="M790 1217l144 2q1 -44 1 -70q0 -203 -59 -319q-60 -117 -252 -273q-120 -96 -120 -154q0 -28 28 -28q71 0 238 152l174 -228q-71 -78 -164 -145h2q-181 -123 -330 -123q-168 0 -250 91q-63 70 -63 192q0 104 34 192q42 111 123 190q40 39 124 99h-2q74 53 105 85
q47 51 62 118v-2q11 55 11 90q0 27 -6 131h159q-123 21 -123 137q0 79 63 139q61 60 136 60q61 0 103 -41q42 -42 42 -101q0 -80 -69 -142q-45 -40 -111 -52zM895 1180l-264 -2q2 -62 2 -88q0 -58 -9 -98q-15 -70 -60 -124q-31 -37 -123 -103q-164 -117 -216 -235
q-48 -109 -48 -222q0 -128 91 -189q72 -49 186 -49q154 0 330 132q63 47 111 99l-131 170q-151 -135 -235 -135q-65 0 -65 63q0 38 23 75q30 48 136 133q170 134 222 243q50 105 50 291v39zM823 1514q-63 0 -113 -52q-45 -48 -45 -104q0 -41 22 -68q30 -36 83 -36
q67 0 118 55q42 46 42 100q0 39 -23 67q-31 38 -84 38z" />
    <glyph glyph-name="Agrave" unicode="&#xc0;" horiz-adv-x="1536" vert-adv-y="2458" 
d="M1193 1526l290 -1526h-375l-65 270h-494l-168 -270h-387l934 1530h258l-346 154l174 264l397 -185l-207 -241zM1352 1751l-324 150l-133 -201l299 -133zM1139 39h297l-277 1452h-211l-886 -1452h299l157 254q9 16 28 16h511q19 1 23 -18zM930 895l-176 -289h229zM691 578
l254 415q1 3 4 3q4 0 5 -5l75 -411v-4q0 -9 -11 -9h-321q-8 0 -8 6q0 3 2 5z" />
    <glyph glyph-name="Aacute" unicode="&#xc1;" horiz-adv-x="1536" vert-adv-y="2458" 
d="M956 1530l-100 242l461 180l66 -277l-387 -145h196l291 -1530h-375l-65 270h-494l-168 -270h-387l934 1530h28zM1290 1901l-383 -150l78 -184l355 133zM1139 39h297l-277 1452h-211l-886 -1452h299l157 254q9 16 28 16h511q19 1 23 -18zM930 895l-176 -289h229zM691 578
l254 415q1 3 4 3q4 0 5 -5l75 -411v-4q0 -9 -11 -9h-321q-8 0 -8 6q0 3 2 5z" />
    <glyph glyph-name="Acircumflex" unicode="&#xc2;" horiz-adv-x="1536" vert-adv-y="2458" 
d="M795 1808l358 129l326 -149l-211 -244l-166 80l-195 -70zM1153 1896l-307 -110l80 -184l178 63l154 -74l159 185zM1139 39h297l-277 1452h-211l-886 -1452h299l157 254q9 16 28 16h511q19 1 23 -18zM1483 0h-375l-65 270h-494l-168 -270h-387l934 1530h264zM691 578
l254 415q1 3 4 3q4 0 5 -5l75 -411v-4q0 -9 -11 -9h-321q-8 0 -8 6q0 3 2 5zM930 895l-176 -289h229z" />
    <glyph glyph-name="Atilde" unicode="&#xc3;" horiz-adv-x="1536" vert-adv-y="2458" 
d="M715 1499l76 348l37 17q107 51 188 51q49 0 147 -29l10 -3q49 -15 69 -15q87 0 280 106l-60 -297l-36 -28q-95 -74 -202 -74q-48 0 -180 40q-35 11 -70 11q-129 0 -259 -127zM825 1823l-51 -227q92 71 196 71q45 0 129 -27q84 -26 127 -26q111 0 202 84l45 207
q-141 -76 -228 -76q-29 0 -93 21q-88 28 -136 28q-67 0 -166 -45q-14 -6 -25 -10zM1483 0h-375l-65 270h-494l-168 -270h-387l934 1530h264zM1139 39h297l-277 1452h-211l-886 -1452h299l157 254q9 16 28 16h511q19 1 23 -18zM930 895l-176 -289h229zM691 578l254 415
q1 3 4 3q4 0 5 -5l75 -411v-4q0 -9 -11 -9h-321q-8 0 -8 6q0 3 2 5z" />
    <glyph glyph-name="Adieresis" unicode="&#xc4;" horiz-adv-x="1536" vert-adv-y="2458" 
d="M955 1907q64 0 103 -39q38 -36 38 -94q0 -78 -61 -138q-60 -59 -137 -59q-64 0 -103 39q-39 38 -39 98q0 80 61 138q58 55 138 55zM952 1870q-67 0 -115 -52q-41 -46 -41 -106q0 -44 31 -71q29 -25 72 -25q63 0 113 52q45 46 45 101q0 39 -22 66q-29 35 -83 35z
M1346 1906q78 0 117 -54q24 -33 24 -80q0 -77 -60 -136q-61 -59 -139 -59q-62 0 -102 38q-39 38 -39 99q0 77 58 134q59 58 141 58zM1343 1869q-67 0 -114 -52q-42 -45 -42 -105q0 -44 32 -72q28 -24 70 -24q65 0 115 51q45 46 45 102q0 100 -106 100zM930 895l-176 -289
h229zM691 578l254 415q1 3 4 3q4 0 5 -5l75 -411v-4q0 -9 -11 -9h-321q-8 0 -8 6q0 3 2 5zM1139 39h297l-277 1452h-211l-886 -1452h299l157 254q9 16 28 16h511q19 1 23 -18zM1483 0h-375l-65 270h-494l-168 -270h-387l934 1530h264z" />
    <glyph glyph-name="Aring" unicode="&#xc5;" horiz-adv-x="1536" vert-adv-y="2458" 
d="M987 1530q-91 49 -91 159q0 87 58 161q84 108 213 108q86 0 140 -52q51 -51 51 -129q0 -109 -84 -191q-33 -32 -82 -56l291 -1530h-375l-65 270h-494l-168 -270h-387l934 1530h59zM1152 1855q41 0 69 -27q29 -28 29 -71q0 -55 -46 -100q-47 -45 -104 -45q-44 0 -71 28
q-27 27 -27 64q0 61 46 105q46 46 104 46zM1149 1816q-34 0 -66 -26q-44 -35 -44 -82q0 -57 61 -57q37 0 69 25q42 33 42 75q0 65 -62 65zM1164 1921q-95 0 -166 -76q-64 -68 -64 -153q0 -55 31 -93q43 -53 122 -53q98 0 169 76q63 67 63 152q0 54 -31 94q-43 53 -124 53z
M1139 39h297l-277 1452h-211l-886 -1452h299l157 254q9 16 28 16h511q19 1 23 -18zM930 895l-176 -289h229zM691 578l254 415q1 3 4 3q4 0 5 -5l75 -411v-4q0 -9 -11 -9h-321q-8 0 -8 6q0 3 2 5z" />
    <glyph glyph-name="AE" unicode="&#xc6;" horiz-adv-x="1909" vert-adv-y="2458" 
d="M1022 606l90 436l-305 -436h215zM1897 592h-521l-53 -238h522l-71 -354h-879l55 270h-362l-201 -270h-391l1073 1530h1028l-73 -355h-525l-25 -119l-24 -110h522zM1798 315h-510q-10 1 -10 12l64 292q2 10 12 10h510l59 278h-508q-11 0 -10 10l59 285q4 12 17 12h508
l59 277h-958l-1020 -1452h299l190 262q8 8 19 8h419l-55 -270h797zM1055 567h-310q-8 0 -8 6q0 2 2 5l450 637z" />
    <glyph glyph-name="Ccedilla" unicode="&#xc7;" horiz-adv-x="1460" vert-adv-y="2458" 
d="M1667 1348l-271 -275q-126 119 -267 119q-184 0 -339 -127q-161 -131 -195 -331q-6 -34 -6 -60q0 -130 82 -219q46 -49 112 -79q82 -36 155 -36q142 0 319 119l158 -287q-250 -188 -548 -188q-5 0 -73 4l-6 -8q106 -30 106 -137q0 -112 -95 -187q-88 -69 -192 -69
q-113 0 -202 55l37 176h-18l192 209q-160 69 -251 180q-138 169 -138 405q0 190 100 386q137 268 388 416q222 132 467 132q296 0 485 -198zM469 -182q33 -14 53 -18l9 -3q30 -10 54 -10h17q28 0 28 26q0 5 -14 5h-147zM1241 403q-156 -102 -306 -102q-171 0 -288 122
q-97 101 -97 247q0 214 167 382q93 92 215 139q104 40 197 40q152 0 267 -102l217 219q-155 159 -426 159q-242 0 -461 -133q-238 -144 -363 -386q-96 -187 -96 -379q0 -224 133 -383q66 -79 148 -124q44 -25 134 -55l-174 -190h108q55 0 55 -35q0 -72 -69 -72h-17
q-51 -1 -114 27l-25 -121q56 -30 158 -30q98 0 174 61q78 62 78 153q0 59 -43 87q-30 20 -69 20q-11 0 -25 -3q-13 -3 -21 -3l82 86q9 -1 27 -2q30 -2 65 -2q283 0 492 159z" />
    <glyph glyph-name="Egrave" unicode="&#xc8;" horiz-adv-x="1079" vert-adv-y="2458" 
d="M784 1948l398 -185l-201 -233h303l-74 -355h-522l-51 -229h522l-73 -354h-523l-51 -238h522l-73 -354h-879l322 1530h552l-346 154zM985 315h-510q-9 0 -9 7q0 1 1 5l61 292q3 10 15 10h508l61 278h-510q-11 0 -10 10l61 285q3 12 15 12h510l57 277h-797l-309 -1452h799z
M1122 1751l-323 150l-133 -201l299 -133z" />
    <glyph glyph-name="Eacute" unicode="&#xc9;" horiz-adv-x="1079" vert-adv-y="2458" 
d="M627 1772l461 180l65 -277l-387 -145h518l-74 -355h-522l-51 -229h522l-73 -354h-523l-51 -238h522l-73 -354h-879l322 1530h323zM985 315h-510q-9 0 -9 7q0 1 1 5l61 292q3 10 15 10h508l61 278h-510q-11 0 -10 10l61 285q3 12 15 12h510l57 277h-797l-309 -1452h799z
M1061 1901l-383 -150l78 -184l354 133z" />
    <glyph glyph-name="Ecircumflex" unicode="&#xca;" horiz-adv-x="1079" vert-adv-y="2458" 
d="M1086 592h-523l-51 -238h522l-73 -354h-879l322 1530h880l-74 -355h-522l-51 -229h522zM985 315h-510q-9 0 -9 7q0 1 1 5l61 292q3 10 15 10h508l61 278h-510q-11 0 -10 10l61 285q3 12 15 12h510l57 277h-797l-309 -1452h799zM567 1809l359 129l325 -150l-211 -244
l-165 80l-195 -69zM926 1897l-307 -111l79 -184l179 63l153 -74l160 185z" />
    <glyph glyph-name="Edieresis" unicode="&#xcb;" horiz-adv-x="1079" vert-adv-y="2458" 
d="M1086 592h-523l-51 -238h522l-73 -354h-879l322 1530h880l-74 -355h-522l-51 -229h522zM985 315h-510q-9 0 -9 7q0 1 1 5l61 292q3 10 15 10h508l61 278h-510q-11 0 -10 10l61 285q3 12 15 12h510l57 277h-797l-309 -1452h799zM728 1907q64 0 103 -39q38 -36 38 -94
q0 -78 -61 -138q-60 -59 -138 -59q-64 0 -103 39q-39 38 -39 98q0 80 61 138q58 55 139 55zM725 1870q-68 0 -116 -52q-41 -45 -41 -106q0 -44 32 -71q28 -25 71 -25q64 0 114 52q45 47 45 101q0 39 -22 66q-29 35 -83 35zM1119 1907q78 0 117 -54q24 -34 24 -80
q0 -78 -60 -137q-61 -59 -139 -59q-63 0 -102 38q-39 39 -39 99q0 78 58 134q59 59 141 59zM1116 1870q-67 0 -115 -52q-41 -45 -41 -106q0 -44 32 -72q28 -24 70 -24q65 0 115 51q45 47 45 102q0 101 -106 101z" />
    <glyph glyph-name="Igrave" unicode="&#xcc;" horiz-adv-x="526" vert-adv-y="2458" 
d="M512 1948l398 -185l-201 -233h47l-324 -1530h-358l324 1530h286l-346 154zM707 1491h-277l-307 -1452h277zM850 1751l-323 150l-134 -201l299 -133z" />
    <glyph glyph-name="Iacute" unicode="&#xcd;" horiz-adv-x="526" vert-adv-y="2458" 
d="M355 1772l460 180l66 -277l-387 -145h262l-324 -1530h-358l324 1530h57zM707 1491h-277l-307 -1452h277zM789 1901l-383 -150l78 -184l354 133z" />
    <glyph glyph-name="Icircumflex" unicode="&#xce;" horiz-adv-x="526" vert-adv-y="2458" 
d="M398 1530h358l-324 -1530h-358zM707 1491h-277l-307 -1452h277zM295 1809l359 129l325 -150l-211 -244l-166 80l-194 -69zM654 1897l-308 -111l80 -184l178 63l154 -74l160 185z" />
    <glyph glyph-name="Idieresis" unicode="&#xcf;" horiz-adv-x="526" vert-adv-y="2458" 
d="M398 1530h358l-324 -1530h-358zM707 1491h-277l-307 -1452h277zM847 1907q77 0 116 -54q24 -34 24 -80q0 -78 -60 -137q-61 -59 -138 -59q-63 0 -102 38q-39 39 -39 99q0 78 58 134q59 59 141 59zM843 1870q-66 0 -114 -52q-41 -45 -41 -106q0 -44 31 -72q29 -24 70 -24
q65 0 115 51q45 47 45 102q0 101 -106 101zM456 1907q64 0 103 -39q38 -36 38 -94q0 -78 -61 -138q-61 -59 -138 -59q-64 0 -103 39q-39 38 -39 98q0 80 61 138q59 55 139 55zM453 1870q-68 0 -116 -52q-41 -45 -41 -106q0 -44 32 -71q28 -25 71 -25q64 0 114 52
q45 47 45 101q0 39 -22 66q-29 35 -83 35z" />
    <glyph glyph-name="Eth" unicode="&#xd0;" horiz-adv-x="1708" vert-adv-y="2458" 
d="M975 840h-201l78 362q3 12 17 12h198q134 0 225 -61q133 -90 133 -275q0 -238 -173 -406q-162 -157 -388 -157h-188q-11 0 -11 8q0 1 1 4l63 291h199zM823 879h199l-61 -300h-199l-51 -225h153q209 0 360 145q160 154 160 380q0 132 -80 211q-86 85 -237 85h-180zM279 0
l125 579h-199l63 300h199l137 651h510q277 0 454 -176q175 -175 175 -442q0 -170 -79 -340q-126 -272 -394 -435q-224 -137 -465 -137h-526zM451 618l-123 -579h477q230 0 446 132q236 144 360 379q95 180 95 364q0 271 -191 436q-162 141 -401 141h-477l-139 -651h-197
l-47 -222h197z" />
    <glyph glyph-name="Ntilde" unicode="&#xd1;" horiz-adv-x="1456" vert-adv-y="2458" 
d="M682 1530l70 317l36 17q108 51 189 51q49 0 147 -29l10 -3q49 -15 69 -15q87 0 280 106l-60 -297l-37 -28q-94 -74 -201 -74q-47 0 -118 21q-98 30 -131 30q-111 0 -227 -96h16l387 -838l176 836h359l-324 -1528h-313l-389 836l-177 -836h-358l324 1528zM702 1491
l-260 -2l-307 -1450h277l194 920l428 -920h256l309 1450h-276l-197 -917zM786 1823l-51 -227q92 71 196 71q45 0 129 -27q84 -26 127 -26q111 0 202 84l45 207q-141 -76 -228 -76q-29 0 -93 21q-88 28 -137 28q-66 0 -165 -45q-14 -6 -25 -10z" />
    <glyph glyph-name="Ograve" unicode="&#xd2;" horiz-adv-x="1794" vert-adv-y="2458" 
d="M1132 1231q161 0 266 -104q107 -104 107 -264q0 -217 -175 -389q-177 -173 -398 -173q-164 0 -270 103q-107 105 -107 267q0 216 174 387q177 173 403 173zM1125 1192q-198 0 -363 -159q-168 -162 -168 -362q0 -143 92 -236q95 -95 246 -95q205 0 371 161
q163 160 163 359q0 143 -92 236q-95 96 -249 96zM1142 1948l398 -185l-199 -233q230 -59 352 -210q135 -167 135 -396q0 -197 -98 -391q-137 -270 -392 -420q-220 -129 -464 -129q-286 0 -467 182q-176 177 -176 446q0 170 80 346q128 281 404 448q230 140 476 140
q53 0 103 -8l-326 146zM1183 1507q-230 0 -449 -134q-258 -156 -382 -417q-81 -172 -81 -346q0 -277 194 -445q165 -142 409 -142q240 0 458 133q231 142 355 378q101 193 101 389q0 275 -192 442q-164 142 -413 142zM1480 1751l-323 150l-133 -201l299 -133z" />
    <glyph glyph-name="Oacute" unicode="&#xd3;" horiz-adv-x="1794" vert-adv-y="2458" 
d="M1132 1231q161 0 266 -104q107 -104 107 -264q0 -217 -175 -389q-177 -173 -398 -173q-164 0 -270 103q-107 105 -107 267q0 216 174 387q177 173 403 173zM1125 1192q-198 0 -363 -159q-168 -162 -168 -362q0 -143 92 -236q95 -95 246 -95q205 0 371 161
q163 160 163 359q0 143 -92 236q-95 96 -249 96zM985 1772l460 180l66 -277l-346 -131l12 2q10 1 27 1q269 0 449 -182q175 -176 175 -441q0 -197 -98 -391q-138 -270 -392 -420q-220 -129 -464 -129q-286 0 -467 182q-176 177 -176 446q0 154 69 321q120 287 400 464
q159 100 381 141zM1183 1508q-230 0 -449 -134q-258 -156 -382 -418q-81 -171 -81 -346q0 -277 194 -445q165 -142 409 -142q240 0 458 134q231 141 355 378q101 193 101 388q0 276 -192 443q-164 142 -413 142zM1419 1901l-383 -150l78 -184l354 133z" />
    <glyph glyph-name="Ocircumflex" unicode="&#xd4;" horiz-adv-x="1794" vert-adv-y="2458" 
d="M1132 1231q161 0 266 -104q107 -104 107 -264q0 -217 -175 -389q-177 -173 -398 -173q-164 0 -270 103q-107 105 -107 267q0 216 174 387q177 173 403 173zM1125 1192q-198 0 -363 -159q-168 -162 -168 -362q0 -143 92 -236q95 -95 246 -95q205 0 371 161
q163 160 163 359q0 143 -92 236q-95 96 -249 96zM1195 1546q278 0 458 -181q175 -176 175 -441q0 -197 -98 -391q-138 -271 -392 -420q-221 -129 -464 -129q-286 0 -467 182q-176 177 -176 446q0 130 51 274q107 302 392 495q244 165 521 165zM1183 1507q-230 0 -449 -134
q-258 -156 -382 -417q-81 -172 -81 -346q0 -277 194 -445q165 -142 409 -142q240 0 458 133q231 142 355 378q101 193 101 389q0 275 -192 442q-164 142 -413 142zM923 1809l359 129l325 -150l-211 -244l-166 80l-194 -69zM1282 1897l-308 -111l80 -184l178 63l154 -74
l160 185z" />
    <glyph glyph-name="Otilde" unicode="&#xd5;" horiz-adv-x="1794" vert-adv-y="2458" 
d="M1131 1231q172 0 279 -116q95 -102 95 -252q0 -234 -197 -409q-171 -153 -377 -153q-175 0 -282 117q-94 102 -94 253q0 220 176 388q179 172 400 172zM1124 1192q-197 0 -365 -162q-165 -159 -165 -361q0 -153 107 -247q93 -82 230 -82q222 0 389 179q146 155 146 343
q0 155 -106 248q-93 82 -236 82zM1194 1547q291 0 474 -197q160 -173 160 -427q0 -168 -73 -338q-162 -375 -541 -533q-164 -68 -339 -68q-300 0 -483 198q-161 174 -161 427q0 220 122 432q169 293 485 430q175 76 356 76zM1182 1508q-205 0 -412 -114q-294 -162 -425 -454
q-74 -165 -74 -329q0 -275 191 -443q166 -145 411 -145q167 0 329 67q361 150 515 508q71 165 71 327q0 273 -189 439q-164 144 -417 144zM843 1499l76 348l37 17l26 12q82 39 164 39q48 0 165 -35q42 -12 59 -12q84 0 280 106l-59 -297l-37 -28q-95 -74 -202 -74
q-48 0 -118 21q-95 30 -131 30q-127 0 -260 -127zM954 1823l-51 -227q94 71 196 71q44 0 128 -27q85 -26 127 -26q106 0 202 84l45 207q-145 -76 -231 -76q-25 0 -89 21q-89 28 -137 28q-66 0 -166 -45q-13 -6 -24 -10z" />
    <glyph glyph-name="Odieresis" unicode="&#xd6;" horiz-adv-x="1794" vert-adv-y="2458" 
d="M1132 1231q161 0 266 -104q107 -104 107 -264q0 -217 -175 -389q-177 -173 -398 -173q-164 0 -270 103q-107 105 -107 267q0 216 174 387q177 173 403 173zM1125 1192q-198 0 -363 -159q-168 -162 -168 -362q0 -143 92 -236q95 -95 246 -95q205 0 371 161
q163 160 163 359q0 143 -92 236q-95 96 -249 96zM1195 1546q278 0 458 -181q175 -176 175 -441q0 -197 -98 -391q-138 -271 -392 -420q-221 -129 -464 -129q-286 0 -467 182q-176 177 -176 446q0 130 51 274q107 302 392 495q244 165 521 165zM1183 1507q-230 0 -449 -134
q-258 -156 -382 -417q-81 -172 -81 -346q0 -277 194 -445q165 -142 409 -142q240 0 458 133q231 142 355 378q101 193 101 389q0 275 -192 442q-164 142 -413 142zM1475 1907q77 0 116 -54q24 -34 24 -80q0 -78 -60 -137q-61 -59 -138 -59q-63 0 -102 38q-39 39 -39 99
q0 78 58 134q59 59 141 59zM1471 1870q-66 0 -114 -52q-41 -45 -41 -106q0 -44 31 -72q28 -24 70 -24q65 0 115 51q45 46 45 102q0 101 -106 101zM1084 1907q64 0 103 -39q38 -36 38 -94q0 -78 -61 -138q-60 -59 -138 -59q-64 0 -103 39q-39 38 -39 98q0 80 61 138
q58 55 139 55zM1081 1870q-68 0 -116 -52q-41 -45 -41 -106q0 -44 32 -71q28 -25 71 -25q64 0 114 52q45 47 45 101q0 39 -22 66q-29 35 -83 35z" />
    <glyph glyph-name="multiply" unicode="&#xd7;" horiz-adv-x="1176" vert-adv-y="2458" 
d="M491 526l-200 256l243 201l199 -254l313 256l170 -211l-313 -258l199 -254l-242 -203l-205 258l-309 -260l-170 211zM344 776l201 -254l-316 -258l121 -153l313 260l201 -256l184 153l-198 254l313 258l-123 154l-311 -258l-201 252z" />
    <glyph glyph-name="Oslash" unicode="&#xd8;" horiz-adv-x="1794" vert-adv-y="2458" 
d="M739 346q-184 120 -184 325q0 233 197 408q171 152 377 152q15 0 46 -4h6zM1120 1192q-156 -20 -240 -69q-165 -96 -244 -266q-42 -92 -42 -187q0 -161 131 -269zM1300 1194q205 -112 205 -332q0 -233 -197 -408q-171 -153 -377 -153q-25 0 -59 3h-7l-7 1zM917 340h14
q221 0 389 178q146 156 146 342q0 169 -148 279zM698 -90h-223l78 149q-116 69 -167 126q-155 174 -155 426q0 166 73 331q110 247 335 413q260 191 551 191q53 0 104 -6l45 88h219l-70 -147q123 -68 177 -126q163 -175 163 -429q0 -169 -78 -345q-112 -250 -336 -414
q-249 -183 -541 -183q-68 0 -128 10zM538 -53h137l50 92q82 -16 149 -16q162 0 324 68q364 153 520 511q69 159 69 319q0 186 -93 331q-60 93 -140 145q-42 27 -117 63l62 129h-133l-52 -94q-68 12 -125 12q-165 0 -328 -69q-364 -153 -520 -510q-69 -157 -69 -317
q0 -181 88 -323q57 -91 133 -145q41 -28 113 -65z" />
    <glyph glyph-name="Ugrave" unicode="&#xd9;" horiz-adv-x="1243" vert-adv-y="2458" 
d="M1446 1528l-230 -1084q-39 -184 -210 -317q-176 -137 -393 -137q-180 0 -305 99q-136 109 -136 286q0 47 8 84l225 1069h359l-223 -1045q-3 -12 -3 -24q0 -48 38 -81q40 -34 96 -34q62 0 118 44q65 50 76 101l221 1039h359zM438 1489l-219 -1038q-8 -39 -8 -78
q0 -149 111 -245q116 -99 290 -99q179 0 339 107q186 124 227 315l221 1038h-279l-211 -989q-17 -83 -86 -139t-151 -56q-78 0 -131 51q-41 40 -41 98q0 18 4 35l213 1000h-279zM866 1948l398 -185l-207 -241l-365 162zM1204 1751l-323 150l-134 -201l299 -133z" />
    <glyph glyph-name="Uacute" unicode="&#xda;" horiz-adv-x="1243" vert-adv-y="2458" 
d="M1446 1528l-230 -1084q-39 -184 -210 -317q-176 -137 -393 -137q-180 0 -305 99q-136 109 -136 286q0 47 8 84l225 1069h359l-223 -1045q-3 -12 -3 -24q0 -48 38 -81q40 -34 96 -34q62 0 118 44q65 50 76 101l221 1039h359zM438 1489l-219 -1038q-8 -39 -8 -78
q0 -149 111 -245q116 -99 290 -99q179 0 339 107q186 124 227 315l221 1038h-279l-211 -989q-17 -83 -86 -139t-151 -56q-78 0 -131 51q-41 40 -41 98q0 18 4 35l213 1000h-279zM709 1772l460 180l66 -277l-420 -157zM1143 1901l-383 -150l78 -184l354 133z" />
    <glyph glyph-name="Ucircumflex" unicode="&#xdb;" horiz-adv-x="1243" vert-adv-y="2458" 
d="M1446 1528l-230 -1084q-39 -184 -210 -317q-176 -137 -393 -137q-180 0 -305 99q-136 109 -136 286q0 47 8 84l225 1069h359l-223 -1045q-3 -12 -3 -24q0 -48 38 -81q40 -34 96 -34q62 0 118 44q65 50 76 101l221 1039h359zM438 1489l-219 -1038q-8 -39 -8 -78
q0 -149 111 -245q116 -99 290 -99q179 0 339 107q186 124 227 315l221 1038h-279l-211 -989q-17 -83 -86 -139t-151 -56q-78 0 -131 51q-41 40 -41 98q0 18 4 35l213 1000h-279zM649 1809l359 129l325 -150l-211 -244l-166 80l-194 -69zM1008 1897l-308 -111l80 -184l178 63
l154 -74l160 185z" />
    <glyph glyph-name="Udieresis" unicode="&#xdc;" horiz-adv-x="1243" vert-adv-y="2458" 
d="M1446 1528l-230 -1084q-39 -184 -210 -317q-176 -137 -393 -137q-180 0 -305 99q-136 109 -136 286q0 47 8 84l225 1069h359l-223 -1045q-3 -12 -3 -24q0 -48 38 -81q40 -34 96 -34q62 0 118 44q65 50 76 101l221 1039h359zM438 1489l-219 -1038q-8 -39 -8 -78
q0 -149 111 -245q116 -99 290 -99q179 0 339 107q186 124 227 315l221 1038h-279l-211 -989q-17 -83 -86 -139t-151 -56q-78 0 -131 51q-41 40 -41 98q0 18 4 35l213 1000h-279zM1201 1907q77 0 116 -54q24 -34 24 -80q0 -78 -60 -137q-61 -59 -138 -59q-63 0 -102 38
q-39 39 -39 99q0 78 58 134q59 59 141 59zM1197 1870q-66 0 -114 -52q-41 -45 -41 -106q0 -44 31 -72q29 -24 70 -24q65 0 115 51q45 47 45 102q0 101 -106 101zM810 1907q64 0 103 -39q38 -36 38 -94q0 -78 -61 -138q-61 -59 -138 -59q-64 0 -103 39q-39 38 -39 98
q0 80 61 138q59 55 139 55zM807 1870q-68 0 -116 -52q-41 -45 -41 -106q0 -44 32 -71q28 -25 71 -25q64 0 114 52q45 47 45 101q0 39 -22 66q-29 35 -83 35z" />
    <glyph glyph-name="Yacute" unicode="&#xdd;" horiz-adv-x="1217" vert-adv-y="2458" 
d="M315 1530h389l98 -528l326 526h395l-637 -981l-112 -547h-359l117 559zM696 1772l461 180l65 -277l-420 -157zM1130 1901l-383 -150l78 -184l354 133zM850 561l602 928h-303l-361 -581q-3 -4 -5 -4q-4 0 -5 6l-109 581h-305l209 -930l-111 -522h279z" />
    <glyph glyph-name="Thorn" unicode="&#xde;" horiz-adv-x="1788" vert-adv-y="2458" 
d="M531 630l65 306q3 12 12 12h160q116 0 116 -124q0 -60 -40 -120q-55 -84 -146 -84h-159q-9 0 -9 6q0 2 1 4zM576 659h122q72 0 118 75q28 47 28 88q0 87 -76 87h-137zM80 0l324 1530h358l-55 -268q50 0 66 1q31 1 40 1h15q174 0 278 -105q102 -103 102 -267
q0 -94 -36 -190q-55 -149 -176 -255q-161 -142 -357 -142h-139l-62 -305h-358zM436 1491l-307 -1452h277l61 295q0 8 14 8h158q243 0 407 211q122 157 122 336q0 133 -73 222q-94 114 -265 114h-20q-51 -1 -155 -2l58 268h-277z" />
    <glyph glyph-name="germandbls" unicode="&#xdf;" horiz-adv-x="1147" vert-adv-y="2458" 
d="M86 0l231 1092q36 165 185 285q150 120 313 120h27q149 0 247 -98q99 -100 99 -251q0 -161 -129 -325q86 -110 86 -251q0 -89 -32 -178q-53 -147 -171 -253q-159 -141 -352 -141h-504zM707 940q64 8 99 50q33 39 33 89q0 72 -76 72q-86 0 -102 -76l-153 -729h127
q62 0 110 60q47 59 47 109q0 46 -42 80q-41 34 -109 38zM1008 825q141 156 141 327q0 146 -104 236q-84 72 -203 72h-27q-151 0 -290 -111q-138 -111 -171 -264l-221 -1046h270l222 1046q4 23 21 47q41 58 118 58q58 0 90 -38q25 -30 25 -73q0 -70 -49 -127q-34 -41 -91 -47
l-51 -233q72 -5 112 -54q33 -40 33 -94q0 -72 -56 -142q-59 -73 -142 -73h-123l-57 -270h135q235 0 398 209q120 153 120 327q0 143 -100 250z" />
    <glyph glyph-name="agrave" unicode="&#xe0;" horiz-adv-x="1202" vert-adv-y="2458" 
d="M718 748q95 0 148 -66q39 -49 39 -118q0 -115 -91 -203q-87 -85 -199 -85q-83 0 -135 51t-52 132q0 116 89 203q87 86 201 86zM714 709q-101 0 -178 -81q-70 -74 -70 -167q0 -55 32 -94q41 -52 118 -52q105 0 182 83q69 74 69 163q0 56 -32 95q-42 53 -121 53zM991 1024
h316l-217 -1024h-316l6 27q-106 -41 -214 -41q-194 0 -317 123q-120 121 -120 302q0 62 10 110q43 195 208 348q183 169 422 169q117 0 214 -49zM1257 985h-233l-14 -55q-104 71 -242 71q-248 0 -439 -205q-162 -175 -162 -385q0 -143 84 -247q114 -141 314 -141
q133 0 269 69l-13 -53h236zM760 1538l397 -184l-207 -242l-364 162zM1098 1342l-324 149l-133 -201l299 -133z" />
    <glyph glyph-name="aacute" unicode="&#xe1;" horiz-adv-x="1202" vert-adv-y="2458" 
d="M718 748q95 0 148 -66q39 -49 39 -118q0 -115 -91 -203q-87 -85 -199 -85q-83 0 -135 51t-52 132q0 116 89 203q87 86 201 86zM714 709q-101 0 -178 -81q-70 -74 -70 -167q0 -55 32 -94q41 -52 118 -52q105 0 182 83q69 74 69 163q0 56 -32 95q-42 53 -121 53zM991 1024
h316l-217 -1024h-316l6 27q-106 -41 -214 -41q-194 0 -317 123q-120 121 -120 302q0 62 10 110q43 195 208 348q183 169 422 169q117 0 214 -49zM1257 985h-233l-14 -55q-104 71 -242 71q-248 0 -439 -205q-162 -175 -162 -385q0 -143 84 -247q114 -141 314 -141
q133 0 269 69l-13 -53h236zM602 1362l461 180l65 -276l-419 -158zM1036 1491l-383 -149l78 -185l354 133z" />
    <glyph glyph-name="acircumflex" unicode="&#xe2;" horiz-adv-x="1202" vert-adv-y="2458" 
d="M718 748q95 0 148 -66q39 -49 39 -118q0 -115 -91 -203q-87 -85 -199 -85q-83 0 -135 51t-52 132q0 116 89 203q87 86 201 86zM714 709q-101 0 -178 -81q-70 -74 -70 -167q0 -55 32 -94q41 -52 118 -52q105 0 182 83q69 74 69 163q0 56 -32 95q-42 53 -121 53zM991 1024
h316l-217 -1024h-316l6 27q-106 -41 -214 -41q-194 0 -317 123q-120 121 -120 302q0 62 10 110q43 195 208 348q183 169 422 169q117 0 214 -49zM1257 985h-233l-14 -55q-104 71 -242 71q-248 0 -439 -205q-162 -175 -162 -385q0 -143 84 -247q114 -141 314 -141
q133 0 269 69l-13 -53h236zM543 1399l358 129l326 -150l-211 -243l-166 80l-195 -70zM901 1487l-307 -111l80 -184l178 64l154 -74l159 184z" />
    <glyph glyph-name="atilde" unicode="&#xe3;" horiz-adv-x="1202" vert-adv-y="2458" 
d="M718 748q95 0 148 -66q39 -49 39 -118q0 -115 -91 -203q-87 -85 -199 -85q-83 0 -135 51t-52 132q0 116 89 203q87 86 201 86zM714 709q-101 0 -178 -81q-70 -74 -70 -167q0 -55 32 -94q41 -52 118 -52q105 0 182 83q69 74 69 163q0 56 -32 95q-42 53 -121 53zM991 1024
h316l-217 -1024h-316l6 27q-106 -41 -214 -41q-194 0 -317 123q-120 121 -120 302q0 62 10 110q43 195 208 348q183 169 422 169q117 0 214 -49zM1257 985h-233l-14 -55q-104 71 -242 71q-248 0 -439 -205q-162 -175 -162 -385q0 -143 84 -247q114 -141 314 -141
q133 0 269 69l-13 -53h236zM463 1090l76 348l36 16q108 51 189 51q49 0 147 -29q13 -3 20 -5q41 -13 59 -13q86 0 280 107l-60 -297l-37 -29q-95 -74 -201 -74q-48 0 -118 22q-97 30 -132 30q-129 0 -259 -127zM573 1413l-51 -227q92 72 196 72q45 0 129 -27t127 -27
q111 0 202 84l45 207q-142 -76 -228 -76q-29 0 -93 21q-88 28 -137 28q-64 0 -165 -45z" />
    <glyph glyph-name="adieresis" unicode="&#xe4;" horiz-adv-x="1202" vert-adv-y="2458" 
d="M718 748q95 0 148 -66q39 -49 39 -118q0 -115 -91 -203q-87 -85 -199 -85q-83 0 -135 51t-52 132q0 116 89 203q87 86 201 86zM714 709q-101 0 -178 -81q-70 -74 -70 -167q0 -55 32 -94q41 -52 118 -52q105 0 182 83q69 74 69 163q0 56 -32 95q-42 53 -121 53zM991 1024
h316l-217 -1024h-316l6 27q-106 -41 -214 -41q-194 0 -317 123q-120 121 -120 302q0 62 10 110q43 195 208 348q183 169 422 169q117 0 214 -49zM1257 985h-233l-14 -55q-104 71 -242 71q-248 0 -439 -205q-162 -175 -162 -385q0 -143 84 -247q114 -141 314 -141
q133 0 269 69l-13 -53h236zM1094 1497q78 0 117 -54q24 -33 24 -80q0 -77 -61 -136q-60 -59 -138 -59q-63 0 -102 38q-39 39 -39 99q0 77 58 134q60 58 141 58zM1091 1460q-67 0 -115 -52q-41 -45 -41 -105q0 -44 32 -72q28 -24 70 -24q66 0 115 51q45 47 45 102
q0 100 -106 100zM703 1497q64 0 103 -38q38 -37 38 -95q0 -78 -61 -137q-60 -59 -137 -59q-64 0 -103 38t-39 98q0 80 61 138q58 55 138 55zM700 1460q-67 0 -115 -52q-41 -45 -41 -105q0 -44 31 -71q29 -25 71 -25q65 0 114 52q45 46 45 100q0 39 -22 66q-28 35 -83 35z
" />
    <glyph glyph-name="aring" unicode="&#xe5;" horiz-adv-x="1202" vert-adv-y="2458" 
d="M718 748q95 0 148 -66q39 -49 39 -118q0 -115 -91 -203q-87 -85 -199 -85q-83 0 -135 51t-52 132q0 116 89 203q87 86 201 86zM714 709q-101 0 -178 -81q-70 -74 -70 -167q0 -55 32 -94q41 -52 118 -52q105 0 182 83q69 74 69 163q0 56 -32 95q-42 53 -121 53zM991 1024
h316l-217 -1024h-316l6 27q-106 -41 -214 -41q-194 0 -317 123q-120 121 -120 302q0 62 10 110q43 195 208 348q183 169 422 169q117 0 214 -49zM1257 985h-233l-14 -55q-104 71 -242 71q-248 0 -439 -205q-162 -175 -162 -385q0 -143 84 -247q114 -141 314 -141
q133 0 269 69l-13 -53h236zM898 1446q48 0 77 -35q21 -27 21 -63q0 -55 -46 -100q-47 -46 -104 -46q-43 0 -71 28q-27 27 -27 64q0 61 46 106q46 46 104 46zM788 1317h-2q-1 -11 -1 -18q0 -58 61 -58q84 0 112 90h-2q1 8 1 13q0 63 -61 63q-35 0 -67 -26q-30 -24 -41 -64z
M914 1548q84 0 138 -52q51 -50 51 -128q0 -109 -83 -191q-81 -79 -188 -79q-86 0 -139 52q-52 50 -52 130q0 108 84 189q81 79 189 79zM910 1511q-95 0 -167 -76q-64 -68 -64 -153q0 -54 31 -92q43 -53 123 -53q98 0 169 76q63 66 63 151q0 55 -31 94q-44 53 -124 53z" />
    <glyph glyph-name="ae" unicode="&#xe6;" horiz-adv-x="1896" vert-adv-y="2458" 
d="M728 748q95 0 148 -66q39 -49 39 -118q0 -115 -91 -203q-87 -85 -199 -85q-83 0 -135 51t-52 132q0 116 89 203q87 86 201 86zM724 709q-101 0 -178 -81q-70 -74 -70 -167q0 -55 32 -94q41 -52 118 -52q104 0 182 83q69 74 69 163q0 56 -32 95q-42 53 -121 53zM1237 622
q12 44 74 95q72 59 155 59q147 0 147 -134q0 -7 -1 -22q-4 -4 -11 -4h-358q-7 0 -7 3q0 1 1 3zM1575 655q-1 82 -109 82q-98 0 -164 -82h273zM1863 389h-170l89 -254q-118 -72 -202 -103q-119 -44 -253 -44q-127 0 -221 45l-6 -33h-318l6 27q-106 -41 -212 -41
q-195 0 -319 124q-120 120 -120 301q0 116 54 233q87 187 272 300q153 94 317 94q116 0 213 -49l8 35h314l-7 -27q110 41 211 41q197 0 300 -114q87 -95 87 -257q0 -99 -27 -188q-9 -28 -13 -47q-2 -24 -3 -43zM1243 389q40 -92 157 -92q101 0 293 92h-450zM1671 336
q-164 -76 -271 -76q-95 0 -151 51q-51 46 -51 107q0 8 8 8h619q42 142 42 250q0 181 -127 267q-87 58 -221 58q-132 0 -264 -69l12 53h-233l-16 -55q-103 71 -240 71q-248 0 -439 -205q-162 -174 -162 -385q0 -143 84 -247q113 -141 314 -141q131 0 267 69l-13 -53h238
l10 53q110 -67 254 -67q192 0 405 127z" />
    <glyph glyph-name="ccedilla" unicode="&#xe7;" horiz-adv-x="1126" vert-adv-y="2458" 
d="M430 6q-287 104 -287 406q0 126 53 237q90 188 271 297q154 92 315 92q172 0 297 -111q67 -58 111 -155l-279 -180l-37 49l4 -4q-59 68 -139 68q-107 0 -184 -83q-66 -70 -66 -156q0 -55 32 -94q42 -52 118 -52q111 0 221 133l266 -150q-215 -294 -498 -315l-8 -8
q106 -30 106 -137q0 -110 -92 -183q-87 -69 -205 -69q-119 0 -192 47l37 180h-18zM301 -182q33 -14 53 -18l9 -3q30 -10 54 -10h17q28 0 28 26q0 5 -14 5h-147zM1142 787q-46 96 -135 151q-100 63 -224 63q-247 0 -436 -200q-166 -176 -166 -392q0 -160 101 -268
q77 -81 217 -112l-159 -172h108q55 0 55 -35q0 -72 -69 -72h-17q-51 -1 -114 27l-25 -121q56 -30 158 -30q98 0 174 61q78 62 78 153q0 44 -26 73q-32 34 -86 34q-12 0 -25 -3t-21 -3l80 82q273 19 461 270l-201 113q-118 -123 -230 -123q-85 0 -137 52q-52 51 -52 129
q0 109 87 194q87 86 201 86q94 0 167 -82l15 -17z" />
    <glyph glyph-name="egrave" unicode="&#xe8;" horiz-adv-x="1092" vert-adv-y="2458" 
d="M477 620q13 44 74 94q73 60 155 60q84 0 123 -51q25 -32 25 -79q0 -10 -2 -26q-4 -4 -10 -4h-359q-7 0 -7 3q0 1 1 3zM815 653q0 82 -110 82q-96 0 -162 -82h272zM1096 387h-162l88 -254q-241 -147 -450 -147q-211 0 -332 120q-113 113 -113 292q0 136 56 254
q89 187 263 293q150 91 316 91q195 0 298 -113q87 -96 87 -258q0 -118 -51 -278zM483 387q41 -92 157 -92q100 0 294 92h-451zM911 334q-164 -76 -271 -76q-95 0 -151 51q-51 47 -51 108q0 7 8 7h619q43 137 43 250q0 181 -127 267q-87 58 -219 58q-246 0 -428 -194
q-169 -179 -169 -405q0 -144 79 -241q110 -136 330 -136q190 0 403 127zM705 1538l397 -184l-207 -242l-365 162zM1042 1342l-323 149l-133 -201l299 -133z" />
    <glyph glyph-name="eacute" unicode="&#xe9;" horiz-adv-x="1092" vert-adv-y="2458" 
d="M477 620q13 44 74 94q73 60 155 60q84 0 123 -51q25 -32 25 -79q0 -10 -2 -26q-4 -4 -10 -4h-359q-7 0 -7 3q0 1 1 3zM815 653q0 82 -110 82q-96 0 -162 -82h272zM1096 387h-162l88 -254q-241 -147 -450 -147q-211 0 -332 120q-113 113 -113 292q0 136 56 254
q89 187 263 293q150 91 316 91q195 0 298 -113q87 -96 87 -258q0 -118 -51 -278zM483 387q41 -92 157 -92q100 0 294 92h-451zM911 334q-164 -76 -271 -76q-95 0 -151 51q-51 47 -51 108q0 7 8 7h619q43 137 43 250q0 181 -127 267q-87 58 -219 58q-246 0 -428 -194
q-169 -179 -169 -405q0 -144 79 -241q110 -136 330 -136q190 0 403 127zM547 1362l461 180l65 -276l-420 -158zM981 1491l-383 -149l78 -185l354 133z" />
    <glyph glyph-name="ecircumflex" unicode="&#xea;" horiz-adv-x="1092" vert-adv-y="2458" 
d="M477 620q13 44 74 94q73 60 155 60q84 0 123 -51q25 -32 25 -79q0 -10 -2 -26q-4 -4 -10 -4h-359q-7 0 -7 3q0 1 1 3zM815 653q0 82 -110 82q-96 0 -162 -82h272zM1096 387h-162l88 -254q-241 -147 -450 -147q-211 0 -332 120q-113 113 -113 292q0 136 56 254
q89 187 263 293q150 91 316 91q195 0 298 -113q87 -96 87 -258q0 -118 -51 -278zM483 387q41 -92 157 -92q100 0 294 92h-451zM911 334q-164 -76 -271 -76q-95 0 -151 51q-51 47 -51 108q0 7 8 7h619q43 137 43 250q0 181 -127 267q-87 58 -219 58q-246 0 -428 -194
q-169 -179 -169 -405q0 -144 79 -241q110 -136 330 -136q190 0 403 127zM487 1399l359 129l325 -150l-210 -243l-166 80l-195 -70zM846 1487l-307 -111l80 -184l178 64l153 -74l160 184z" />
    <glyph glyph-name="edieresis" unicode="&#xeb;" horiz-adv-x="1092" vert-adv-y="2458" 
d="M477 620q13 44 74 94q73 60 155 60q84 0 123 -51q25 -32 25 -79q0 -10 -2 -26q-4 -4 -10 -4h-359q-7 0 -7 3q0 1 1 3zM815 653q0 82 -110 82q-96 0 -162 -82h272zM1096 387h-162l88 -254q-241 -147 -450 -147q-211 0 -332 120q-113 113 -113 292q0 136 56 254
q89 187 263 293q150 91 316 91q195 0 298 -113q87 -96 87 -258q0 -118 -51 -278zM483 387q41 -92 157 -92q100 0 294 92h-451zM911 334q-164 -76 -271 -76q-95 0 -151 51q-51 47 -51 108q0 7 8 7h619q43 137 43 250q0 181 -127 267q-87 58 -219 58q-246 0 -428 -194
q-169 -179 -169 -405q0 -144 79 -241q110 -136 330 -136q190 0 403 127zM1039 1497q78 0 117 -54q24 -33 24 -80q0 -77 -61 -136q-60 -59 -138 -59q-63 0 -102 38q-39 39 -39 99q0 77 58 134q60 58 141 58zM1036 1460q-67 0 -115 -52q-41 -45 -41 -105q0 -44 32 -72
q28 -24 70 -24q65 0 115 51q45 46 45 102q0 100 -106 100zM648 1497q64 0 103 -38q38 -37 38 -95q0 -78 -61 -137q-60 -59 -138 -59q-64 0 -103 38t-39 98q0 80 61 138q59 55 139 55zM645 1460q-68 0 -116 -52q-41 -45 -41 -105q0 -44 32 -71q28 -25 71 -25q65 0 114 52
q45 46 45 100q0 39 -22 66q-29 35 -83 35z" />
    <glyph glyph-name="igrave" unicode="&#xec;" horiz-adv-x="430" vert-adv-y="2458" 
d="M49 0l217 1024h309l-217 -1024h-309zM299 985l-201 -946h230l200 946h-229zM377 1538l397 -184l-207 -242l-364 162zM715 1342l-324 149l-133 -201l299 -133z" />
    <glyph glyph-name="iacute" unicode="&#xed;" horiz-adv-x="430" vert-adv-y="2458" 
d="M219 1362l461 180l65 -276l-420 -158zM653 1491l-383 -149l78 -185l354 133zM49 0l217 1024h309l-217 -1024h-309zM299 985l-201 -946h230l200 946h-229z" />
    <glyph glyph-name="icircumflex" unicode="&#xee;" horiz-adv-x="430" vert-adv-y="2458" 
d="M49 0l217 1024h309l-217 -1024h-309zM299 985l-201 -946h230l200 946h-229zM160 1399l358 129l326 -150l-211 -243l-166 80l-195 -70zM518 1487l-307 -111l80 -184l178 64l153 -74l160 184z" />
    <glyph glyph-name="idieresis" unicode="&#xef;" horiz-adv-x="430" vert-adv-y="2458" 
d="M49 0l217 1024h309l-217 -1024h-309zM299 985l-201 -946h230l200 946h-229zM711 1497q78 0 117 -54q24 -33 24 -80q0 -77 -61 -136q-60 -59 -138 -59q-63 0 -102 38q-39 39 -39 99q0 77 58 134q60 58 141 58zM708 1460q-67 0 -115 -52q-41 -45 -41 -105q0 -44 32 -72
q28 -24 70 -24q65 0 115 51q45 46 45 102q0 100 -106 100zM320 1497q64 0 103 -38q38 -37 38 -95q0 -78 -61 -137q-60 -59 -137 -59q-64 0 -103 38t-39 98q0 80 61 138q58 55 138 55zM317 1460q-67 0 -115 -52q-41 -45 -41 -105q0 -44 31 -71q29 -25 71 -25q65 0 114 52
q45 46 45 100q0 39 -22 66q-28 35 -83 35z" />
    <glyph glyph-name="eth" unicode="&#xf0;" horiz-adv-x="1311" vert-adv-y="2458" 
d="M790 760q83 0 136 -51q51 -50 51 -126q0 -120 -88 -207q-84 -81 -200 -81q-101 0 -153 66q-38 46 -38 114q0 114 91 202q87 83 201 83zM785 723q-105 0 -185 -95q-61 -73 -61 -145q0 -60 33 -100q42 -51 119 -51q104 0 177 77q71 75 71 168q0 56 -31 94q-42 52 -123 52z
M1206 1292l-121 -75l178 -420q29 -68 29 -155q0 -130 -62 -257q-95 -195 -281 -307q-154 -92 -318 -92q-198 0 -325 127q-122 123 -122 312q0 110 39 205q106 261 412 382l-93 192l109 70l-31 74l305 196l43 -75l119 69zM1036 1235l121 72l-86 178l-113 -68l-47 74
l-244 -158l35 -73l-110 -70l86 -174l108 63l33 -63v-6q0 -3 -2 -3h-2h-2q-2 0 -22 1q-22 1 -217 -68q-90 -32 -191 -138q-161 -167 -161 -380q0 -148 86 -255q117 -144 323 -144q175 0 335 108q187 126 254 322q36 105 36 190q0 72 -28 137z" />
    <glyph glyph-name="ntilde" unicode="&#xf1;" horiz-adv-x="1092" vert-adv-y="2458" 
d="M59 0l215 1024h313l-2 -10q67 24 150 24q206 0 305 -109q78 -85 78 -228q0 -67 -12 -126l-123 -575h-336l123 586q2 11 2 19q0 41 -25 70q-26 29 -71 29q-55 0 -101 -36q-42 -32 -59 -88l2 2l-123 -582h-336zM307 985l-201 -946h258l115 551q13 61 75 109q57 44 123 44
q59 0 97 -36q37 -36 37 -90q0 -18 -4 -39l-113 -539h258l115 543q12 58 12 117q0 166 -113 243q-89 59 -229 59q-106 0 -203 -51l8 35h-235zM407 1090l76 348l37 16q108 51 189 51q48 0 147 -29q12 -3 19 -5q41 -13 60 -13q85 0 279 107l-59 -297l-37 -29q-96 -74 -202 -74
q-48 0 -180 41q-35 11 -70 11q-128 0 -259 -127zM518 1413l-51 -227q91 72 196 72q44 0 128 -27t127 -27q111 0 202 84l45 207q-142 -76 -228 -76q-29 0 -93 21q-87 28 -136 28q-65 0 -166 -45q-13 -5 -24 -10z" />
    <glyph glyph-name="ograve" unicode="&#xf2;" horiz-adv-x="1192" vert-adv-y="2458" 
d="M734 743q93 0 145 -65q39 -49 39 -116q0 -110 -90 -196q-86 -83 -194 -83q-83 0 -135 52q-52 50 -52 129q0 108 86 193q88 86 201 86zM730 704q-100 0 -178 -83q-65 -70 -65 -156q0 -55 31 -93q42 -52 113 -52q109 0 188 95q60 72 60 140q0 57 -33 98q-42 51 -116 51z
M790 1038q189 0 311 -123q119 -120 119 -302q0 -103 -39 -195q-72 -166 -207 -280q-182 -152 -397 -152q-193 0 -315 122q-119 119 -119 302q0 92 34 188q70 199 257 327q166 113 356 113zM782 1001q-245 0 -435 -200q-166 -175 -166 -389q0 -146 84 -250q113 -139 314 -139
q248 0 436 201q167 178 167 391q0 142 -83 246q-112 140 -317 140zM755 1538l398 -184l-207 -242l-365 162zM1093 1342l-323 149l-133 -201l299 -133z" />
    <glyph glyph-name="oacute" unicode="&#xf3;" horiz-adv-x="1192" vert-adv-y="2458" 
d="M734 743q93 0 145 -65q39 -49 39 -116q0 -110 -90 -196q-86 -83 -194 -83q-83 0 -135 52q-52 50 -52 129q0 108 86 193q88 86 201 86zM730 704q-100 0 -178 -83q-65 -70 -65 -156q0 -55 31 -93q42 -52 113 -52q109 0 188 95q60 72 60 140q0 57 -33 98q-42 51 -116 51z
M790 1038q189 0 311 -123q119 -120 119 -302q0 -103 -39 -195q-72 -166 -207 -280q-182 -152 -397 -152q-193 0 -315 122q-119 119 -119 302q0 92 34 188q70 199 257 327q166 113 356 113zM782 1001q-245 0 -435 -200q-166 -175 -166 -389q0 -146 84 -250q113 -139 314 -139
q248 0 436 201q167 178 167 391q0 142 -83 246q-112 140 -317 140zM598 1362l460 180l66 -276l-420 -158zM1032 1491l-383 -149l78 -185l354 133z" />
    <glyph glyph-name="ocircumflex" unicode="&#xf4;" horiz-adv-x="1192" vert-adv-y="2458" 
d="M734 743q93 0 145 -65q39 -49 39 -116q0 -110 -90 -196q-86 -83 -194 -83q-83 0 -135 52q-52 50 -52 129q0 108 86 193q88 86 201 86zM730 704q-100 0 -178 -83q-65 -70 -65 -156q0 -55 31 -93q42 -52 113 -52q109 0 188 95q60 72 60 140q0 57 -33 98q-42 51 -116 51z
M790 1038q189 0 311 -123q119 -120 119 -302q0 -103 -39 -195q-72 -166 -207 -280q-182 -152 -397 -152q-193 0 -315 122q-119 119 -119 302q0 92 34 188q70 199 257 327q166 113 356 113zM782 1001q-245 0 -435 -200q-166 -175 -166 -389q0 -146 84 -250q113 -139 314 -139
q248 0 436 201q167 178 167 391q0 142 -83 246q-112 140 -317 140zM536 1399l359 129l325 -150l-211 -243l-166 80l-194 -70zM895 1487l-308 -111l80 -184l178 64l154 -74l160 184z" />
    <glyph glyph-name="otilde" unicode="&#xf5;" horiz-adv-x="1192" vert-adv-y="2458" 
d="M734 743q93 0 145 -65q39 -49 39 -116q0 -110 -90 -196q-86 -83 -194 -83q-83 0 -135 52q-52 50 -52 129q0 108 86 193q88 86 201 86zM730 704q-100 0 -178 -83q-65 -70 -65 -156q0 -55 31 -93q42 -52 113 -52q109 0 188 95q60 72 60 140q0 57 -33 98q-42 51 -116 51z
M790 1038q189 0 311 -123q119 -120 119 -302q0 -103 -39 -195q-72 -166 -207 -280q-182 -152 -397 -152q-193 0 -315 122q-119 119 -119 302q0 92 34 188q70 199 257 327q166 113 356 113zM782 1001q-245 0 -435 -200q-166 -175 -166 -389q0 -146 84 -250q113 -139 314 -139
q248 0 436 201q167 178 167 391q0 142 -83 246q-112 140 -317 140zM456 1090l76 348l37 16q108 51 189 51q48 0 147 -29q12 -3 19 -5q42 -13 60 -13q85 0 279 107l-59 -297l-37 -29q-95 -74 -202 -74q-47 0 -118 22q-97 30 -131 30q-129 0 -260 -127zM567 1413l-51 -227
q91 72 196 72q44 0 128 -27q85 -27 128 -27q110 0 201 84l45 207q-141 -76 -228 -76q-29 0 -92 21q-88 28 -137 28q-65 0 -166 -45q-13 -5 -24 -10z" />
    <glyph glyph-name="odieresis" unicode="&#xf6;" horiz-adv-x="1192" vert-adv-y="2458" 
d="M734 743q93 0 145 -65q39 -49 39 -116q0 -110 -90 -196q-86 -83 -194 -83q-83 0 -135 52q-52 50 -52 129q0 108 86 193q88 86 201 86zM730 704q-100 0 -178 -83q-65 -70 -65 -156q0 -55 31 -93q42 -52 113 -52q109 0 188 95q60 72 60 140q0 57 -33 98q-42 51 -116 51z
M790 1038q189 0 311 -123q119 -120 119 -302q0 -103 -39 -195q-72 -166 -207 -280q-182 -152 -397 -152q-193 0 -315 122q-119 119 -119 302q0 92 34 188q70 199 257 327q166 113 356 113zM782 1001q-245 0 -435 -200q-166 -175 -166 -389q0 -146 84 -250q113 -139 314 -139
q248 0 436 201q167 178 167 391q0 142 -83 246q-112 140 -317 140zM1088 1497q77 0 116 -54q24 -33 24 -80q0 -78 -60 -136q-61 -59 -138 -59q-63 0 -102 38q-39 39 -39 99q0 77 58 134q60 58 141 58zM1084 1460q-66 0 -114 -52q-41 -45 -41 -105q0 -45 31 -72
q29 -24 70 -24q65 0 115 51q45 46 45 102q0 100 -106 100zM697 1497q64 0 103 -38q38 -37 38 -95q0 -78 -61 -137q-60 -59 -138 -59q-64 0 -103 38t-39 98q0 80 61 138q58 55 139 55zM694 1460q-68 0 -116 -52q-41 -45 -41 -105q0 -44 32 -71q28 -25 71 -25q65 0 114 52
q45 46 45 100q0 39 -22 66q-29 35 -83 35z" />
    <glyph glyph-name="divide" unicode="&#xf7;" horiz-adv-x="1229" vert-adv-y="2458" 
d="M447 217h-2q22 108 131 160h-422l61 293h443q-84 44 -84 136q0 86 68 152t154 66q79 0 124 -56q33 -41 33 -96q0 -76 -54 -139q-34 -39 -88 -63h433l-62 -293h-444q80 -49 80 -139q0 -84 -70 -151q-67 -64 -150 -64q-68 0 -113 43q-43 43 -43 102q0 19 5 49zM1194 631
h-946l-47 -215h948zM659 357q-72 0 -129 -60q-52 -54 -52 -120q0 -53 38 -86q33 -29 82 -29q76 0 133 60q51 54 51 116q0 45 -26 77q-35 42 -97 42zM794 985q-77 0 -135 -63q-47 -51 -47 -114q0 -44 26 -76q35 -42 95 -42q74 0 131 60q51 54 51 116q0 45 -26 77
q-33 42 -95 42z" />
    <glyph glyph-name="oslash" unicode="&#xf8;" horiz-adv-x="1192" vert-adv-y="2458" 
d="M854 739q92 -61 92 -171q0 -97 -67 -182q-100 -128 -251 -128h-18zM673 299q109 26 174 107q61 77 61 159q0 66 -40 115zM508 293q-86 60 -86 165q0 98 68 183q102 129 249 129h10zM682 725q-153 -44 -204 -182q-17 -46 -17 -89q0 -64 34 -102zM462 -117h-198l78 162
q-199 118 -199 360q0 124 53 241q84 185 265 296q156 96 325 96h9q28 0 42 -2l29 57l25 46h206l-82 -158q205 -135 205 -368q0 -122 -54 -236q-91 -189 -271 -298q-153 -93 -316 -93h-12q-34 0 -49 2zM323 -80h117l55 111q38 -8 83 -8q249 0 437 201q167 178 167 392
q0 233 -216 347l70 139h-121l-55 -107q-42 6 -75 6q-248 0 -437 -200q-167 -176 -167 -392q0 -234 210 -346z" />
    <glyph glyph-name="ugrave" unicode="&#xf9;" horiz-adv-x="1096" vert-adv-y="2458" 
d="M1204 1024l-217 -1024h-318v8q-71 -22 -146 -22q-203 0 -302 108q-78 85 -78 228q0 58 14 127l121 575h338l-127 -586q-1 -5 -1 -13q0 -46 26 -75q26 -30 70 -30q54 0 100 36q49 37 59 86l123 582h338zM954 39l201 946h-256l-119 -551q-13 -62 -67 -105q-59 -48 -129 -48
q-68 0 -106 47q-29 35 -29 86q0 17 3 32l115 539h-256l-117 -543q-13 -61 -13 -122q0 -162 112 -238q88 -59 229 -59q116 0 199 51l-7 -35h240zM706 1538l398 -184l-207 -242l-365 162zM1044 1342l-323 149l-134 -201l299 -133z" />
    <glyph glyph-name="uacute" unicode="&#xfa;" horiz-adv-x="1096" vert-adv-y="2458" 
d="M1204 1024l-217 -1024h-318v8q-71 -22 -146 -22q-203 0 -302 108q-78 85 -78 228q0 58 14 127l121 575h338l-127 -586q-1 -5 -1 -13q0 -46 26 -75q26 -30 70 -30q54 0 100 36q49 37 59 86l123 582h338zM954 39l201 946h-256l-119 -551q-13 -62 -67 -105q-59 -48 -129 -48
q-68 0 -106 47q-29 35 -29 86q0 17 3 32l115 539h-256l-117 -543q-13 -61 -13 -122q0 -162 112 -238q88 -59 229 -59q116 0 199 51l-7 -35h240zM549 1362l460 180l66 -276l-420 -158zM983 1491l-383 -149l78 -185l354 133z" />
    <glyph glyph-name="ucircumflex" unicode="&#xfb;" horiz-adv-x="1096" vert-adv-y="2458" 
d="M1204 1024l-217 -1024h-318v8q-71 -22 -146 -22q-203 0 -302 108q-78 85 -78 228q0 58 14 127l121 575h338l-127 -586q-1 -5 -1 -13q0 -46 26 -75q26 -30 70 -30q54 0 100 36q49 37 59 86l123 582h338zM954 39l201 946h-256l-119 -551q-13 -62 -67 -105q-59 -48 -129 -48
q-68 0 -106 47q-29 35 -29 86q0 17 3 32l115 539h-256l-117 -543q-13 -61 -13 -122q0 -162 112 -238q88 -59 229 -59q116 0 199 51l-7 -35h240zM489 1399l359 129l325 -150l-211 -243l-166 80l-194 -70zM848 1487l-308 -111l80 -184l178 64l154 -74l160 184z" />
    <glyph glyph-name="udieresis" unicode="&#xfc;" horiz-adv-x="1096" vert-adv-y="2458" 
d="M1204 1024l-217 -1024h-318v8q-71 -22 -146 -22q-203 0 -302 108q-78 85 -78 228q0 58 14 127l121 575h338l-127 -586q-1 -5 -1 -13q0 -46 26 -75q26 -30 70 -30q54 0 100 36q49 37 59 86l123 582h338zM954 39l201 946h-256l-119 -551q-13 -62 -67 -105q-59 -48 -129 -48
q-68 0 -106 47q-29 35 -29 86q0 17 3 32l115 539h-256l-117 -543q-13 -61 -13 -122q0 -162 112 -238q88 -59 229 -59q116 0 199 51l-7 -35h240zM1041 1497q77 0 116 -54q24 -33 24 -80q0 -77 -60 -136q-61 -59 -138 -59q-63 0 -102 38q-39 39 -39 99q0 77 58 134
q59 58 141 58zM1037 1460q-66 0 -114 -52q-41 -45 -41 -105q0 -44 31 -72q29 -24 70 -24q66 0 115 51q45 47 45 102q0 100 -106 100zM650 1497q64 0 103 -38q38 -37 38 -95q0 -78 -61 -137q-60 -59 -138 -59q-64 0 -103 38t-39 98q0 80 61 138q58 55 139 55zM647 1460
q-68 0 -116 -52q-41 -45 -41 -105q0 -44 31 -71q29 -25 72 -25q65 0 114 52q45 46 45 100q0 39 -22 66q-29 35 -83 35z" />
    <glyph glyph-name="yacute" unicode="&#xfd;" horiz-adv-x="977" vert-adv-y="2458" 
d="M1170 1024l-785 -1417h-362l299 528v6l2 -6l-119 889h357l32 -422l215 422h361zM248 985l114 -841l1 -8q0 -3 -5 -11l-269 -479h274l741 1339h-272l-261 -517q-1 -2 -2 -2q-2 0 -3 3l-39 516h-279zM490 1362l461 180l65 -276l-420 -158zM924 1491l-383 -149l78 -185
l354 133z" />
    <glyph glyph-name="thorn" unicode="&#xfe;" horiz-adv-x="1231" vert-adv-y="2458" 
d="M753 748q82 0 135 -52q53 -51 53 -132q0 -115 -91 -203q-87 -85 -199 -85q-96 0 -149 65q-39 49 -39 118q0 117 91 205q87 84 199 84zM749 709q-101 0 -176 -81q-70 -75 -70 -170q0 -67 47 -108q40 -35 102 -35q104 0 180 83q69 74 69 164q0 56 -31 95q-42 52 -121 52z
M-23 -393l379 1796h338l-84 -397q98 32 192 32q193 0 317 -123q122 -122 122 -303q0 -61 -10 -109q-42 -192 -208 -346q-185 -171 -427 -171q-108 0 -191 39l-41 -192l-49 -226h-338zM389 1366l-365 -1720h258l94 438q96 -61 220 -61q252 0 443 205q164 175 164 384
q0 142 -85 247q-114 142 -315 142q-122 0 -244 -59l88 424h-258z" />
    <glyph glyph-name="ydieresis" unicode="&#xff;" horiz-adv-x="977" vert-adv-y="2458" 
d="M591 1497q64 0 103 -38q38 -37 38 -95q0 -78 -61 -137q-60 -59 -137 -59q-64 0 -103 38t-39 98q0 80 61 138q58 55 138 55zM588 1460q-67 0 -115 -52q-41 -45 -41 -105q0 -44 31 -71q29 -25 71 -25q65 0 114 52q45 46 45 100q0 39 -22 66q-28 35 -83 35zM982 1497
q78 0 117 -54q24 -33 24 -80q0 -77 -61 -136q-60 -59 -138 -59q-63 0 -102 38q-39 39 -39 99q0 77 58 134q60 58 141 58zM979 1460q-67 0 -115 -52q-41 -45 -41 -105q0 -44 32 -72q28 -24 70 -24q66 0 115 51q45 47 45 102q0 100 -106 100zM1170 1024l-785 -1417h-362
l299 528v6l2 -6l-119 889h357l32 -422l215 422h361zM248 985l114 -841l1 -8q0 -3 -5 -11l-269 -479h274l741 1339h-272l-261 -517q-1 -2 -2 -2q-2 0 -3 3l-39 516h-279z" />
    <glyph glyph-name="Dcroat" unicode="&#x110;" horiz-adv-x="1708" vert-adv-y="2458" 
d="M975 840h-201l78 362q3 12 17 12h198q134 0 225 -61q133 -90 133 -275q0 -238 -173 -406q-162 -157 -388 -157h-188q-11 0 -11 8q0 1 1 4l63 291h199zM823 879h199l-61 -300h-199l-51 -225h153q209 0 360 145q160 154 160 380q0 132 -80 211q-86 85 -237 85h-180zM279 0
l125 579h-199l63 300h199l137 651h510q277 0 454 -176q175 -175 175 -442q0 -170 -79 -340q-126 -272 -394 -435q-224 -137 -465 -137h-526zM451 618l-123 -579h477q230 0 446 132q236 144 360 379q95 180 95 364q0 271 -191 436q-162 141 -401 141h-477l-139 -651h-197
l-47 -222h197z" />
    <glyph glyph-name="dotlessi" unicode="&#x131;" horiz-adv-x="430" vert-adv-y="2458" 
d="M49 0l217 1024h309l-217 -1024h-309zM299 985l-201 -946h230l200 946h-229z" />
    <glyph glyph-name="Lslash" unicode="&#x141;" horiz-adv-x="1225" vert-adv-y="2458" 
d="M696 354h486l-74 -354h-844l86 411l-94 -78l-172 220l358 291l146 686h358l-71 -328l145 121l172 -217l-408 -336l-50 -241zM1135 315h-488l101 475l389 322l-123 158l-201 -166l84 387h-276l-142 -664l-342 -280l125 -158l152 125l-103 -475h764z" />
    <glyph glyph-name="lslash" unicode="&#x142;" horiz-adv-x="913" vert-adv-y="2458" 
d="M442 821l121 582h338l-53 -246l81 66l168 -211l-338 -283l-153 -729h-338l82 395l-80 -67l-170 213zM596 1366l-119 -565l-324 -266l121 -154l137 113l-96 -455h258l150 713l321 264l-121 153l-135 -110l66 307h-258z" />
    <glyph glyph-name="OE" unicode="&#x152;" horiz-adv-x="2314" vert-adv-y="2458" 
d="M1131 1231q172 0 279 -116q95 -102 95 -252q0 -234 -197 -409q-171 -153 -377 -153q-175 0 -282 117q-94 102 -94 253q0 220 176 388q179 172 400 172zM1124 1192q-197 0 -365 -162q-165 -159 -165 -361q0 -153 107 -247q93 -82 230 -82q222 0 389 179q146 155 146 343
q0 155 -106 248q-93 82 -236 82zM1386 153q-259 -169 -514 -169q-297 0 -481 199q-160 173 -160 426q0 168 75 336q165 371 544 530q169 71 340 71q254 0 454 -172l33 156h881l-74 -355h-522l-52 -229h523l-74 -354h-522l-52 -238h523l-74 -354h-879zM1669 1288
q-102 115 -208 163q-125 56 -272 56q-164 0 -327 -68q-365 -154 -522 -511q-69 -158 -69 -318q0 -275 191 -442q165 -145 410 -145q286 0 573 218l-43 -202h799l58 276h-510q-9 0 -9 9v3l62 292q2 10 14 10h508l61 278h-509q-11 0 -11 8v2l62 285q3 12 14 12h510l57 277
h-796z" />
    <glyph glyph-name="oe" unicode="&#x153;" horiz-adv-x="1892" vert-adv-y="2458" 
d="M734 743q93 0 145 -65q39 -49 39 -116q0 -110 -90 -196q-86 -83 -194 -83q-83 0 -135 52q-52 50 -52 129q0 108 86 193q88 86 201 86zM730 704q-100 0 -178 -83q-65 -70 -65 -156q0 -55 31 -93q42 -52 113 -52q109 0 188 95q60 72 60 140q0 57 -33 98q-42 51 -116 51z
M1271 620q13 44 74 94q73 60 155 60q84 0 123 -51q25 -32 25 -79q0 -10 -2 -26q-4 -4 -10 -4h-358q-7 0 -7 3v3zM1609 653q-12 82 -109 82t-163 -82h272zM1898 387h-170l88 -254q-241 -147 -451 -147q-244 0 -372 168q-196 -168 -415 -168q-194 0 -316 122
q-119 119 -119 302q0 119 53 236q84 184 265 296q156 96 325 96q221 0 354 -168q196 166 416 166q195 0 298 -113q87 -96 87 -258q0 -94 -35 -242zM1278 387q40 -92 156 -92q100 0 294 92h-450zM1706 334q-165 -76 -271 -76q-96 0 -151 51q-51 47 -51 108q0 7 8 7h618
q43 137 43 250q0 180 -127 267q-86 58 -220 58q-231 0 -423 -188q-115 190 -347 190q-249 0 -438 -200q-166 -176 -166 -389q0 -146 84 -250q113 -139 314 -139q227 0 424 188q110 -188 365 -188q190 0 403 127z" />
    <glyph glyph-name="Scaron" unicode="&#x160;" horiz-adv-x="1104" vert-adv-y="2458" 
d="M143 354l305 121q54 -137 141 -137q59 0 103 49q36 41 36 101q0 47 -38 80q-25 21 -101 53q-292 121 -292 363q0 226 167 392t393 166q155 0 255 -91q82 -74 102 -212l-342 -145q-22 92 -85 92q-53 0 -95 -53q-30 -37 -30 -71q0 -64 116 -116q99 -44 154 -81
q163 -107 163 -293q0 -135 -53 -248q-79 -167 -234 -262q-128 -78 -264 -78h-18q-171 0 -272 104q-91 98 -111 266zM428 424l-242 -94q16 -137 105 -222q94 -86 235 -85h18q204 0 361 169q152 162 152 381q0 170 -162 269q-62 38 -154 78q-119 51 -119 142q0 46 38 94
q55 69 129 69q81 0 108 -82l274 121q-16 99 -81 157q-91 82 -235 82q-221 0 -371 -159q-148 -157 -148 -371q0 -140 117 -232q56 -45 187 -100q129 -55 129 -143q0 -89 -56 -145q-55 -54 -127 -54q-108 0 -158 125zM872 1548l-323 138l210 245l162 -67l203 82l115 -256z
M612 1702l260 -111l315 121l-81 185l-185 -74l-151 61z" />
    <glyph glyph-name="scaron" unicode="&#x161;" horiz-adv-x="735" vert-adv-y="2458" 
d="M68 246l272 145q1 -21 10 -46q16 -38 43 -38q30 0 30 29q0 21 -54 53q-2 1 -6 2q-21 8 -74 51q-108 85 -108 208q0 58 26 134q41 121 143 190q94 64 215 64q208 0 265 -268l-270 -117q-5 66 -33 66q-27 0 -27 -27q0 -18 64 -57l63 -39q40 -24 76 -87q35 -58 35 -131
q0 -76 -25 -135q-42 -99 -122 -167q-107 -90 -236 -90q-211 0 -287 260zM314 336l-201 -109q61 -204 244 -204q140 0 246 114q96 104 96 243q0 77 -43 135q-32 41 -110 89q-84 51 -84 89q0 24 22 44q20 19 45 19q51 0 59 -58l197 93q-45 210 -219 210q-148 0 -246 -104
q-101 -107 -101 -248q0 -105 77 -169q39 -32 94 -61q71 -38 71 -81q0 -29 -29 -53q-21 -17 -42 -17q-43 0 -76 68zM603 1139l-324 137l211 246l162 -68l202 82l115 -256zM342 1292l261 -110l315 121l-82 184l-184 -74l-152 62z" />
    <glyph glyph-name="Ydieresis" unicode="&#x178;" horiz-adv-x="1217" vert-adv-y="2458" 
d="M315 1530h389l98 -528l326 526h395l-637 -981l-112 -547h-359l117 559zM1186 1907q78 0 117 -54q24 -34 24 -80q0 -78 -60 -137q-61 -59 -139 -59q-63 0 -102 38q-39 39 -39 99q0 78 58 134q59 59 141 59zM1183 1870q-67 0 -114 -52q-42 -45 -42 -106q0 -44 32 -72
q28 -24 70 -24q65 0 115 51q45 47 45 102q0 101 -106 101zM795 1907q64 0 103 -39q38 -36 38 -94q0 -78 -61 -138q-61 -59 -138 -59q-64 0 -103 39q-39 38 -39 98q0 80 61 138q58 55 139 55zM792 1870q-68 0 -116 -52q-41 -45 -41 -106q0 -44 32 -71q28 -25 71 -25
q64 0 114 52q45 47 45 101q0 39 -22 66q-29 35 -83 35zM850 561l602 928h-303l-361 -581q-3 -4 -5 -4q-4 0 -5 6l-109 581h-305l209 -930l-111 -522h279z" />
    <glyph glyph-name="Zcaron" unicode="&#x17d;" horiz-adv-x="1200" vert-adv-y="2458" 
d="M920 1548l-324 138l211 245l162 -67l203 82l114 -256zM660 1702l260 -111l315 121l-82 185l-184 -74l-152 61zM137 268l752 907h-559l74 355h997l-64 -271l-753 -905h567l-74 -354h-997zM129 39h914l59 276h-566q-12 0 -12 10q0 3 779 948q1 3 3 10l46 208h-916l-57 -277
h570q12 0 12 -10q0 -3 -4 -7l-778 -939q-5 -6 -6 -14z" />
    <glyph glyph-name="zcaron" unicode="&#x17e;" horiz-adv-x="874" vert-adv-y="2458" 
d="M672 1139l-324 137l211 246l162 -68l203 82l114 -256zM412 1292l260 -110l315 121l-82 184l-184 -74l-152 62zM100 260l398 434h-306l70 330h741l-51 -240l-405 -452h309l-68 -332h-741zM240 731h321q11 0 11 -9q0 -3 -4 -8l-433 -472l-41 -203h662l53 256h-317
q-11 0 -11 9q0 4 2 6l433 486l40 189h-661z" />
    <glyph glyph-name="florin" unicode="&#x192;" horiz-adv-x="973" vert-adv-y="2458" 
d="M729 717l-117 -549l-25 -119q-31 -150 -130 -230q-91 -73 -222 -73h-301l61 299h181q73 0 86 59l129 613h-205l65 307h207l15 80q30 159 140 238q88 65 214 65h305l-63 -299h-185q-73 -2 -86 -67q0 -1 -1 -3t-3 -14h309l-65 -307h-309zM-19 -217h254q118 0 198 66
q87 72 115 208l25 119l125 580h307l51 229h-309l14 72q10 48 37 68q25 19 86 20h152l47 225h-256q-119 0 -200 -66q-88 -73 -115 -208l-23 -111h-205l-49 -229h205l-141 -660q-11 -48 -37 -68q-25 -19 -86 -20h-148z" />
    <glyph glyph-name="circumflex" unicode="&#x2c6;" horiz-adv-x="815" vert-adv-y="2458" 
d="M350 1399l358 129l326 -150l-211 -243l-166 80l-194 -70zM708 1487l-307 -111l80 -184l178 64l154 -74l160 184z" />
    <glyph glyph-name="caron" unicode="&#x2c7;" horiz-adv-x="813" vert-adv-y="2458" 
d="M643 1139l-324 137l211 246l162 -68l202 82l115 -256zM382 1292l261 -110l315 121l-82 184l-184 -74l-152 62z" />
    <glyph glyph-name="firsttonechinese" unicode="&#x2c9;" horiz-adv-x="877" vert-adv-y="2458" 
d="M395 1460h676l-61 -293h-678zM1024 1421h-596l-49 -215h598z" />
    <glyph glyph-name="breve" unicode="&#x2d8;" horiz-adv-x="860" vert-adv-y="2458" 
d="M311 1356l252 168q44 -56 62 -73q37 -32 78 -32q72 0 155 78q19 18 33 29l188 -193q-155 -206 -411 -206q-278 0 -357 229zM555 1475l-199 -133q28 -62 82 -103q94 -73 234 -73q227 0 356 167l-142 144q-6 -5 -18 -17q-86 -80 -160 -80q-45 0 -83 25q-22 14 -66 66z" />
    <glyph glyph-name="dotaccent" unicode="&#x2d9;" horiz-adv-x="506" vert-adv-y="2458" 
d="M555 1489q64 0 103 -38q37 -37 37 -105q0 -76 -60 -134q-57 -55 -138 -55q-53 0 -89 25q-52 36 -52 105q0 85 66 148q56 54 133 54zM552 1450q-65 0 -113 -51q-44 -47 -44 -106q0 -99 103 -99q70 0 118 52q41 45 41 106q0 46 -31 73q-29 25 -74 25z" />
    <glyph glyph-name="ring" unicode="&#x2da;" horiz-adv-x="631" vert-adv-y="2458" 
d="M612 1446q48 0 77 -35q21 -27 21 -63q0 -56 -46 -100q-48 -46 -103 -46q-43 0 -71 28q-27 27 -27 64q0 60 45 106q46 46 104 46zM503 1317h-2q-1 -10 -1 -17q0 -59 61 -59q37 0 69 26q31 24 43 64h-2v10q0 66 -61 66q-35 0 -67 -26q-29 -24 -40 -64zM629 1548
q84 0 138 -52q51 -50 51 -128q0 -109 -83 -191q-81 -79 -187 -79q-87 0 -140 52q-52 50 -52 130q0 108 84 189q81 79 189 79zM625 1511q-96 0 -167 -76q-64 -69 -64 -153q0 -54 31 -92q43 -53 123 -53q97 0 169 76q63 66 63 151q0 55 -31 94q-43 53 -124 53z" />
    <glyph glyph-name="ogonek" unicode="&#x2db;" horiz-adv-x="612" vert-adv-y="2458" 
d="M314 76h155l15 -64q-79 -39 -142 -108q-59 -63 -59 -94q0 -21 17 -21q19 0 63 15l102 30l-35 -174q-126 -74 -240 -74q-105 0 -152 65q-27 38 -27 91q0 118 126 226q80 69 177 108zM451 39h-131q-111 -47 -188 -127q-81 -83 -81 -167q0 -120 141 -120q105 0 204 58
l22 100l-45 -16q-40 -15 -75 -15q-56 0 -56 52q0 64 85 146q55 53 124 89z" />
    <glyph glyph-name="tilde" unicode="&#x2dc;" horiz-adv-x="909" vert-adv-y="2458" 
d="M315 1090l76 348l37 16q108 51 188 51q49 0 148 -29q12 -3 19 -5q41 -13 59 -13q86 0 280 107l-59 -297l-37 -29q-96 -74 -202 -74q-48 0 -118 22q-97 30 -132 30q-128 0 -259 -127zM426 1413l-52 -227q92 72 197 72q44 0 128 -27t127 -27q111 0 202 84l45 207
q-142 -76 -228 -76q-29 0 -93 21q-87 28 -136 28q-65 0 -166 -45q-13 -5 -24 -10z" />
    <glyph glyph-name="hungarumlaut" unicode="&#x2dd;" horiz-adv-x="1227" vert-adv-y="2458" 
d="M365 1393l463 180l41 -178l454 178l66 -279l-422 -155l-84 200l10 -45l-422 -155zM801 1522l-385 -152l78 -182l356 131zM1297 1522l-385 -152l78 -182l354 131z" />
    <glyph glyph-name="anoteleia" unicode="&#x387;" horiz-adv-x="465" vert-adv-y="2458" 
d="M406 905q72 0 107 -64q17 -32 17 -69q0 -64 -53 -115q-52 -51 -118 -51q-59 0 -96 36q-36 34 -36 87t40 103q57 73 139 73zM403 866q-60 0 -105 -56q-33 -39 -33 -77q0 -88 95 -88q56 0 97 44q36 37 36 85q0 28 -15 52q-24 40 -75 40z" />
    <glyph glyph-name="uni2011" unicode="&#x2011;" horiz-adv-x="879" vert-adv-y="2458" 
d="M233 729h680l-61 -293h-682zM866 690h-600l-49 -217h602z" />
    <glyph glyph-name="figuredash" unicode="&#x2012;" horiz-adv-x="1257" vert-adv-y="2458" 
d="M239 729h1031l-62 -293h-1030zM1222 690h-950l-47 -217h950z" />
    <glyph glyph-name="endash" unicode="&#x2013;" horiz-adv-x="1257" vert-adv-y="2458" 
d="M239 729h1031l-62 -293h-1030zM1222 690h-950l-47 -217h950z" />
    <glyph glyph-name="emdash" unicode="&#x2014;" horiz-adv-x="1618" vert-adv-y="2458" 
d="M247 729h1362l-61 -293h-1362zM1562 690h-1282l-47 -217h1282z" />
    <glyph glyph-name="afii00208" unicode="&#x2015;" horiz-adv-x="1618" vert-adv-y="2458" 
d="M247 729h1362l-61 -293h-1362zM1562 690h-1282l-47 -217h1282z" />
    <glyph glyph-name="quoteleft" unicode="&#x2018;" horiz-adv-x="461" vert-adv-y="2458" 
d="M356 1497h305l-51 -418l-223 -26zM616 1460h-219l27 -366l153 20z" />
    <glyph glyph-name="quoteright" unicode="&#x2019;" horiz-adv-x="461" vert-adv-y="2458" 
d="M401 1497h309l-219 -444l-219 28zM651 1460h-221l-109 -346l148 -20z" />
    <glyph glyph-name="quotesinglbase" unicode="&#x201a;" horiz-adv-x="461" vert-adv-y="2458" 
d="M135 297h309l-219 -445l-219 29zM385 260h-221l-109 -348l148 -19z" />
    <glyph glyph-name="quotedblleft" unicode="&#x201c;" horiz-adv-x="791" vert-adv-y="2458" 
d="M362 1497h602l-49 -418l-225 -26l-29 421l-45 -395l-223 -26zM622 1460h-219l27 -366l153 20zM919 1460h-219l27 -366l153 20z" />
    <glyph glyph-name="quotedblright" unicode="&#x201d;" horiz-adv-x="791" vert-adv-y="2458" 
d="M408 1497h606l-219 -444l-217 28l111 358l-191 -386l-219 28zM955 1460h-221l-107 -346l146 -20zM656 1460h-219l-109 -346l148 -20z" />
    <glyph glyph-name="quotedblbase" unicode="&#x201e;" horiz-adv-x="791" vert-adv-y="2458" 
d="M141 297h606l-219 -445l-217 29l111 358l-191 -387l-219 29zM688 260h-221l-107 -348l146 -19zM389 260h-219l-109 -348l148 -19z" />
    <glyph glyph-name="dagger" unicode="&#x2020;" horiz-adv-x="1376" vert-adv-y="2458" 
d="M422 -354l240 1128h-422l63 303h422l36 165l54 255h330l-90 -420h420l-66 -303h-417l-240 -1128h-330zM709 811l-240 -1128h250l240 1128h420l49 227h-420l90 420h-252l-88 -420h-422l-49 -227h422z" />
    <glyph glyph-name="daggerdbl" unicode="&#x2021;" horiz-adv-x="1380" vert-adv-y="2458" 
d="M422 -348l162 756h-422l66 303h419l15 63h-422l65 303h420l41 190l49 230h330l-92 -420h422l-64 -303h-420l-14 -63h420l-64 -303h-419l-67 -311l-95 -445h-330zM631 447l-162 -758h250l162 758h420l49 227h-420l29 137h420l49 227h-420l90 422h-250l-90 -422h-422
l-49 -227h422l-29 -137h-422l-49 -227h422z" />
    <glyph glyph-name="bullet" unicode="&#x2022;" horiz-adv-x="717" vert-adv-y="2458" 
d="M520 872q110 0 174 -80q46 -57 46 -136q0 -122 -99 -218q-98 -96 -221 -96q-97 0 -160 62q-63 61 -63 153q0 123 98 218q100 97 225 97zM515 833q-115 0 -204 -95q-76 -82 -76 -179q0 -66 39 -114q53 -66 146 -66q115 0 203 93q77 82 77 182q0 65 -39 114q-51 65 -146 65
z" />
    <glyph glyph-name="ellipsis" unicode="&#x2026;" horiz-adv-x="1501" vert-adv-y="2458" 
d="M296 291q70 0 105 -60q19 -33 19 -75q0 -64 -55 -116q-52 -48 -117 -48q-62 0 -99 37q-34 33 -34 83q0 54 40 105q58 74 141 74zM294 252q-58 0 -103 -50q-36 -41 -36 -90q0 -35 26 -58t68 -23q55 0 96 44q36 38 36 87q0 28 -15 51q-23 39 -72 39zM774 291q57 0 92 -43
q30 -36 30 -88q0 -68 -53 -119q-51 -49 -118 -49q-62 0 -99 36q-34 33 -34 83q0 70 56 125q55 55 126 55zM770 252q-64 0 -111 -60q-29 -37 -29 -76q0 -85 95 -85q54 0 95 42q38 40 38 85q0 94 -88 94zM1249 291q70 0 105 -60q19 -33 19 -75q0 -64 -56 -116
q-51 -48 -117 -48q-62 0 -99 37q-34 33 -34 83q0 54 40 105q58 74 142 74zM1247 252q-59 0 -104 -50q-36 -40 -36 -90q0 -35 26 -58t68 -23q56 0 97 44q36 37 36 87q0 28 -15 51q-24 39 -72 39z" />
    <glyph glyph-name="perthousand" unicode="&#x2030;" horiz-adv-x="2660" vert-adv-y="2458" 
d="M1453 532q62 0 98 -43q27 -33 27 -81q0 -56 -43 -109q-61 -74 -147 -74q-56 0 -91 35q-34 34 -34 81q0 77 57 134q58 57 133 57zM1450 495q-60 0 -106 -50q-42 -44 -42 -98q0 -83 87 -83q61 0 108 50q41 44 41 96q0 85 -88 85zM2185 532q62 0 97 -43q26 -32 26 -77
q0 -72 -59 -130q-58 -57 -131 -57q-55 0 -90 34q-35 35 -35 88q0 72 59 129q58 56 133 56zM2182 495q-63 0 -110 -52q-39 -44 -39 -99q0 -37 27 -59q24 -21 58 -21q61 0 107 48q44 45 44 94q0 89 -87 89zM1765 270q-58 -106 -141 -170q-128 -100 -276 -100q-140 0 -228 88
q-86 86 -86 219q0 70 23 135q53 145 185 235q119 81 251 81q130 0 216 -76q77 -68 97 -193q57 106 140 170q127 99 276 99q141 0 229 -88q86 -86 86 -220q0 -37 -10 -79h2q-44 -166 -167 -266q-131 -105 -284 -105q-132 0 -218 78q-76 67 -95 192zM1490 721
q-174 0 -306 -143q-112 -121 -112 -269q0 -101 59 -173q79 -97 219 -97q175 0 306 142q113 121 113 272q0 98 -58 171q-78 97 -221 97zM2219 721q-171 0 -302 -139q-115 -123 -115 -277q0 -98 57 -169q78 -97 219 -97q174 0 305 139q116 123 116 271q0 102 -59 175
q-78 97 -221 97zM763 1272q62 0 98 -43q27 -33 27 -81q0 -69 -62 -128q-58 -55 -130 -55q-55 0 -90 34q-33 33 -33 83q0 76 57 133q58 57 133 57zM760 1235q-60 0 -107 -50q-41 -44 -41 -96q0 -85 85 -85q62 0 110 51q41 44 41 95q0 85 -88 85zM352 1127h-2q46 166 170 265
q130 105 283 105q142 0 230 -88q85 -85 85 -219q0 -39 -10 -78h2q-46 -167 -170 -267q-131 -106 -283 -106q-140 0 -228 88q-85 86 -85 218q0 37 8 82zM799 1460q-174 0 -305 -143q-113 -122 -113 -273q0 -98 57 -169q78 -97 219 -97q173 0 305 139q117 123 117 273
q0 100 -58 172q-78 98 -222 98zM627 -33l-158 111l1040 1440l170 -97zM522 86l94 -72q382 612 1008 1397l-102 58z" />
    <glyph glyph-name="guilsinglleft" unicode="&#x2039;" horiz-adv-x="655" vert-adv-y="2458" 
d="M172 561l387 451l191 -191l-240 -274l127 -279l-275 -170zM561 958l-346 -405l164 -399l211 131l-123 268l231 266z" />
    <glyph glyph-name="guilsinglright" unicode="&#x203a;" horiz-adv-x="655" vert-adv-y="2458" 
d="M487 1014l201 -467l-375 -447l-211 181l246 278l-121 272zM645 553l-172 405l-199 -139l119 -266l-238 -268l154 -131z" />
    <glyph glyph-name="fraction" unicode="&#x2044;" horiz-adv-x="1110" vert-adv-y="2458" 
d="M189 -63l-154 94l1139 1511l155 -96zM90 39l90 -51l1094 1446l-90 57z" />
    <glyph glyph-name="Euro" unicode="&#x20ac;" horiz-adv-x="1233" vert-adv-y="2458" 
d="M973 428h-24l204 -235q-231 -207 -472 -207q-189 0 -305 120q-111 113 -116 328h-106l61 297h103q1 10 4 25h-100l61 284h107q67 161 175 267q188 184 417 184q154 0 286 -98q69 -51 113 -132l-297 -205q-82 109 -148 109q-107 0 -190 -121h356l-61 -288h-373
q-1 -3 -3 -20q0 -3 -1 -7h373zM942 381q-102 -86 -196 -86q-87 0 -141 66q-44 54 -29 106h366l48 223h-375l22 103h371l45 214h-371l4 6l13 25q38 77 109 124q59 40 128 40q85 0 158 -94l238 166q-38 69 -110 113q-107 65 -237 65q-248 0 -433 -213q-80 -92 -127 -212
q-1 -4 -5 -13q-3 -8 -4 -11h-102l-45 -210h100l-20 -99h-101l-47 -221h103q-2 -5 -3 -18v-7q0 -149 46 -235q99 -190 337 -190q217 0 416 172zM613 428q10 -39 39 -63q40 -33 92 -33q79 0 194 96h-325z" />
    <glyph glyph-name="trademark" unicode="&#x2122;" horiz-adv-x="1774" vert-adv-y="2458" 
d="M1043 1499h248l73 -529l299 529h291l-196 -930h-242l86 403l-231 -403h-177l-51 405l-86 -403h-248l146 692h-154l-147 -696h-244l147 696h-190l49 238h627v-2zM1039 1462l-183 -854h168l124 564q1 4 4 4t4 -4l71 -566h123l329 574q2 2 4 2q4 0 3 -3v-2l-123 -571h162
l182 856h-223l-331 -588q-3 -5 -7 -5q-6 0 -7 8l-83 585h-217zM994 1464h-545l-35 -164h172q17 0 17 -16v-5l-146 -675h164l144 678q3 18 22 18h174z" />
    <glyph glyph-name="minus" unicode="&#x2212;" horiz-adv-x="1167" vert-adv-y="2458" 
d="M227 670h947l-62 -293h-946zM1127 631h-869l-45 -215h866z" />
    <glyph glyph-name="dotmath" unicode="&#x22c5;" horiz-adv-x="465" vert-adv-y="2458" 
d="M406 905q72 0 107 -64q17 -32 17 -69q0 -64 -53 -115q-52 -51 -118 -51q-59 0 -96 36q-36 34 -36 87t40 103q57 73 139 73zM403 866q-60 0 -105 -56q-33 -39 -33 -77q0 -88 95 -88q56 0 97 44q36 37 36 85q0 28 -15 52q-24 40 -75 40z" />
    <glyph glyph-name="glyph241" vert-adv-y="2458" 
 />
    <glyph glyph-name="glyph242" vert-adv-y="2458" 
 />
    <glyph glyph-name="glyph243" vert-adv-y="2458" 
 />
    <glyph glyph-name="glyph244" vert-adv-y="2458" 
 />
    <glyph glyph-name="glyph245" vert-adv-y="2458" 
 />
    <glyph glyph-name="glyph246" vert-adv-y="2458" 
 />
    <glyph glyph-name="glyph247" vert-adv-y="2458" 
 />
    <glyph glyph-name="glyph248" vert-adv-y="2458" 
 />
    <glyph glyph-name="glyph249" vert-adv-y="2458" 
 />
    <glyph glyph-name="glyph250" vert-adv-y="2458" 
 />
    <glyph glyph-name="glyph251" vert-adv-y="2458" 
 />
    <glyph glyph-name="glyph252" vert-adv-y="2458" 
 />
    <glyph glyph-name="glyph253" vert-adv-y="2458" 
 />
    <glyph glyph-name="glyph254" vert-adv-y="2458" 
 />
    <glyph glyph-name="glyph255" vert-adv-y="2458" 
 />
    <glyph glyph-name="glyph256" vert-adv-y="2458" 
 />
    <glyph glyph-name="glyph257" vert-adv-y="2458" 
 />
    <glyph glyph-name="glyph258" vert-adv-y="2458" 
 />
    <glyph glyph-name="glyph259" vert-adv-y="2458" 
 />
    <glyph glyph-name="glyph260" vert-adv-y="2458" 
 />
    <glyph glyph-name="glyph261" vert-adv-y="2458" 
 />
    <glyph glyph-name="glyph262" vert-adv-y="2458" 
 />
    <glyph glyph-name="glyph263" vert-adv-y="2458" 
 />
    <glyph glyph-name="glyph264" vert-adv-y="2458" 
 />
    <glyph glyph-name="glyph265" vert-adv-y="2458" 
 />
    <glyph glyph-name="glyph266" vert-adv-y="2458" 
 />
    <glyph glyph-name="glyph267" vert-adv-y="2458" 
 />
    <glyph glyph-name="glyph268" vert-adv-y="2458" 
 />
    <glyph glyph-name="glyph269" vert-adv-y="2458" 
 />
    <glyph glyph-name="glyph270" vert-adv-y="2458" 
 />
    <glyph glyph-name="glyph271" vert-adv-y="2458" 
 />
    <glyph glyph-name="glyph272" vert-adv-y="2458" 
 />
    <glyph glyph-name="glyph273" vert-adv-y="2458" 
 />
    <glyph glyph-name="glyph274" vert-adv-y="2458" 
 />
    <glyph glyph-name="glyph275" vert-adv-y="2458" 
 />
    <glyph glyph-name="glyph276" vert-adv-y="2458" 
 />
    <glyph glyph-name="glyph277" vert-adv-y="2458" 
 />
    <glyph glyph-name="glyph278" vert-adv-y="2458" 
 />
    <glyph glyph-name="glyph279" vert-adv-y="2458" 
 />
    <glyph glyph-name="glyph280" vert-adv-y="2458" 
 />
    <glyph glyph-name="glyph281" vert-adv-y="2458" 
 />
    <glyph glyph-name="glyph282" vert-adv-y="2458" 
 />
    <glyph glyph-name="glyph283" vert-adv-y="2458" 
 />
    <glyph glyph-name="glyph284" vert-adv-y="2458" 
 />
    <glyph glyph-name="glyph285" vert-adv-y="2458" 
 />
    <glyph glyph-name="glyph286" vert-adv-y="2458" 
 />
    <glyph glyph-name="glyph287" vert-adv-y="2458" 
 />
    <glyph glyph-name="glyph288" vert-adv-y="2458" 
 />
    <glyph glyph-name="glyph289" vert-adv-y="2458" 
 />
    <glyph glyph-name="glyph290" vert-adv-y="2458" 
 />
    <glyph glyph-name="glyph291" vert-adv-y="2458" 
 />
    <glyph glyph-name="glyph292" vert-adv-y="2458" 
 />
    <glyph glyph-name="glyph293" vert-adv-y="2458" 
 />
    <glyph glyph-name="glyph294" vert-adv-y="2458" 
 />
    <glyph glyph-name="glyph295" vert-adv-y="2458" 
 />
    <glyph glyph-name="glyph296" vert-adv-y="2458" 
 />
    <glyph glyph-name="glyph297" vert-adv-y="2458" 
 />
    <glyph glyph-name="glyph298" vert-adv-y="2458" 
 />
    <glyph glyph-name="glyph299" vert-adv-y="2458" 
 />
    <glyph glyph-name="glyph300" vert-adv-y="2458" 
 />
    <glyph glyph-name="glyph301" vert-adv-y="2458" 
 />
    <glyph glyph-name="glyph302" vert-adv-y="2458" 
 />
    <glyph glyph-name="glyph303" vert-adv-y="2458" 
 />
    <glyph glyph-name="glyph304" vert-adv-y="2458" 
 />
    <glyph glyph-name="glyph305" vert-adv-y="2458" 
 />
    <glyph glyph-name="glyph306" vert-adv-y="2458" 
 />
    <glyph glyph-name="glyph307" vert-adv-y="2458" 
 />
    <glyph glyph-name="glyph308" vert-adv-y="2458" 
 />
    <glyph glyph-name="glyph309" vert-adv-y="2458" 
 />
    <glyph glyph-name="glyph310" vert-adv-y="2458" 
 />
    <glyph glyph-name="glyph311" vert-adv-y="2458" 
 />
    <glyph glyph-name="glyph312" vert-adv-y="2458" 
 />
    <glyph glyph-name="glyph313" vert-adv-y="2458" 
 />
    <glyph glyph-name="glyph314" vert-adv-y="2458" 
 />
    <glyph glyph-name="glyph315" vert-adv-y="2458" 
 />
    </font>
</defs>
</svg>
